<?xml version="1.0" standalone="no"?>
<!DOCTYPE svg PUBLIC "-//W3C//DTD SVG 1.1//EN"
  "http://www.w3.org/Graphics/SVG/1.1/DTD/svg11.dtd">
<!-- Created with matplotlib (http://matplotlib.sourceforge.net/) -->
<svg width="585pt" height="441pt" viewBox="0 0 585 441"
   xmlns="http://www.w3.org/2000/svg"
   xmlns:xlink="http://www.w3.org/1999/xlink"
   version="1.1"
   id="svg1">
<g id="figure1">
<g id="patch1">
<path style="fill: #ffffff; stroke: #ffffff; stroke-width: 1.000000; stroke-linejoin: round; stroke-linecap: square;  opacity: 1.000000"  d="M0.000000 441.000000L585.000000 441.000000L585.000000 0.000000
L0.000000 0.000000L0.000000 441.000000"/>
</g>
<g id="axes1">
<g id="patch2">
<path style="fill: #ffffff; opacity: 1.000000"  d="M73.125000 396.900000L526.500000 396.900000L526.500000 44.100000
L73.125000 44.100000L73.125000 396.900000"/>
</g>
<g id="line2d1">
<defs>
  <clipPath id="pc3c5e41676658680e7b95047b5791c8e">
<rect x="73.125000" y="44.100000" width="453.375000" height="352.800000"/>
  </clipPath>
</defs><path style="fill: none; stroke: #808080; stroke-width: 1.000000; stroke-linejoin: round; stroke-linecap: square;  opacity: 1.000000" clip-path="url(#pc3c5e41676658680e7b95047b5791c8e)" d="M73.125000 44.100000L77.658750 44.100000L82.192500 44.100000
L86.726250 44.100000L91.260000 44.100000L95.793750 44.100000
L100.327500 44.100000L104.861250 44.100000L109.395000 44.100000
L113.928750 44.100000L118.462500 44.100000L122.996250 44.100000
L127.530000 44.100000L132.063750 44.100000L136.597500 44.100000
L141.131250 44.100000L145.665000 44.100000L150.198750 44.100000
L154.732500 44.100000L159.266250 44.100000L163.800000 44.100000
L168.333750 44.100000L172.867500 44.100000L177.401250 44.100000
L181.935000 44.100000L186.468750 44.100000L191.002500 44.100000
L195.536250 44.100000L200.070000 44.100000L204.603750 44.100000
L209.137500 44.100000L213.671250 44.100000L218.205000 44.100000
L222.738750 44.100000L227.272500 44.100000L231.806250 44.100000
L236.340000 44.100000L240.873750 44.100000L245.407500 44.100000
L249.941250 44.100000L254.475000 44.100000L259.008750 44.100000
L263.542500 44.100000L268.076250 44.100220L272.610000 44.101323
L277.143750 44.107276L281.677500 44.141895L286.211250 44.344534
L290.745000 45.525753L295.278750 52.410424L299.812500 92.537235
L304.346250 326.412765L308.880000 366.539576L313.413750 373.424247
L317.947500 374.605466L322.481250 374.808105L327.015000 374.842724
L331.548750 374.848677L336.082500 374.849780L340.616250 374.850000
L345.150000 374.850000L349.683750 374.850000L354.217500 374.850000
L358.751250 374.850000L363.285000 374.850000L367.818750 374.850000
L372.352500 374.850000L376.886250 374.850000L381.420000 374.850000
L385.953750 374.850000L390.487500 374.850000L395.021250 374.850000
L399.555000 374.850000L404.088750 374.850000L408.622500 374.850000
L413.156250 374.850000L417.690000 374.850000L422.223750 374.850000
L426.757500 374.850000L431.291250 374.850000L435.825000 374.850000
L440.358750 374.850000L444.892500 374.850000L449.426250 374.850000
L453.960000 374.850000L458.493750 374.850000L463.027500 374.850000
L467.561250 374.850000L472.095000 374.850000L476.628750 374.850000
L481.162500 374.850000L485.696250 374.850000L490.230000 374.850000
L494.763750 374.850000L499.297500 374.850000L503.831250 374.850000
L508.365000 374.850000L512.898750 374.850000L517.432500 374.850000
L521.966250 374.850000L526.500000 374.850000"/>
</g>
<g id="line2d2">
<path style="fill: none; stroke: #797979; stroke-width: 1.000000; stroke-linejoin: round; stroke-linecap: square;  opacity: 1.000000" clip-path="url(#pc3c5e41676658680e7b95047b5791c8e)" d="M73.125000 44.100000L77.658750 44.100220L82.192500 44.100220
L86.726250 44.100441L91.260000 44.100882L95.793750 44.101323
L100.327500 44.101984L104.861250 44.103087L109.395000 44.104851
L113.928750 44.107276L118.462500 44.111025L122.996250 44.116317
L127.530000 44.124034L132.063750 44.135280L136.597500 44.151376
L141.131250 44.174308L145.665000 44.206281L150.198750 44.251042
L154.732500 44.312782L159.266250 44.397234L163.800000 44.511673
L168.333750 44.665803L172.867500 44.870868L177.401250 45.141862
L181.935000 45.496426L186.468750 45.955728L191.002500 46.545786
L195.536250 47.296588L200.070000 48.242754L204.603750 49.424193
L209.137500 50.885226L213.671250 52.675245L218.205000 54.846949
L222.738750 57.456787L227.272500 60.562971L231.806250 64.223932
L236.340000 68.496781L240.873750 73.435761L245.407500 79.088278
L249.941250 85.494024L254.475000 92.682324L259.008750 100.668613
L263.542500 109.454216L268.076250 119.022593L272.610000 129.340449
L277.143750 140.355306L281.677500 151.996824L286.211250 164.178126
L290.745000 176.796239L295.278750 189.736281L299.812500 202.873230
L304.346250 216.076770L308.880000 229.213719L313.413750 242.153762
L317.947500 254.771918L322.481250 266.953110L327.015000 278.594760
L331.548750 289.609551L336.082500 299.927408L340.616250 309.495785
L345.150000 318.281387L349.683750 326.267676L354.217500 333.455976
L358.751250 339.861722L363.285000 345.514239L367.818750 350.453219
L372.352500 354.726068L376.886250 358.387029L381.420000 361.493213
L385.953750 364.103051L390.487500 366.274755L395.021250 368.064774
L399.555000 369.525807L404.088750 370.707246L408.622500 371.653412
L413.156250 372.404214L417.690000 372.994272L422.223750 373.453574
L426.757500 373.808138L431.291250 374.079132L435.825000 374.284197
L440.358750 374.438327L444.892500 374.552766L449.426250 374.637218
L453.960000 374.698958L458.493750 374.743719L463.027500 374.775692
L467.561250 374.798624L472.095000 374.814720L476.628750 374.825966
L481.162500 374.833683L485.696250 374.838975L490.230000 374.842724
L494.763750 374.845149L499.297500 374.846913L503.831250 374.848016
L508.365000 374.848677L512.898750 374.849118L517.432500 374.849559
L521.966250 374.849780L526.500000 374.850000"/>
</g>
<g id="line2d3">
<path style="fill: none; stroke: #737373; stroke-width: 1.000000; stroke-linejoin: round; stroke-linecap: square;  opacity: 1.000000" clip-path="url(#pc3c5e41676658680e7b95047b5791c8e)" d="M73.125000 44.100000L77.658750 44.133957L82.192500 44.169898
L86.726250 44.209588L91.260000 44.255452L95.793750 44.309475
L100.327500 44.374743L104.861250 44.453682L109.395000 44.550261
L113.928750 44.668228L118.462500 44.811994L122.996250 44.987071
L127.530000 45.199413L132.063750 45.455854L136.597500 45.764334
L141.131250 46.133671L145.665000 46.573789L150.198750 47.096154
L154.732500 47.712672L159.266250 48.437235L163.800000 49.284396
L168.333750 50.270251L172.867500 51.411780L177.401250 52.727283
L181.935000 54.235944L186.468750 55.957608L191.002500 57.912340
L195.536250 60.121309L200.070000 62.605021L204.603750 65.383983
L209.137500 68.478039L213.671250 71.905932L218.205000 75.684641
L222.738750 79.829600L227.272500 84.353819L231.806250 89.267661
L236.340000 94.577742L240.873750 100.287810L245.407500 106.397424
L249.941250 112.901953L254.475000 119.792358L259.008750 127.055187
L263.542500 134.672359L268.076250 142.621385L272.610000 150.874920
L277.143750 159.402096L281.677500 168.167853L286.211250 177.133824
L290.745000 186.258555L295.278750 195.498608L299.812500 204.808338
L304.346250 214.141662L308.880000 223.451393L313.413750 232.691445
L317.947500 241.816176L322.481250 250.782191L327.015000 259.547948
L331.548750 268.075124L336.082500 276.328726L340.616250 284.277596
L345.150000 291.894813L349.683750 299.157642L354.217500 306.048047
L358.751250 312.552576L363.285000 318.662190L367.818750 324.372258
L372.352500 329.682339L376.886250 334.596182L381.420000 339.120401
L385.953750 343.265360L390.487500 347.044068L395.021250 350.471961
L399.555000 353.566017L404.088750 356.344979L408.622500 358.828691
L413.156250 361.037660L417.690000 362.992613L422.223750 364.714056
L426.757500 366.222717L431.291250 367.538220L435.825000 368.679969
L440.358750 369.665825L444.892500 370.512986L449.426250 371.237549
L453.960000 371.854287L458.493750 372.376652L463.027500 372.816990
L467.561250 373.186769L472.095000 373.495469L476.628750 373.752351
L481.162500 373.965134L485.696250 374.141093L490.230000 374.285961
L494.763750 374.405031L499.297500 374.503374L503.831250 374.584739
L508.365000 374.652653L512.898750 374.710424L517.432500 374.760918
L521.966250 374.806562L526.500000 374.850000"/>
</g>
<g id="line2d4">
<path style="fill: none; stroke: #6d6d6d; stroke-width: 1.000000; stroke-linejoin: round; stroke-linecap: square;  opacity: 1.000000" clip-path="url(#pc3c5e41676658680e7b95047b5791c8e)" d="M73.125000 44.100000L77.658750 44.321161L82.192500 44.547615
L86.726250 44.785093L91.260000 45.039109L95.793750 45.315396
L100.327500 45.619906L104.861250 45.959035L109.395000 46.339398
L113.928750 46.768050L118.462500 47.251827L122.996250 47.799108
L127.530000 48.417610L132.063750 49.116375L136.597500 49.904221
L141.131250 50.791072L145.665000 51.786409L150.198750 52.901037
L154.732500 54.145539L159.266250 55.530940L163.800000 57.068487
L168.333750 58.769424L172.867500 60.645217L177.401250 62.707334
L181.935000 64.967017L186.468750 67.434633L191.002500 70.120984
L195.536250 73.035774L200.070000 76.187821L204.603750 79.585285
L209.137500 83.235222L213.671250 87.143364L218.205000 91.314121
L222.738750 95.750361L227.272500 100.453406L231.806250 105.422814
L236.340000 110.655940L240.873750 116.148595L245.407500 121.894384
L249.941250 127.885149L254.475000 134.110525L259.008750 140.557945
L263.542500 147.213517L268.076250 154.060484L272.610000 161.081424
L277.143750 168.256274L281.677500 175.564305L286.211250 182.983028
L290.745000 190.489068L295.278750 198.058172L299.812500 205.665201
L304.346250 213.284799L308.880000 220.891829L313.413750 228.460932
L317.947500 235.966973L322.481250 243.385651L327.015000 250.693682
L331.548750 257.868642L336.082500 264.889468L340.616250 271.736571
L345.150000 278.391988L349.683750 284.839519L354.217500 291.064851
L358.751250 297.055616L363.285000 302.801625L367.818750 308.294280
L372.352500 313.527407L376.886250 318.496595L381.420000 323.199860
L385.953750 327.636099L390.487500 331.806857L395.021250 335.715219
L399.555000 339.365376L404.088750 342.762840L408.622500 345.915329
L413.156250 348.830118L417.690000 351.516911L422.223750 353.985188
L426.757500 356.245313L431.291250 358.308090L435.825000 360.184766
L440.358750 361.886805L444.892500 363.425675L449.426250 364.812620
L453.960000 366.059106L458.493750 367.176159L463.027500 368.174583
L467.561250 369.064962L472.095000 369.857439L476.628750 370.561496
L481.162500 371.186613L485.696250 371.741391L490.230000 372.234650
L494.763750 372.674106L499.297500 373.067699L503.831250 373.422263
L508.365000 373.745295L512.898750 374.043191L517.432500 374.322344
L521.966250 374.589149L526.500000 374.850000"/>
</g>
<g id="line2d5">
<path style="fill: none; stroke: #676767; stroke-width: 1.000000; stroke-linejoin: round; stroke-linecap: square;  opacity: 1.000000" clip-path="url(#pc3c5e41676658680e7b95047b5791c8e)" d="M73.125000 44.100000L77.658750 44.647942L82.192500 45.203161
L86.726250 45.773154L91.260000 46.364976L95.793750 46.986125
L100.327500 47.644096L104.861250 48.346609L109.395000 49.100940
L113.928750 49.915246L118.462500 50.797026L122.996250 51.754216
L127.530000 52.794976L132.063750 53.927244L136.597500 55.159177
L141.131250 56.498935L145.665000 57.954456L150.198750 59.533897
L154.732500 61.245198L159.266250 63.096075L163.800000 65.094466
L168.333750 67.247428L172.867500 69.562237L177.401250 72.045288
L181.935000 74.703195L186.468750 77.541250L191.002500 80.564746
L195.536250 83.778093L200.070000 87.185038L204.603750 90.788449
L209.137500 94.590531L213.671250 98.591944L218.205000 102.792910
L222.738750 107.192547L227.272500 111.789090L231.806250 116.579011
L236.340000 121.558342L240.873750 126.721570L245.407500 132.062081
L249.941250 137.572375L254.475000 143.243636L259.008750 149.065718
L263.542500 155.028038L268.076250 161.118468L272.610000 167.324441
L277.143750 173.632284L281.677500 180.027445L286.211250 186.495152
L290.745000 193.019746L295.278750 199.585354L299.812500 206.175658
L304.346250 212.774342L308.880000 219.364646L313.413750 225.930254
L317.947500 232.455069L322.481250 238.922775L327.015000 245.318047
L331.548750 251.625868L336.082500 257.831863L340.616250 263.922450
L345.150000 269.884812L349.683750 275.707092L354.217500 281.378396
L358.751250 286.888801L363.285000 292.229532L367.818750 297.393201
L372.352500 302.372753L376.886250 307.163115L381.420000 311.760099
L385.953750 316.160618L390.487500 320.362466L395.021250 324.364761
L399.555000 328.167725L404.088750 331.772459L408.622500 335.180948
L413.156250 338.396279L417.690000 341.422200L422.223750 344.262902
L426.757500 346.923896L431.291250 349.410695L435.825000 351.729914
L440.358750 353.888168L444.892500 355.892513L449.426250 357.750446
L453.960000 359.469905L458.493750 361.058828L463.027500 362.525373
L467.561250 363.877920L472.095000 365.124407L476.628750 366.273653
L481.162500 367.333817L485.696250 368.313278L490.230000 369.220194
L494.763750 370.063166L499.297500 370.850130L503.831250 371.589467
L508.365000 372.289113L512.898750 372.957008L517.432500 373.601088
L521.966250 374.229513L526.500000 374.850000"/>
</g>
<g id="line2d6">
<path style="fill: none; stroke: #616161; stroke-width: 1.000000; stroke-linejoin: round; stroke-linecap: square;  opacity: 1.000000" clip-path="url(#pc3c5e41676658680e7b95047b5791c8e)" d="M73.125000 44.100000L77.658750 45.023895L82.192500 45.955066
L86.726250 46.901673L91.260000 47.870550L95.793750 48.869635
L100.327500 49.906426L104.861250 50.987979L109.395000 52.122011
L113.928750 53.315797L118.462500 54.576616L122.996250 55.911523
L127.530000 57.327795L132.063750 58.832046L136.597500 60.431553
L141.131250 62.132490L145.665000 63.941693L150.198750 65.864893
L154.732500 67.908487L159.266250 70.077766L163.800000 72.378243
L168.333750 74.814768L172.867500 77.391972L177.401250 80.113824
L181.935000 82.984072L186.468750 86.005584L191.002500 89.181445
L195.536250 92.512980L200.070000 96.002172L204.603750 99.649242
L209.137500 103.454631L213.671250 107.417236L218.205000 111.536176
L222.738750 115.809025L227.272500 120.233137L231.806250 124.804985
L236.340000 129.519936L240.873750 134.373141L245.407500 139.358646
L249.941250 144.470277L254.475000 149.700317L259.008750 155.041268
L263.542500 160.484531L268.076250 166.021065L272.610000 171.641169
L277.143750 177.334699L281.677500 183.091293L286.211250 188.899924
L290.745000 194.749349L295.278750 200.628099L299.812500 206.524490
L304.346250 212.426834L308.880000 218.323224L313.413750 224.201975
L317.947500 230.051399L322.481250 235.860251L327.015000 241.617065
L331.548750 247.310970L336.082500 252.931427L340.616250 258.468380
L345.150000 263.912190L349.683750 269.253807L354.217500 274.484728
L358.751250 279.597109L363.285000 284.583805L367.818750 289.438223
L372.352500 294.154718L376.886250 298.728329L381.420000 303.154425
L385.953750 307.429700L390.487500 311.551286L395.021250 315.517199
L399.555000 319.326336L404.088750 322.977596L408.622500 326.471639
L413.156250 329.808906L417.690000 332.991162L422.223750 336.020171
L426.757500 338.898798L431.291250 341.630352L435.825000 344.218361
L440.358750 346.667234L444.892500 348.981822L449.426250 351.166977
L453.960000 353.228432L458.493750 355.171919L463.027500 357.003392
L467.561250 358.729686L472.095000 360.357417L476.628750 361.893200
L481.162500 363.344310L485.696250 364.718025L490.230000 366.021842
L494.763750 367.263036L499.297500 368.449326L503.831250 369.588429
L508.365000 370.688283L512.898750 371.756385L517.432500 372.800673
L521.966250 373.829306L526.500000 374.850000"/>
</g>
<g id="line2d7">
<path style="fill: none; stroke: #5b5b5b; stroke-width: 1.000000; stroke-linejoin: round; stroke-linecap: square;  opacity: 1.000000" clip-path="url(#pc3c5e41676658680e7b95047b5791c8e)" d="M73.125000 44.100000L77.658750 45.388161L82.192500 46.683157
L86.726250 47.992045L91.260000 49.321881L95.793750 50.679279
L100.327500 52.071075L104.861250 53.504104L109.395000 54.984982
L113.928750 56.520103L118.462500 58.115862L122.996250 59.778432
L127.530000 61.514208L132.063750 63.328482L136.597500 65.227207
L141.131250 67.215676L145.665000 69.299181L150.198750 71.482572
L154.732500 73.770259L159.266250 76.166433L163.800000 78.675282
L168.333750 81.299893L172.867500 84.043795L177.401250 86.909413
L181.935000 89.899173L186.468750 93.014838L191.002500 96.257952
L195.536250 99.628956L200.070000 103.128732L204.603750 106.756618
L209.137500 110.512175L213.671250 114.394297L218.205000 118.401003
L222.738750 122.530086L227.272500 126.778680L231.806250 131.143477
L236.340000 135.620509L240.873750 140.205366L245.407500 144.893196
L249.941250 149.678267L254.475000 154.555065L259.008750 159.517197
L263.542500 164.557606L268.076250 169.669458L272.610000 174.845034
L277.143750 180.076617L281.677500 185.356049L286.211250 190.674950
L290.745000 196.024941L295.278750 201.396983L299.812500 206.782695
L304.346250 212.172818L308.880000 217.558530L313.413750 222.931013
L317.947500 228.281225L322.481250 233.600787L327.015000 238.881101
L331.548750 244.113543L336.082500 249.290266L340.616250 254.403374
L345.150000 259.445416L349.683750 264.409261L354.217500 269.288183
L358.751250 274.075855L363.285000 278.766441L367.818750 283.354561
L372.352500 287.835408L376.886250 292.204395L381.420000 296.457840
L385.953750 300.592436L390.487500 304.605315L395.021250 308.494274
L399.555000 312.257768L404.088750 315.894474L408.622500 319.404173
L413.156250 322.786422L417.690000 326.041884L422.223750 329.171441
L426.757500 332.176856L431.291250 335.059673L435.825000 337.822758
L440.358750 340.468758L444.892500 343.000980L449.426250 345.423173
L453.960000 347.739525L458.493750 349.954227L463.027500 352.072350
L467.561250 354.098745L472.095000 356.038925L476.628750 357.898622
L481.162500 359.683569L485.696250 361.399941L490.230000 363.053912
L494.763750 364.652096L499.297500 366.201329L503.831250 367.708005
L508.365000 369.179181L512.898750 370.621913L517.432500 372.043256
L521.966250 373.450266L526.500000 374.850000"/>
</g>
<g id="line2d8">
<path style="fill: none; stroke: #555555; stroke-width: 1.000000; stroke-linejoin: round; stroke-linecap: square;  opacity: 1.000000" clip-path="url(#pc3c5e41676658680e7b95047b5791c8e)" d="M73.125000 44.100000L77.658750 45.714501L82.192500 47.334955
L86.726250 48.967758L91.260000 50.618641L95.793750 52.293559
L100.327500 53.998686L104.861250 55.739754L109.395000 57.522276
L113.928750 59.351764L118.462500 61.233952L122.996250 63.174132
L127.530000 65.176934L132.063750 67.247649L136.597500 69.390688
L141.131250 71.610462L145.665000 73.911379L150.198750 76.297190
L154.732500 78.771420L159.266250 81.337378L163.800000 83.997932
L168.333750 86.756166L172.867500 89.613846L177.401250 92.572956
L181.935000 95.635480L186.468750 98.802081L191.002500 102.073639
L195.536250 105.450597L200.070000 108.932953L204.603750 112.520047
L209.137500 116.211217L213.671250 120.004920L218.205000 123.899612
L222.738750 127.893087L227.272500 131.982480L231.806250 136.165365
L236.340000 140.437994L240.873750 144.796617L245.407500 149.237267
L249.941250 153.755532L254.475000 158.346122L259.008750 163.004404
L263.542500 167.724648L268.076250 172.501119L272.610000 177.328085
L277.143750 182.198929L281.677500 187.107700L286.211250 192.047342
L290.745000 197.011458L295.278750 201.992994L299.812500 206.985114
L304.346250 211.980983L308.880000 216.973544L313.413750 221.955741
L317.947500 226.920740L322.481250 231.861704L327.015000 236.771798
L331.548750 241.644848L336.082500 246.473974L340.616250 251.253289
L345.150000 255.976752L349.683750 260.638673L354.217500 265.233649
L358.751250 269.756569L363.285000 274.202643L367.818750 278.567462
L372.352500 282.846948L376.886250 287.037419L381.420000 291.135632
L385.953750 295.138589L390.487500 299.043864L395.021250 302.849253
L399.555000 306.553433L404.088750 310.155080L408.622500 313.653312
L413.156250 317.047689L417.690000 320.338652L422.223750 323.526420
L426.757500 326.611877L431.291250 329.596565L435.825000 332.481807
L440.358750 335.270030L444.892500 337.963658L449.426250 340.565117
L453.960000 343.078155L458.493750 345.505640L463.027500 347.851980
L467.561250 350.120705L472.095000 352.316444L476.628750 354.443828
L481.162500 356.507708L485.696250 358.512935L490.230000 360.465242
L494.763750 362.369480L499.297500 364.231823L503.831250 366.057563
L508.365000 367.852874L512.898750 369.623709L517.432500 371.376243
L521.966250 373.116209L526.500000 374.850000"/>
</g>
<g id="line2d9">
<path style="fill: none; stroke: #4f4f4f; stroke-width: 1.000000; stroke-linejoin: round; stroke-linecap: square;  opacity: 1.000000" clip-path="url(#pc3c5e41676658680e7b95047b5791c8e)" d="M73.125000 44.100000L77.658750 45.995638L82.192500 47.896569
L86.726250 49.807863L91.260000 51.734592L95.793750 53.681827
L100.327500 55.654641L104.861250 57.657883L109.395000 59.696406
L113.928750 61.775059L118.462500 63.898033L122.996250 66.069738
L127.530000 68.294803L132.063750 70.576978L136.597500 72.920232
L141.131250 75.327872L145.665000 77.803646L150.198750 80.350641
L154.732500 82.971724L159.266250 85.669321L163.800000 88.446078
L168.333750 91.303978L172.867500 94.244346L177.401250 97.269165
L181.935000 100.379317L186.468750 103.575685L191.002500 106.858489
L195.536250 110.228170L200.070000 113.684287L204.603750 117.226399
L209.137500 120.853624L213.671250 124.564860L218.205000 128.358342
L222.738750 132.232086L227.272500 136.184107L231.806250 140.211981
L236.340000 144.312399L240.873750 148.482715L245.407500 152.719182
L249.941250 157.018270L254.475000 161.376012L259.008750 165.787996
L263.542500 170.250034L268.076250 174.757275L272.610000 179.305088
L277.143750 183.888180L281.677500 188.501702L286.211250 193.140140
L290.745000 197.798202L295.278750 202.470597L299.812500 207.151371
L304.346250 211.835232L308.880000 216.516668L313.413750 221.189945
L317.947500 225.849771L322.481250 230.490194L327.015000 235.106582
L331.548750 239.692982L336.082500 244.244653L340.616250 248.756502
L345.150000 253.223766L349.683750 257.641814L354.217500 262.006259
L358.751250 266.312954L363.285000 270.557998L367.818750 274.737730
L372.352500 278.848820L376.886250 282.888204L381.420000 286.853081
L385.953750 290.740937L390.487500 294.549854L395.021250 298.278068
L399.555000 301.923815L404.088750 305.486213L408.622500 308.964380
L413.156250 312.357875L417.690000 315.666698L422.223750 318.891069
L426.757500 322.031651L431.291250 325.089324L435.825000 328.065192
L440.358750 330.961239L444.892500 333.779009L449.426250 336.520706
L453.960000 339.188976L458.493750 341.786466L463.027500 344.316263
L467.561250 346.781673L472.095000 349.186446L476.628750 351.533889
L481.162500 353.828412L485.696250 356.073984L490.230000 358.275015
L494.763750 360.436136L499.297500 362.561756L503.831250 364.656947
L508.365000 366.726560L512.898750 368.775666L517.432500 370.809117
L521.966250 372.832205L526.500000 374.850000"/>
</g>
<g id="line2d10">
<path style="fill: none; stroke: #494949; stroke-width: 1.000000; stroke-linejoin: round; stroke-linecap: square;  opacity: 1.000000" clip-path="url(#pc3c5e41676658680e7b95047b5791c8e)" d="M73.125000 44.100000L77.658750 46.233337L82.192500 48.370864
L86.726250 50.517211L91.260000 52.676347L95.793750 54.852903
L100.327500 57.050847L104.861250 59.274148L109.395000 61.527217
L113.928750 63.813582L118.462500 66.137211L122.996250 68.501632
L127.530000 70.910595L132.063750 73.367186L136.597500 75.874711
L141.131250 78.436039L145.665000 81.054036L150.198750 83.731347
L154.732500 86.470177L159.266250 89.272512L163.800000 92.140555
L168.333750 95.075851L172.867500 98.079723L177.401250 101.153052
L181.935000 104.297162L186.468750 107.512272L191.002500 110.798824
L195.536250 114.156819L200.070000 117.585814L204.603750 121.085811
L209.137500 124.655485L213.671250 128.294176L218.205000 132.000120
L222.738750 135.771993L227.272500 139.608032L231.806250 143.505589
L236.340000 147.462903L240.873750 151.477106L245.407500 155.545331
L249.941250 159.664491L254.475000 163.831500L259.008750 168.042830
L263.542500 172.294731L268.076250 176.583456L272.610000 180.905256
L277.143750 185.255942L281.677500 189.631323L286.211250 194.027211
L290.745000 198.438975L295.278750 202.862205L299.812500 207.292932
L304.346250 211.726085L308.880000 216.157252L313.413750 220.582247
L317.947500 224.996436L322.481250 229.395191L327.015000 233.774541
L331.548750 238.130078L336.082500 242.457390L340.616250 246.752818
L345.150000 251.012261L349.683750 255.232035L354.217500 259.408548
L358.751250 263.538396L363.285000 267.618402L367.818750 271.645570
L372.352500 275.617128L376.886250 279.530562L381.420000 283.383557
L385.953750 287.174129L390.487500 290.900358L395.021250 294.560879
L399.555000 298.154367L404.088750 301.679942L408.622500 305.136941
L413.156250 308.524703L417.690000 311.843228L422.223750 315.092736
L426.757500 318.273449L431.291250 321.386247L435.825000 324.432014
L440.358750 327.412292L444.892500 330.327963L449.426250 333.181454
L453.960000 335.974086L458.493750 338.708727L463.027500 341.387361
L467.561250 344.012855L472.095000 346.588295L476.628750 349.116327
L481.162500 351.600701L485.696250 354.044502L490.230000 356.451480
L494.763750 358.825163L499.297500 361.169739L503.831250 363.488738
L508.365000 365.786789L512.898750 368.067641L517.432500 370.335483
L521.966250 372.594947L526.500000 374.850000"/>
</g>
<g id="line2d11">
<path style="fill: none; stroke: #434343; stroke-width: 1.000000; stroke-linejoin: round; stroke-linecap: square;  opacity: 1.000000" clip-path="url(#pc3c5e41676658680e7b95047b5791c8e)" d="M73.125000 44.100000L77.658750 46.431787L82.192500 48.767103
L86.726250 51.109474L91.260000 53.462871L95.793750 55.830600
L100.327500 58.215969L104.861250 60.622726L109.395000 63.053959
L113.928750 65.512975L118.462500 68.003082L122.996250 70.526925
L127.530000 73.087812L132.063750 75.688389L136.597500 78.331081
L141.131250 81.018315L145.665000 83.752736L150.198750 86.536107
L154.732500 89.370634L159.266250 92.257861L163.800000 95.199111
L168.333750 98.196147L172.867500 101.249631L177.401250 104.360886
L181.935000 107.530353L186.468750 110.758473L191.002500 114.045466
L195.536250 117.391334L200.070000 120.795853L204.603750 124.258585
L209.137500 127.778868L213.671250 131.355598L218.205000 134.987895
L222.738750 138.674434L227.272500 142.413453L231.806250 146.203187
L236.340000 150.041871L240.873750 153.927081L245.407500 157.856832
L249.941250 161.828258L254.475000 165.838932L259.008750 169.885989
L263.542500 173.966342L268.076250 178.076903L272.610000 182.214585
L277.143750 186.376081L281.677500 190.557864L286.211250 194.756184
L290.745000 198.967955L295.278750 203.189427L299.812500 207.416853
L304.346250 211.646704L308.880000 215.875012L313.413750 220.098470
L317.947500 224.313327L322.481250 228.515837L327.015000 232.702691
L331.548750 236.870361L336.082500 241.015541L340.616250 245.134635
L345.150000 249.224689L349.683750 253.282639L354.217500 257.305507
L358.751250 261.290538L363.285000 265.235119L367.818750 269.136788
L372.352500 272.993288L376.886250 276.802514L381.420000 280.562590
L385.953750 284.271819L390.487500 287.928680L395.021250 291.532091
L399.555000 295.080818L404.088750 298.573979L408.622500 302.011133
L413.156250 305.391839L417.690000 308.715876L422.223750 311.983686
L426.757500 315.195048L431.291250 318.351065L435.825000 321.451956
L440.358750 324.499046L444.892500 327.493656L449.426250 330.436670
L453.960000 333.330291L458.493750 336.175844L463.027500 338.975753
L467.561250 341.731782L472.095000 344.446578L476.628750 347.122787
L481.162500 349.762613L485.696250 352.369143L490.230000 354.945465
L494.763750 357.494445L499.297500 360.019391L503.831250 362.523389
L508.365000 365.009967L512.898750 367.482213L517.432500 369.944096
L521.966250 372.398922L526.500000 374.850000"/>
</g>
<g id="line2d12">
<path style="fill: none; stroke: #3d3d3d; stroke-width: 1.000000; stroke-linejoin: round; stroke-linecap: square;  opacity: 1.000000" clip-path="url(#pc3c5e41676658680e7b95047b5791c8e)" d="M73.125000 44.100000L77.658750 46.596501L82.192500 49.096089
L86.726250 51.601410L91.260000 54.115772L95.793750 56.642260
L100.327500 59.183302L104.861250 61.741764L109.395000 64.320952
L113.928750 66.922852L118.462500 69.550551L122.996250 72.206253
L127.530000 74.892604L132.063750 77.611810L136.597500 80.365855
L141.131250 83.156724L145.665000 85.986621L150.198750 88.857090
L154.732500 91.769674L159.266250 94.725918L163.800000 97.726923
L168.333750 100.773792L172.867500 103.867627L177.401250 107.008871
L181.935000 110.198183L186.468750 113.435784L191.002500 116.722116
L195.536250 120.056958L200.070000 123.440089L204.603750 126.871290
L209.137500 130.349898L213.671250 133.875252L218.205000 137.446029
L222.738750 141.061567L227.272500 144.720324L231.806250 148.420755
L236.340000 152.161538L240.873750 155.940908L245.407500 159.756660
L249.941250 163.606810L254.475000 167.489154L259.008750 171.401486
L263.542500 175.341380L268.076250 179.306190L272.610000 183.293492
L277.143750 187.300197L281.677500 191.323661L286.211250 195.361236
L290.745000 199.409837L295.278750 203.466375L299.812500 207.528206
L304.346250 211.592021L308.880000 215.654954L313.413750 219.714138
L317.947500 223.766267L322.481250 227.808914L327.015000 231.838772
L331.548750 235.852974L336.082500 239.849096L340.616250 243.824270
L345.150000 247.775850L349.683750 251.701345L354.217500 255.598418
L358.751250 259.464731L363.285000 263.298175L367.818750 267.096722
L372.352500 270.858518L376.886250 274.581837L381.420000 278.265113
L385.953750 281.906957L390.487500 285.506178L395.021250 289.061609
L399.555000 292.572630L404.088750 296.038229L408.622500 299.458184
L413.156250 302.832054L417.690000 306.159620L422.223750 309.441101
L426.757500 312.676497L431.291250 315.866691L435.825000 319.011683
L440.358750 322.112795L444.892500 325.170689L449.426250 328.186688
L453.960000 331.161894L458.493750 334.098072L463.027500 336.996545
L467.561250 339.859296L472.095000 342.688091L476.628750 345.485133
L481.162500 348.252408L485.696250 350.992562L490.230000 353.707799
L494.763750 356.400545L499.297500 359.073446L503.831250 361.729368
L508.365000 364.370958L512.898750 367.000862L517.432500 369.622166
L521.966250 372.237516L526.500000 374.850000"/>
</g>
<g id="line2d13">
<path style="fill: none; stroke: #373737; stroke-width: 1.000000; stroke-linejoin: round; stroke-linecap: square;  opacity: 1.000000" clip-path="url(#pc3c5e41676658680e7b95047b5791c8e)" d="M73.125000 44.100000L77.658750 46.732990L82.192500 49.368406
L86.726250 52.008673L91.260000 54.656437L95.793750 57.313903
L100.327500 59.983717L104.861250 62.668084L109.395000 65.369209
L113.928750 68.089297L118.462500 70.830774L122.996250 73.595403
L127.530000 76.385169L132.063750 79.202277L136.597500 82.048050
L141.131250 84.924472L145.665000 87.832867L150.198750 90.774999
L154.732500 93.751749L159.266250 96.764661L163.800000 99.814396
L168.333750 102.902278L172.867500 106.028527L177.401250 109.194246
L181.935000 112.399434L186.468750 115.644753L191.002500 118.929982
L195.536250 122.255563L200.070000 125.620835L204.603750 129.025575
L209.137500 132.469564L213.671250 135.951921L218.205000 139.472204
L222.738750 143.029089L227.272500 146.621696L231.806250 150.248700
L236.340000 153.909000L240.873750 157.601052L245.407500 161.323092
L249.941250 165.073577L254.475000 168.850962L259.008750 172.652823
L263.542500 176.477616L268.076250 180.322915L272.610000 184.186737
L277.143750 188.066876L281.677500 191.960905L286.211250 195.866622
L290.745000 199.781599L295.278750 203.703413L299.812500 207.629636
L304.346250 211.557843L308.880000 215.485389L313.413750 219.410069
L317.947500 223.329456L322.481250 227.240906L327.015000 231.142433
L331.548750 235.031171L336.082500 238.905356L340.616250 242.762628
L345.150000 246.600739L349.683750 250.417727L354.217500 254.211628
L358.751250 257.980546L363.285000 261.722740L367.818750 265.436557
L372.352500 269.120448L376.886250 272.773031L381.420000 276.393002
L385.953750 279.979214L390.487500 283.530653L395.021250 287.046459
L399.555000 290.525949L404.088750 293.968395L408.622500 297.373577
L413.156250 300.741273L417.690000 304.071044L422.223750 307.363109
L426.757500 310.617689L431.291250 313.835004L435.825000 317.015937
L440.358750 320.160488L444.892500 323.269979L449.426250 326.345072
L453.960000 329.386869L458.493750 332.396474L463.027500 335.375649
L467.561250 338.325278L472.095000 341.247123L476.628750 344.143170
L481.162500 347.014742L485.696250 349.864263L490.230000 352.693058
L494.763750 355.503771L499.297500 358.297947L503.831250 361.078452
L508.365000 363.847050L512.898750 366.605946L517.432500 369.358007
L521.966250 372.105216L526.500000 374.850000"/>
</g>
<g id="line2d14">
<path style="fill: none; stroke: #313131; stroke-width: 1.000000; stroke-linejoin: round; stroke-linecap: square;  opacity: 1.000000" clip-path="url(#pc3c5e41676658680e7b95047b5791c8e)" d="M73.125000 44.100000L77.658750 46.845666L82.192500 49.593537
L86.726250 52.345156L91.260000 55.103170L95.793750 57.869343
L100.327500 60.645438L104.861250 63.433440L109.395000 66.235554
L113.928750 69.053323L118.462500 71.888512L122.996250 74.743105
L127.530000 77.618426L132.063750 80.516236L136.597500 83.437641
L141.131250 86.384623L145.665000 89.357845L150.198750 92.358850
L154.732500 95.388520L159.266250 98.447958L163.800000 101.538045
L168.333750 104.659443L172.867500 107.812593L177.401250 110.998156
L181.935000 114.216575L186.468750 117.468067L191.002500 120.752415
L195.536250 124.070058L200.070000 127.420335L204.603750 130.803687
L209.137500 134.219011L213.671250 137.666308L218.205000 141.144475
L222.738750 144.653292L227.272500 148.191435L231.806250 151.758243
L236.340000 155.352393L240.873750 158.972562L245.407500 162.617868
L249.941250 166.286768L254.475000 169.977717L259.008750 173.688952
L263.542500 177.419372L268.076250 181.166549L272.610000 184.929381
L277.143750 188.705664L281.677500 192.493634L286.211250 196.291526
L290.745000 200.096914L295.278750 203.908257L299.812500 207.723569
L304.346250 211.540424L308.880000 215.357279L313.413750 219.171708
L317.947500 222.982169L322.481250 226.786235L327.015000 230.582363
L331.548750 234.368568L336.082500 238.142646L340.616250 241.903274
L345.150000 245.648268L349.683750 249.376217L354.217500 253.085446
L358.751250 256.774411L363.285000 260.441635L367.818750 264.085820
L372.352500 267.705654L376.886250 271.300025L381.420000 274.867825
L385.953750 278.408129L390.487500 281.920121L395.021250 285.403073
L399.555000 288.856323L404.088750 292.279586L408.622500 295.672199
L413.156250 299.034383L417.690000 302.365476L422.223750 305.665920
L426.757500 308.935715L431.291250 312.175301L435.825000 315.384678
L440.358750 318.564729L444.892500 321.716115L449.426250 324.839277
L453.960000 327.935318L458.493750 331.004898L463.027500 334.049562
L467.561250 337.070412L472.095000 340.068330L476.628750 343.045080
L481.162500 346.001985L485.696250 348.940589L490.230000 351.862655
L494.763750 354.769506L499.297500 357.663128L503.831250 360.545504
L508.365000 363.417957L512.898750 366.282914L517.432500 369.141696
L521.966250 371.996951L526.500000 374.850000"/>
</g>
<g id="line2d15">
<path style="fill: none; stroke: #2b2b2b; stroke-width: 1.000000; stroke-linejoin: round; stroke-linecap: square;  opacity: 1.000000" clip-path="url(#pc3c5e41676658680e7b95047b5791c8e)" d="M73.125000 44.100000L77.658750 46.938937L82.192500 49.779418
L86.726250 52.623207L91.260000 55.472287L95.793750 58.327762
L100.327500 61.191837L104.861250 64.065834L109.395000 66.951076
L113.928750 69.849549L118.462500 72.762354L122.996250 75.691035
L127.530000 78.636915L132.063750 81.601317L136.597500 84.585343
L141.131250 87.590317L145.665000 90.617121L150.198750 93.666856
L154.732500 96.740185L159.266250 99.838210L163.800000 102.961372
L168.333750 106.110553L172.867500 109.285974L177.401250 112.488075
L181.935000 115.717298L186.468750 118.973641L191.002500 122.257548
L195.536250 125.568576L200.070000 128.906946L204.603750 132.272437
L209.137500 135.664389L213.671250 139.082801L218.205000 142.526790
L222.738750 145.995916L227.272500 149.489519L231.806250 153.006714
L236.340000 156.546621L240.873750 160.108137L245.407500 163.690380
L249.941250 167.292248L254.475000 170.912196L259.008750 174.549344
L263.542500 178.202146L268.076250 181.869282L272.610000 185.548986
L277.143750 189.240156L281.677500 192.941249L286.211250 196.650279
L290.745000 200.366145L295.278750 204.086862L299.812500 207.811107
L304.346250 211.536896L308.880000 215.262684L313.413750 218.986929
L317.947500 222.707867L322.481250 226.423953L327.015000 230.133645
L331.548750 233.835399L336.082500 237.527672L340.616250 241.208699
L345.150000 244.877422L349.683750 248.532275L354.217500 252.171959
L358.751250 255.795192L363.285000 259.400853L367.818750 262.987753
L372.352500 266.554896L376.886250 270.101321L381.420000 273.626145
L385.953750 277.128590L390.487500 280.607991L395.021250 284.063756
L399.555000 287.495397L404.088750 290.902343L408.622500 294.284592
L413.156250 297.641925L417.690000 300.973901L422.223750 304.280960
L426.757500 307.562882L431.291250 310.820108L435.825000 314.052858
L440.358750 317.261574L444.892500 320.446917L449.426250 323.609108
L453.960000 326.749248L458.493750 329.868000L463.027500 332.966246
L467.561250 336.044867L472.095000 339.104966L476.628750 342.147645
L481.162500 345.174228L485.696250 348.185817L490.230000 351.183735
L494.763750 354.169305L499.297500 357.144291L503.831250 360.109575
L508.365000 363.067142L512.898750 366.018534L517.432500 368.965076
L521.966250 371.908310L526.500000 374.850000"/>
</g>
<g id="line2d16">
<path style="fill: none; stroke: #242424; stroke-width: 1.000000; stroke-linejoin: round; stroke-linecap: square;  opacity: 1.000000" clip-path="url(#pc3c5e41676658680e7b95047b5791c8e)" d="M73.125000 44.100000L77.658750 47.015671L82.192500 49.932886
L86.726250 52.852968L91.260000 55.777018L95.793750 58.706581
L100.327500 61.643200L104.861250 64.587978L109.395000 67.542016
L113.928750 70.507080L118.462500 73.483830L122.996250 76.473810
L127.530000 79.478122L132.063750 82.497429L136.597500 85.533273
L141.131250 88.586316L145.665000 91.657219L150.198750 94.747086
L154.732500 97.856797L159.266250 100.986574L163.800000 104.137299
L168.333750 107.309412L172.867500 110.503134L177.401250 113.719126
L181.935000 116.957390L186.468750 120.218143L191.002500 123.501609
L195.536250 126.807565L200.070000 130.136234L204.603750 133.487172
L209.137500 136.860161L213.671250 140.254758L218.205000 143.670744
L222.738750 147.107677L227.272500 150.564677L231.806250 154.041079
L236.340000 157.536666L240.873750 161.049892L245.407500 164.580538
L249.941250 168.127281L254.475000 171.689238L259.008750 175.265528
L263.542500 178.854606L268.076250 182.455812L272.610000 186.067823
L277.143750 189.689094L281.677500 193.318745L286.211250 196.955230
L290.745000 200.597229L295.278750 204.243858L299.812500 207.893133
L304.346250 211.544172L308.880000 215.195432L313.413750 218.845589
L317.947500 222.493100L322.481250 226.137083L327.015000 229.775774
L331.548750 233.408291L336.082500 237.033090L340.616250 240.649070
L345.150000 244.254972L349.683750 247.849740L354.217500 251.432269
L358.751250 255.001503L363.285000 258.556470L367.818750 262.096267
L372.352500 265.620022L376.886250 269.126953L381.420000 272.616366
L385.953750 276.087565L390.487500 279.540044L395.021250 282.973273
L399.555000 286.386855L404.088750 289.780439L408.622500 293.153868
L413.156250 296.506791L417.690000 299.839428L422.223750 303.151559
L426.757500 306.443183L431.291250 309.714741L435.825000 312.966234
L440.358750 316.198323L444.892500 319.411229L449.426250 322.605171
L453.960000 325.781253L458.493750 328.939916L463.027500 332.081600
L467.561250 335.207408L472.095000 338.318222L476.628750 341.414703
L481.162500 344.497955L485.696250 347.569079L490.230000 350.629178
L494.763750 353.679134L499.297500 356.720270L503.831250 359.753688
L508.365000 362.780712L512.898750 365.802665L517.432500 368.820648
L521.966250 371.835986L526.500000 374.850000"/>
</g>
<g id="line2d17">
<path style="fill: none; stroke: #1e1e1e; stroke-width: 1.000000; stroke-linejoin: round; stroke-linecap: square;  opacity: 1.000000" clip-path="url(#pc3c5e41676658680e7b95047b5791c8e)" d="M73.125000 44.100000L77.658750 47.079396L82.192500 50.059674
L86.726250 53.042598L91.260000 56.028830L95.793750 59.019471
L100.327500 62.016066L104.861250 65.019276L109.395000 68.030203
L113.928750 71.050171L118.462500 74.080062L122.996250 77.120757
L127.530000 80.173138L132.063750 83.238088L136.597500 86.316489
L141.131250 89.409222L145.665000 92.516728L150.198750 95.640111
L154.732500 98.779590L159.266250 101.935827L163.800000 105.109263
L168.333750 108.300339L172.867500 111.509496L177.401250 114.736954
L181.935000 117.982935L186.468750 121.247658L191.002500 124.530903
L195.536250 127.832891L200.070000 131.153620L204.603750 134.492652
L209.137500 137.850205L213.671250 141.225619L218.205000 144.618673
L222.738750 148.028927L227.272500 151.456158L231.806250 154.899486
L236.340000 158.358470L240.873750 161.832447L245.407500 165.320757
L249.941250 168.822297L254.475000 172.336847L259.008750 175.863082
L263.542500 179.400123L268.076250 182.947306L272.610000 186.503310
L277.143750 190.067472L281.677500 193.638470L286.211250 197.215421
L290.745000 200.797002L295.278750 204.382553L299.812500 207.970749
L304.346250 211.560269L308.880000 215.150229L313.413750 218.739528
L317.947500 222.326843L322.481250 225.911511L327.015000 229.491990
L331.548750 233.067618L336.082500 236.637072L340.616250 240.199470
L345.150000 243.753754L349.683750 247.299151L354.217500 250.834670
L358.751250 254.359473L363.285000 257.872743L367.818750 261.373754
L372.352500 264.861767L376.886250 268.336152L381.420000 271.796326
L385.953750 275.241727L390.487500 278.671935L395.021250 282.086488
L399.555000 285.485099L404.088750 288.867348L408.622500 292.233281
L413.156250 295.582676L417.690000 298.915313L422.223750 302.231412
L426.757500 305.530974L431.291250 308.813999L435.825000 312.080706
L440.358750 315.331538L444.892500 318.566714L449.426250 321.786675
L453.960000 324.991863L458.493750 328.182719L463.027500 331.360124
L467.561250 334.524299L472.095000 337.676346L476.628750 340.816707
L481.162500 343.946264L485.696250 347.065898L490.230000 350.176491
L494.763750 353.278926L499.297500 356.374305L503.831250 359.463069
L508.365000 362.546762L512.898750 365.626265L517.432500 368.702681
L521.966250 371.776892L526.500000 374.850000"/>
</g>
<g id="line2d18">
<path style="fill: none; stroke: #181818; stroke-width: 1.000000; stroke-linejoin: round; stroke-linecap: square;  opacity: 1.000000" clip-path="url(#pc3c5e41676658680e7b95047b5791c8e)" d="M73.125000 44.100000L77.658750 47.131875L82.192500 50.164632
L86.726250 53.199373L91.260000 56.236761L95.793750 59.278117
L100.327500 62.324104L104.861250 65.375824L109.395000 68.433939
L113.928750 71.499330L118.462500 74.572879L122.996250 77.655469
L127.530000 80.747541L132.063750 83.850417L136.597500 86.964097
L141.131250 90.089685L145.665000 93.227621L150.198750 96.378565
L154.732500 99.542740L159.266250 102.721027L163.800000 105.913426
L168.333750 109.120599L172.867500 112.342545L177.401250 115.579706
L181.935000 118.832081L186.468750 122.099891L191.002500 125.383356
L195.536250 128.682256L200.070000 131.996592L204.603750 135.326142
L209.137500 138.671127L213.671250 142.030885L218.205000 145.405197
L222.738750 148.794061L227.272500 152.196818L231.806250 155.613024
L236.340000 159.042020L240.873750 162.483804L245.407500 165.937275
L249.941250 169.402212L254.475000 172.877512L259.008750 176.362736
L263.542500 179.857220L268.076250 183.360083L272.610000 186.870442
L277.143750 190.387638L281.677500 193.910567L286.211250 197.438567
L290.745000 200.970756L295.278750 204.506253L299.812500 208.043955
L304.346250 211.583201L308.880000 215.122887L313.413750 218.662133
L317.947500 222.200055L322.481250 225.735773L327.015000 229.268624
L331.548750 232.797285L336.082500 236.321316L340.616250 239.839614
L345.150000 243.351628L349.683750 246.856409L354.217500 250.353252
L358.751250 253.841474L363.285000 257.320413L367.818750 260.789451
L372.352500 264.248000L376.886250 267.695533L381.420000 271.131563
L385.953750 274.555619L390.487500 277.967372L395.021250 281.366445
L399.555000 284.752553L404.088750 288.125586L408.622500 291.485124
L413.156250 294.831212L417.690000 298.163849L422.223750 301.482815
L426.757500 304.788330L431.291250 308.080616L435.825000 311.359671
L440.358750 314.625717L444.892500 317.878974L449.426250 321.119883
L453.960000 324.348665L458.493750 327.565980L463.027500 330.772050
L467.561250 333.967757L472.095000 337.153100L476.628750 340.329402
L481.162500 343.496664L485.696250 346.655768L490.230000 349.807595
L494.763750 352.952807L499.297500 356.092065L503.831250 359.226252
L508.365000 362.356250L512.898750 365.482719L517.432500 368.606543
L521.966250 371.728602L526.500000 374.850000"/>
</g>
<g id="line2d19">
<path style="fill: none; stroke: #121212; stroke-width: 1.000000; stroke-linejoin: round; stroke-linecap: square;  opacity: 1.000000" clip-path="url(#pc3c5e41676658680e7b95047b5791c8e)" d="M73.125000 44.100000L77.658750 47.175313L82.192500 50.251288
L86.726250 53.329027L91.260000 56.408971L95.793750 59.492002
L100.327500 62.579003L104.861250 65.670633L109.395000 68.767776
L113.928750 71.870652L118.462500 74.980584L122.996250 78.097792
L127.530000 81.222939L132.063750 84.356906L136.597500 87.500133
L141.131250 90.652842L145.665000 93.816135L150.198750 96.989791
L154.732500 100.174693L159.266250 103.371282L163.800000 106.579336
L168.333750 109.799739L172.867500 113.032489L177.401250 116.277808
L181.935000 119.535696L186.468750 122.806593L191.002500 126.090058
L195.536250 129.386533L200.070000 132.696018L204.603750 136.018071
L209.137500 139.352692L213.671250 142.699662L218.205000 146.058979
L222.738750 149.430204L227.272500 152.812894L231.806250 156.207051
L236.340000 159.611791L240.873750 163.027116L245.407500 166.452363
L249.941250 169.886871L254.475000 173.330420L259.008750 176.782127
L263.542500 180.241551L268.076250 183.708032L272.610000 187.180906
L277.143750 190.659515L281.677500 194.143194L286.211250 197.631063
L290.745000 201.122681L295.278750 204.616944L299.812500 208.113413
L304.346250 211.611204L308.880000 215.109437L313.413750 218.607890
L317.947500 222.105240L322.481250 225.600827L327.015000 229.094208
L331.548750 232.584723L336.082500 236.071269L340.616250 239.553405
L345.150000 243.030425L349.683750 246.501757L354.217500 249.966760
L358.751250 253.424840L363.285000 256.875488L367.818750 260.318177
L372.352500 263.752407L376.886250 267.177755L381.420000 270.593807
L385.953750 274.000224L390.487500 277.396651L395.021250 280.782848
L399.555000 284.158548L404.088750 287.523621L408.622500 290.877867
L413.156250 294.221088L417.690000 297.553284L422.223750 300.874676
L426.757500 304.185042L431.291250 307.484604L435.825000 310.773362
L440.358750 314.051535L444.892500 317.319566L449.426250 320.577233
L453.960000 323.825418L458.493750 327.063902L463.027500 330.293565
L467.561250 333.514409L472.095000 336.727314L476.628750 339.932502
L481.162500 343.130414L485.696250 346.321710L490.230000 349.507274
L494.763750 352.687104L499.297500 355.862304L503.831250 359.033315
L508.365000 362.200797L512.898750 365.365634L517.432500 368.528265
L521.966250 371.689574L526.500000 374.850000"/>
</g>
<g id="line2d20">
<path style="fill: none; stroke: #0c0c0c; stroke-width: 1.000000; stroke-linejoin: round; stroke-linecap: square;  opacity: 1.000000" clip-path="url(#pc3c5e41676658680e7b95047b5791c8e)" d="M73.125000 44.100000L77.658750 47.211255L82.192500 50.323171
L86.726250 53.436190L91.260000 56.551414L95.793750 59.669064
L100.327500 62.790021L104.861250 65.914947L109.395000 69.044062
L113.928750 72.178249L118.462500 75.318169L122.996250 78.464043
L127.530000 81.616752L132.063750 84.776517L136.597500 87.944000
L141.131250 91.119640L145.665000 94.303660L150.198750 97.496500
L154.732500 100.698601L159.266250 103.910184L163.800000 107.131689
L168.333750 110.363117L172.867500 113.604907L177.401250 116.857062
L181.935000 120.119800L186.468750 123.393123L191.002500 126.677029
L195.536250 129.971740L200.070000 133.277256L204.603750 136.593135
L209.137500 139.919598L213.671250 143.256424L218.205000 146.603394
L222.738750 149.960286L227.272500 153.326880L231.806250 156.702735
L236.340000 160.087851L240.873750 163.481346L245.407500 166.883441
L249.941250 170.293252L254.475000 173.710562L259.008750 177.134927
L263.542500 180.565686L268.076250 184.002399L272.610000 187.444625
L277.143750 190.891701L281.677500 194.342967L286.211250 197.797982
L290.745000 201.256083L295.278750 204.716831L299.812500 208.179342
L304.346250 211.643177L308.880000 215.107452L313.413750 218.572169
L317.947500 222.036003L322.481250 225.498956L327.015000 228.959924
L331.548750 232.418687L336.082500 235.874583L340.616250 239.326952
L345.150000 242.775219L349.683750 246.219010L354.217500 249.657773
L358.751250 253.091047L363.285000 256.518344L367.818750 259.939269
L372.352500 263.353423L376.886250 266.760428L381.420000 270.159952
L385.953750 273.551727L390.487500 276.935432L395.021250 280.310868
L399.555000 283.677836L404.088750 287.036096L408.622500 290.385711
L413.156250 293.726507L417.690000 297.058482L422.223750 300.381417
L426.757500 303.695532L431.291250 307.000827L435.825000 310.297302
L440.358750 313.585398L444.892500 316.865115L449.426250 320.136453
L453.960000 323.400074L458.493750 326.655977L463.027500 329.904603
L467.561250 333.146174L472.095000 336.381129L476.628750 339.609690
L481.162500 342.832739L485.696250 346.050275L490.230000 349.262739
L494.763750 352.471014L499.297500 355.675320L503.831250 358.876319
L508.365000 362.074451L512.898750 365.270378L517.432500 368.464541
L521.966250 371.657601L526.500000 374.850000"/>
</g>
<g id="line2d21">
<path style="fill: none; stroke: #060606; stroke-width: 1.000000; stroke-linejoin: round; stroke-linecap: square;  opacity: 1.000000" clip-path="url(#pc3c5e41676658680e7b95047b5791c8e)" d="M73.125000 44.100000L77.658750 47.241022L82.192500 50.382486
L86.726250 53.525272L91.260000 56.669382L95.793750 59.815917
L100.327500 62.964877L104.861250 66.117145L109.395000 69.273162
L113.928750 72.433368L118.462500 75.597984L122.996250 78.767892
L127.530000 81.943313L132.063750 85.124687L136.597500 88.312234
L141.131250 91.506618L145.665000 94.708057L150.198750 97.916773
L154.732500 101.133207L159.266250 104.357579L163.800000 107.590108
L168.333750 110.830797L172.867500 114.080305L177.401250 117.338193
L181.935000 120.605121L186.468750 123.880648L191.002500 127.165216
L195.536250 130.458604L200.070000 133.761033L204.603750 137.072061
L209.137500 140.392130L213.671250 143.720577L218.205000 147.057624
L222.738750 150.402829L227.272500 153.756193L231.806250 157.117275
L236.340000 160.486074L240.873750 163.862150L245.407500 167.245281
L249.941250 170.635028L254.475000 174.030948L259.008750 177.432822
L263.542500 180.840208L268.076250 184.252446L272.610000 187.669534
L277.143750 191.090592L281.677500 194.515398L286.211250 197.943511
L290.745000 201.374271L295.278750 204.807236L299.812500 208.241964
L304.346250 211.677795L308.880000 215.114508L313.413750 218.551221
L317.947500 221.987714L322.481250 225.423545L327.015000 228.858053
L331.548750 232.290797L336.082500 235.721336L340.616250 239.149229
L345.150000 242.573792L349.683750 245.994916L354.217500 249.412070
L358.751250 252.824837L363.285000 256.232885L367.818750 259.635839
L372.352500 263.033367L376.886250 266.425189L381.420000 269.811010
L385.953750 273.190614L390.487500 276.563735L395.021250 279.930196
L399.555000 283.289845L404.088750 286.642525L408.622500 289.988150
L413.156250 293.326740L417.690000 296.658054L422.223750 299.982092
L426.757500 303.299073L431.291250 306.608999L435.825000 309.911648
L440.358750 313.207682L444.892500 316.496660L449.426250 319.779243
L453.960000 323.055212L458.493750 326.325006L463.027500 329.588847
L467.561250 332.847176L472.095000 336.099992L476.628750 339.347736
L481.162500 342.590850L485.696250 345.829554L490.230000 349.064289
L494.763750 352.295496L499.297500 355.523616L503.831250 358.748870
L508.365000 361.971918L512.898750 365.192982L517.432500 368.412723
L521.966250 371.631582L526.500000 374.850000"/>
</g>
<g id="matplotlib.axis1">
<g id="xtick1">
<g id="line2d22">
<defs><path id="m30e32995789d870ad79a2e54c91cf9c6" d="M0.000000 0.000000L0.000000 -4.000000"/></defs>
<g ><use style="fill: none; stroke: #000000; stroke-width: 0.500000; stroke-linejoin: round; stroke-linecap: butt;  opacity: 1.000000" xlink:href="#m30e32995789d870ad79a2e54c91cf9c6" x="73.125000" y="396.900000"/>
</g></g>
<g id="line2d23">
<defs><path id="m9281cae24120827b11d5ea8a7ad3e96b" d="M0.000000 0.000000L0.000000 4.000000"/></defs>
<g ><use style="fill: none; stroke: #000000; stroke-width: 0.500000; stroke-linejoin: round; stroke-linecap: butt;  opacity: 1.000000" xlink:href="#m9281cae24120827b11d5ea8a7ad3e96b" x="73.125000" y="44.100000"/>
</g></g>
<g id="text1">
<defs>
<path id="c_7a2040fe3b94fcd41d0a72c84e93b115" d="M31.781250 -66.406250q-7.609375 0.000000 -11.453125 7.500000q-3.828125 7.484375 -3.828125 22.531250q0.000000 14.984375 3.828125 22.484375q3.843750 7.500000 11.453125 7.500000q7.671875 0.000000 11.500000 -7.500000q3.843750 -7.500000 3.843750 -22.484375q0.000000 -15.046875 -3.843750 -22.531250q-3.828125 -7.500000 -11.500000 -7.500000M31.781250 -74.218750q12.265625 0.000000 18.734375 9.703125q6.468750 9.687500 6.468750 28.140625q0.000000 18.406250 -6.468750 28.109375q-6.468750 9.687500 -18.734375 9.687500q-12.250000 0.000000 -18.718750 -9.687500q-6.468750 -9.703125 -6.468750 -28.109375q0.000000 -18.453125 6.468750 -28.140625q6.468750 -9.703125 18.718750 -9.703125"/>
</defs>
<g style="fill: #000000; opacity: 1.000000" transform="translate(70.101562,409.806250)scale(0.120000)">
<use xlink:href="#c_7a2040fe3b94fcd41d0a72c84e93b115"/>
</g>
</g>
</g>
<g id="xtick2">
<g id="line2d24">
<g ><use style="fill: none; stroke: #000000; stroke-width: 0.500000; stroke-linejoin: round; stroke-linecap: butt;  opacity: 1.000000" xlink:href="#m30e32995789d870ad79a2e54c91cf9c6" x="163.800000" y="396.900000"/>
</g></g>
<g id="line2d25">
<g ><use style="fill: none; stroke: #000000; stroke-width: 0.500000; stroke-linejoin: round; stroke-linecap: butt;  opacity: 1.000000" xlink:href="#m9281cae24120827b11d5ea8a7ad3e96b" x="163.800000" y="44.100000"/>
</g></g>
<g id="text2">
<defs>
<path id="c_ed3f3ed3ebfbd18bcb9c012009a68ad1" d="M19.187500 -8.296875l34.421875 0.000000l0.000000 8.296875l-46.281250 0.000000l0.000000 -8.296875q5.609375 -5.812500 15.296875 -15.593750q9.703125 -9.796875 12.187500 -12.640625q4.734375 -5.312500 6.609375 -9.000000q1.890625 -3.687500 1.890625 -7.250000q0.000000 -5.812500 -4.078125 -9.468750q-4.078125 -3.671875 -10.625000 -3.671875q-4.640625 0.000000 -9.796875 1.609375q-5.140625 1.609375 -11.000000 4.890625l0.000000 -9.968750q5.953125 -2.390625 11.125000 -3.609375q5.187500 -1.218750 9.484375 -1.218750q11.328125 0.000000 18.062500 5.671875q6.734375 5.656250 6.734375 15.125000q0.000000 4.500000 -1.687500 8.531250q-1.671875 4.015625 -6.125000 9.484375q-1.218750 1.421875 -7.765625 8.187500q-6.531250 6.765625 -18.453125 18.921875"/>
</defs>
<g style="fill: #000000; opacity: 1.000000" transform="translate(156.995313,409.806250)scale(0.120000)">
<use xlink:href="#c_ed3f3ed3ebfbd18bcb9c012009a68ad1"/>
<use xlink:href="#c_7a2040fe3b94fcd41d0a72c84e93b115" x="63.623047"/>
</g>
</g>
</g>
<g id="xtick3">
<g id="line2d26">
<g ><use style="fill: none; stroke: #000000; stroke-width: 0.500000; stroke-linejoin: round; stroke-linecap: butt;  opacity: 1.000000" xlink:href="#m30e32995789d870ad79a2e54c91cf9c6" x="254.475000" y="396.900000"/>
</g></g>
<g id="line2d27">
<g ><use style="fill: none; stroke: #000000; stroke-width: 0.500000; stroke-linejoin: round; stroke-linecap: butt;  opacity: 1.000000" xlink:href="#m9281cae24120827b11d5ea8a7ad3e96b" x="254.475000" y="44.100000"/>
</g></g>
<g id="text3">
<defs>
<path id="c_a0416418d96557a09b8c1332d34883ba" d="M37.796875 -64.312500l-24.906250 38.921875l24.906250 0.000000zM35.203125 -72.906250l12.406250 0.000000l0.000000 47.515625l10.406250 0.000000l0.000000 8.203125l-10.406250 0.000000l0.000000 17.187500l-9.812500 0.000000l0.000000 -17.187500l-32.906250 0.000000l0.000000 -9.515625z"/>
</defs>
<g style="fill: #000000; opacity: 1.000000" transform="translate(247.529688,409.806250)scale(0.120000)">
<use xlink:href="#c_a0416418d96557a09b8c1332d34883ba"/>
<use xlink:href="#c_7a2040fe3b94fcd41d0a72c84e93b115" x="63.623047"/>
</g>
</g>
</g>
<g id="xtick4">
<g id="line2d28">
<g ><use style="fill: none; stroke: #000000; stroke-width: 0.500000; stroke-linejoin: round; stroke-linecap: butt;  opacity: 1.000000" xlink:href="#m30e32995789d870ad79a2e54c91cf9c6" x="345.150000" y="396.900000"/>
</g></g>
<g id="line2d29">
<g ><use style="fill: none; stroke: #000000; stroke-width: 0.500000; stroke-linejoin: round; stroke-linecap: butt;  opacity: 1.000000" xlink:href="#m9281cae24120827b11d5ea8a7ad3e96b" x="345.150000" y="44.100000"/>
</g></g>
<g id="text4">
<defs>
<path id="c_cc8d6d580d1b10c8632f7a42cd53db8a" d="M33.015625 -40.375000q-6.640625 0.000000 -10.531250 4.546875q-3.875000 4.531250 -3.875000 12.437500q0.000000 7.859375 3.875000 12.437500q3.890625 4.562500 10.531250 4.562500q6.640625 0.000000 10.515625 -4.562500q3.875000 -4.578125 3.875000 -12.437500q0.000000 -7.906250 -3.875000 -12.437500q-3.875000 -4.546875 -10.515625 -4.546875M52.593750 -71.296875l0.000000 8.984375q-3.718750 -1.750000 -7.500000 -2.671875q-3.781250 -0.937500 -7.500000 -0.937500q-9.765625 0.000000 -14.921875 6.593750q-5.140625 6.593750 -5.875000 19.921875q2.875000 -4.250000 7.218750 -6.515625q4.359375 -2.265625 9.578125 -2.265625q10.984375 0.000000 17.359375 6.671875q6.375000 6.656250 6.375000 18.125000q0.000000 11.234375 -6.640625 18.031250q-6.640625 6.781250 -17.671875 6.781250q-12.656250 0.000000 -19.343750 -9.687500q-6.687500 -9.703125 -6.687500 -28.109375q0.000000 -17.281250 8.203125 -27.562500q8.203125 -10.281250 22.015625 -10.281250q3.718750 0.000000 7.500000 0.734375q3.781250 0.734375 7.890625 2.187500"/>
</defs>
<g style="fill: #000000; opacity: 1.000000" transform="translate(338.329688,409.806250)scale(0.120000)">
<use xlink:href="#c_cc8d6d580d1b10c8632f7a42cd53db8a"/>
<use xlink:href="#c_7a2040fe3b94fcd41d0a72c84e93b115" x="63.623047"/>
</g>
</g>
</g>
<g id="xtick5">
<g id="line2d30">
<g ><use style="fill: none; stroke: #000000; stroke-width: 0.500000; stroke-linejoin: round; stroke-linecap: butt;  opacity: 1.000000" xlink:href="#m30e32995789d870ad79a2e54c91cf9c6" x="435.825000" y="396.900000"/>
</g></g>
<g id="line2d31">
<g ><use style="fill: none; stroke: #000000; stroke-width: 0.500000; stroke-linejoin: round; stroke-linecap: butt;  opacity: 1.000000" xlink:href="#m9281cae24120827b11d5ea8a7ad3e96b" x="435.825000" y="44.100000"/>
</g></g>
<g id="text5">
<defs>
<path id="c_bef35738d52871942e50b9de9b122bab" d="M31.781250 -34.625000q-7.031250 0.000000 -11.062500 3.765625q-4.015625 3.765625 -4.015625 10.343750q0.000000 6.593750 4.015625 10.359375q4.031250 3.765625 11.062500 3.765625q7.031250 0.000000 11.078125 -3.781250q4.062500 -3.796875 4.062500 -10.343750q0.000000 -6.578125 -4.031250 -10.343750q-4.015625 -3.765625 -11.109375 -3.765625M21.921875 -38.812500q-6.343750 -1.562500 -9.890625 -5.906250q-3.531250 -4.359375 -3.531250 -10.609375q0.000000 -8.734375 6.218750 -13.812500q6.234375 -5.078125 17.062500 -5.078125q10.890625 0.000000 17.093750 5.078125q6.203125 5.078125 6.203125 13.812500q0.000000 6.250000 -3.546875 10.609375q-3.531250 4.343750 -9.828125 5.906250q7.125000 1.656250 11.093750 6.500000q3.984375 4.828125 3.984375 11.796875q0.000000 10.609375 -6.468750 16.281250q-6.468750 5.656250 -18.531250 5.656250q-12.046875 0.000000 -18.531250 -5.656250q-6.468750 -5.671875 -6.468750 -16.281250q0.000000 -6.968750 4.000000 -11.796875q4.015625 -4.843750 11.140625 -6.500000M18.312500 -54.390625q0.000000 5.656250 3.531250 8.828125q3.546875 3.171875 9.937500 3.171875q6.359375 0.000000 9.937500 -3.171875q3.593750 -3.171875 3.593750 -8.828125q0.000000 -5.671875 -3.593750 -8.843750q-3.578125 -3.171875 -9.937500 -3.171875q-6.390625 0.000000 -9.937500 3.171875q-3.531250 3.171875 -3.531250 8.843750"/>
</defs>
<g style="fill: #000000; opacity: 1.000000" transform="translate(428.989063,409.806250)scale(0.120000)">
<use xlink:href="#c_bef35738d52871942e50b9de9b122bab"/>
<use xlink:href="#c_7a2040fe3b94fcd41d0a72c84e93b115" x="63.623047"/>
</g>
</g>
</g>
<g id="xtick6">
<g id="line2d32">
<g ><use style="fill: none; stroke: #000000; stroke-width: 0.500000; stroke-linejoin: round; stroke-linecap: butt;  opacity: 1.000000" xlink:href="#m30e32995789d870ad79a2e54c91cf9c6" x="526.500000" y="396.900000"/>
</g></g>
<g id="line2d33">
<g ><use style="fill: none; stroke: #000000; stroke-width: 0.500000; stroke-linejoin: round; stroke-linecap: butt;  opacity: 1.000000" xlink:href="#m9281cae24120827b11d5ea8a7ad3e96b" x="526.500000" y="44.100000"/>
</g></g>
<g id="text6">
<defs>
<path id="c_42baa63129a918535c52adb20d687ea7" d="M12.406250 -8.296875l16.109375 0.000000l0.000000 -55.625000l-17.531250 3.515625l0.000000 -8.984375l17.437500 -3.515625l9.859375 0.000000l0.000000 64.609375l16.109375 0.000000l0.000000 8.296875l-41.984375 0.000000z"/>
</defs>
<g style="fill: #000000; opacity: 1.000000" transform="translate(516.093750,409.806250)scale(0.120000)">
<use xlink:href="#c_42baa63129a918535c52adb20d687ea7"/>
<use xlink:href="#c_7a2040fe3b94fcd41d0a72c84e93b115" x="63.623047"/>
<use xlink:href="#c_7a2040fe3b94fcd41d0a72c84e93b115" x="127.246094"/>
</g>
</g>
</g>
</g>
<g id="matplotlib.axis2">
<g id="ytick1">
<g id="line2d34">
<defs><path id="m3400efa6b1638b3fea9e19e898273957" d="M0.000000 0.000000L4.000000 0.000000"/></defs>
<g ><use style="fill: none; stroke: #000000; stroke-width: 0.500000; stroke-linejoin: round; stroke-linecap: butt;  opacity: 1.000000" xlink:href="#m3400efa6b1638b3fea9e19e898273957" x="73.125000" y="396.900000"/>
</g></g>
<g id="line2d35">
<defs><path id="m20b58b2501143cb5e0a5e8f1ef6f1643" d="M0.000000 0.000000L-4.000000 0.000000"/></defs>
<g ><use style="fill: none; stroke: #000000; stroke-width: 0.500000; stroke-linejoin: round; stroke-linecap: butt;  opacity: 1.000000" xlink:href="#m20b58b2501143cb5e0a5e8f1ef6f1643" x="526.500000" y="396.900000"/>
</g></g>
<g id="text7">
<defs>
<path id="c_6a8d56c819c37117ab4cf023bec22a5a" d="M10.593750 -35.500000l62.593750 0.000000l0.000000 8.296875l-62.593750 0.000000z"/>
</defs>
<g style="fill: #000000; opacity: 1.000000" transform="translate(53.453125,401.267188)scale(0.120000)">
<use xlink:href="#c_6a8d56c819c37117ab4cf023bec22a5a"/>
<use xlink:href="#c_cc8d6d580d1b10c8632f7a42cd53db8a" x="83.789062"/>
</g>
</g>
</g>
<g id="ytick2">
<g id="line2d36">
<g ><use style="fill: none; stroke: #000000; stroke-width: 0.500000; stroke-linejoin: round; stroke-linecap: butt;  opacity: 1.000000" xlink:href="#m3400efa6b1638b3fea9e19e898273957" x="73.125000" y="352.800000"/>
</g></g>
<g id="line2d37">
<g ><use style="fill: none; stroke: #000000; stroke-width: 0.500000; stroke-linejoin: round; stroke-linecap: butt;  opacity: 1.000000" xlink:href="#m20b58b2501143cb5e0a5e8f1ef6f1643" x="526.500000" y="352.800000"/>
</g></g>
<g id="text8">
<g style="fill: #000000; opacity: 1.000000" transform="translate(53.359375,357.175000)scale(0.120000)">
<use xlink:href="#c_6a8d56c819c37117ab4cf023bec22a5a"/>
<use xlink:href="#c_a0416418d96557a09b8c1332d34883ba" x="83.789062"/>
</g>
</g>
</g>
<g id="ytick3">
<g id="line2d38">
<g ><use style="fill: none; stroke: #000000; stroke-width: 0.500000; stroke-linejoin: round; stroke-linecap: butt;  opacity: 1.000000" xlink:href="#m3400efa6b1638b3fea9e19e898273957" x="73.125000" y="308.700000"/>
</g></g>
<g id="line2d39">
<g ><use style="fill: none; stroke: #000000; stroke-width: 0.500000; stroke-linejoin: round; stroke-linecap: butt;  opacity: 1.000000" xlink:href="#m20b58b2501143cb5e0a5e8f1ef6f1643" x="526.500000" y="308.700000"/>
</g></g>
<g id="text9">
<g style="fill: #000000; opacity: 1.000000" transform="translate(53.890625,313.153125)scale(0.120000)">
<use xlink:href="#c_6a8d56c819c37117ab4cf023bec22a5a"/>
<use xlink:href="#c_ed3f3ed3ebfbd18bcb9c012009a68ad1" x="83.789062"/>
</g>
</g>
</g>
<g id="ytick4">
<g id="line2d40">
<g ><use style="fill: none; stroke: #000000; stroke-width: 0.500000; stroke-linejoin: round; stroke-linecap: butt;  opacity: 1.000000" xlink:href="#m3400efa6b1638b3fea9e19e898273957" x="73.125000" y="264.600000"/>
</g></g>
<g id="line2d41">
<g ><use style="fill: none; stroke: #000000; stroke-width: 0.500000; stroke-linejoin: round; stroke-linecap: butt;  opacity: 1.000000" xlink:href="#m20b58b2501143cb5e0a5e8f1ef6f1643" x="526.500000" y="264.600000"/>
</g></g>
<g id="text10">
<g style="fill: #000000; opacity: 1.000000" transform="translate(63.078125,268.967188)scale(0.120000)">
<use xlink:href="#c_7a2040fe3b94fcd41d0a72c84e93b115"/>
</g>
</g>
</g>
<g id="ytick5">
<g id="line2d42">
<g ><use style="fill: none; stroke: #000000; stroke-width: 0.500000; stroke-linejoin: round; stroke-linecap: butt;  opacity: 1.000000" xlink:href="#m3400efa6b1638b3fea9e19e898273957" x="73.125000" y="220.500000"/>
</g></g>
<g id="line2d43">
<g ><use style="fill: none; stroke: #000000; stroke-width: 0.500000; stroke-linejoin: round; stroke-linecap: butt;  opacity: 1.000000" xlink:href="#m20b58b2501143cb5e0a5e8f1ef6f1643" x="526.500000" y="220.500000"/>
</g></g>
<g id="text11">
<g style="fill: #000000; opacity: 1.000000" transform="translate(63.562500,224.953125)scale(0.120000)">
<use xlink:href="#c_ed3f3ed3ebfbd18bcb9c012009a68ad1"/>
</g>
</g>
</g>
<g id="ytick6">
<g id="line2d44">
<g ><use style="fill: none; stroke: #000000; stroke-width: 0.500000; stroke-linejoin: round; stroke-linecap: butt;  opacity: 1.000000" xlink:href="#m3400efa6b1638b3fea9e19e898273957" x="73.125000" y="176.400000"/>
</g></g>
<g id="line2d45">
<g ><use style="fill: none; stroke: #000000; stroke-width: 0.500000; stroke-linejoin: round; stroke-linecap: butt;  opacity: 1.000000" xlink:href="#m20b58b2501143cb5e0a5e8f1ef6f1643" x="526.500000" y="176.400000"/>
</g></g>
<g id="text12">
<g style="fill: #000000; opacity: 1.000000" transform="translate(62.750000,180.775000)scale(0.120000)">
<use xlink:href="#c_a0416418d96557a09b8c1332d34883ba"/>
</g>
</g>
</g>
<g id="ytick7">
<g id="line2d46">
<g ><use style="fill: none; stroke: #000000; stroke-width: 0.500000; stroke-linejoin: round; stroke-linecap: butt;  opacity: 1.000000" xlink:href="#m3400efa6b1638b3fea9e19e898273957" x="73.125000" y="132.300000"/>
</g></g>
<g id="line2d47">
<g ><use style="fill: none; stroke: #000000; stroke-width: 0.500000; stroke-linejoin: round; stroke-linecap: butt;  opacity: 1.000000" xlink:href="#m20b58b2501143cb5e0a5e8f1ef6f1643" x="526.500000" y="132.300000"/>
</g></g>
<g id="text13">
<g style="fill: #000000; opacity: 1.000000" transform="translate(63.093750,136.667187)scale(0.120000)">
<use xlink:href="#c_cc8d6d580d1b10c8632f7a42cd53db8a"/>
</g>
</g>
</g>
<g id="ytick8">
<g id="line2d48">
<g ><use style="fill: none; stroke: #000000; stroke-width: 0.500000; stroke-linejoin: round; stroke-linecap: butt;  opacity: 1.000000" xlink:href="#m3400efa6b1638b3fea9e19e898273957" x="73.125000" y="88.200000"/>
</g></g>
<g id="line2d49">
<g ><use style="fill: none; stroke: #000000; stroke-width: 0.500000; stroke-linejoin: round; stroke-linecap: butt;  opacity: 1.000000" xlink:href="#m20b58b2501143cb5e0a5e8f1ef6f1643" x="526.500000" y="88.200000"/>
</g></g>
<g id="text14">
<g style="fill: #000000; opacity: 1.000000" transform="translate(63.125000,92.567187)scale(0.120000)">
<use xlink:href="#c_bef35738d52871942e50b9de9b122bab"/>
</g>
</g>
</g>
<g id="ytick9">
<g id="line2d50">
<g ><use style="fill: none; stroke: #000000; stroke-width: 0.500000; stroke-linejoin: round; stroke-linecap: butt;  opacity: 1.000000" xlink:href="#m3400efa6b1638b3fea9e19e898273957" x="73.125000" y="44.100000"/>
</g></g>
<g id="line2d51">
<g ><use style="fill: none; stroke: #000000; stroke-width: 0.500000; stroke-linejoin: round; stroke-linecap: butt;  opacity: 1.000000" xlink:href="#m20b58b2501143cb5e0a5e8f1ef6f1643" x="526.500000" y="44.100000"/>
</g></g>
<g id="text15">
<g style="fill: #000000; opacity: 1.000000" transform="translate(55.953125,48.467187)scale(0.120000)">
<use xlink:href="#c_42baa63129a918535c52adb20d687ea7"/>
<use xlink:href="#c_7a2040fe3b94fcd41d0a72c84e93b115" x="63.623047"/>
</g>
</g>
</g>
</g>
<g id="patch3">
<path style="fill: none; stroke: #000000; stroke-width: 1.000000; stroke-linejoin: round; stroke-linecap: square;  opacity: 1.000000"  d="M73.125000 44.100000L526.500000 44.100000"/>
</g>
<g id="patch4">
<path style="fill: none; stroke: #000000; stroke-width: 1.000000; stroke-linejoin: round; stroke-linecap: square;  opacity: 1.000000"  d="M526.500000 396.900000L526.500000 44.100000"/>
</g>
<g id="patch5">
<path style="fill: none; stroke: #000000; stroke-width: 1.000000; stroke-linejoin: round; stroke-linecap: square;  opacity: 1.000000"  d="M73.125000 396.900000L526.500000 396.900000"/>
</g>
<g id="patch6">
<path style="fill: none; stroke: #000000; stroke-width: 1.000000; stroke-linejoin: round; stroke-linecap: square;  opacity: 1.000000"  d="M73.125000 396.900000L73.125000 44.100000"/>
</g>
</g>
</g>
</svg>
