<?xml version="1.0" standalone="no"?>
<!DOCTYPE svg PUBLIC "-//W3C//DTD SVG 1.1//EN"
  "http://www.w3.org/Graphics/SVG/1.1/DTD/svg11.dtd">
<!-- Created with matplotlib (http://matplotlib.sourceforge.net/) -->
<svg width="585pt" height="441pt" viewBox="0 0 585 441"
   xmlns="http://www.w3.org/2000/svg"
   xmlns:xlink="http://www.w3.org/1999/xlink"
   version="1.1"
   id="svg1">
<g id="figure1">
<g id="patch1">
<path style="fill: #ffffff; stroke: #ffffff; stroke-width: 1.000000; stroke-linejoin: round; stroke-linecap: square;  opacity: 1.000000"  d="M0.000000 441.000000L585.000000 441.000000L585.000000 0.000000
L0.000000 0.000000L0.000000 441.000000"/>
</g>
<g id="axes1">
<g id="patch2">
<path style="fill: #ffffff; opacity: 1.000000"  d="M73.125000 396.900000L526.500000 396.900000L526.500000 44.100000
L73.125000 44.100000L73.125000 396.900000"/>
</g>
<g id="line2d1">
<defs>
  <clipPath id="pc3c5e41676658680e7b95047b5791c8e">
<rect x="73.125000" y="44.100000" width="453.375000" height="352.800000"/>
  </clipPath>
</defs><path style="fill: none; stroke: #808080; stroke-width: 1.000000; stroke-linejoin: round; stroke-linecap: square;  opacity: 1.000000" clip-path="url(#pc3c5e41676658680e7b95047b5791c8e)" d="M73.125000 44.100000L77.658750 226.768154L82.192500 258.109075
L86.726250 263.486336L91.260000 264.408925L95.793750 264.567217
L100.327500 264.594375L104.861250 264.599035L109.395000 264.599834
L113.928750 264.599972L118.462500 264.599995L122.996250 264.599999
L127.530000 264.600000L132.063750 264.600000L136.597500 264.600000
L141.131250 264.600000L145.665000 264.600000L150.198750 264.600000
L154.732500 264.600000L159.266250 264.600000L163.800000 264.600000
L168.333750 264.600000L172.867500 264.600000L177.401250 264.600000
L181.935000 264.600000L186.468750 264.600000L191.002500 264.600000
L195.536250 264.600000L200.070000 264.600000L204.603750 264.600000
L209.137500 264.600000L213.671250 264.600000L218.205000 264.600000
L222.738750 264.600000L227.272500 264.600000L231.806250 264.600000
L236.340000 264.600000L240.873750 264.600000L245.407500 264.600000
L249.941250 264.600000L254.475000 264.600000L259.008750 264.600000
L263.542500 264.600000L268.076250 264.600000L272.610000 264.600000
L277.143750 264.600000L281.677500 264.600000L286.211250 264.600000
L290.745000 264.600000L295.278750 264.600000L299.812500 264.600000
L304.346250 264.600000L308.880000 264.600000L313.413750 264.600000
L317.947500 264.600000L322.481250 264.600000L327.015000 264.600000
L331.548750 264.600000L336.082500 264.600000L340.616250 264.600000
L345.150000 264.600000L349.683750 264.600000L354.217500 264.600000
L358.751250 264.600000L363.285000 264.600000L367.818750 264.600000
L372.352500 264.600000L376.886250 264.600000L381.420000 264.600000
L385.953750 264.600000L390.487500 264.600000L395.021250 264.600000
L399.555000 264.600000L404.088750 264.600000L408.622500 264.600000
L413.156250 264.600000L417.690000 264.600000L422.223750 264.600000
L426.757500 264.600000L431.291250 264.600000L435.825000 264.600000
L440.358750 264.600000L444.892500 264.600000L449.426250 264.600000
L453.960000 264.600000L458.493750 264.600000L463.027500 264.600000
L467.561250 264.600000L472.095000 264.600000L476.628750 264.600000
L481.162500 264.600002L485.696250 264.600014L490.230000 264.600083
L494.763750 264.600483L499.297500 264.602812L503.831250 264.616392
L508.365000 264.695537L512.898750 265.156833L517.432500 267.845451
L521.966250 283.515901L526.500000 374.850000"/>
</g>
<g id="line2d2">
<path style="fill: none; stroke: #797979; stroke-width: 1.000000; stroke-linejoin: round; stroke-linecap: square;  opacity: 1.000000" clip-path="url(#pc3c5e41676658680e7b95047b5791c8e)" d="M73.125000 44.100000L77.658750 61.660179L82.192500 79.045060
L86.726250 96.083757L91.260000 112.616626L95.793750 128.498580
L100.327500 143.602830L104.861250 157.824639L109.395000 171.082201
L113.928750 183.318188L118.462500 194.499302L122.996250 204.615842
L127.530000 213.678392L132.063750 221.717381L136.597500 228.778232
L141.131250 234.919598L145.665000 240.208731L150.198750 244.720183
L154.732500 248.530820L159.266250 251.718566L163.800000 254.359693
L168.333750 256.527054L172.867500 258.288717L177.401250 259.707127
L181.935000 260.838402L186.468750 261.732243L191.002500 262.431894
L195.536250 262.974496L200.070000 263.391428L204.603750 263.708867
L209.137500 263.948363L213.671250 264.127420L218.205000 264.260090
L222.738750 264.357518L227.272500 264.428429L231.806250 264.479589
L236.340000 264.516176L240.873750 264.542116L245.407500 264.560348
L249.941250 264.573054L254.475000 264.581833L259.008750 264.587849
L263.542500 264.591937L268.076250 264.594693L272.610000 264.596536
L277.143750 264.597760L281.677500 264.598568L286.211250 264.599102
L290.745000 264.599458L295.278750 264.599703L299.812500 264.599885
L304.346250 264.600042L308.880000 264.600205L313.413750 264.600409
L317.947500 264.600691L322.481250 264.601105L327.015000 264.601723
L331.548750 264.602648L336.082500 264.604028L340.616250 264.606074
L345.150000 264.609082L349.683750 264.613472L354.217500 264.619826
L358.751250 264.628942L363.285000 264.641912L367.818750 264.660206
L372.352500 264.685785L376.886250 264.721241L381.420000 264.769955
L385.953750 264.836290L390.487500 264.925820L395.021250 265.045567
L399.555000 265.204287L404.088750 265.412752L408.622500 265.684053
L413.156250 266.033883L417.690000 266.480799L422.223750 267.046447
L426.757500 267.755642L431.291250 268.636473L435.825000 269.720142
L440.358750 271.040717L444.892500 272.634601L449.426250 274.539897
L453.960000 276.795590L458.493750 279.440223L463.027500 282.510840
L467.561250 286.041288L472.095000 290.060694L476.628750 294.592190
L481.162500 299.650239L485.696250 305.241017L490.230000 311.359010
L494.763750 317.987681L499.297500 325.098585L503.831250 332.650710
L508.365000 340.591577L512.898750 348.858122L517.432500 357.377580
L521.966250 366.069911L526.500000 374.850000"/>
</g>
<g id="line2d3">
<path style="fill: none; stroke: #737373; stroke-width: 1.000000; stroke-linejoin: round; stroke-linecap: square;  opacity: 1.000000" clip-path="url(#pc3c5e41676658680e7b95047b5791c8e)" d="M73.125000 44.100000L77.658750 56.528703L82.192500 68.895225
L86.726250 81.138487L91.260000 93.198955L95.793750 105.020181
L100.327500 116.548803L104.861250 127.735870L109.395000 138.537504
L113.928750 148.914896L118.462500 158.834970L122.996250 168.270386
L127.530000 177.200195L132.063750 185.609623L136.597500 193.489412
L141.131250 200.836472L145.665000 207.652347L150.198750 213.944315
L154.732500 219.723840L159.266250 225.006359L163.800000 229.810613
L168.333750 234.158652L172.867500 238.073850L177.401250 241.582446
L181.935000 244.710900L186.468750 247.486752L191.002500 249.937676
L195.536250 252.091079L200.070000 253.973840L204.603750 255.611935
L209.137500 257.030213L213.671250 258.252202L218.205000 259.299974
L222.738750 260.193991L227.272500 260.953173L231.806250 261.594761
L236.340000 262.134369L240.873750 262.586101L245.407500 262.962492
L249.941250 263.274698L254.475000 263.532540L259.008750 263.744619
L263.542500 263.918430L268.076250 264.060467L272.610000 264.176345
L277.143750 264.270888L281.677500 264.348260L286.211250 264.412045
L290.745000 264.465351L295.278750 264.510902L299.812500 264.551118
L304.346250 264.588202L308.880000 264.624210L313.413750 264.661132
L317.947500 264.700955L322.481250 264.745739L327.015000 264.797678
L331.548750 264.859171L336.082500 264.932887L340.616250 265.021828
L345.150000 265.129396L349.683750 265.259460L354.217500 265.416417
L358.751250 265.605244L363.285000 265.831572L367.818750 266.101724
L372.352500 266.422765L376.886250 266.802537L381.420000 267.249682
L385.953750 267.773657L390.487500 268.384728L395.021250 269.093922
L399.555000 269.912992L404.088750 270.854394L408.622500 271.931118
L413.156250 273.156591L417.690000 274.544528L422.223750 276.108777
L426.757500 277.863031L431.291250 279.820718L435.825000 281.994672
L440.358750 284.396843L444.892500 287.038080L449.426250 289.927953
L453.960000 293.073827L458.493750 296.481875L463.027500 300.155184
L467.561250 304.095078L472.095000 308.299793L476.628750 312.764918
L481.162500 317.482515L485.696250 322.442663L490.230000 327.631248
L494.763750 333.031955L499.297500 338.625599L503.831250 344.389910
L508.365000 350.300412L512.898750 356.330867L517.432500 362.452388
L521.966250 368.635649L526.500000 374.850000"/>
</g>
<g id="line2d4">
<path style="fill: none; stroke: #6d6d6d; stroke-width: 1.000000; stroke-linejoin: round; stroke-linecap: square;  opacity: 1.000000" clip-path="url(#pc3c5e41676658680e7b95047b5791c8e)" d="M73.125000 44.100000L77.658750 54.251158L82.192500 64.368580
L86.726250 74.418529L91.260000 84.368372L95.793750 94.186134
L100.327500 103.841608L104.861250 113.305468L109.395000 122.550592
L113.928750 131.552285L118.462500 140.287612L122.996250 148.736290
L127.530000 156.880237L132.063750 164.704680L136.597500 172.197049
L141.131250 179.347644L145.665000 186.149187L150.198750 192.597269
L154.732500 198.690124L159.266250 204.427976L163.800000 209.813908
L168.333750 214.852554L172.867500 219.550747L177.401250 223.917089
L181.935000 227.961279L186.468750 231.695226L191.002500 235.130837
L195.536250 238.282002L200.070000 241.162614L204.603750 243.787380
L209.137500 246.171139L213.671250 248.329085L218.205000 250.276342
L222.738750 252.027928L227.272500 253.598594L231.806250 255.002738
L236.340000 256.254296L240.873750 257.366718L245.407500 258.352860
L249.941250 259.224938L254.475000 259.994571L259.008750 260.672697
L263.542500 261.269612L268.076250 261.794975L272.610000 262.257805
L277.143750 262.666577L281.677500 263.029176L286.211250 263.352998
L290.745000 263.644975L295.278750 263.911645L299.812500 264.159194
L304.346250 264.393519L308.880000 264.620282L313.413750 264.844976
L317.947500 265.072975L322.481250 265.309591L327.015000 265.560128
L331.548750 265.829934L336.082500 266.124433L340.616250 266.449186
L345.150000 266.809917L349.683750 267.212506L354.217500 267.663098
L358.751250 268.168043L363.285000 268.733912L367.818750 269.367541
L372.352500 270.075941L376.886250 270.866367L381.420000 271.746251
L385.953750 272.723176L390.487500 273.804750L395.021250 274.998736
L399.555000 276.312740L404.088750 277.754346L408.622500 279.330944
L413.156250 281.049631L417.690000 282.917178L422.223750 284.939846
L426.757500 287.123414L431.291250 289.472621L435.825000 291.992274
L440.358750 294.685461L444.892500 297.554607L449.426250 300.601035
L453.960000 303.825186L458.493750 307.225958L463.027500 310.801365
L467.561250 314.547440L472.095000 318.459771L476.628750 322.531745
L481.162500 326.756084L485.696250 331.123748L490.230000 335.624594
L494.763750 340.247376L499.297500 344.979306L503.831250 349.806933
L508.365000 354.715704L512.898750 359.690846L517.432500 364.715820
L521.966250 369.774311L526.500000 374.850000"/>
</g>
<g id="line2d5">
<path style="fill: none; stroke: #676767; stroke-width: 1.000000; stroke-linejoin: round; stroke-linecap: square;  opacity: 1.000000" clip-path="url(#pc3c5e41676658680e7b95047b5791c8e)" d="M73.125000 44.100000L77.658750 52.892658L82.192500 61.663266
L86.726250 70.389994L91.260000 79.051455L95.793750 87.626920
L100.327500 96.095443L104.861250 104.437840L109.395000 112.635369
L113.928750 120.670609L118.462500 128.526584L122.996250 136.188738
L127.530000 143.642741L132.063750 150.876463L136.597500 157.878661
L141.131250 164.640073L145.665000 171.152541L150.198750 177.409670
L154.732500 183.406608L159.266250 189.139829L163.800000 194.607126
L168.333750 199.808280L172.867500 204.743731L177.401250 209.415686
L181.935000 213.827229L186.468750 217.982772L191.002500 221.887607
L195.536250 225.548127L200.070000 228.971169L204.603750 232.164450
L209.137500 235.136790L213.671250 237.897009L218.205000 240.454368
L222.738750 242.818790L227.272500 245.000152L231.806250 247.008686
L236.340000 248.854734L240.873750 250.548571L245.407500 252.100561
L249.941250 253.520933L254.475000 254.819833L259.008750 256.007225
L263.542500 257.092901L268.076250 258.086408L272.610000 258.997095
L277.143750 259.834069L281.677500 260.606194L286.211250 261.322069
L290.745000 261.990030L295.278750 262.618232L299.812500 263.214557
L304.346250 263.786695L308.880000 264.342143L313.413750 264.888211
L317.947500 265.432059L322.481250 265.980694L327.015000 266.541000
L331.548750 267.119764L336.082500 267.723625L340.616250 268.359238
L345.150000 269.033064L349.683750 269.751564L354.217500 270.521109
L358.751250 271.348028L363.285000 272.238495L367.818750 273.198662
L372.352500 274.234593L376.886250 275.352131L381.420000 276.557098
L385.953750 277.855027L390.487500 279.251343L395.021250 280.751140
L399.555000 282.359335L404.088750 284.080425L408.622500 285.918624
L413.156250 287.877744L417.690000 289.961028L422.223750 292.171320
L426.757500 294.511266L431.291250 296.981969L435.825000 299.585192
L440.358750 302.320935L444.892500 305.189420L449.426250 308.189102
L453.960000 311.318879L458.493750 314.576105L463.027500 317.957472
L467.561250 321.459233L472.095000 325.076535L476.628750 328.804088
L481.162500 332.635496L485.696250 336.563703L490.230000 340.581434
L494.763750 344.680529L499.297500 348.851727L503.831250 353.086209
L508.365000 357.374052L512.898750 361.704893L517.432500 366.068367
L521.966250 370.453671L526.500000 374.850000"/>
</g>
<g id="line2d6">
<path style="fill: none; stroke: #616161; stroke-width: 1.000000; stroke-linejoin: round; stroke-linecap: square;  opacity: 1.000000" clip-path="url(#pc3c5e41676658680e7b95047b5791c8e)" d="M73.125000 44.100000L77.658750 51.965455L82.192500 59.815035
L86.726250 67.633524L91.260000 75.405046L95.793750 83.114829
L100.327500 90.747657L104.861250 98.289639L109.395000 105.726883
L113.928750 113.045940L118.462500 120.234681L122.996250 127.281199
L127.530000 134.174470L132.063750 140.904351L136.597500 147.462021
L141.131250 153.838881L145.665000 160.027875L150.198750 166.022388
L154.732500 171.817349L159.266250 177.408126L163.800000 182.791634
L168.333750 187.965005L172.867500 192.927357L177.401250 197.677809
L181.935000 202.216581L186.468750 206.545217L191.002500 210.665480
L195.536250 214.580237L200.070000 218.293016L204.603750 221.808006
L209.137500 225.130059L213.671250 228.264467L218.205000 231.217182
L222.738750 233.994380L227.272500 236.603115L231.806250 239.050224
L236.340000 241.343424L240.873750 243.490124L245.407500 245.498306
L249.941250 247.376017L254.475000 249.131484L259.008750 250.772930
L263.542500 252.308735L268.076250 253.747233L272.610000 255.096781
L277.143750 256.365714L281.677500 257.562302L286.211250 258.694745
L290.745000 259.771160L295.278750 260.799616L299.812500 261.787986
L304.346250 262.744076L308.880000 263.675554L313.413750 264.589949
L317.947500 265.494648L322.481250 266.396888L327.015000 267.303771
L331.548750 268.222198L336.082500 269.158970L340.616250 270.120659
L345.150000 271.113702L349.683750 272.144363L354.217500 273.218683
L358.751250 274.342506L363.285000 275.521475L367.818750 276.761038
L372.352500 278.066376L376.886250 279.442384L381.420000 280.893781
L385.953750 282.424955L390.487500 284.039942L395.021250 285.742554
L399.555000 287.536190L404.088750 289.423890L408.622500 291.408390
L413.156250 293.491895L417.690000 295.676388L422.223750 297.963194
L426.757500 300.353193L431.291250 302.847048L435.825000 305.444759
L440.358750 308.145884L444.892500 310.949100L449.426250 313.853306
L453.960000 316.856295L458.493750 319.955643L463.027500 323.148263
L467.561250 326.430405L472.095000 329.798322L476.628750 333.247604
L481.162500 336.772737L485.696250 340.368872L490.230000 344.030054
L494.763750 347.749889L499.297500 351.521762L503.831250 355.339278
L508.365000 359.194941L512.898750 363.081474L517.432500 366.991160
L521.966250 370.916721L526.500000 374.850000"/>
</g>
<g id="line2d7">
<path style="fill: none; stroke: #5b5b5b; stroke-width: 1.000000; stroke-linejoin: round; stroke-linecap: square;  opacity: 1.000000" clip-path="url(#pc3c5e41676658680e7b95047b5791c8e)" d="M73.125000 44.100000L77.658750 51.281906L82.192500 58.452124
L86.726250 65.598529L91.260000 72.709214L95.793750 79.772931
L100.327500 86.778216L104.861250 93.714043L109.395000 100.569829
L113.928750 107.335431L118.462500 114.000484L122.996250 120.556170
L127.530000 126.993447L132.063750 133.303936L136.597500 139.480362
L141.131250 145.515447L145.665000 151.402797L150.198750 157.136899
L154.732500 162.712683L159.266250 168.125737L163.800000 173.372535
L168.333750 178.450209L172.867500 183.356334L177.401250 188.089587
L181.935000 192.648865L186.468750 197.034390L191.002500 201.246161
L195.536250 205.285500L200.070000 209.154173L204.603750 212.854163
L209.137500 216.388557L213.671250 219.760223L218.205000 222.973569
L222.738750 226.032345L227.272500 228.941402L231.806250 231.705590
L236.340000 234.330642L240.873750 236.822292L245.407500 239.186052
L249.941250 241.428537L254.475000 243.556340L259.008750 245.575855
L263.542500 247.493985L268.076250 249.317652L272.610000 251.053957
L277.143750 252.709979L281.677500 254.292926L286.211250 255.809988
L290.745000 257.268353L295.278750 258.675253L299.812500 260.037811
L304.346250 261.363126L308.880000 262.658242L313.413750 263.930090
L317.947500 265.185505L322.481250 266.431200L327.015000 267.673748
L331.548750 268.919595L336.082500 270.175012L340.616250 271.446062
L345.150000 272.738677L349.683750 274.058568L354.217500 275.411225
L358.751250 276.801897L363.285000 278.235632L367.818750 279.717193
L372.352500 281.251124L376.886250 282.841656L381.420000 284.492760
L385.953750 286.208074L390.487500 287.990861L395.021250 289.844384
L399.555000 291.771113L404.088750 293.773473L408.622500 295.853670
L413.156250 298.013027L417.690000 300.252866L422.223750 302.574069
L426.757500 304.977299L431.291250 307.462554L435.825000 310.029615
L440.358750 312.677600L444.892500 315.405846L449.426250 318.212591
L453.960000 321.096290L458.493750 324.054297L463.027500 327.084408
L467.561250 330.183536L472.095000 333.348372L476.628750 336.575169
L481.162500 339.860178L485.696250 343.198989L490.230000 346.587192
L494.763750 350.019936L499.297500 353.492150L503.831250 356.998541
L508.365000 360.533817L512.898750 364.092467L517.432500 367.668536
L521.966250 371.256291L526.500000 374.850000"/>
</g>
<g id="line2d8">
<path style="fill: none; stroke: #555555; stroke-width: 1.000000; stroke-linejoin: round; stroke-linecap: square;  opacity: 1.000000" clip-path="url(#pc3c5e41676658680e7b95047b5791c8e)" d="M73.125000 44.100000L77.658750 50.753367L82.192500 57.397252
L86.726250 64.022396L91.260000 70.619315L95.793750 77.179410
L100.327500 83.693200L104.861250 90.152086L109.395000 96.547468
L113.928750 102.871188L118.462500 109.115307L122.996250 115.272108
L127.530000 121.334535L132.063750 127.295532L136.597500 133.148925
L141.131250 138.888760L145.665000 144.509526L150.198750 150.006371
L154.732500 155.374443L159.266250 160.610215L163.800000 165.709939
L168.333750 170.670749L172.867500 175.490438L177.401250 180.167022
L181.935000 184.699399L186.468750 189.086247L191.002500 193.327785
L195.536250 197.423793L200.070000 201.375374L204.603750 205.183409
L209.137500 208.849883L213.671250 212.376339L218.205000 215.765645
L222.738750 219.020886L227.272500 222.144710L231.806250 225.141305
L236.340000 228.014640L240.873750 230.768685L245.407500 233.408291
L249.941250 235.938308L254.475000 238.363587L259.008750 240.689421
L263.542500 242.921675L268.076250 245.065685L272.610000 247.127315
L277.143750 249.112499L281.677500 251.027211L286.211250 252.877559
L290.745000 254.669650L295.278750 256.409638L299.812500 258.103673
L304.346250 259.757952L308.880000 261.378539L313.413750 262.971519
L317.947500 264.542894L322.481250 266.098562L327.015000 267.644333
L331.548750 269.185871L336.082500 270.728753L340.616250 272.278339
L345.150000 273.839876L349.683750 275.418414L354.217500 277.018758
L358.751250 278.645607L363.285000 280.303371L367.818750 281.996215
L372.352500 283.728110L376.886250 285.502739L381.420000 287.323628
L385.953750 289.193688L390.487500 291.116007L395.021250 293.093010
L399.555000 295.127343L404.088750 297.220550L408.622500 299.374394
L413.156250 301.590639L417.690000 303.869727L422.223750 306.212760
L426.757500 308.619959L431.291250 311.091764L435.825000 313.627293
L440.358750 316.226547L444.892500 318.888423L449.426250 321.611819
L453.960000 324.395190L458.493750 327.236774L463.027500 330.134364
L467.561250 333.085757L472.095000 336.088085L476.628750 339.138923
L481.162500 342.234743L485.696250 345.372458L490.230000 348.548099
L494.763750 351.758579L499.297500 354.999267L503.831250 358.266636
L508.365000 361.556276L512.898750 364.863996L517.432500 368.185167
L521.966250 371.515158L526.500000 374.850000"/>
</g>
<g id="line2d9">
<path style="fill: none; stroke: #4f4f4f; stroke-width: 1.000000; stroke-linejoin: round; stroke-linecap: square;  opacity: 1.000000" clip-path="url(#pc3c5e41676658680e7b95047b5791c8e)" d="M73.125000 44.100000L77.658750 50.330889L82.192500 56.554281
L86.726250 62.762458L91.260000 68.947924L95.793750 75.103403
L100.327500 81.221395L104.861250 87.295068L109.395000 93.316923
L113.928750 99.280786L118.462500 105.179603L122.996250 111.007638
L127.530000 116.758498L132.063750 122.426451L136.597500 128.006424
L141.131250 133.493346L145.665000 138.882366L150.198750 144.169074
L154.732500 149.349942L159.266250 154.421001L163.800000 159.379384
L168.333750 164.222446L172.867500 168.947541L177.401250 173.553124
L181.935000 178.037433L186.468750 182.399585L191.002500 186.638918
L195.536250 190.755212L200.070000 194.748467L204.603750 198.619344
L209.137500 202.368726L213.671250 205.998156L218.205000 209.508957
L222.738750 212.903334L227.272500 216.183492L231.806250 219.352298
L236.340000 222.412617L240.873750 225.367758L245.407500 228.221249
L249.941250 230.976617L254.475000 233.638052L259.008750 236.209964
L263.542500 238.696101L268.076250 241.101756L272.610000 243.431074
L277.143750 245.689148L281.677500 247.880852L286.211250 250.011235
L290.745000 252.085390L295.278750 254.108478L299.812500 256.085635
L304.346250 258.022110L308.880000 259.923041L313.413750 261.793608
L317.947500 263.638915L322.481250 265.464038L327.015000 267.273959
L331.548750 269.073548L336.082500 270.867602L340.616250 272.660796
L345.150000 274.457651L349.683750 276.262532L354.217500 278.079628
L358.751250 279.913019L363.285000 281.766542L367.818750 283.643835
L372.352500 285.548360L376.886250 287.483270L381.420000 289.451673
L385.953750 291.456239L390.487500 293.499612L395.021250 295.583999
L399.555000 297.711162L404.088750 299.883308L408.622500 302.101538
L413.156250 304.367396L417.690000 306.681764L422.223750 309.045083
L426.757500 311.458235L431.291250 313.920779L435.825000 316.433156
L440.358750 318.994925L444.892500 321.604983L449.426250 324.263111
L453.960000 326.967543L458.493750 329.717399L463.027500 332.510913
L467.561250 335.346323L472.095000 338.221422L476.628750 341.134007
L481.162500 344.081871L485.696250 347.062149L490.230000 350.072195
L494.763750 353.109141L499.297500 356.169902L503.831250 359.251389
L508.365000 362.350076L512.898750 365.462654L517.432500 368.585816
L521.966250 371.716254L526.500000 374.850000"/>
</g>
<g id="line2d10">
<path style="fill: none; stroke: #494949; stroke-width: 1.000000; stroke-linejoin: round; stroke-linecap: square;  opacity: 1.000000" clip-path="url(#pc3c5e41676658680e7b95047b5791c8e)" d="M73.125000 44.100000L77.658750 49.986247L82.192500 55.866100
L86.726250 61.733605L91.260000 67.582368L95.793750 73.406214
L100.327500 79.199410L104.861250 84.955783L109.395000 90.669600
L113.928750 96.335347L118.462500 101.947513L122.996250 107.500806
L127.530000 112.990153L132.063750 118.410926L136.597500 123.758712
L141.131250 129.028662L145.665000 134.217247L150.198750 139.320720
L154.732500 144.335551L159.266250 149.258434L163.800000 154.086943
L168.333750 158.818212L172.867500 163.450476L177.401250 167.981531
L181.935000 172.410273L186.468750 176.735381L191.002500 180.955971
L195.536250 185.071824L200.070000 189.082499L204.603750 192.988215
L209.137500 196.789635L213.671250 200.487420L218.205000 204.082673
L222.738750 207.576936L227.272500 210.971975L231.806250 214.269332
L236.340000 217.471653L240.873750 220.581144L245.407500 223.600671
L249.941250 226.533101L254.475000 229.381520L259.008750 232.149236
L263.542500 234.839777L268.076250 237.456671L272.610000 240.004107
L277.143750 242.485614L281.677500 244.905249L286.211250 247.267289
L290.745000 249.575880L295.278750 251.835233L299.812500 254.049692
L304.346250 256.223558L308.880000 258.361173L313.413750 260.466860
L317.947500 262.544920L322.481250 264.599627L327.015000 266.635200
L331.548750 268.655789L336.082500 270.665470L340.616250 272.668205
L345.150000 274.667876L349.683750 276.668230L354.217500 278.672883
L358.751250 280.685343L363.285000 282.708893L367.818750 284.746710
L372.352500 286.801704L376.886250 288.877050L381.420000 290.974887
L385.953750 293.097861L390.487500 295.248177L395.021250 297.427820
L399.555000 299.638553L404.088750 301.882140L408.622500 304.159905
L413.156250 306.472950L417.690000 308.822157L422.223750 311.208408
L426.757500 313.631924L431.291250 316.093145L435.825000 318.592071
L440.358750 321.128483L444.892500 323.701938L449.426250 326.312217
L453.960000 328.958217L458.493750 331.638836L463.027500 334.353191
L467.561250 337.099739L472.095000 339.876936L476.628750 342.683240
L481.162500 345.516665L485.696250 348.375227L490.230000 351.256941
L494.763750 354.159383L499.297500 357.080126L503.831250 360.016965
L508.365000 362.967255L512.898750 365.928350L517.432500 368.897603
L521.966250 371.872368L526.500000 374.850000"/>
</g>
<g id="line2d11">
<path style="fill: none; stroke: #434343; stroke-width: 1.000000; stroke-linejoin: round; stroke-linecap: square;  opacity: 1.000000" clip-path="url(#pc3c5e41676658680e7b95047b5791c8e)" d="M73.125000 44.100000L77.658750 49.700259L82.192500 55.295446
L86.726250 60.880050L91.260000 66.448998L95.793750 71.997439
L100.327500 77.519862L104.861250 83.011635L109.395000 88.468128
L113.928750 93.884049L118.462500 99.255208L122.996250 104.576976
L127.530000 109.845382L132.063750 115.056018L136.597500 120.205134
L141.131250 125.289203L145.665000 130.304475L150.198750 135.248085
L154.732500 140.116725L159.266250 144.907749L163.800000 149.618952
L168.333750 154.247688L172.867500 158.792193L177.401250 163.250703
L181.935000 167.621895L186.468750 171.904666L191.002500 176.097915
L195.536250 180.201420L200.070000 184.214520L204.603750 188.137215
L209.137500 191.969946L213.671250 195.712713L218.205000 199.366619
L222.738750 202.932545L227.272500 206.411814L231.806250 209.805530
L236.340000 213.115676L240.873750 216.344016L245.407500 219.492536
L249.941250 222.563660L254.475000 225.559814L259.008750 228.483423
L263.542500 231.337355L268.076250 234.124695L272.610000 236.848532
L277.143750 239.511731L281.677500 242.117600L286.211250 244.669733
L290.745000 247.171393L295.278750 249.626132L299.812500 252.037476
L304.346250 254.408997L308.880000 256.744313L313.413750 259.046994
L317.947500 261.320636L322.481250 263.568830L327.015000 265.795114
L331.548750 268.002977L336.082500 270.195871L340.616250 272.377167
L345.150000 274.550129L349.683750 276.717952L354.217500 278.883747
L358.751250 281.050491L363.285000 283.221049L367.818750 285.398133
L372.352500 287.584259L376.886250 289.782203L381.420000 291.993818
L385.953750 294.221309L390.487500 296.467101L395.021250 298.732298
L399.555000 301.019103L404.088750 303.328620L408.622500 305.662392
L413.156250 308.021301L417.690000 310.406229L422.223750 312.818058
L426.757500 315.257229L431.291250 317.724183L435.825000 320.218920
L440.358750 322.741661L444.892500 325.292184L449.426250 327.870050
L453.960000 330.474596L458.493750 333.105602L463.027500 335.761965
L467.561250 338.442584L472.095000 341.146575L476.628750 343.872837
L481.162500 346.619385L485.696250 349.385337L490.230000 352.168929
L494.763750 354.968397L499.297500 357.781757L503.831250 360.607464
L508.365000 363.443535L512.898750 366.287765L517.432500 369.138389
L521.966250 371.993202L526.500000 374.850000"/>
</g>
<g id="line2d12">
<path style="fill: none; stroke: #3d3d3d; stroke-width: 1.000000; stroke-linejoin: round; stroke-linecap: square;  opacity: 1.000000" clip-path="url(#pc3c5e41676658680e7b95047b5791c8e)" d="M73.125000 44.100000L77.658750 49.460355L82.192500 54.816300
L86.726250 60.163425L91.260000 65.497540L95.793750 70.814016
L100.327500 76.108883L104.861250 81.377730L109.395000 86.616369
L113.928750 91.821271L118.462500 96.988028L122.996250 102.113109
L127.530000 107.192988L132.063750 112.223916L136.597500 117.202585
L141.131250 122.126130L145.665000 126.991242L150.198750 131.795276
L154.732500 136.535584L159.266250 141.209744L163.800000 145.815547
L168.333750 150.351012L172.867500 154.814373L177.401250 159.204087
L181.935000 163.519051L186.468750 167.757723L191.002500 171.919440
L195.536250 176.003541L200.070000 180.009585L204.603750 183.937352
L209.137500 187.786841L213.671250 191.558273L218.205000 195.252089
L222.738750 198.868950L227.272500 202.409739L231.806250 205.875558
L236.340000 209.267510L240.873750 212.586917L245.407500 215.835543
L249.941250 219.015374L254.475000 222.127731L259.008750 225.175262
L263.542500 228.159950L268.076250 231.084000L272.610000 233.949839
L277.143750 236.760332L281.677500 239.517905L286.211250 242.225204
L290.745000 244.885073L295.278750 247.500512L299.812500 250.074342
L304.346250 252.609497L308.880000 255.108952L313.413750 257.575708
L317.947500 260.012762L322.481250 262.423056L327.015000 264.809579
L331.548750 267.175264L336.082500 269.522971L340.616250 271.855597
L345.150000 274.175874L349.683750 276.486516L354.217500 278.790189
L358.751250 281.089431L363.285000 283.386666L367.818750 285.684276
L372.352500 287.984466L376.886250 290.289353L381.420000 292.601075
L385.953750 294.921396L390.487500 297.251861L395.021250 299.594453
L399.555000 301.950495L404.088750 304.321311L408.622500 306.707783
L413.156250 309.111453L417.690000 311.532984L422.223750 313.972817
L426.757500 316.432053L431.291250 318.910694L435.825000 321.409179
L440.358750 323.927730L444.892500 326.466347L449.426250 329.024808
L453.960000 331.602894L458.493750 334.200164L463.027500 336.816176
L467.561250 339.450048L472.095000 342.101120L476.628750 344.768508
L481.162500 347.451332L485.696250 350.148488L490.230000 352.858874
L494.763750 355.580946L499.297500 358.313603L503.831250 361.055300
L508.365000 363.804935L512.898750 366.560744L517.432500 369.321183
L521.966250 372.084710L526.500000 374.850000"/>
</g>
<g id="line2d13">
<path style="fill: none; stroke: #373737; stroke-width: 1.000000; stroke-linejoin: round; stroke-linecap: square;  opacity: 1.000000" clip-path="url(#pc3c5e41676658680e7b95047b5791c8e)" d="M73.125000 44.100000L77.658750 49.257054L82.192500 54.410359
L86.726250 59.556388L91.260000 64.690951L95.793750 69.810741
L100.327500 74.912008L104.861250 79.991226L109.395000 85.044865
L113.928750 90.069399L118.462500 95.061519L122.996250 100.018138
L127.530000 104.935950L132.063750 109.812087L136.597500 114.643683
L141.131250 119.427871L145.665000 124.162227L150.198750 128.844104
L154.732500 133.471296L159.266250 138.041820L163.800000 142.553471
L168.333750 147.004704L172.867500 151.393756L177.401250 155.719085
L181.935000 159.979806L186.468750 164.174598L191.002500 168.302799
L195.536250 172.363527L200.070000 176.356341L204.603750 180.281021
L209.137500 184.137124L213.671250 187.925315L218.205000 191.645150
L222.738750 195.297512L227.272500 198.882842L231.806250 202.401801
L236.340000 205.855493L240.873750 209.244798L245.407500 212.570820
L249.941250 215.835323L254.475000 219.039408L259.008750 222.184841
L263.542500 225.273384L268.076250 228.307023L272.610000 231.287301
L277.143750 234.216644L281.677500 237.097256L286.211250 239.930901
L290.745000 242.720248L295.278750 245.467458L299.812500 248.174977
L304.346250 250.845188L308.880000 253.480560L313.413750 256.083562
L317.947500 258.656665L322.481250 261.202360L327.015000 263.723105
L331.548750 266.221361L336.082500 268.699558L340.616250 271.160073
L345.150000 273.605286L349.683750 276.037467L354.217500 278.458866
L358.751250 280.871665L363.285000 283.277938L367.818750 285.679734
L372.352500 288.079061L376.886250 290.477439L381.420000 292.877141
L385.953750 295.279488L390.487500 297.685805L395.021250 300.098075
L399.555000 302.517180L404.088750 304.944665L408.622500 307.381410
L413.156250 309.828299L417.690000 312.286212L422.223750 314.756253
L426.757500 317.238422L431.291250 319.733820L435.825000 322.242449
L440.358750 324.764528L444.892500 327.300498L449.426250 329.850140
L453.960000 332.413452L458.493750 334.989995L463.027500 337.579988
L467.561250 340.182549L472.095000 342.797459L476.628750 345.424055
L481.162500 348.061676L485.696250 350.709440L490.230000 353.366906
L494.763750 356.032751L499.297500 358.706313L503.831250 361.386711
L508.365000 364.072401L512.898750 366.762942L517.432500 369.456570
L521.966250 372.152844L526.500000 374.850000"/>
</g>
<g id="line2d14">
<path style="fill: none; stroke: #313131; stroke-width: 1.000000; stroke-linejoin: round; stroke-linecap: square;  opacity: 1.000000" clip-path="url(#pc3c5e41676658680e7b95047b5791c8e)" d="M73.125000 44.100000L77.658750 49.083520L82.192500 54.063733
L86.726250 59.037552L91.260000 64.001668L95.793750 68.953216
L100.327500 73.888668L104.861250 78.805377L109.395000 83.699815
L113.928750 88.569558L118.462500 93.411517L122.996250 98.222607
L127.530000 103.000621L132.063750 107.742694L136.597500 112.446400
L141.131250 117.109094L145.665000 121.729010L150.198750 126.303502
L154.732500 130.830808L159.266250 135.308943L163.800000 139.736363
L168.333750 144.111303L172.867500 148.432221L177.401250 152.698014
L181.935000 156.907359L186.468750 161.059374L191.002500 165.153398
L195.536250 169.188327L200.070000 173.163942L204.603750 177.079802
L209.137500 180.935685L213.671250 184.731372L218.205000 188.467083
L222.738750 192.143039L227.272500 195.759680L231.806250 199.317447
L236.340000 202.817223L240.873750 206.259228L245.407500 209.645005
L249.941250 212.975217L254.475000 216.250965L259.008750 219.473793
L263.542500 222.645024L268.076250 225.765981L272.610000 228.838208
L277.143750 231.863468L281.677500 234.843525L286.211250 237.780144
L290.745000 240.674868L295.278750 243.530012L299.812500 246.347319
L304.346250 249.128816L308.880000 251.876533L313.413750 254.592475
L317.947500 257.278739L322.481250 259.937351L327.015000 262.570395
L331.548750 265.179911L336.082500 267.767946L340.616250 270.336484
L345.150000 272.887559L349.683750 275.423088L354.217500 277.944969
L358.751250 280.455053L363.285000 282.955192L367.818750 285.447062
L372.352500 287.932428L376.886250 290.412833L381.420000 292.889709
L385.953750 295.364601L390.487500 297.838832L395.021250 300.313944
L399.555000 302.790821L404.088750 305.270564L408.622500 307.754496
L413.156250 310.243059L417.690000 312.737576L422.223750 315.238266
L426.757500 317.746233L431.291250 320.261697L435.825000 322.785320
L440.358750 325.317101L444.892500 327.857481L449.426250 330.406682
L453.960000 332.964702L458.493750 335.531543L463.027500 338.106983
L467.561250 340.691022L472.095000 343.283220L476.628750 345.883136
L481.162500 348.490769L485.696250 351.105458L490.230000 353.726541
L494.763750 356.353358L499.297500 358.985687L503.831250 361.622426
L508.365000 364.263354L512.898750 366.907149L517.432500 369.553370
L521.966250 372.201354L526.500000 374.850000"/>
</g>
<g id="line2d15">
<path style="fill: none; stroke: #2b2b2b; stroke-width: 1.000000; stroke-linejoin: round; stroke-linecap: square;  opacity: 1.000000" clip-path="url(#pc3c5e41676658680e7b95047b5791c8e)" d="M73.125000 44.100000L77.658750 48.934021L82.192500 53.765176
L86.726250 58.590819L91.260000 63.408303L95.793750 68.214541
L100.327500 73.007109L104.861250 77.783359L109.395000 82.540647
L113.928750 87.276325L118.462500 91.987749L122.996250 96.672933
L127.530000 101.329232L132.063750 105.954219L136.597500 110.546131
L141.131250 115.102543L145.665000 119.621471L150.198750 124.101148
L154.732500 128.539813L159.266250 132.935701L163.800000 137.287048
L168.333750 141.592973L172.867500 145.851709L177.401250 150.062157
L181.935000 154.223213L186.468750 158.334215L191.002500 162.394061
L195.536250 166.402089L200.070000 170.357859L204.603750 174.260930
L209.137500 178.111080L213.671250 181.907870L218.205000 185.651739
L222.738750 189.342468L227.272500 192.980277L231.806250 196.565607
L236.340000 200.098679L240.873750 203.580594L245.407500 207.011354
L249.941250 210.392280L254.475000 213.724035L259.008750 217.007721
L263.542500 220.244220L268.076250 223.434635L272.610000 226.580508
L277.143750 229.682943L281.677500 232.743483L286.211250 235.763451
L290.745000 238.744170L295.278750 241.687625L299.812500 244.594983
L304.346250 247.468098L308.880000 250.308601L313.413750 253.118146
L317.947500 255.898453L322.481250 258.651241L327.015000 261.378230
L331.548750 264.081106L336.082500 266.761610L340.616250 269.421431
L345.150000 272.062227L349.683750 274.685692L354.217500 277.293413
L358.751250 279.886978L363.285000 282.467953L367.818750 285.037814
L372.352500 287.597930L376.886250 290.149997L381.420000 292.695008
L385.953750 295.234506L390.487500 297.769595L395.021250 300.301155
L399.555000 302.830731L404.088750 305.359205L408.622500 307.887237
L413.156250 310.415931L417.690000 312.946169L422.223750 315.478391
L426.757500 318.013479L431.291250 320.551655L435.825000 323.093579
L440.358750 325.639692L444.892500 328.190436L449.426250 330.745811
L453.960000 333.306036L458.493750 335.871554L463.027500 338.441922
L467.561250 341.017362L472.095000 343.597653L476.628750 346.182795
L481.162500 348.772788L485.696250 351.366971L490.230000 353.965122
L494.763750 356.567243L499.297500 359.172450L503.831250 361.780745
L508.365000 364.391465L512.898750 367.004390L517.432500 369.618638
L521.966250 372.234209L526.500000 374.850000"/>
</g>
<g id="line2d16">
<path style="fill: none; stroke: #242424; stroke-width: 1.000000; stroke-linejoin: round; stroke-linecap: square;  opacity: 1.000000" clip-path="url(#pc3c5e41676658680e7b95047b5791c8e)" d="M73.125000 44.100000L77.658750 48.804367L82.192500 53.506530
L86.726250 58.203841L91.260000 62.893876L95.793750 67.574210
L100.327500 72.242635L104.861250 76.896949L109.395000 81.534506
L113.928750 86.153319L118.462500 90.751405L122.996250 95.326119
L127.530000 99.875695L132.063750 104.398371L136.597500 108.891720
L141.131250 113.354199L145.665000 117.784044L150.198750 122.179491
L154.732500 126.538997L159.266250 130.861017L163.800000 135.144229
L168.333750 139.387311L172.867500 143.588938L177.401250 147.748230
L181.935000 151.863863L186.468750 155.935395L191.002500 159.961725
L195.536250 163.942412L200.070000 167.876793L204.603750 171.764429
L209.137500 175.604877L213.671250 179.398139L218.205000 183.143992
L222.738750 186.842439L227.272500 190.493699L231.806250 194.097771
L236.340000 197.654877L240.873750 201.165678L245.407500 204.630615
L249.941250 208.050129L254.475000 211.425102L259.008750 214.755975
L263.542500 218.043851L268.076250 221.289611L272.610000 224.494137
L277.143750 227.658533L281.677500 230.783900L286.211250 233.871341
L290.745000 236.922179L295.278750 239.937516L299.812500 242.918852
L304.346250 245.867400L308.880000 248.784527L313.413750 251.671644
L317.947500 254.530162L322.481250 257.361514L327.015000 260.167112
L331.548750 262.948426L336.082500 265.706875L340.616250 268.443888
L345.150000 271.160889L349.683750 273.859280L354.217500 276.540472
L358.751250 279.205766L363.285000 281.856551L367.818750 284.494083
L372.352500 287.119665L376.886250 289.734354L381.420000 292.339562
L385.953750 294.936390L390.487500 297.525942L395.021250 300.108879
L399.555000 302.686745L404.088750 305.259980L408.622500 307.829687
L413.156250 310.396748L417.690000 312.961824L422.223750 315.525357
L426.757500 318.088229L431.291250 320.651100L435.825000 323.214192
L440.358750 325.778166L444.892500 328.343463L449.426250 330.910083
L453.960000 333.478688L458.493750 336.049277L463.027500 338.621850
L467.561250 341.196849L472.095000 343.774053L476.628750 346.353683
L481.162500 348.935738L485.696250 351.519777L490.230000 354.106242
L494.763750 356.694471L499.297500 359.284464L503.831250 361.876221
L508.365000 364.469301L512.898750 367.063484L517.432500 369.658548
L521.966250 372.254054L526.500000 374.850000"/>
</g>
<g id="line2d17">
<path style="fill: none; stroke: #1e1e1e; stroke-width: 1.000000; stroke-linejoin: round; stroke-linecap: square;  opacity: 1.000000" clip-path="url(#pc3c5e41676658680e7b95047b5791c8e)" d="M73.125000 44.100000L77.658750 48.691471L82.192500 53.280738
L86.726250 57.866035L91.260000 62.444718L95.793750 67.015242
L100.327500 71.575182L104.861250 76.122553L109.395000 80.655592
L113.928750 85.172094L118.462500 89.670294L122.996250 94.148208
L127.530000 98.603851L132.063750 103.035901L136.597500 107.442374
L141.131250 111.821503L145.665000 116.172189L150.198750 120.492225
L154.732500 124.780950L159.266250 129.036379L163.800000 133.257632
L168.333750 137.443603L172.867500 141.592752L177.401250 145.704416
L181.935000 149.777712L186.468750 153.811539L191.002500 157.805456
L195.536250 161.758579L200.070000 165.670470L204.603750 169.540907
L209.137500 173.369007L213.671250 177.154992L218.205000 180.898421
L222.738750 184.599292L227.272500 188.257608L231.806250 191.873588
L236.340000 195.447011L240.873750 198.978539L245.407500 202.468392
L249.941250 205.917012L254.475000 209.324839L259.008750 212.692536
L263.542500 216.020543L268.076250 219.309741L272.610000 222.561014
L277.143750 225.774801L281.677500 228.952427L286.211250 232.094552
L290.745000 235.202058L295.278750 238.276269L299.812500 241.318287
L304.346250 244.328796L308.880000 247.309228L313.413750 250.260665
L317.947500 253.184274L322.481250 256.081225L327.015000 258.952752
L331.548750 261.800047L336.082500 264.624304L340.616250 267.426744
L345.150000 270.208594L349.683750 272.970996L354.217500 275.715207
L358.751250 278.442329L363.285000 281.153530L367.818750 283.849959
L372.352500 286.532694L376.886250 289.202729L381.420000 291.861297
L385.953750 294.509282L390.487500 297.147564L395.021250 299.777247
L399.555000 302.399213L404.088750 305.014122L408.622500 307.623078
L413.156250 310.226301L417.690000 312.825114L422.223750 315.419958
L426.757500 318.011274L431.291250 320.599724L435.825000 323.185968
L440.358750 325.770228L444.892500 328.353165L449.426250 330.935220
L453.960000 333.516393L458.493750 336.097346L463.027500 338.678078
L467.561250 341.258810L472.095000 343.839983L476.628750 346.421376
L481.162500 349.003211L485.696250 351.585707L490.230000 354.168644
L494.763750 356.752242L499.297500 359.336502L503.831250 361.921203
L508.365000 364.506345L512.898750 367.091928L517.432500 369.677732
L521.966250 372.263756L526.500000 374.850000"/>
</g>
<g id="line2d18">
<path style="fill: none; stroke: #181818; stroke-width: 1.000000; stroke-linejoin: round; stroke-linecap: square;  opacity: 1.000000" clip-path="url(#pc3c5e41676658680e7b95047b5791c8e)" d="M73.125000 44.100000L77.658750 48.592246L82.192500 53.082729
L86.726250 57.569463L91.260000 62.050464L95.793750 66.524188
L100.327500 70.988872L104.861250 75.442311L109.395000 79.882960
L113.928750 84.309277L118.462500 88.719277L122.996250 93.111417
L127.530000 97.483932L132.063750 101.835499L136.597500 106.164576
L141.131250 110.469397L145.665000 114.749082L150.198750 119.001865
L154.732500 123.226425L159.266250 127.421878L163.800000 131.586682
L168.333750 135.720175L172.867500 139.821255L177.401250 143.888598
L181.935000 147.921984L186.468750 151.920090L191.002500 155.882475
L195.536250 159.808478L200.070000 163.697657L204.603750 167.549351
L209.137500 171.363339L213.671250 175.139401L218.205000 178.876877
L222.738750 182.576205L227.272500 186.236946L231.806250 189.859320
L236.340000 193.443106L240.873750 196.988747L245.407500 200.496461
L249.941250 203.966249L254.475000 207.398993L259.008750 210.794472
L263.542500 214.153790L268.076250 217.476945L272.610000 220.765041
L277.143750 224.018298L281.677500 227.237598L286.211250 230.423823
L290.745000 233.577635L295.278750 236.699915L299.812500 239.791325
L304.346250 242.852923L308.880000 245.885680L313.413750 248.890478
L317.947500 251.868308L322.481250 254.820164L327.015000 257.747036
L331.548750 260.649963L336.082500 263.529920L340.616250 266.387968
L345.150000 269.225120L349.683750 272.042404L354.217500 274.840836
L358.751250 277.621429L363.285000 280.385154L367.818750 283.133025
L372.352500 285.865990L376.886250 288.584888L381.420000 291.290864
L385.953750 293.984712L390.487500 296.667315L395.021250 299.339334
L399.555000 302.001651L404.088750 304.655369L408.622500 307.300707
L413.156250 309.938769L417.690000 312.570216L422.223750 315.195269
L426.757500 317.815029L431.291250 320.429939L435.825000 323.040438
L440.358750 325.646969L444.892500 328.250192L449.426250 330.850328
L453.960000 333.447818L458.493750 336.042882L463.027500 338.636183
L467.561250 341.227940L472.095000 343.818153L476.628750 346.407044
L481.162500 348.995052L485.696250 351.582399L490.230000 354.168864
L494.763750 356.754888L499.297500 359.340692L503.831250 361.926054
L508.365000 364.510976L512.898750 367.095897L517.432500 369.680598
L521.966250 372.265299L526.500000 374.850000"/>
</g>
<g id="line2d19">
<path style="fill: none; stroke: #121212; stroke-width: 1.000000; stroke-linejoin: round; stroke-linecap: square;  opacity: 1.000000" clip-path="url(#pc3c5e41676658680e7b95047b5791c8e)" d="M73.125000 44.100000L77.658750 48.504708L82.192500 52.907652
L86.726250 57.307288L91.260000 61.702074L95.793750 66.090465
L100.327500 70.470477L104.861250 74.840787L109.395000 79.199631
L113.928750 83.545686L118.462500 87.877408L122.996250 92.193255
L127.530000 96.491682L132.063750 100.771587L136.597500 105.031206
L141.131250 109.269657L145.665000 113.485176L150.198750 117.677101
L154.732500 121.843890L159.266250 125.984659L163.800000 130.098087
L168.333750 134.183511L172.867500 138.239829L177.401250 142.266159
L181.935000 146.261840L186.468750 150.226209L191.002500 154.158165
L195.536250 158.057707L200.070000 161.923734L204.603750 165.756245
L209.137500 169.554577L213.671250 173.318733L218.205000 177.048049
L222.738750 180.742527L227.272500 184.401945L231.806250 188.026524
L236.340000 191.615823L240.873750 195.170503L245.407500 198.690124
L249.941250 202.175348L254.475000 205.625952L259.008750 209.042600
L263.542500 212.425731L268.076250 215.775347L272.610000 219.092108
L277.143750 222.376676L281.677500 225.629492L286.211250 228.851217
L290.745000 232.042293L295.278750 235.203602L299.812500 238.335584
L304.346250 241.439342L308.880000 244.515405L313.413750 247.564545
L317.947500 250.587644L322.481250 253.585496L327.015000 256.558960
L331.548750 259.508898L336.082500 262.436136L340.616250 265.341586
L345.150000 268.226100L349.683750 271.090572L354.217500 273.935882
L358.751250 276.762868L363.285000 279.572435L367.818750 282.365420
L372.352500 285.142662L376.886250 287.905086L381.420000 290.653398
L385.953750 293.388260L390.487500 296.110773L395.021250 298.821600
L399.555000 301.521182L404.088750 304.210841L408.622500 306.890577
L413.156250 309.561714L417.690000 312.224252L422.223750 314.879292
L426.757500 317.527277L431.291250 320.168646L435.825000 322.804283
L440.358750 325.434186L444.892500 328.059239L449.426250 330.679661
L453.960000 333.295893L458.493750 335.908377L463.027500 338.517554
L467.561250 341.123864L472.095000 343.727307L476.628750 346.328325
L481.162500 348.927359L485.696250 351.524408L490.230000 354.119913
L494.763750 356.714096L499.297500 359.306955L503.831250 361.898933
L508.365000 364.490249L512.898750 367.080683L517.432500 369.670676
L521.966250 372.260448L526.500000 374.850000"/>
</g>
<g id="line2d20">
<path style="fill: none; stroke: #0c0c0c; stroke-width: 1.000000; stroke-linejoin: round; stroke-linecap: square;  opacity: 1.000000" clip-path="url(#pc3c5e41676658680e7b95047b5791c8e)" d="M73.125000 44.100000L77.658750 48.426871L82.192500 52.752199
L86.726250 57.074440L91.260000 61.392492L95.793750 65.704590
L100.327500 70.009411L104.861250 74.305633L109.395000 78.591712
L113.928750 82.866105L118.462500 87.127929L122.996250 91.375420
L127.530000 95.607477L132.063750 99.822776L136.597500 104.020213
L141.131250 108.198468L145.665000 112.356437L150.198750 116.493016
L154.732500 120.607326L159.266250 124.698042L163.800000 128.764503
L168.333750 132.805606L172.867500 136.820470L177.401250 140.808654
L181.935000 144.768834L186.468750 148.700790L191.002500 152.603860
L195.536250 156.477384L200.070000 160.320699L204.603750 164.133585
L209.137500 167.915380L213.671250 171.666086L218.205000 175.385039
L222.738750 179.072460L227.272500 182.727909L231.806250 186.351385
L236.340000 189.942669L240.873750 193.501980L245.407500 197.029098
L249.941250 200.524685L254.475000 203.988299L259.008750 207.420381
L263.542500 210.821153L268.076250 214.191275L272.610000 217.530527
L277.143750 220.839570L281.677500 224.119067L286.211250 227.369016
L290.745000 230.590301L295.278750 233.783361L299.812500 236.948859
L304.346250 240.087015L308.880000 243.198932L313.413750 246.284983
L317.947500 249.345920L322.481250 252.382426L327.015000 255.395205
L331.548750 258.384987L336.082500 261.352520L340.616250 264.298519
L345.150000 267.223752L349.683750 270.128971L354.217500 273.014942
L358.751250 275.882412L363.285000 278.732132L367.818750 281.564873
L372.352500 284.381364L376.886250 287.182287L381.420000 289.968525
L385.953750 292.740872L390.487500 295.499547L395.021250 298.245875
L399.555000 300.980075L404.088750 303.703029L408.622500 306.415179
L413.156250 309.117407L417.690000 311.810153L422.223750 314.494079
L426.757500 317.169846L431.291250 319.837896L435.825000 322.498670
L440.358750 325.152828L444.892500 327.800813L449.426250 330.442844
L453.960000 333.079803L458.493750 335.711912L463.027500 338.339610
L467.561250 340.963119L472.095000 343.583100L476.628750 346.199774
L481.162500 348.813360L485.696250 351.424301L490.230000 354.032816
L494.763750 356.639346L499.297500 359.244113L503.831250 361.847336
L508.365000 364.449236L512.898750 367.050254L517.432500 369.650610
L521.966250 372.250526L526.500000 374.850000"/>
</g>
<g id="line2d21">
<path style="fill: none; stroke: #060606; stroke-width: 1.000000; stroke-linejoin: round; stroke-linecap: square;  opacity: 1.000000" clip-path="url(#pc3c5e41676658680e7b95047b5791c8e)" d="M73.125000 44.100000L77.658750 48.357193L82.192500 52.613064
L86.726250 56.866288L91.260000 61.115544L95.793750 65.359728
L100.327500 69.597297L104.861250 73.826928L109.395000 78.047518
L113.928750 82.257966L118.462500 86.456727L122.996250 90.642919
L127.530000 94.815000L132.063750 98.972307L136.597500 103.113297
L141.131250 107.237088L145.665000 111.342577L150.198750 115.429104
L154.732500 119.495124L159.266250 123.540196L163.800000 127.563219
L168.333750 131.563310L172.867500 135.539806L177.401250 139.492049
L181.935000 143.418933L186.468750 147.320460L191.002500 151.195527
L195.536250 155.043693L200.070000 158.864517L204.603750 162.657558
L209.137500 166.422595L213.671250 170.158968L218.205000 173.866455
L222.738750 177.544836L227.272500 181.194111L231.806250 184.813839
L236.340000 188.404241L240.873750 191.965095L245.407500 195.496182
L249.941250 198.997942L254.475000 202.470377L259.008750 205.913484
L263.542500 209.327486L268.076250 212.712602L272.610000 216.069273
L277.143750 219.397500L281.677500 222.697944L286.211250 225.970826
L290.745000 229.216365L295.278750 232.435224L299.812500 235.627844
L304.346250 238.794665L308.880000 241.936128L313.413750 245.052918
L317.947500 248.145562L322.481250 251.214636L327.015000 254.260711
L331.548750 257.284405L336.082500 260.286359L340.616250 263.267188
L345.150000 266.227563L349.683750 269.168121L354.217500 272.089547
L358.751250 274.992474L363.285000 277.877562L367.818750 280.745495
L372.352500 283.596957L376.886250 286.432565L381.420000 289.253003
L385.953750 292.058865L390.487500 294.850836L395.021250 297.629577
L399.555000 300.395750L404.088750 303.149795L408.622500 305.892594
L413.156250 308.624589L417.690000 311.346221L422.223750 314.058150
L426.757500 316.761039L431.291250 319.455329L435.825000 322.141460
L440.358750 324.820094L444.892500 327.491672L449.426250 330.156635
L453.960000 332.815424L458.493750 335.468700L463.027500 338.116464
L467.561250 340.759598L472.095000 343.398321L476.628750 346.032855
L481.162500 348.663861L485.696250 351.291560L490.230000 353.916392
L494.763750 356.538578L499.297500 359.158559L503.831250 361.776776
L508.365000 364.393229L512.898750 367.008579L517.432500 369.622827
L521.966250 372.236634L526.500000 374.850000"/>
</g>
<g id="matplotlib.axis1">
<g id="xtick1">
<g id="line2d22">
<defs><path id="m30e32995789d870ad79a2e54c91cf9c6" d="M0.000000 0.000000L0.000000 -4.000000"/></defs>
<g ><use style="fill: none; stroke: #000000; stroke-width: 0.500000; stroke-linejoin: round; stroke-linecap: butt;  opacity: 1.000000" xlink:href="#m30e32995789d870ad79a2e54c91cf9c6" x="73.125000" y="396.900000"/>
</g></g>
<g id="line2d23">
<defs><path id="m9281cae24120827b11d5ea8a7ad3e96b" d="M0.000000 0.000000L0.000000 4.000000"/></defs>
<g ><use style="fill: none; stroke: #000000; stroke-width: 0.500000; stroke-linejoin: round; stroke-linecap: butt;  opacity: 1.000000" xlink:href="#m9281cae24120827b11d5ea8a7ad3e96b" x="73.125000" y="44.100000"/>
</g></g>
<g id="text1">
<defs>
<path id="c_7a2040fe3b94fcd41d0a72c84e93b115" d="M31.781250 -66.406250q-7.609375 0.000000 -11.453125 7.500000q-3.828125 7.484375 -3.828125 22.531250q0.000000 14.984375 3.828125 22.484375q3.843750 7.500000 11.453125 7.500000q7.671875 0.000000 11.500000 -7.500000q3.843750 -7.500000 3.843750 -22.484375q0.000000 -15.046875 -3.843750 -22.531250q-3.828125 -7.500000 -11.500000 -7.500000M31.781250 -74.218750q12.265625 0.000000 18.734375 9.703125q6.468750 9.687500 6.468750 28.140625q0.000000 18.406250 -6.468750 28.109375q-6.468750 9.687500 -18.734375 9.687500q-12.250000 0.000000 -18.718750 -9.687500q-6.468750 -9.703125 -6.468750 -28.109375q0.000000 -18.453125 6.468750 -28.140625q6.468750 -9.703125 18.718750 -9.703125"/>
</defs>
<g style="fill: #000000; opacity: 1.000000" transform="translate(70.101562,409.806250)scale(0.120000)">
<use xlink:href="#c_7a2040fe3b94fcd41d0a72c84e93b115"/>
</g>
</g>
</g>
<g id="xtick2">
<g id="line2d24">
<g ><use style="fill: none; stroke: #000000; stroke-width: 0.500000; stroke-linejoin: round; stroke-linecap: butt;  opacity: 1.000000" xlink:href="#m30e32995789d870ad79a2e54c91cf9c6" x="163.800000" y="396.900000"/>
</g></g>
<g id="line2d25">
<g ><use style="fill: none; stroke: #000000; stroke-width: 0.500000; stroke-linejoin: round; stroke-linecap: butt;  opacity: 1.000000" xlink:href="#m9281cae24120827b11d5ea8a7ad3e96b" x="163.800000" y="44.100000"/>
</g></g>
<g id="text2">
<defs>
<path id="c_ed3f3ed3ebfbd18bcb9c012009a68ad1" d="M19.187500 -8.296875l34.421875 0.000000l0.000000 8.296875l-46.281250 0.000000l0.000000 -8.296875q5.609375 -5.812500 15.296875 -15.593750q9.703125 -9.796875 12.187500 -12.640625q4.734375 -5.312500 6.609375 -9.000000q1.890625 -3.687500 1.890625 -7.250000q0.000000 -5.812500 -4.078125 -9.468750q-4.078125 -3.671875 -10.625000 -3.671875q-4.640625 0.000000 -9.796875 1.609375q-5.140625 1.609375 -11.000000 4.890625l0.000000 -9.968750q5.953125 -2.390625 11.125000 -3.609375q5.187500 -1.218750 9.484375 -1.218750q11.328125 0.000000 18.062500 5.671875q6.734375 5.656250 6.734375 15.125000q0.000000 4.500000 -1.687500 8.531250q-1.671875 4.015625 -6.125000 9.484375q-1.218750 1.421875 -7.765625 8.187500q-6.531250 6.765625 -18.453125 18.921875"/>
</defs>
<g style="fill: #000000; opacity: 1.000000" transform="translate(156.995313,409.806250)scale(0.120000)">
<use xlink:href="#c_ed3f3ed3ebfbd18bcb9c012009a68ad1"/>
<use xlink:href="#c_7a2040fe3b94fcd41d0a72c84e93b115" x="63.623047"/>
</g>
</g>
</g>
<g id="xtick3">
<g id="line2d26">
<g ><use style="fill: none; stroke: #000000; stroke-width: 0.500000; stroke-linejoin: round; stroke-linecap: butt;  opacity: 1.000000" xlink:href="#m30e32995789d870ad79a2e54c91cf9c6" x="254.475000" y="396.900000"/>
</g></g>
<g id="line2d27">
<g ><use style="fill: none; stroke: #000000; stroke-width: 0.500000; stroke-linejoin: round; stroke-linecap: butt;  opacity: 1.000000" xlink:href="#m9281cae24120827b11d5ea8a7ad3e96b" x="254.475000" y="44.100000"/>
</g></g>
<g id="text3">
<defs>
<path id="c_a0416418d96557a09b8c1332d34883ba" d="M37.796875 -64.312500l-24.906250 38.921875l24.906250 0.000000zM35.203125 -72.906250l12.406250 0.000000l0.000000 47.515625l10.406250 0.000000l0.000000 8.203125l-10.406250 0.000000l0.000000 17.187500l-9.812500 0.000000l0.000000 -17.187500l-32.906250 0.000000l0.000000 -9.515625z"/>
</defs>
<g style="fill: #000000; opacity: 1.000000" transform="translate(247.529688,409.806250)scale(0.120000)">
<use xlink:href="#c_a0416418d96557a09b8c1332d34883ba"/>
<use xlink:href="#c_7a2040fe3b94fcd41d0a72c84e93b115" x="63.623047"/>
</g>
</g>
</g>
<g id="xtick4">
<g id="line2d28">
<g ><use style="fill: none; stroke: #000000; stroke-width: 0.500000; stroke-linejoin: round; stroke-linecap: butt;  opacity: 1.000000" xlink:href="#m30e32995789d870ad79a2e54c91cf9c6" x="345.150000" y="396.900000"/>
</g></g>
<g id="line2d29">
<g ><use style="fill: none; stroke: #000000; stroke-width: 0.500000; stroke-linejoin: round; stroke-linecap: butt;  opacity: 1.000000" xlink:href="#m9281cae24120827b11d5ea8a7ad3e96b" x="345.150000" y="44.100000"/>
</g></g>
<g id="text4">
<defs>
<path id="c_cc8d6d580d1b10c8632f7a42cd53db8a" d="M33.015625 -40.375000q-6.640625 0.000000 -10.531250 4.546875q-3.875000 4.531250 -3.875000 12.437500q0.000000 7.859375 3.875000 12.437500q3.890625 4.562500 10.531250 4.562500q6.640625 0.000000 10.515625 -4.562500q3.875000 -4.578125 3.875000 -12.437500q0.000000 -7.906250 -3.875000 -12.437500q-3.875000 -4.546875 -10.515625 -4.546875M52.593750 -71.296875l0.000000 8.984375q-3.718750 -1.750000 -7.500000 -2.671875q-3.781250 -0.937500 -7.500000 -0.937500q-9.765625 0.000000 -14.921875 6.593750q-5.140625 6.593750 -5.875000 19.921875q2.875000 -4.250000 7.218750 -6.515625q4.359375 -2.265625 9.578125 -2.265625q10.984375 0.000000 17.359375 6.671875q6.375000 6.656250 6.375000 18.125000q0.000000 11.234375 -6.640625 18.031250q-6.640625 6.781250 -17.671875 6.781250q-12.656250 0.000000 -19.343750 -9.687500q-6.687500 -9.703125 -6.687500 -28.109375q0.000000 -17.281250 8.203125 -27.562500q8.203125 -10.281250 22.015625 -10.281250q3.718750 0.000000 7.500000 0.734375q3.781250 0.734375 7.890625 2.187500"/>
</defs>
<g style="fill: #000000; opacity: 1.000000" transform="translate(338.329688,409.806250)scale(0.120000)">
<use xlink:href="#c_cc8d6d580d1b10c8632f7a42cd53db8a"/>
<use xlink:href="#c_7a2040fe3b94fcd41d0a72c84e93b115" x="63.623047"/>
</g>
</g>
</g>
<g id="xtick5">
<g id="line2d30">
<g ><use style="fill: none; stroke: #000000; stroke-width: 0.500000; stroke-linejoin: round; stroke-linecap: butt;  opacity: 1.000000" xlink:href="#m30e32995789d870ad79a2e54c91cf9c6" x="435.825000" y="396.900000"/>
</g></g>
<g id="line2d31">
<g ><use style="fill: none; stroke: #000000; stroke-width: 0.500000; stroke-linejoin: round; stroke-linecap: butt;  opacity: 1.000000" xlink:href="#m9281cae24120827b11d5ea8a7ad3e96b" x="435.825000" y="44.100000"/>
</g></g>
<g id="text5">
<defs>
<path id="c_bef35738d52871942e50b9de9b122bab" d="M31.781250 -34.625000q-7.031250 0.000000 -11.062500 3.765625q-4.015625 3.765625 -4.015625 10.343750q0.000000 6.593750 4.015625 10.359375q4.031250 3.765625 11.062500 3.765625q7.031250 0.000000 11.078125 -3.781250q4.062500 -3.796875 4.062500 -10.343750q0.000000 -6.578125 -4.031250 -10.343750q-4.015625 -3.765625 -11.109375 -3.765625M21.921875 -38.812500q-6.343750 -1.562500 -9.890625 -5.906250q-3.531250 -4.359375 -3.531250 -10.609375q0.000000 -8.734375 6.218750 -13.812500q6.234375 -5.078125 17.062500 -5.078125q10.890625 0.000000 17.093750 5.078125q6.203125 5.078125 6.203125 13.812500q0.000000 6.250000 -3.546875 10.609375q-3.531250 4.343750 -9.828125 5.906250q7.125000 1.656250 11.093750 6.500000q3.984375 4.828125 3.984375 11.796875q0.000000 10.609375 -6.468750 16.281250q-6.468750 5.656250 -18.531250 5.656250q-12.046875 0.000000 -18.531250 -5.656250q-6.468750 -5.671875 -6.468750 -16.281250q0.000000 -6.968750 4.000000 -11.796875q4.015625 -4.843750 11.140625 -6.500000M18.312500 -54.390625q0.000000 5.656250 3.531250 8.828125q3.546875 3.171875 9.937500 3.171875q6.359375 0.000000 9.937500 -3.171875q3.593750 -3.171875 3.593750 -8.828125q0.000000 -5.671875 -3.593750 -8.843750q-3.578125 -3.171875 -9.937500 -3.171875q-6.390625 0.000000 -9.937500 3.171875q-3.531250 3.171875 -3.531250 8.843750"/>
</defs>
<g style="fill: #000000; opacity: 1.000000" transform="translate(428.989063,409.806250)scale(0.120000)">
<use xlink:href="#c_bef35738d52871942e50b9de9b122bab"/>
<use xlink:href="#c_7a2040fe3b94fcd41d0a72c84e93b115" x="63.623047"/>
</g>
</g>
</g>
<g id="xtick6">
<g id="line2d32">
<g ><use style="fill: none; stroke: #000000; stroke-width: 0.500000; stroke-linejoin: round; stroke-linecap: butt;  opacity: 1.000000" xlink:href="#m30e32995789d870ad79a2e54c91cf9c6" x="526.500000" y="396.900000"/>
</g></g>
<g id="line2d33">
<g ><use style="fill: none; stroke: #000000; stroke-width: 0.500000; stroke-linejoin: round; stroke-linecap: butt;  opacity: 1.000000" xlink:href="#m9281cae24120827b11d5ea8a7ad3e96b" x="526.500000" y="44.100000"/>
</g></g>
<g id="text6">
<defs>
<path id="c_42baa63129a918535c52adb20d687ea7" d="M12.406250 -8.296875l16.109375 0.000000l0.000000 -55.625000l-17.531250 3.515625l0.000000 -8.984375l17.437500 -3.515625l9.859375 0.000000l0.000000 64.609375l16.109375 0.000000l0.000000 8.296875l-41.984375 0.000000z"/>
</defs>
<g style="fill: #000000; opacity: 1.000000" transform="translate(516.093750,409.806250)scale(0.120000)">
<use xlink:href="#c_42baa63129a918535c52adb20d687ea7"/>
<use xlink:href="#c_7a2040fe3b94fcd41d0a72c84e93b115" x="63.623047"/>
<use xlink:href="#c_7a2040fe3b94fcd41d0a72c84e93b115" x="127.246094"/>
</g>
</g>
</g>
</g>
<g id="matplotlib.axis2">
<g id="ytick1">
<g id="line2d34">
<defs><path id="m3400efa6b1638b3fea9e19e898273957" d="M0.000000 0.000000L4.000000 0.000000"/></defs>
<g ><use style="fill: none; stroke: #000000; stroke-width: 0.500000; stroke-linejoin: round; stroke-linecap: butt;  opacity: 1.000000" xlink:href="#m3400efa6b1638b3fea9e19e898273957" x="73.125000" y="396.900000"/>
</g></g>
<g id="line2d35">
<defs><path id="m20b58b2501143cb5e0a5e8f1ef6f1643" d="M0.000000 0.000000L-4.000000 0.000000"/></defs>
<g ><use style="fill: none; stroke: #000000; stroke-width: 0.500000; stroke-linejoin: round; stroke-linecap: butt;  opacity: 1.000000" xlink:href="#m20b58b2501143cb5e0a5e8f1ef6f1643" x="526.500000" y="396.900000"/>
</g></g>
<g id="text7">
<defs>
<path id="c_6a8d56c819c37117ab4cf023bec22a5a" d="M10.593750 -35.500000l62.593750 0.000000l0.000000 8.296875l-62.593750 0.000000z"/>
</defs>
<g style="fill: #000000; opacity: 1.000000" transform="translate(53.453125,401.267188)scale(0.120000)">
<use xlink:href="#c_6a8d56c819c37117ab4cf023bec22a5a"/>
<use xlink:href="#c_cc8d6d580d1b10c8632f7a42cd53db8a" x="83.789062"/>
</g>
</g>
</g>
<g id="ytick2">
<g id="line2d36">
<g ><use style="fill: none; stroke: #000000; stroke-width: 0.500000; stroke-linejoin: round; stroke-linecap: butt;  opacity: 1.000000" xlink:href="#m3400efa6b1638b3fea9e19e898273957" x="73.125000" y="352.800000"/>
</g></g>
<g id="line2d37">
<g ><use style="fill: none; stroke: #000000; stroke-width: 0.500000; stroke-linejoin: round; stroke-linecap: butt;  opacity: 1.000000" xlink:href="#m20b58b2501143cb5e0a5e8f1ef6f1643" x="526.500000" y="352.800000"/>
</g></g>
<g id="text8">
<g style="fill: #000000; opacity: 1.000000" transform="translate(53.359375,357.175000)scale(0.120000)">
<use xlink:href="#c_6a8d56c819c37117ab4cf023bec22a5a"/>
<use xlink:href="#c_a0416418d96557a09b8c1332d34883ba" x="83.789062"/>
</g>
</g>
</g>
<g id="ytick3">
<g id="line2d38">
<g ><use style="fill: none; stroke: #000000; stroke-width: 0.500000; stroke-linejoin: round; stroke-linecap: butt;  opacity: 1.000000" xlink:href="#m3400efa6b1638b3fea9e19e898273957" x="73.125000" y="308.700000"/>
</g></g>
<g id="line2d39">
<g ><use style="fill: none; stroke: #000000; stroke-width: 0.500000; stroke-linejoin: round; stroke-linecap: butt;  opacity: 1.000000" xlink:href="#m20b58b2501143cb5e0a5e8f1ef6f1643" x="526.500000" y="308.700000"/>
</g></g>
<g id="text9">
<g style="fill: #000000; opacity: 1.000000" transform="translate(53.890625,313.153125)scale(0.120000)">
<use xlink:href="#c_6a8d56c819c37117ab4cf023bec22a5a"/>
<use xlink:href="#c_ed3f3ed3ebfbd18bcb9c012009a68ad1" x="83.789062"/>
</g>
</g>
</g>
<g id="ytick4">
<g id="line2d40">
<g ><use style="fill: none; stroke: #000000; stroke-width: 0.500000; stroke-linejoin: round; stroke-linecap: butt;  opacity: 1.000000" xlink:href="#m3400efa6b1638b3fea9e19e898273957" x="73.125000" y="264.600000"/>
</g></g>
<g id="line2d41">
<g ><use style="fill: none; stroke: #000000; stroke-width: 0.500000; stroke-linejoin: round; stroke-linecap: butt;  opacity: 1.000000" xlink:href="#m20b58b2501143cb5e0a5e8f1ef6f1643" x="526.500000" y="264.600000"/>
</g></g>
<g id="text10">
<g style="fill: #000000; opacity: 1.000000" transform="translate(63.078125,268.967188)scale(0.120000)">
<use xlink:href="#c_7a2040fe3b94fcd41d0a72c84e93b115"/>
</g>
</g>
</g>
<g id="ytick5">
<g id="line2d42">
<g ><use style="fill: none; stroke: #000000; stroke-width: 0.500000; stroke-linejoin: round; stroke-linecap: butt;  opacity: 1.000000" xlink:href="#m3400efa6b1638b3fea9e19e898273957" x="73.125000" y="220.500000"/>
</g></g>
<g id="line2d43">
<g ><use style="fill: none; stroke: #000000; stroke-width: 0.500000; stroke-linejoin: round; stroke-linecap: butt;  opacity: 1.000000" xlink:href="#m20b58b2501143cb5e0a5e8f1ef6f1643" x="526.500000" y="220.500000"/>
</g></g>
<g id="text11">
<g style="fill: #000000; opacity: 1.000000" transform="translate(63.562500,224.953125)scale(0.120000)">
<use xlink:href="#c_ed3f3ed3ebfbd18bcb9c012009a68ad1"/>
</g>
</g>
</g>
<g id="ytick6">
<g id="line2d44">
<g ><use style="fill: none; stroke: #000000; stroke-width: 0.500000; stroke-linejoin: round; stroke-linecap: butt;  opacity: 1.000000" xlink:href="#m3400efa6b1638b3fea9e19e898273957" x="73.125000" y="176.400000"/>
</g></g>
<g id="line2d45">
<g ><use style="fill: none; stroke: #000000; stroke-width: 0.500000; stroke-linejoin: round; stroke-linecap: butt;  opacity: 1.000000" xlink:href="#m20b58b2501143cb5e0a5e8f1ef6f1643" x="526.500000" y="176.400000"/>
</g></g>
<g id="text12">
<g style="fill: #000000; opacity: 1.000000" transform="translate(62.750000,180.775000)scale(0.120000)">
<use xlink:href="#c_a0416418d96557a09b8c1332d34883ba"/>
</g>
</g>
</g>
<g id="ytick7">
<g id="line2d46">
<g ><use style="fill: none; stroke: #000000; stroke-width: 0.500000; stroke-linejoin: round; stroke-linecap: butt;  opacity: 1.000000" xlink:href="#m3400efa6b1638b3fea9e19e898273957" x="73.125000" y="132.300000"/>
</g></g>
<g id="line2d47">
<g ><use style="fill: none; stroke: #000000; stroke-width: 0.500000; stroke-linejoin: round; stroke-linecap: butt;  opacity: 1.000000" xlink:href="#m20b58b2501143cb5e0a5e8f1ef6f1643" x="526.500000" y="132.300000"/>
</g></g>
<g id="text13">
<g style="fill: #000000; opacity: 1.000000" transform="translate(63.093750,136.667187)scale(0.120000)">
<use xlink:href="#c_cc8d6d580d1b10c8632f7a42cd53db8a"/>
</g>
</g>
</g>
<g id="ytick8">
<g id="line2d48">
<g ><use style="fill: none; stroke: #000000; stroke-width: 0.500000; stroke-linejoin: round; stroke-linecap: butt;  opacity: 1.000000" xlink:href="#m3400efa6b1638b3fea9e19e898273957" x="73.125000" y="88.200000"/>
</g></g>
<g id="line2d49">
<g ><use style="fill: none; stroke: #000000; stroke-width: 0.500000; stroke-linejoin: round; stroke-linecap: butt;  opacity: 1.000000" xlink:href="#m20b58b2501143cb5e0a5e8f1ef6f1643" x="526.500000" y="88.200000"/>
</g></g>
<g id="text14">
<g style="fill: #000000; opacity: 1.000000" transform="translate(63.125000,92.567187)scale(0.120000)">
<use xlink:href="#c_bef35738d52871942e50b9de9b122bab"/>
</g>
</g>
</g>
<g id="ytick9">
<g id="line2d50">
<g ><use style="fill: none; stroke: #000000; stroke-width: 0.500000; stroke-linejoin: round; stroke-linecap: butt;  opacity: 1.000000" xlink:href="#m3400efa6b1638b3fea9e19e898273957" x="73.125000" y="44.100000"/>
</g></g>
<g id="line2d51">
<g ><use style="fill: none; stroke: #000000; stroke-width: 0.500000; stroke-linejoin: round; stroke-linecap: butt;  opacity: 1.000000" xlink:href="#m20b58b2501143cb5e0a5e8f1ef6f1643" x="526.500000" y="44.100000"/>
</g></g>
<g id="text15">
<g style="fill: #000000; opacity: 1.000000" transform="translate(55.953125,48.467187)scale(0.120000)">
<use xlink:href="#c_42baa63129a918535c52adb20d687ea7"/>
<use xlink:href="#c_7a2040fe3b94fcd41d0a72c84e93b115" x="63.623047"/>
</g>
</g>
</g>
</g>
<g id="patch3">
<path style="fill: none; stroke: #000000; stroke-width: 1.000000; stroke-linejoin: round; stroke-linecap: square;  opacity: 1.000000"  d="M73.125000 44.100000L526.500000 44.100000"/>
</g>
<g id="patch4">
<path style="fill: none; stroke: #000000; stroke-width: 1.000000; stroke-linejoin: round; stroke-linecap: square;  opacity: 1.000000"  d="M526.500000 396.900000L526.500000 44.100000"/>
</g>
<g id="patch5">
<path style="fill: none; stroke: #000000; stroke-width: 1.000000; stroke-linejoin: round; stroke-linecap: square;  opacity: 1.000000"  d="M73.125000 396.900000L526.500000 396.900000"/>
</g>
<g id="patch6">
<path style="fill: none; stroke: #000000; stroke-width: 1.000000; stroke-linejoin: round; stroke-linecap: square;  opacity: 1.000000"  d="M73.125000 396.900000L73.125000 44.100000"/>
</g>
</g>
</g>
</svg>
