<?xml version="1.0" standalone="no"?>
<!DOCTYPE svg PUBLIC "-//W3C//DTD SVG 1.1//EN"
  "http://www.w3.org/Graphics/SVG/1.1/DTD/svg11.dtd">
<!-- Created with matplotlib (http://matplotlib.sourceforge.net/) -->
<svg width="585pt" height="441pt" viewBox="0 0 585 441"
   xmlns="http://www.w3.org/2000/svg"
   xmlns:xlink="http://www.w3.org/1999/xlink"
   version="1.1"
   id="svg1">
<g id="figure1">
<g id="patch1">
<path style="fill: #ffffff; stroke: #ffffff; stroke-width: 1.000000; stroke-linejoin: round; stroke-linecap: square;  opacity: 1.000000"  d="M0.000000 441.000000L585.000000 441.000000L585.000000 0.000000
L0.000000 0.000000L0.000000 441.000000"/>
</g>
<g id="axes1">
<g id="patch2">
<path style="fill: #ffffff; opacity: 1.000000"  d="M73.125000 396.900000L526.500000 396.900000L526.500000 44.100000
L73.125000 44.100000L73.125000 396.900000"/>
</g>
<g id="line2d1">
<defs>
  <clipPath id="pc3c5e41676658680e7b95047b5791c8e">
<rect x="73.125000" y="44.100000" width="453.375000" height="352.800000"/>
  </clipPath>
</defs><path style="fill: none; stroke: #808080; stroke-width: 1.000000; stroke-linejoin: round; stroke-linecap: square;  opacity: 1.000000" clip-path="url(#pc3c5e41676658680e7b95047b5791c8e)" d="M73.125000 209.475000L77.658750 264.600000L82.192500 264.600000
L86.726250 264.600000L91.260000 264.600000L95.793750 264.600000
L100.327500 264.600000L104.861250 264.600000L109.395000 264.600000
L113.928750 264.600000L118.462500 264.600000L122.996250 264.600000
L127.530000 264.600000L132.063750 264.600000L136.597500 264.600000
L141.131250 264.600000L145.665000 264.600000L150.198750 264.600000
L154.732500 264.600000L159.266250 264.600000L163.800000 264.600000
L168.333750 264.600000L172.867500 264.600000L177.401250 264.600000
L181.935000 264.600000L186.468750 264.600000L191.002500 264.600000
L195.536250 264.600000L200.070000 264.600000L204.603750 264.600000
L209.137500 264.600000L213.671250 264.600000L218.205000 264.600000
L222.738750 264.600000L227.272500 264.600000L231.806250 264.600000
L236.340000 264.600000L240.873750 264.600000L245.407500 264.600000
L249.941250 264.600000L254.475000 264.600000L259.008750 264.600000
L263.542500 264.600000L268.076250 264.600000L272.610000 264.600000
L277.143750 264.600000L281.677500 264.600000L286.211250 264.600000
L290.745000 264.600000L295.278750 264.600000L299.812500 264.600000
L304.346250 264.600000L308.880000 264.600000L313.413750 264.600000
L317.947500 264.600000L322.481250 264.600000L327.015000 264.600000
L331.548750 264.600000L336.082500 264.600000L340.616250 264.600000
L345.150000 264.600000L349.683750 264.600000L354.217500 264.600000
L358.751250 264.600000L363.285000 264.600000L367.818750 264.600000
L372.352500 264.600000L376.886250 264.600000L381.420000 264.600000
L385.953750 264.600000L390.487500 264.600000L395.021250 264.600000
L399.555000 264.600000L404.088750 264.600000L408.622500 264.600000
L413.156250 264.600000L417.690000 264.600000L422.223750 264.600000
L426.757500 264.600000L431.291250 264.600000L435.825000 264.600000
L440.358750 264.600000L444.892500 264.600000L449.426250 264.600000
L453.960000 264.600000L458.493750 264.600000L463.027500 264.600000
L467.561250 264.600000L472.095000 264.600000L476.628750 264.600000
L481.162500 264.600000L485.696250 264.600000L490.230000 264.600000
L494.763750 264.600000L499.297500 264.600000L503.831250 264.600000
L508.365000 264.600000L512.898750 264.600000L517.432500 264.600000
L521.966250 264.600000L526.500000 292.162500"/>
</g>
<g id="line2d2">
<path style="fill: none; stroke: #797979; stroke-width: 1.000000; stroke-linejoin: round; stroke-linecap: square;  opacity: 1.000000" clip-path="url(#pc3c5e41676658680e7b95047b5791c8e)" d="M73.125000 61.595132L77.658750 78.918053L82.192500 95.901183
L86.726250 112.387307L91.260000 128.233318L95.793750 143.313754
L100.327500 157.524098L104.861250 170.782763L109.395000 183.031317
L113.928750 194.234922L118.462500 204.381891L122.996250 213.481044
L127.530000 221.560164L132.063750 228.662690L136.597500 234.845289
L141.131250 240.174113L145.665000 244.722212L150.198750 248.566100
L154.732500 251.783614L159.266250 254.451355L163.800000 256.643037
L168.333750 258.427940L172.867500 259.869988L177.401250 261.027150
L181.935000 261.951067L186.468750 262.649960L191.002500 263.152237
L195.536250 263.535113L200.070000 263.824041L204.603750 264.039875
L209.137500 264.199486L213.671250 264.316327L218.205000 264.400993
L222.738750 264.461724L227.272500 264.504843L231.806250 264.535149
L236.340000 264.556230L240.873750 264.570746L245.407500 264.580638
L249.941250 264.587311L254.475000 264.591767L259.008750 264.594710
L263.542500 264.596635L268.076250 264.597882L272.610000 264.598680
L277.143750 264.599187L281.677500 264.599506L286.211250 264.599706
L290.745000 264.599833L295.278750 264.599916L299.812500 264.599975
L304.346250 264.600021L308.880000 264.600071L313.413750 264.600140
L317.947500 264.600243L322.481250 264.600404L327.015000 264.600659
L331.548750 264.601059L336.082500 264.601682L340.616250 264.602645
L345.150000 264.604117L349.683750 264.606344L354.217500 264.609681
L358.751250 264.614627L363.285000 264.621885L367.818750 264.632426
L372.352500 264.647578L376.886250 264.669138L381.420000 264.699504
L385.953750 264.741837L390.487500 264.800257L395.021250 264.880061
L399.555000 264.987981L404.088750 265.132444L408.622500 265.323882
L413.156250 265.593774L417.690000 265.954152L422.223750 266.409765
L426.757500 266.983142L431.291250 267.699987L435.825000 268.589088
L440.358750 269.682305L444.892500 271.014125L449.426250 272.621305
L453.960000 274.542058L458.493750 276.815215L463.027500 279.478987
L467.561250 282.569802L472.095000 286.120734L476.628750 290.159919
L481.162500 294.709496L485.696250 299.782760L490.230000 305.384562
L494.763750 311.508729L499.297500 318.138062L503.831250 325.243233
L508.365000 332.783451L512.898750 340.706237L517.432500 348.949409
L521.966250 357.440864L526.500000 366.102324"/>
</g>
<g id="line2d3">
<path style="fill: none; stroke: #737373; stroke-width: 1.000000; stroke-linejoin: round; stroke-linecap: square;  opacity: 1.000000" clip-path="url(#pc3c5e41676658680e7b95047b5791c8e)" d="M73.125000 56.507755L77.658750 68.854212L82.192500 81.078511
L86.726250 93.122221L91.260000 104.929114L95.793750 116.446491
L100.327500 127.626282L104.861250 138.424387L109.395000 148.802661
L113.928750 158.728027L118.462500 168.173586L122.996250 177.118389
L127.530000 185.547663L132.063750 193.452368L136.597500 200.828975
L141.131250 207.679469L145.665000 214.010906L150.198750 219.834752
L154.732500 225.166442L159.266250 230.025159L163.800000 234.432072
L168.333750 238.411656L172.867500 241.989489L177.401250 245.192582
L181.935000 248.048410L186.468750 250.511770L191.002500 252.603146
L195.536250 254.429019L200.070000 256.015185L204.603750 257.386210
L209.137500 258.565378L213.671250 259.574496L218.205000 260.433741
L222.738750 261.161766L227.272500 261.775505L231.806250 262.290351
L236.340000 262.720085L240.873750 263.077022L245.407500 263.372053
L249.941250 263.614749L254.475000 263.813477L259.008750 263.975493
L263.542500 264.107068L268.076250 264.213580L272.610000 264.299637
L277.143750 264.369165L281.677500 264.425518L286.211250 264.471557
L290.745000 264.509744L295.278750 264.542221L299.812500 264.570360
L304.346250 264.595434L308.880000 264.619927L313.413750 264.645329
L317.947500 264.673147L322.481250 264.704953L327.015000 264.742451
L331.548750 264.787526L336.082500 264.842307L340.616250 264.909225
L345.150000 264.991068L349.683750 265.091045L354.217500 265.212840
L358.751250 265.360679L363.285000 265.539383L367.818750 265.754419
L372.352500 266.011961L376.886250 266.318919L381.420000 266.682986
L385.953750 267.112664L390.487500 267.617234L395.021250 268.206851
L399.555000 268.892385L404.088750 269.685458L408.622500 270.598416
L413.156250 271.680630L417.690000 272.942132L422.223750 274.363608
L426.757500 275.958991L431.291250 277.742087L435.825000 279.726432
L440.358750 281.924883L444.892500 284.349501L449.426250 287.011179
L453.960000 289.919133L458.493750 293.081544L463.027500 296.503704
L467.561250 300.189362L472.095000 304.139178L476.628750 308.351610
L481.162500 312.822248L485.696250 317.543594L490.230000 322.504844
L494.763750 327.692768L499.297500 333.091049L503.831250 338.680062
L508.365000 344.437979L512.898750 350.340764L517.432500 356.362178
L521.966250 362.473776L526.500000 368.646453"/>
</g>
<g id="line2d4">
<path style="fill: none; stroke: #6d6d6d; stroke-width: 1.000000; stroke-linejoin: round; stroke-linecap: square;  opacity: 1.000000" clip-path="url(#pc3c5e41676658680e7b95047b5791c8e)" d="M73.125000 54.249394L77.658750 64.365493L82.192500 74.415222
L86.726250 84.365725L91.260000 94.186134L95.793750 103.845798
L100.327500 113.316493L104.861250 122.571320L109.395000 131.585580
L113.928750 140.336563L118.462500 148.804645L122.996250 156.971745
L127.530000 164.823309L132.063750 172.346769L136.597500 179.532644
L141.131250 186.373656L145.665000 192.865837L150.198750 199.006983
L154.732500 204.797534L159.266250 210.240356L163.800000 215.340080
L168.333750 220.103541L172.867500 224.538899L177.401250 228.655854
L181.935000 232.466094L186.468750 235.910966L191.002500 239.000391
L195.536250 241.822571L200.070000 244.391925L204.603750 246.723448
L209.137500 248.832199L213.671250 250.733218L218.205000 252.441432
L222.738750 253.971437L227.272500 255.337523L231.806250 256.553426
L236.340000 257.632398L240.873750 258.587119L245.407500 259.429584
L249.941250 260.171147L254.475000 260.822526L259.008750 261.393732
L263.542500 261.894134L268.076250 262.332444L272.610000 262.716800
L277.143750 263.054727L281.677500 263.353249L286.211250 263.618903
L290.745000 263.857793L295.278750 264.075647L299.812500 264.275256
L304.346250 264.460449L308.880000 264.639940L313.413750 264.818408
L317.947500 265.000439L322.481250 265.190583L327.015000 265.393401
L331.548750 265.613513L336.082500 265.855650L340.616250 266.124687
L345.150000 266.425683L349.683750 266.763905L354.217500 267.144857
L358.751250 267.574325L363.285000 268.058322L367.818750 268.603133
L372.352500 269.215352L376.886250 269.901790L381.420000 270.669505
L385.953750 271.525773L390.487500 272.477980L395.021250 273.533712
L399.555000 274.700532L404.088750 275.986047L408.622500 277.397776
L413.156250 278.978232L417.690000 280.732684L422.223750 282.634364
L426.757500 284.689402L431.291250 286.903355L435.825000 289.281447
L440.358750 291.827781L444.892500 294.545444L449.426250 297.437301
L453.960000 300.504456L458.493750 303.747129L463.027500 307.164659
L467.561250 310.754619L472.095000 314.513483L476.628750 318.436398
L481.162500 322.517633L485.696250 326.749248L490.230000 331.122425
L494.763750 335.627460L499.297500 340.252889L503.831250 344.986362
L508.365000 349.814651L512.898750 354.723201L517.432500 359.696799
L521.966250 364.720230L526.500000 369.776736"/>
</g>
<g id="line2d5">
<path style="fill: none; stroke: #676767; stroke-width: 1.000000; stroke-linejoin: round; stroke-linecap: square;  opacity: 1.000000" clip-path="url(#pc3c5e41676658680e7b95047b5791c8e)" d="M73.125000 52.905667L77.658750 61.689505L82.192500 70.430125
L86.726250 79.106359L91.260000 87.697480L95.793750 96.183202
L100.327500 104.544562L104.861250 112.762818L109.395000 120.820770
L113.928750 128.701881L118.462500 136.391598L122.996250 143.875809
L127.530000 151.142386L132.063750 158.180306L136.597500 164.980085
L141.131250 171.534006L145.665000 177.835455L150.198750 183.879581
L154.732500 189.662855L159.266250 195.183072L163.800000 200.439571
L168.333750 205.432794L172.867500 210.164945L177.401250 214.638669
L181.935000 218.858157L186.468750 222.767622L191.002500 226.371695
L195.536250 229.739832L200.070000 232.879973L204.603750 235.800495
L209.137500 238.510440L213.671250 241.019289L218.205000 243.336391
L222.738750 245.471956L227.272500 247.435971L231.806250 249.238647
L236.340000 250.890126L240.873750 252.400573L245.407500 253.780021
L249.941250 255.038370L254.475000 256.185367L259.008750 257.230493
L263.542500 258.183031L268.076250 259.052044L272.610000 259.846263
L277.143750 260.574199L281.677500 261.244100L286.211250 261.863904
L290.745000 262.441369L295.278750 262.983956L299.812500 263.493778
L304.346250 263.976089L308.880000 264.444545L313.413750 264.905745
L317.947500 265.366145L322.481250 265.832077L327.015000 266.309766
L331.548750 266.805353L336.082500 267.324939L340.616250 267.874535
L345.150000 268.460095L349.683750 269.087616L354.217500 269.763008
L358.751250 270.492157L363.285000 271.280952L367.818750 272.135191
L372.352500 273.060651L376.886250 274.063066L381.420000 275.148036
L385.953750 276.321119L390.487500 277.587626L395.021250 278.952808
L399.555000 280.421647L404.088750 281.998861L408.622500 283.688950
L413.156250 285.526178L417.690000 287.513258L422.223750 289.624104
L426.757500 291.861518L431.291250 294.227262L435.825000 296.723322
L440.358750 299.350580L444.892500 302.109255L449.426250 304.999128
L453.960000 308.019317L458.493750 311.168057L463.027500 314.442923
L467.561250 317.840607L472.095000 321.357362L476.628750 324.988335
L481.162500 328.728236L485.696250 332.570669L490.230000 336.509019
L494.763750 340.535790L499.297500 344.642603L503.831250 348.821078
L508.365000 353.061954L512.898750 357.355310L517.432500 361.691222
L521.966250 366.059547L526.500000 370.449261"/>
</g>
<g id="line2d6">
<path style="fill: none; stroke: #616161; stroke-width: 1.000000; stroke-linejoin: round; stroke-linecap: square;  opacity: 1.000000" clip-path="url(#pc3c5e41676658680e7b95047b5791c8e)" d="M73.125000 51.988608L77.658750 59.861781L82.192500 67.703863
L86.726250 75.499641L91.260000 83.234340L95.793750 90.893187
L100.327500 98.462070L104.861250 105.927318L109.395000 113.275921
L113.928750 120.495312L118.462500 127.574023L122.996250 134.501251
L127.530000 141.266853L132.063750 147.861787L136.597500 154.277676
L141.131250 160.507242L145.665000 166.544091L150.198750 172.382711
L154.732500 178.018911L159.266250 183.449164L163.800000 188.670825
L168.333750 193.682349L172.867500 198.482855L177.401250 203.072562
L181.935000 207.452574L186.468750 211.573058L191.002500 215.436218
L195.536250 219.097620L200.070000 222.561455L204.603750 225.832793
L209.137500 228.916485L213.671250 231.818927L218.205000 234.546071
L222.738750 237.104973L227.272500 239.502249L231.806250 241.745396
L236.340000 243.842020L240.873750 245.799773L245.407500 247.626549
L249.941250 249.330375L254.475000 250.919320L259.008750 252.401455
L263.542500 253.784938L268.076250 255.077840L272.610000 256.288230
L277.143750 257.424114L281.677500 258.493407L286.211250 259.503958
L290.745000 260.463464L295.278750 261.379531L299.812500 262.252535
L304.346250 263.087963L308.880000 263.901948L313.413750 264.701525
L317.947500 265.493592L322.481250 266.284904L327.015000 267.082080
L331.548750 267.891624L336.082500 268.719866L340.616250 269.573003
L345.150000 270.457075L349.683750 271.378016L354.217500 272.341557
L358.751250 273.353277L363.285000 274.418600L367.818750 275.542776
L372.352500 276.730830L376.886250 277.987591L381.420000 279.317691
L385.953750 280.725496L390.487500 282.215150L395.021250 283.790490
L399.555000 285.455088L404.088750 287.212275L408.622500 289.064696
L413.156250 291.040155L417.690000 293.140418L422.223750 295.342110
L426.757500 297.646776L431.291250 300.055077L435.825000 302.567234
L440.358750 305.183246L444.892500 307.902452L449.426250 310.723529
L453.960000 313.645154L458.493750 316.665122L463.027500 319.780566
L467.561250 322.988841L472.095000 326.286198L476.628750 329.668448
L481.162500 333.131400L485.696250 336.669764L490.230000 340.278246
L494.763750 343.951115L499.297500 347.682195L503.831250 351.464873
L508.365000 355.292532L512.898750 359.157897L517.432500 363.053912
L521.966250 366.973079L526.500000 370.907681"/>
</g>
<g id="line2d7">
<path style="fill: none; stroke: #5b5b5b; stroke-width: 1.000000; stroke-linejoin: round; stroke-linecap: square;  opacity: 1.000000" clip-path="url(#pc3c5e41676658680e7b95047b5791c8e)" d="M73.125000 51.311452L77.658750 58.510777L82.192500 65.686729
L86.726250 72.827622L91.260000 79.921548L95.793750 86.957703
L100.327500 93.925062L104.861250 100.812820L109.395000 107.610835
L113.928750 114.309626L118.462500 120.899488L122.996250 127.371604
L127.530000 133.718256L132.063750 139.931064L136.597500 146.003634
L141.131250 151.929351L145.665000 157.702261L150.198750 163.317294
L154.732500 168.770480L159.266250 174.057408L163.800000 179.175654
L168.333750 184.122571L172.867500 188.896397L177.401250 193.496247
L181.935000 197.921682L186.468750 202.129263L191.002500 206.120313
L195.536250 209.939814L200.070000 213.589971L204.603750 217.073651
L209.137500 220.394381L213.671250 223.555689L218.205000 226.561766
L222.738750 229.417461L227.272500 232.127406L231.806250 234.697334
L236.340000 237.132315L240.873750 239.438745L245.407500 241.622577
L249.941250 243.690007L254.475000 245.647672L259.008750 247.502187
L263.542500 249.260344L268.076250 250.929000L272.610000 252.515101
L277.143750 254.025636L281.677500 255.467596L286.211250 256.848014
L290.745000 258.173902L295.278750 259.452185L299.812500 260.681362
L304.346250 261.866528L308.880000 263.024591L313.413750 264.162197
L317.947500 265.285878L322.481250 266.402054L327.015000 267.517017
L331.548750 268.636914L336.082500 269.767748L340.616250 270.915385
L345.150000 272.085468L349.683750 273.283511L354.217500 274.514827
L358.751250 275.784488L363.285000 277.097433L367.818750 278.458293
L372.352500 279.871543L376.886250 281.341352L381.420000 282.871666
L385.953750 284.466168L390.487500 286.128275L395.021250 287.860986
L399.555000 289.667322L404.088750 291.549731L408.622500 293.510196
L413.156250 295.570989L417.690000 297.733433L422.223750 299.978123
L426.757500 302.306162L431.291250 304.717329L435.825000 307.211625
L440.358750 309.788829L444.892500 312.447839L449.426250 315.187551
L453.960000 318.006203L458.493750 320.902029L463.027500 323.872826
L467.561250 326.915505L472.095000 330.027422L476.628750 333.204827
L481.162500 336.444413L485.696250 339.741990L490.230000 343.093149
L494.763750 346.493700L499.297500 349.938572L503.831250 353.422692
L508.365000 356.940990L512.898750 360.487953L517.432500 364.058069
L521.966250 367.645604L526.500000 371.244825"/>
</g>
<g id="line2d8">
<path style="fill: none; stroke: #555555; stroke-width: 1.000000; stroke-linejoin: round; stroke-linecap: square;  opacity: 1.000000" clip-path="url(#pc3c5e41676658680e7b95047b5791c8e)" d="M73.125000 50.785560L77.658750 57.461638L82.192500 64.119195
L86.726250 70.748748L91.260000 77.341257L95.793750 83.887902
L100.327500 90.379642L104.861250 96.808320L109.395000 103.165555
L113.928750 109.443411L118.462500 115.634169L122.996250 121.730553
L127.530000 127.725948L132.063750 133.613739L136.597500 139.388193
L141.131250 145.043577L145.665000 150.574819L150.198750 155.977290
L154.732500 161.247019L159.266250 166.380700L163.800000 171.374805
L168.333750 176.227349L172.867500 180.935685L177.401250 185.498933
L181.935000 189.915548L186.468750 194.148927L191.002500 198.198630
L195.536250 202.102362L200.070000 205.861226L204.603750 209.477205
L209.137500 212.951844L213.671250 216.288009L218.205000 219.488346
L222.738750 222.556163L227.272500 225.495207L231.806250 228.309228
L236.340000 231.002636L240.873750 233.579840L245.407500 236.045471
L249.941250 238.404600L254.475000 240.662300L259.008750 242.824324
L263.542500 244.895944L268.076250 246.882869L272.610000 248.790922
L277.143750 250.625989L281.677500 252.394046L286.211250 254.101091
L290.745000 255.753209L295.278750 257.356421L299.812500 258.907616
L304.346250 260.411294L308.880000 261.884146L313.413750 263.332072
L317.947500 264.760937L322.481250 266.176487L327.015000 267.584379
L331.548750 268.990133L336.082500 270.399194L340.616250 271.816767
L345.150000 273.247988L349.683750 274.697775L354.217500 276.170914
L358.751250 277.671924L363.285000 279.205192L367.818750 280.774822
L372.352500 282.384780L376.886250 284.038729L381.420000 285.740129
L385.953750 287.492090L390.487500 289.297764L395.021250 291.159446
L399.555000 293.079780L404.088750 295.060752L408.622500 297.104346
L413.156250 299.228202L417.690000 301.433202L422.223750 303.704132
L426.757500 306.041432L431.291250 308.445323L435.825000 310.915364
L440.358750 313.451555L444.892500 316.052793L449.426250 318.717977
L453.960000 321.446003L458.493750 324.235107L463.027500 327.083526
L467.561250 329.988614L472.095000 332.948165L476.628750 335.959533
L481.162500 339.019632L485.696250 342.125375L490.230000 345.273012
L494.763750 348.459237L499.297500 351.680301L503.831250 354.932015
L508.365000 358.210409L512.898750 361.511073L517.432500 364.830039
L521.966250 368.162456L526.500000 371.503913"/>
</g>
<g id="line2d9">
<path style="fill: none; stroke: #4f4f4f; stroke-width: 1.000000; stroke-linejoin: round; stroke-linecap: square;  opacity: 1.000000" clip-path="url(#pc3c5e41676658680e7b95047b5791c8e)" d="M73.125000 50.363523L77.658750 56.619549L82.192500 62.860360
L86.726250 69.078460L91.260000 75.266352L95.793750 81.416979
L100.327500 87.523065L104.861250 93.577333L109.395000 99.573390
L113.928750 105.504619L118.462500 111.364407L122.996250 117.147019
L127.530000 122.846724L132.063750 128.457787L136.597500 133.975359
L141.131250 139.394588L145.665000 144.711063L150.198750 149.921037
L154.732500 155.020320L159.266250 160.006266L163.800000 164.875568
L168.333750 169.626019L172.867500 174.255417L177.401250 178.762217
L181.935000 183.145316L186.468750 187.372742L191.002500 191.443833
L195.536250 195.390122L200.070000 199.212269L204.603750 202.911156
L209.137500 206.488327L213.671250 209.944886L218.205000 213.283476
L222.738750 216.505863L227.272500 219.614913L231.806250 222.613713
L236.340000 225.505350L240.873750 228.293352L245.407500 230.981247
L249.941250 233.573004L254.475000 236.072813L259.008750 238.485303
L263.542500 240.814445L268.076250 243.065309L272.610000 245.242459
L277.143750 247.350836L281.677500 249.395423L286.211250 251.381246
L290.745000 253.313443L295.278750 255.197152L299.812500 257.028008
L304.346250 258.809846L308.880000 260.558654L313.413750 262.279590
L317.947500 263.977681L322.481250 265.657952L327.015000 267.325336
L331.548750 268.984665L336.082500 270.640664L340.616250 272.297964
L345.150000 273.961041L349.683750 275.634217L354.217500 277.321703
L358.751250 279.027491L363.285000 280.755418L367.818750 282.509120
L372.352500 284.292083L376.886250 286.107526L381.420000 287.958447
L385.953750 289.847691L390.487500 291.777948L395.021250 293.751203
L399.555000 295.769880L404.088750 297.835745L408.622500 299.950560
L413.156250 302.127998L417.690000 304.369380L422.223750 306.662360
L426.757500 309.007818L431.291250 311.405756L435.825000 313.856172
L440.358750 316.358406L444.892500 318.912458L449.426250 321.517004
L453.960000 324.171162L458.493750 326.873831L463.027500 329.623025
L467.561250 332.417421L472.095000 335.254815L476.628750 338.133222
L481.162500 341.050217L485.696250 344.003153L490.230000 346.989164
L494.763750 350.005824L499.297500 353.050047L503.831250 356.118305
L508.365000 359.207730L512.898750 362.314575L517.432500 365.435973
L521.966250 368.567955L526.500000 371.707214"/>
</g>
<g id="line2d10">
<path style="fill: none; stroke: #494949; stroke-width: 1.000000; stroke-linejoin: round; stroke-linecap: square;  opacity: 1.000000" clip-path="url(#pc3c5e41676658680e7b95047b5791c8e)" d="M73.125000 50.017338L77.658750 55.928502L82.192500 61.827097
L86.726250 67.706730L91.260000 73.561667L95.793750 79.385292
L100.327500 85.172094L104.861250 90.916119L109.395000 96.611634
L113.928750 102.253126L118.462500 107.835525L122.996250 113.353317
L127.530000 118.802093L132.063750 124.176780L136.597500 129.473410
L141.131250 134.687574L145.665000 139.815742L150.198750 144.854167
L154.732500 149.799542L159.266250 154.649439L163.800000 159.400553
L168.333750 164.051338L172.867500 168.599372L177.401250 173.043329
L181.935000 177.381666L186.468750 181.586822L191.002500 185.658354
L195.536250 189.622724L200.070000 193.480151L204.603750 197.231297
L209.137500 200.876603L213.671250 204.417392L218.205000 207.855207
L222.738750 211.191593L227.272500 214.428312L231.806250 217.568012
L236.340000 220.612676L240.873750 223.565171L245.407500 226.428584
L249.941250 229.205781L254.475000 231.900071L259.008750 234.515201
L263.542500 237.054479L268.076250 239.521653L272.610000 241.920914
L277.143750 244.256295L281.677500 246.531657L286.211250 248.751298
L290.745000 250.919496L295.278750 253.040552L299.812500 255.109173
L304.346250 257.128666L308.880000 259.114070L313.413750 261.069773
L317.947500 263.000048L322.481250 264.909220L327.015000 266.801512
L331.548750 268.681080L336.082500 270.552023L340.616250 272.418313
L345.150000 274.283831L349.683750 276.152348L354.217500 278.027502
L358.751250 279.912777L363.285000 281.811546L367.818750 283.726964
L372.352500 285.662094L376.886250 287.619759L381.420000 289.602716
L385.953750 291.613235L390.487500 293.653742L395.021250 295.726442
L399.555000 297.832878L404.088750 299.975036L408.622500 302.154237
L413.156250 304.381508L417.690000 306.657729L422.223750 308.974082
L426.757500 311.330565L431.291250 313.728062L435.825000 316.166130
L440.358750 318.644771L444.892500 321.163763L449.426250 323.722445
L453.960000 326.319935L458.493750 328.955351L463.027500 331.627370
L467.561250 334.334889L472.095000 337.076366L476.628750 339.850035
L481.162500 342.654134L485.696250 345.486456L490.230000 348.345018
L494.763750 351.227835L499.297500 354.132041L503.831250 357.055430
L508.365000 359.995577L512.898750 362.949395L517.432500 365.914679
L521.966250 368.888342L526.500000 371.867738"/>
</g>
<g id="line2d11">
<path style="fill: none; stroke: #434343; stroke-width: 1.000000; stroke-linejoin: round; stroke-linecap: square;  opacity: 1.000000" clip-path="url(#pc3c5e41676658680e7b95047b5791c8e)" d="M73.125000 49.728924L77.658750 55.352335L82.192500 60.965383
L86.726250 66.562776L91.260000 72.139001L95.793750 77.689206
L100.327500 83.208542L104.861250 88.691715L109.395000 94.134096
L113.928750 99.531054L118.462500 104.878179L122.996250 110.170840
L127.530000 115.405290L132.063750 120.577338L136.597500 125.683236
L141.131250 130.719456L145.665000 135.682470L150.198750 140.569632
L154.732500 145.377855L159.266250 150.104493L163.800000 154.747341
L168.333750 159.304415L172.867500 163.773508L177.401250 168.153521
L181.935000 172.442907L186.468750 176.617854L191.002500 180.677700
L195.536250 184.645157L200.070000 188.520003L204.603750 192.302681
L209.137500 195.993410L213.671250 199.593072L218.205000 203.102550
L222.738750 206.523167L227.272500 209.856245L231.806250 213.103548
L236.340000 216.266841L240.873750 219.348329L245.407500 222.350216
L249.941250 225.274928L254.475000 228.125111L259.008750 230.903852
L263.542500 233.613576L268.076250 236.257592L272.610000 238.838985
L277.143750 241.361285L281.677500 243.827643L286.211250 246.241589
L290.745000 248.606650L295.278750 250.926420L299.812500 253.194990
L304.346250 255.415117L308.880000 257.600867L313.413750 259.755946
L317.947500 261.883991L322.481250 263.988659L327.015000 266.073524
L331.548750 268.142134L336.082500 270.198010L340.616250 272.244537
L345.150000 274.285066L349.683750 276.322816L354.217500 278.360964
L358.751250 280.402529L363.285000 282.450401L367.818750 284.507357
L372.352500 286.576066L376.886250 288.658976L381.420000 290.758577
L385.953750 292.876920L390.487500 295.015991L395.021250 297.177773
L399.555000 299.363810L404.088750 301.575866L408.622500 303.815043
L413.156250 306.089942L417.690000 308.401223L422.223750 310.742712
L426.757500 313.114631L431.291250 315.517419L435.825000 317.951298
L440.358750 320.416047L444.892500 322.911887L449.426250 325.438155
L453.960000 327.994412L458.493750 330.579995L463.027500 333.193802
L467.561250 335.835392L472.095000 338.503221L476.628750 341.195967
L481.162500 343.912527L485.696250 346.651137L490.230000 349.410254
L494.763750 352.188113L499.297500 354.982730L503.831250 357.792561
L508.365000 360.615402L512.898750 363.449048L517.432500 366.291513
L521.966250 369.140594L526.500000 371.994305"/>
</g>
<g id="line2d12">
<path style="fill: none; stroke: #3d3d3d; stroke-width: 1.000000; stroke-linejoin: round; stroke-linecap: square;  opacity: 1.000000" clip-path="url(#pc3c5e41676658680e7b95047b5791c8e)" d="M73.125000 49.485492L77.658750 54.866574L82.192500 60.238615
L86.726250 65.597206L91.260000 70.938157L95.793750 76.257058
L100.327500 81.549499L104.861250 86.811291L109.395000 92.038464
L113.928750 97.227270L118.462500 102.373299L122.996250 107.473464
L127.530000 112.523575L132.063750 117.520767L136.597500 122.461511
L141.131250 127.342719L145.665000 132.161526L150.198750 136.915286
L154.732500 141.601351L159.266250 146.217739L163.800000 150.762024
L168.333750 155.232441L172.867500 159.627447L177.401250 163.945499
L181.935000 168.185272L186.468750 172.326042L191.002500 176.367366
L195.536250 180.328208L200.070000 184.208787L204.603750 188.008664
L209.137500 191.728499L213.671250 195.368513L218.205000 198.929587
L222.738750 202.412385L227.272500 205.818008L231.806250 209.147778
L236.340000 212.403019L240.873750 215.585276L245.407500 218.696751
L249.941250 221.738769L254.475000 224.713976L259.008750 227.624135
L263.542500 230.471892L268.076250 233.259674L272.610000 235.990125
L277.143750 238.665893L281.677500 241.289402L286.211250 243.864092
L290.745000 246.392477L295.278750 248.877644L299.812500 251.313287
L304.346250 253.701677L308.880000 256.055978L313.413750 258.379254
L317.947500 260.674571L322.481250 262.945024L327.015000 265.193639
L331.548750 267.423436L336.082500 269.637367L340.616250 271.838376
L345.150000 274.029286L349.683750 276.212875L354.217500 278.391878
L358.751250 280.568875L363.285000 282.746400L367.818750 284.926859
L372.352500 287.112609L376.886250 289.305702L381.420000 291.508277
L385.953750 293.722317L390.487500 295.949588L395.021250 298.191632
L399.555000 300.450213L404.088750 302.726655L408.622500 305.022060
L413.156250 307.342823L417.690000 309.689825L422.223750 312.058436
L426.757500 314.449317L431.291250 316.862910L435.825000 319.299435
L440.358750 321.759113L444.892500 324.241943L449.426250 326.747705
L453.960000 329.275958L458.493750 331.826261L463.027500 334.398173
L467.561250 336.991032L472.095000 339.604178L476.628750 342.236066
L481.162500 344.886255L485.696250 347.553423L490.230000 350.236247
L494.763750 352.933623L499.297500 355.643789L503.831250 358.365641
L508.365000 361.097415L512.898750 363.837789L517.432500 366.584778
L521.966250 369.337059L526.500000 372.092648"/>
</g>
<g id="line2d13">
<path style="fill: none; stroke: #373737; stroke-width: 1.000000; stroke-linejoin: round; stroke-linecap: square;  opacity: 1.000000" clip-path="url(#pc3c5e41676658680e7b95047b5791c8e)" d="M73.125000 49.278222L77.658750 54.452695L82.192500 59.619451
L86.726250 64.774962L91.260000 69.915037L95.793750 75.036370
L100.327500 80.134992L104.861250 85.207594L109.395000 90.250429
L113.928750 95.260189L118.462500 100.233567L122.996250 105.167475
L127.530000 110.058606L132.063750 114.903873L136.597500 119.700850
L141.131250 124.446672L145.665000 129.138912L150.198750 133.774924
L154.732500 138.352505L159.266250 142.869888L163.800000 147.325311
L168.333750 151.716568L172.867500 156.042558L177.401250 160.301736
L181.935000 164.493000L186.468750 168.598049L191.002500 172.616441
L195.536250 176.564714L200.070000 180.442647L204.603750 184.250241
L209.137500 187.987275L213.671250 191.654411L218.205000 195.251648
L222.738750 198.780089L227.272500 202.239954L231.806250 205.632567
L236.340000 208.958810L240.873750 212.219784L245.407500 215.417475
L249.941250 218.552765L254.475000 221.627637L259.008750 224.643857
L263.542500 227.603187L268.076250 230.507613L272.610000 233.359340
L277.143750 236.160572L281.677500 238.913514L286.211250 241.620593
L290.745000 244.284034L295.278750 246.906419L299.812500 249.481175
L304.346250 252.010222L308.880000 254.505753L313.413750 256.970369
L317.947500 259.406630L322.481250 261.817158L327.015000 264.204483
L331.548750 266.571171L336.082500 268.919727L340.616250 271.252661
L345.150000 273.572366L349.683750 275.881243L354.217500 278.181609
L358.751250 280.475713L363.285000 282.765716L367.818750 285.053734
L372.352500 287.341709L376.886250 289.631601L381.420000 291.925242
L385.953750 294.224396L390.487500 296.530605L395.021250 298.845194
L399.555000 301.169925L404.088750 303.505682L408.622500 305.853786
L413.156250 308.218649L417.690000 310.601151L422.223750 312.998427
L426.757500 315.411359L431.291250 317.840166L435.825000 320.285291
L440.358750 322.746953L444.892500 325.225152L449.426250 327.720110
L453.960000 330.231384L458.493750 332.758976L463.027500 335.302443
L467.561250 337.861346L472.095000 340.435022L476.628750 343.023030
L481.162500 345.624489L485.696250 348.238517L490.230000 350.864451
L494.763750 353.501190L499.297500 356.147852L503.831250 358.803113
L508.365000 361.465871L512.898750 364.134803L517.432500 366.809027
L521.966250 369.487220L526.500000 372.168059"/>
</g>
<g id="line2d14">
<path style="fill: none; stroke: #313131; stroke-width: 1.000000; stroke-linejoin: round; stroke-linecap: square;  opacity: 1.000000" clip-path="url(#pc3c5e41676658680e7b95047b5791c8e)" d="M73.125000 49.100499L77.658750 54.097690L82.192500 59.088267
L86.726250 64.068921L91.260000 69.036565L95.793750 73.987893
L100.327500 78.919816L104.861250 83.829249L109.395000 88.712883
L113.928750 93.568293L118.462500 98.391951L122.996250 103.181652
L127.530000 107.934309L132.063750 112.647497L136.597500 117.318789
L141.131250 121.945761L145.665000 126.526207L150.198750 131.057923
L154.732500 135.539145L159.266250 139.967887L163.800000 144.342607
L168.333750 148.661761L172.867500 152.923806L177.401250 157.127859
L181.935000 161.272377L186.468750 165.341484L191.002500 169.334519
L195.536250 173.266254L200.070000 177.136249L204.603750 180.944064
L209.137500 184.689918L213.671250 188.373812L218.205000 191.995965
L222.738750 195.556820L227.272500 199.056816L231.806250 202.496837
L236.340000 205.877543L240.873750 209.200037L245.407500 212.465201
L249.941250 215.674358L254.475000 218.828831L259.008750 221.929722
L263.542500 224.979017L268.076250 227.978037L272.610000 230.928548
L277.143750 233.832533L281.677500 236.691315L286.211250 239.507321
L290.745000 242.282313L295.278750 245.018299L299.812500 247.708686
L304.346250 250.355016L308.880000 252.968691L313.413750 255.551849
L317.947500 258.106650L322.481250 260.635278L327.015000 263.139889
L331.548750 265.622642L336.082500 268.085664L340.616250 270.531075
L345.150000 272.960919L349.683750 275.377268L354.217500 277.782085
L358.751250 280.177311L363.285000 282.564819L367.818750 284.946439
L372.352500 287.323848L376.886250 289.698854L381.420000 292.072977
L385.953750 294.447762L390.487500 296.824311L395.021250 299.204609
L399.555000 301.589316L404.088750 303.979757L408.622500 306.377033
L413.156250 308.784452L417.690000 311.202234L422.223750 313.629278
L426.757500 316.066244L431.291250 318.513794L435.825000 320.971928
L440.358750 323.441307L444.892500 325.921932L449.426250 328.413803
L453.960000 330.917360L458.493750 333.432162L463.027500 335.957990
L467.561250 338.495063L472.095000 341.042499L476.628750 343.600079
L481.162500 346.167360L485.696250 348.743903L490.230000 351.328824
L494.763750 353.921684L499.297500 356.521599L503.831250 359.127909
L508.365000 361.739732L512.898750 364.356185L517.432500 366.976166
L521.966250 369.599234L526.500000 372.224066"/>
</g>
<g id="line2d15">
<path style="fill: none; stroke: #2b2b2b; stroke-width: 1.000000; stroke-linejoin: round; stroke-linecap: square;  opacity: 1.000000" clip-path="url(#pc3c5e41676658680e7b95047b5791c8e)" d="M73.125000 48.946810L77.658750 53.790754L82.192500 58.629186
L86.726250 63.458797L91.260000 68.277163L95.793750 73.081417
L100.327500 77.868693L104.861250 82.636564L109.395000 87.382166
L113.928750 92.102850L118.462500 96.796413L122.996250 101.459988
L127.530000 106.091811L132.063750 110.689015L136.597500 115.249837
L141.131250 119.772072L145.665000 124.253514L150.198750 128.692840
L154.732500 133.087847L159.266250 137.436988L163.800000 141.738723
L168.333750 145.991947L172.867500 150.195119L177.401250 154.347354
L181.935000 158.447331L186.468750 162.480938L191.002500 166.447733
L195.536250 170.360285L200.070000 174.218153L204.603750 178.021116
L209.137500 181.769175L213.671250 185.462109L218.205000 189.100359
L222.738750 192.683705L227.272500 196.212807L231.806250 199.688108
L236.340000 203.110268L240.873750 206.479949L245.407500 209.798033
L249.941250 213.065181L254.475000 216.282717L259.008750 219.451743
L263.542500 222.573141L268.076250 225.648675L272.610000 228.679448
L277.143750 231.666782L281.677500 234.612441L286.211250 237.517970
L290.745000 240.384911L295.278750 243.214830L299.812500 246.001178
L304.346250 248.745256L308.880000 251.457627L313.413750 254.140119
L317.947500 256.794521L322.481250 259.422660L327.015000 262.026368
L331.548750 264.607467L336.082500 267.167745L340.616250 269.709029
L345.150000 272.233048L349.683750 274.741567L354.217500 277.236260
L358.751250 279.718847L363.285000 282.190895L367.818750 284.653990
L372.352500 287.109743L376.886250 289.559498L381.420000 292.004622
L385.953750 294.446439L390.487500 296.886492L395.021250 299.325663
L399.555000 301.765275L404.088750 304.206210L408.622500 306.649571
L413.156250 309.097341L417.690000 311.549742L422.223750 314.006994
L426.757500 316.469759L431.291250 318.938256L435.825000 321.412928
L440.358750 323.894435L444.892500 326.382777L449.426250 328.878396
L453.960000 331.381292L458.493750 333.891464L463.027500 336.408912
L467.561250 338.933637L472.095000 341.465418L476.628750 344.004035
L481.162500 346.549266L485.696250 349.100672L490.230000 351.657810
L494.763750 354.220461L499.297500 356.787963L503.831250 359.359875
L508.365000 361.935536L512.898750 364.514504L517.432500 367.096118
L521.966250 369.679496L526.500000 372.264417"/>
</g>
<g id="line2d16">
<path style="fill: none; stroke: #242424; stroke-width: 1.000000; stroke-linejoin: round; stroke-linecap: square;  opacity: 1.000000" clip-path="url(#pc3c5e41676658680e7b95047b5791c8e)" d="M73.125000 48.813187L77.658750 53.523950L82.192500 58.229640
L86.726250 62.928054L91.260000 67.616325L95.793750 72.292468
L100.327500 76.953618L104.861250 81.598009L109.395000 86.222776
L113.928750 90.825934L118.462500 95.405278L122.996250 99.958383
L127.530000 104.483704L132.063750 108.978817L136.597500 113.441958
L141.131250 117.871362L145.665000 122.265045L150.198750 126.621463
L154.732500 130.939074L159.266250 135.216554L163.800000 139.452359
L168.333750 143.645166L172.867500 147.794094L177.401250 151.897819
L181.935000 155.955681L186.468750 159.954669L191.002500 163.894342
L195.536250 167.786168L200.070000 171.629262L204.603750 175.423626
L209.137500 179.169039L213.671250 182.865281L218.205000 186.512571
L222.738750 190.110690L227.272500 193.660079L231.806250 197.161178
L236.340000 200.614208L240.873750 204.019830L245.407500 207.378707
L249.941250 210.691499L254.475000 213.958868L259.008750 217.181696
L263.542500 220.361306L268.076250 223.498359L272.610000 226.593959
L277.143750 229.649427L281.677500 232.666088L286.211250 235.645043
L290.745000 238.587395L295.278750 241.495128L299.812500 244.361055
L304.346250 247.186520L308.880000 249.981335L313.413750 252.747023
L317.947500 255.485103L322.481250 258.197099L327.015000 260.884553
L331.548750 263.549011L336.082500 266.191986L340.616250 268.815012
L345.150000 271.419580L349.683750 274.007214L354.217500 276.579346
L358.751250 279.137433L363.285000 281.682885L367.818750 284.217025
L372.352500 286.741287L376.886250 289.256751L381.420000 291.764939
L385.953750 294.266732L390.487500 296.763453L395.021250 299.255985
L399.555000 301.745651L404.088750 304.233111L408.622500 306.719469
L413.156250 309.205607L417.690000 311.691965L422.223750 314.179425
L426.757500 316.668650L431.291250 319.159859L435.825000 321.653934
L440.358750 324.150876L444.892500 326.651346L449.426250 329.155565
L453.960000 331.663752L458.493750 334.175909L463.027500 336.692034
L467.561250 339.212570L472.095000 341.737295L476.628750 344.265989
L481.162500 346.798872L485.696250 349.335284L490.230000 351.875664
L494.763750 354.419132L499.297500 356.965907L503.831250 359.515328
L508.365000 362.067395L512.898750 364.621226L517.432500 367.177041
L521.966250 369.733959L526.500000 372.291759"/>
</g>
<g id="line2d17">
<path style="fill: none; stroke: #1e1e1e; stroke-width: 1.000000; stroke-linejoin: round; stroke-linecap: square;  opacity: 1.000000" clip-path="url(#pc3c5e41676658680e7b95047b5791c8e)" d="M73.125000 48.696322L77.658750 53.290440L82.192500 57.880147
L86.726250 62.463460L91.260000 67.037953L95.793750 71.601642
L100.327500 76.152321L104.861250 80.688006L109.395000 85.206712
L113.928750 89.706456L118.462500 94.185031L122.996250 98.640895
L127.530000 103.072063L132.063750 107.476551L136.597500 111.853035
L141.131250 116.199531L145.665000 120.514716L150.198750 124.797046
L154.732500 129.045199L159.266250 133.257632L163.800000 137.433240
L168.333750 141.570922L172.867500 145.669577L177.401250 149.728320
L181.935000 153.746051L186.468750 157.711523L191.002500 161.624295
L195.536250 165.494070L200.070000 169.320627L204.603750 173.103746
L209.137500 176.842764L213.671250 180.537683L218.205000 184.188722
L222.738750 187.795440L227.272500 191.358499L231.806250 194.877459
L236.340000 198.353201L240.873750 201.785724L245.407500 205.175691
L249.941250 208.523763L254.475000 211.830161L259.008750 215.095766
L263.542500 218.321460L268.076250 221.507906L272.610000 224.655984
L277.143750 227.766798L281.677500 230.841230L286.211250 233.880381
L290.745000 236.885135L295.278750 239.856813L299.812500 242.788713
L304.346250 245.681938L308.880000 248.545638L313.413750 251.381069
L317.947500 254.189467L322.481250 256.972177L327.015000 259.730456
L331.548750 262.465617L336.082500 265.178965L340.616250 267.871801
L345.150000 270.545386L349.683750 273.201044L354.217500 275.839988
L358.751250 278.463474L363.285000 281.072739L367.818750 283.668972
L372.352500 286.253298L376.886250 288.826776L381.420000 291.390750
L385.953750 293.946125L390.487500 296.493782L395.021250 299.034824
L399.555000 301.570133L404.088750 304.100591L408.622500 306.627080
L413.156250 309.149600L417.690000 311.669033L422.223750 314.186261
L426.757500 316.702386L431.291250 319.217630L435.825000 321.732873
L440.358750 324.248117L444.892500 326.763801L449.426250 329.280588
L453.960000 331.798478L458.493750 334.317690L463.027500 336.838667
L467.561250 339.361187L472.095000 341.885691L476.628750 344.411960
L481.162500 346.940433L485.696250 349.470450L490.230000 352.002452
L494.763750 354.536217L499.297500 357.071526L503.831250 359.608379
L508.365000 362.146554L512.898750 364.685832L517.432500 367.225992
L521.966250 369.767034L526.500000 372.308297"/>
</g>
<g id="line2d18">
<path style="fill: none; stroke: #181818; stroke-width: 1.000000; stroke-linejoin: round; stroke-linecap: square;  opacity: 1.000000" clip-path="url(#pc3c5e41676658680e7b95047b5791c8e)" d="M73.125000 48.593349L77.658750 53.084934L82.192500 57.572550
L86.726250 62.054433L91.260000 66.528819L95.793750 70.993282
L100.327500 75.446500L104.861250 79.886488L109.395000 84.311482
L113.928750 88.719498L118.462500 93.108991L122.996250 97.478199
L127.530000 101.825577L132.063750 106.149582L136.597500 110.448670
L141.131250 114.721078L145.665000 118.965924L150.198750 123.181443
L154.732500 127.366533L159.266250 131.519871L163.800000 135.640575
L168.333750 139.727542L172.867500 143.779671L177.401250 147.796078
L181.935000 151.775883L186.468750 155.709162L191.002500 159.595254
L195.536250 163.442758L200.070000 167.251676L204.603750 171.021123
L209.137500 174.751101L213.671250 178.441609L218.205000 182.091987
L222.738750 185.702675L227.272500 189.273451L231.806250 192.804759
L236.340000 196.296156L240.873750 199.748525L245.407500 203.161865
L249.941250 206.536617L254.475000 209.873444L259.008750 213.172565
L263.542500 216.434862L268.076250 219.660777L272.610000 222.851192
L277.143750 226.006547L281.677500 229.128165L286.211250 232.216268
L290.745000 235.272177L295.278750 238.296776L299.812500 241.283448
L304.346250 244.233054L308.880000 247.154305L313.413750 250.048191
L317.947500 252.915771L322.481250 255.758148L327.015000 258.576403
L331.548750 261.371637L336.082500 264.144983L340.616250 266.897522
L345.150000 269.630377L349.683750 272.344622L354.217500 275.041359
L358.751250 277.721668L363.285000 280.386587L367.818750 283.037174
L372.352500 285.674442L376.886250 288.299340L381.420000 290.912927
L385.953750 293.516150L390.487500 296.109671L395.021250 298.694813
L399.555000 301.272017L404.088750 303.842165L408.622500 306.406139
L413.156250 308.963277L417.690000 311.514242L422.223750 314.061017
L426.757500 316.604264L431.291250 319.144203L435.825000 321.681717
L440.358750 324.217026L444.892500 326.750571L449.426250 329.283014
L453.960000 331.814133L458.493750 334.344591L463.027500 336.874829
L467.561250 339.404625L472.095000 341.934422L476.628750 344.464218
L481.162500 346.994456L485.696250 349.524693L490.230000 352.055592
L494.763750 354.586932L499.297500 357.118493L503.831250 359.650715
L508.365000 362.183157L512.898750 364.716041L517.432500 367.249365
L521.966250 369.782690L526.500000 372.316235"/>
</g>
<g id="line2d19">
<path style="fill: none; stroke: #121212; stroke-width: 1.000000; stroke-linejoin: round; stroke-linecap: square;  opacity: 1.000000" clip-path="url(#pc3c5e41676658680e7b95047b5791c8e)" d="M73.125000 48.502503L77.658750 52.903021L82.192500 57.300453
L86.726250 61.692592L91.260000 66.077896L95.793750 70.454601
L100.327500 74.821383L104.861250 79.176258L109.395000 83.517903
L113.928750 87.844333L118.462500 92.154447L122.996250 96.446479
L127.530000 100.719108L132.063750 104.970789L136.597500 109.200420
L141.131250 113.406458L145.665000 117.587578L150.198750 121.742680
L154.732500 125.870440L159.266250 129.970197L163.800000 134.040627
L168.333750 138.080628L172.867500 142.089539L177.401250 146.066476
L181.935000 150.010560L186.468750 153.912748L191.002500 157.772601
L195.536250 161.597614L200.070000 165.387789L204.603750 169.142463
L209.137500 172.861637L213.671250 176.544648L218.205000 180.191497
L222.738750 183.802185L227.272500 187.376711L231.806250 190.914853
L236.340000 194.417055L240.873750 197.883315L245.407500 201.313634
L249.941250 204.708672L254.475000 208.068651L259.008750 211.393791
L263.542500 214.684754L268.076250 217.942200L272.610000 221.166131
L277.143750 224.357648L281.677500 227.517192L286.211250 230.645646
L290.745000 233.743451L295.278750 236.811488L299.812500 239.843583
L304.346250 242.840222L308.880000 245.809585L313.413750 248.752511
L317.947500 251.669946L322.481250 254.562752L327.015000 257.431898
L331.548750 260.278288L336.082500 263.102880L340.616250 265.906623
L345.150000 268.690473L349.683750 271.455345L354.217500 274.202202
L358.751250 276.931992L363.285000 279.645597L367.818750 282.343988
L372.352500 285.028002L376.886250 287.698478L381.420000 290.356385
L385.953750 293.002605L390.487500 295.637801L395.021250 298.262853
L399.555000 300.878424L404.088750 303.485396L408.622500 306.084429
L413.156250 308.674422L417.690000 311.256036L422.223750 313.831476
L426.757500 316.401624L431.291250 318.966701L435.825000 321.527367
L440.358750 324.084065L444.892500 326.637234L449.426250 329.187317
L453.960000 331.734753L458.493750 334.279544L463.027500 336.822350
L467.561250 339.363392L472.095000 341.902890L476.628750 344.441066
L481.162500 346.978139L485.696250 349.514109L490.230000 352.049418
L494.763750 354.584066L499.297500 357.118272L503.831250 359.652038
L508.365000 362.185583L512.898750 364.718687L517.432500 367.251570
L521.966250 369.784454L526.500000 372.317337"/>
</g>
<g id="line2d20">
<path style="fill: none; stroke: #0c0c0c; stroke-width: 1.000000; stroke-linejoin: round; stroke-linecap: square;  opacity: 1.000000" clip-path="url(#pc3c5e41676658680e7b95047b5791c8e)" d="M73.125000 48.421359L77.658750 52.741174L82.192500 57.058123
L86.726250 61.370442L91.260000 65.676586L95.793750 69.975013
L100.327500 74.264620L104.861250 78.543643L109.395000 82.810759
L113.928750 87.064425L118.462500 91.303317L122.996250 95.526112
L127.530000 99.731488L132.063750 103.918342L136.597500 108.085131
L141.131250 112.230972L145.665000 116.354542L150.198750 120.454519
L154.732500 124.530462L159.266250 128.580827L163.800000 132.604731
L168.333750 136.601514L172.867500 140.570293L177.401250 144.510188
L181.935000 148.420535L186.468750 152.292956L191.002500 156.127230
L195.536250 159.929973L200.070000 163.700964L204.603750 167.439983
L209.137500 171.146367L213.671250 174.820338L218.205000 178.461014
L222.738750 182.068835L227.272500 185.643581L231.806250 189.185031
L236.340000 192.693627L240.873750 196.168927L245.407500 199.611374
L249.941250 203.021186L254.475000 206.398364L259.008750 209.743569
L263.542500 213.056802L268.076250 216.338724L272.610000 219.589776
L277.143750 222.810179L281.677500 226.000593L286.211250 229.161681
L290.745000 232.293663L295.278750 235.397642L299.812500 238.467222
L304.346250 241.503066L308.880000 244.512671L313.413750 247.496829
L317.947500 250.456270L322.481250 253.391809L327.015000 256.304195
L331.548750 259.194222L336.082500 262.062729L340.616250 264.910497
L345.150000 267.738354L349.683750 270.547128L354.217500 273.337621
L358.751250 276.110629L363.285000 278.867012L367.818750 281.607540
L372.352500 284.333008L376.886250 287.044254L381.420000 289.741851
L385.953750 292.426880L390.487500 295.099560L395.021250 297.761216
L399.555000 300.412287L404.088750 303.053216L408.622500 305.685104
L413.156250 308.306187L417.690000 310.917348L422.223750 313.520792
L426.757500 316.117400L431.291250 318.707613L435.825000 321.292094
L440.358750 323.871062L444.892500 326.444958L449.426250 329.014665
L453.960000 331.579962L458.493750 334.141731L463.027500 336.699972
L467.561250 339.255347L472.095000 341.807855L476.628750 344.357937
L481.162500 346.905815L485.696250 349.451708L490.230000 351.996057
L494.763750 354.538863L499.297500 357.080346L503.831250 359.620727
L508.365000 362.160225L512.898750 364.699062L517.432500 367.237238
L521.966250 369.775193L526.500000 372.312707"/>
</g>
<g id="line2d21">
<path style="fill: none; stroke: #060606; stroke-width: 1.000000; stroke-linejoin: round; stroke-linecap: square;  opacity: 1.000000" clip-path="url(#pc3c5e41676658680e7b95047b5791c8e)" d="M73.125000 48.349035L77.658750 52.596526L82.192500 56.841372
L86.726250 61.082028L91.260000 65.317392L95.793750 69.545920
L100.327500 73.766070L104.861250 77.976958L109.395000 82.177263
L113.928750 86.365440L118.462500 90.540387L122.996250 94.700781
L127.530000 98.845519L132.063750 102.973500L136.597500 107.083620
L141.131250 111.174777L145.665000 115.245868L150.198750 119.295792
L154.732500 123.323665L159.266250 127.328827L163.800000 131.310176
L168.333750 135.266828L172.867500 139.198122L177.401250 143.103177
L181.935000 146.981551L186.468750 150.825528L191.002500 154.634665
L195.536250 158.415358L200.070000 162.167386L204.603750 165.889868
L209.137500 169.582802L213.671250 173.245748L218.205000 176.878705
L222.738750 180.481455L227.272500 184.053555L231.806250 187.595447
L236.340000 191.106689L240.873750 194.587502L245.407500 198.037886
L249.941250 201.457841L254.475000 204.848028L259.008750 208.208007
L263.542500 211.538439L268.076250 214.839545L272.610000 218.111765
L277.143750 221.355320L281.677500 224.570430L286.211250 227.757978
L290.745000 230.918184L295.278750 234.051489L299.812500 237.152160
L304.346250 240.220638L308.880000 243.263979L313.413750 246.282800
L317.947500 249.277764L322.481250 252.249530L327.015000 255.198784
L331.548750 258.126164L336.082500 261.032376L340.616250 263.918119
L345.150000 266.784110L349.683750 269.631060L354.217500 272.459656
L358.751250 275.270634L363.285000 278.064700L367.818750 280.842559
L372.352500 283.604917L376.886250 286.352457L381.420000 289.085864
L385.953750 291.805952L390.487500 294.513030L395.021250 297.208202
L399.555000 299.891907L404.088750 302.564588L408.622500 305.227125
L413.156250 307.877756L417.690000 310.516920L422.223750 313.147706
L426.757500 315.770333L431.291250 318.385683L435.825000 320.993757
L440.358750 323.595657L444.892500 326.191383L449.426250 328.781597
L453.960000 331.366518L458.493750 333.946809L463.027500 336.522690
L467.561250 339.094382L472.095000 341.662545L476.628750 344.227401
L481.162500 346.789391L485.696250 349.348514L490.230000 351.905211
L494.763750 354.459704L499.297500 357.012432L503.831250 359.563617
L508.365000 362.113479L512.898750 364.662018L517.432500 367.209896
L521.966250 369.756891L526.500000 372.303666"/>
</g>
<g id="matplotlib.axis1">
<g id="xtick1">
<g id="line2d22">
<defs><path id="m30e32995789d870ad79a2e54c91cf9c6" d="M0.000000 0.000000L0.000000 -4.000000"/></defs>
<g ><use style="fill: none; stroke: #000000; stroke-width: 0.500000; stroke-linejoin: round; stroke-linecap: butt;  opacity: 1.000000" xlink:href="#m30e32995789d870ad79a2e54c91cf9c6" x="73.125000" y="396.900000"/>
</g></g>
<g id="line2d23">
<defs><path id="m9281cae24120827b11d5ea8a7ad3e96b" d="M0.000000 0.000000L0.000000 4.000000"/></defs>
<g ><use style="fill: none; stroke: #000000; stroke-width: 0.500000; stroke-linejoin: round; stroke-linecap: butt;  opacity: 1.000000" xlink:href="#m9281cae24120827b11d5ea8a7ad3e96b" x="73.125000" y="44.100000"/>
</g></g>
<g id="text1">
<defs>
<path id="c_7a2040fe3b94fcd41d0a72c84e93b115" d="M31.781250 -66.406250q-7.609375 0.000000 -11.453125 7.500000q-3.828125 7.484375 -3.828125 22.531250q0.000000 14.984375 3.828125 22.484375q3.843750 7.500000 11.453125 7.500000q7.671875 0.000000 11.500000 -7.500000q3.843750 -7.500000 3.843750 -22.484375q0.000000 -15.046875 -3.843750 -22.531250q-3.828125 -7.500000 -11.500000 -7.500000M31.781250 -74.218750q12.265625 0.000000 18.734375 9.703125q6.468750 9.687500 6.468750 28.140625q0.000000 18.406250 -6.468750 28.109375q-6.468750 9.687500 -18.734375 9.687500q-12.250000 0.000000 -18.718750 -9.687500q-6.468750 -9.703125 -6.468750 -28.109375q0.000000 -18.453125 6.468750 -28.140625q6.468750 -9.703125 18.718750 -9.703125"/>
</defs>
<g style="fill: #000000; opacity: 1.000000" transform="translate(70.101562,409.806250)scale(0.120000)">
<use xlink:href="#c_7a2040fe3b94fcd41d0a72c84e93b115"/>
</g>
</g>
</g>
<g id="xtick2">
<g id="line2d24">
<g ><use style="fill: none; stroke: #000000; stroke-width: 0.500000; stroke-linejoin: round; stroke-linecap: butt;  opacity: 1.000000" xlink:href="#m30e32995789d870ad79a2e54c91cf9c6" x="163.800000" y="396.900000"/>
</g></g>
<g id="line2d25">
<g ><use style="fill: none; stroke: #000000; stroke-width: 0.500000; stroke-linejoin: round; stroke-linecap: butt;  opacity: 1.000000" xlink:href="#m9281cae24120827b11d5ea8a7ad3e96b" x="163.800000" y="44.100000"/>
</g></g>
<g id="text2">
<defs>
<path id="c_ed3f3ed3ebfbd18bcb9c012009a68ad1" d="M19.187500 -8.296875l34.421875 0.000000l0.000000 8.296875l-46.281250 0.000000l0.000000 -8.296875q5.609375 -5.812500 15.296875 -15.593750q9.703125 -9.796875 12.187500 -12.640625q4.734375 -5.312500 6.609375 -9.000000q1.890625 -3.687500 1.890625 -7.250000q0.000000 -5.812500 -4.078125 -9.468750q-4.078125 -3.671875 -10.625000 -3.671875q-4.640625 0.000000 -9.796875 1.609375q-5.140625 1.609375 -11.000000 4.890625l0.000000 -9.968750q5.953125 -2.390625 11.125000 -3.609375q5.187500 -1.218750 9.484375 -1.218750q11.328125 0.000000 18.062500 5.671875q6.734375 5.656250 6.734375 15.125000q0.000000 4.500000 -1.687500 8.531250q-1.671875 4.015625 -6.125000 9.484375q-1.218750 1.421875 -7.765625 8.187500q-6.531250 6.765625 -18.453125 18.921875"/>
</defs>
<g style="fill: #000000; opacity: 1.000000" transform="translate(156.995313,409.806250)scale(0.120000)">
<use xlink:href="#c_ed3f3ed3ebfbd18bcb9c012009a68ad1"/>
<use xlink:href="#c_7a2040fe3b94fcd41d0a72c84e93b115" x="63.623047"/>
</g>
</g>
</g>
<g id="xtick3">
<g id="line2d26">
<g ><use style="fill: none; stroke: #000000; stroke-width: 0.500000; stroke-linejoin: round; stroke-linecap: butt;  opacity: 1.000000" xlink:href="#m30e32995789d870ad79a2e54c91cf9c6" x="254.475000" y="396.900000"/>
</g></g>
<g id="line2d27">
<g ><use style="fill: none; stroke: #000000; stroke-width: 0.500000; stroke-linejoin: round; stroke-linecap: butt;  opacity: 1.000000" xlink:href="#m9281cae24120827b11d5ea8a7ad3e96b" x="254.475000" y="44.100000"/>
</g></g>
<g id="text3">
<defs>
<path id="c_a0416418d96557a09b8c1332d34883ba" d="M37.796875 -64.312500l-24.906250 38.921875l24.906250 0.000000zM35.203125 -72.906250l12.406250 0.000000l0.000000 47.515625l10.406250 0.000000l0.000000 8.203125l-10.406250 0.000000l0.000000 17.187500l-9.812500 0.000000l0.000000 -17.187500l-32.906250 0.000000l0.000000 -9.515625z"/>
</defs>
<g style="fill: #000000; opacity: 1.000000" transform="translate(247.529688,409.806250)scale(0.120000)">
<use xlink:href="#c_a0416418d96557a09b8c1332d34883ba"/>
<use xlink:href="#c_7a2040fe3b94fcd41d0a72c84e93b115" x="63.623047"/>
</g>
</g>
</g>
<g id="xtick4">
<g id="line2d28">
<g ><use style="fill: none; stroke: #000000; stroke-width: 0.500000; stroke-linejoin: round; stroke-linecap: butt;  opacity: 1.000000" xlink:href="#m30e32995789d870ad79a2e54c91cf9c6" x="345.150000" y="396.900000"/>
</g></g>
<g id="line2d29">
<g ><use style="fill: none; stroke: #000000; stroke-width: 0.500000; stroke-linejoin: round; stroke-linecap: butt;  opacity: 1.000000" xlink:href="#m9281cae24120827b11d5ea8a7ad3e96b" x="345.150000" y="44.100000"/>
</g></g>
<g id="text4">
<defs>
<path id="c_cc8d6d580d1b10c8632f7a42cd53db8a" d="M33.015625 -40.375000q-6.640625 0.000000 -10.531250 4.546875q-3.875000 4.531250 -3.875000 12.437500q0.000000 7.859375 3.875000 12.437500q3.890625 4.562500 10.531250 4.562500q6.640625 0.000000 10.515625 -4.562500q3.875000 -4.578125 3.875000 -12.437500q0.000000 -7.906250 -3.875000 -12.437500q-3.875000 -4.546875 -10.515625 -4.546875M52.593750 -71.296875l0.000000 8.984375q-3.718750 -1.750000 -7.500000 -2.671875q-3.781250 -0.937500 -7.500000 -0.937500q-9.765625 0.000000 -14.921875 6.593750q-5.140625 6.593750 -5.875000 19.921875q2.875000 -4.250000 7.218750 -6.515625q4.359375 -2.265625 9.578125 -2.265625q10.984375 0.000000 17.359375 6.671875q6.375000 6.656250 6.375000 18.125000q0.000000 11.234375 -6.640625 18.031250q-6.640625 6.781250 -17.671875 6.781250q-12.656250 0.000000 -19.343750 -9.687500q-6.687500 -9.703125 -6.687500 -28.109375q0.000000 -17.281250 8.203125 -27.562500q8.203125 -10.281250 22.015625 -10.281250q3.718750 0.000000 7.500000 0.734375q3.781250 0.734375 7.890625 2.187500"/>
</defs>
<g style="fill: #000000; opacity: 1.000000" transform="translate(338.329688,409.806250)scale(0.120000)">
<use xlink:href="#c_cc8d6d580d1b10c8632f7a42cd53db8a"/>
<use xlink:href="#c_7a2040fe3b94fcd41d0a72c84e93b115" x="63.623047"/>
</g>
</g>
</g>
<g id="xtick5">
<g id="line2d30">
<g ><use style="fill: none; stroke: #000000; stroke-width: 0.500000; stroke-linejoin: round; stroke-linecap: butt;  opacity: 1.000000" xlink:href="#m30e32995789d870ad79a2e54c91cf9c6" x="435.825000" y="396.900000"/>
</g></g>
<g id="line2d31">
<g ><use style="fill: none; stroke: #000000; stroke-width: 0.500000; stroke-linejoin: round; stroke-linecap: butt;  opacity: 1.000000" xlink:href="#m9281cae24120827b11d5ea8a7ad3e96b" x="435.825000" y="44.100000"/>
</g></g>
<g id="text5">
<defs>
<path id="c_bef35738d52871942e50b9de9b122bab" d="M31.781250 -34.625000q-7.031250 0.000000 -11.062500 3.765625q-4.015625 3.765625 -4.015625 10.343750q0.000000 6.593750 4.015625 10.359375q4.031250 3.765625 11.062500 3.765625q7.031250 0.000000 11.078125 -3.781250q4.062500 -3.796875 4.062500 -10.343750q0.000000 -6.578125 -4.031250 -10.343750q-4.015625 -3.765625 -11.109375 -3.765625M21.921875 -38.812500q-6.343750 -1.562500 -9.890625 -5.906250q-3.531250 -4.359375 -3.531250 -10.609375q0.000000 -8.734375 6.218750 -13.812500q6.234375 -5.078125 17.062500 -5.078125q10.890625 0.000000 17.093750 5.078125q6.203125 5.078125 6.203125 13.812500q0.000000 6.250000 -3.546875 10.609375q-3.531250 4.343750 -9.828125 5.906250q7.125000 1.656250 11.093750 6.500000q3.984375 4.828125 3.984375 11.796875q0.000000 10.609375 -6.468750 16.281250q-6.468750 5.656250 -18.531250 5.656250q-12.046875 0.000000 -18.531250 -5.656250q-6.468750 -5.671875 -6.468750 -16.281250q0.000000 -6.968750 4.000000 -11.796875q4.015625 -4.843750 11.140625 -6.500000M18.312500 -54.390625q0.000000 5.656250 3.531250 8.828125q3.546875 3.171875 9.937500 3.171875q6.359375 0.000000 9.937500 -3.171875q3.593750 -3.171875 3.593750 -8.828125q0.000000 -5.671875 -3.593750 -8.843750q-3.578125 -3.171875 -9.937500 -3.171875q-6.390625 0.000000 -9.937500 3.171875q-3.531250 3.171875 -3.531250 8.843750"/>
</defs>
<g style="fill: #000000; opacity: 1.000000" transform="translate(428.989063,409.806250)scale(0.120000)">
<use xlink:href="#c_bef35738d52871942e50b9de9b122bab"/>
<use xlink:href="#c_7a2040fe3b94fcd41d0a72c84e93b115" x="63.623047"/>
</g>
</g>
</g>
<g id="xtick6">
<g id="line2d32">
<g ><use style="fill: none; stroke: #000000; stroke-width: 0.500000; stroke-linejoin: round; stroke-linecap: butt;  opacity: 1.000000" xlink:href="#m30e32995789d870ad79a2e54c91cf9c6" x="526.500000" y="396.900000"/>
</g></g>
<g id="line2d33">
<g ><use style="fill: none; stroke: #000000; stroke-width: 0.500000; stroke-linejoin: round; stroke-linecap: butt;  opacity: 1.000000" xlink:href="#m9281cae24120827b11d5ea8a7ad3e96b" x="526.500000" y="44.100000"/>
</g></g>
<g id="text6">
<defs>
<path id="c_42baa63129a918535c52adb20d687ea7" d="M12.406250 -8.296875l16.109375 0.000000l0.000000 -55.625000l-17.531250 3.515625l0.000000 -8.984375l17.437500 -3.515625l9.859375 0.000000l0.000000 64.609375l16.109375 0.000000l0.000000 8.296875l-41.984375 0.000000z"/>
</defs>
<g style="fill: #000000; opacity: 1.000000" transform="translate(516.093750,409.806250)scale(0.120000)">
<use xlink:href="#c_42baa63129a918535c52adb20d687ea7"/>
<use xlink:href="#c_7a2040fe3b94fcd41d0a72c84e93b115" x="63.623047"/>
<use xlink:href="#c_7a2040fe3b94fcd41d0a72c84e93b115" x="127.246094"/>
</g>
</g>
</g>
</g>
<g id="matplotlib.axis2">
<g id="ytick1">
<g id="line2d34">
<defs><path id="m3400efa6b1638b3fea9e19e898273957" d="M0.000000 0.000000L4.000000 0.000000"/></defs>
<g ><use style="fill: none; stroke: #000000; stroke-width: 0.500000; stroke-linejoin: round; stroke-linecap: butt;  opacity: 1.000000" xlink:href="#m3400efa6b1638b3fea9e19e898273957" x="73.125000" y="396.900000"/>
</g></g>
<g id="line2d35">
<defs><path id="m20b58b2501143cb5e0a5e8f1ef6f1643" d="M0.000000 0.000000L-4.000000 0.000000"/></defs>
<g ><use style="fill: none; stroke: #000000; stroke-width: 0.500000; stroke-linejoin: round; stroke-linecap: butt;  opacity: 1.000000" xlink:href="#m20b58b2501143cb5e0a5e8f1ef6f1643" x="526.500000" y="396.900000"/>
</g></g>
<g id="text7">
<defs>
<path id="c_6a8d56c819c37117ab4cf023bec22a5a" d="M10.593750 -35.500000l62.593750 0.000000l0.000000 8.296875l-62.593750 0.000000z"/>
</defs>
<g style="fill: #000000; opacity: 1.000000" transform="translate(53.453125,401.267188)scale(0.120000)">
<use xlink:href="#c_6a8d56c819c37117ab4cf023bec22a5a"/>
<use xlink:href="#c_cc8d6d580d1b10c8632f7a42cd53db8a" x="83.789062"/>
</g>
</g>
</g>
<g id="ytick2">
<g id="line2d36">
<g ><use style="fill: none; stroke: #000000; stroke-width: 0.500000; stroke-linejoin: round; stroke-linecap: butt;  opacity: 1.000000" xlink:href="#m3400efa6b1638b3fea9e19e898273957" x="73.125000" y="352.800000"/>
</g></g>
<g id="line2d37">
<g ><use style="fill: none; stroke: #000000; stroke-width: 0.500000; stroke-linejoin: round; stroke-linecap: butt;  opacity: 1.000000" xlink:href="#m20b58b2501143cb5e0a5e8f1ef6f1643" x="526.500000" y="352.800000"/>
</g></g>
<g id="text8">
<g style="fill: #000000; opacity: 1.000000" transform="translate(53.359375,357.175000)scale(0.120000)">
<use xlink:href="#c_6a8d56c819c37117ab4cf023bec22a5a"/>
<use xlink:href="#c_a0416418d96557a09b8c1332d34883ba" x="83.789062"/>
</g>
</g>
</g>
<g id="ytick3">
<g id="line2d38">
<g ><use style="fill: none; stroke: #000000; stroke-width: 0.500000; stroke-linejoin: round; stroke-linecap: butt;  opacity: 1.000000" xlink:href="#m3400efa6b1638b3fea9e19e898273957" x="73.125000" y="308.700000"/>
</g></g>
<g id="line2d39">
<g ><use style="fill: none; stroke: #000000; stroke-width: 0.500000; stroke-linejoin: round; stroke-linecap: butt;  opacity: 1.000000" xlink:href="#m20b58b2501143cb5e0a5e8f1ef6f1643" x="526.500000" y="308.700000"/>
</g></g>
<g id="text9">
<g style="fill: #000000; opacity: 1.000000" transform="translate(53.890625,313.153125)scale(0.120000)">
<use xlink:href="#c_6a8d56c819c37117ab4cf023bec22a5a"/>
<use xlink:href="#c_ed3f3ed3ebfbd18bcb9c012009a68ad1" x="83.789062"/>
</g>
</g>
</g>
<g id="ytick4">
<g id="line2d40">
<g ><use style="fill: none; stroke: #000000; stroke-width: 0.500000; stroke-linejoin: round; stroke-linecap: butt;  opacity: 1.000000" xlink:href="#m3400efa6b1638b3fea9e19e898273957" x="73.125000" y="264.600000"/>
</g></g>
<g id="line2d41">
<g ><use style="fill: none; stroke: #000000; stroke-width: 0.500000; stroke-linejoin: round; stroke-linecap: butt;  opacity: 1.000000" xlink:href="#m20b58b2501143cb5e0a5e8f1ef6f1643" x="526.500000" y="264.600000"/>
</g></g>
<g id="text10">
<g style="fill: #000000; opacity: 1.000000" transform="translate(63.078125,268.967188)scale(0.120000)">
<use xlink:href="#c_7a2040fe3b94fcd41d0a72c84e93b115"/>
</g>
</g>
</g>
<g id="ytick5">
<g id="line2d42">
<g ><use style="fill: none; stroke: #000000; stroke-width: 0.500000; stroke-linejoin: round; stroke-linecap: butt;  opacity: 1.000000" xlink:href="#m3400efa6b1638b3fea9e19e898273957" x="73.125000" y="220.500000"/>
</g></g>
<g id="line2d43">
<g ><use style="fill: none; stroke: #000000; stroke-width: 0.500000; stroke-linejoin: round; stroke-linecap: butt;  opacity: 1.000000" xlink:href="#m20b58b2501143cb5e0a5e8f1ef6f1643" x="526.500000" y="220.500000"/>
</g></g>
<g id="text11">
<g style="fill: #000000; opacity: 1.000000" transform="translate(63.562500,224.953125)scale(0.120000)">
<use xlink:href="#c_ed3f3ed3ebfbd18bcb9c012009a68ad1"/>
</g>
</g>
</g>
<g id="ytick6">
<g id="line2d44">
<g ><use style="fill: none; stroke: #000000; stroke-width: 0.500000; stroke-linejoin: round; stroke-linecap: butt;  opacity: 1.000000" xlink:href="#m3400efa6b1638b3fea9e19e898273957" x="73.125000" y="176.400000"/>
</g></g>
<g id="line2d45">
<g ><use style="fill: none; stroke: #000000; stroke-width: 0.500000; stroke-linejoin: round; stroke-linecap: butt;  opacity: 1.000000" xlink:href="#m20b58b2501143cb5e0a5e8f1ef6f1643" x="526.500000" y="176.400000"/>
</g></g>
<g id="text12">
<g style="fill: #000000; opacity: 1.000000" transform="translate(62.750000,180.775000)scale(0.120000)">
<use xlink:href="#c_a0416418d96557a09b8c1332d34883ba"/>
</g>
</g>
</g>
<g id="ytick7">
<g id="line2d46">
<g ><use style="fill: none; stroke: #000000; stroke-width: 0.500000; stroke-linejoin: round; stroke-linecap: butt;  opacity: 1.000000" xlink:href="#m3400efa6b1638b3fea9e19e898273957" x="73.125000" y="132.300000"/>
</g></g>
<g id="line2d47">
<g ><use style="fill: none; stroke: #000000; stroke-width: 0.500000; stroke-linejoin: round; stroke-linecap: butt;  opacity: 1.000000" xlink:href="#m20b58b2501143cb5e0a5e8f1ef6f1643" x="526.500000" y="132.300000"/>
</g></g>
<g id="text13">
<g style="fill: #000000; opacity: 1.000000" transform="translate(63.093750,136.667187)scale(0.120000)">
<use xlink:href="#c_cc8d6d580d1b10c8632f7a42cd53db8a"/>
</g>
</g>
</g>
<g id="ytick8">
<g id="line2d48">
<g ><use style="fill: none; stroke: #000000; stroke-width: 0.500000; stroke-linejoin: round; stroke-linecap: butt;  opacity: 1.000000" xlink:href="#m3400efa6b1638b3fea9e19e898273957" x="73.125000" y="88.200000"/>
</g></g>
<g id="line2d49">
<g ><use style="fill: none; stroke: #000000; stroke-width: 0.500000; stroke-linejoin: round; stroke-linecap: butt;  opacity: 1.000000" xlink:href="#m20b58b2501143cb5e0a5e8f1ef6f1643" x="526.500000" y="88.200000"/>
</g></g>
<g id="text14">
<g style="fill: #000000; opacity: 1.000000" transform="translate(63.125000,92.567187)scale(0.120000)">
<use xlink:href="#c_bef35738d52871942e50b9de9b122bab"/>
</g>
</g>
</g>
<g id="ytick9">
<g id="line2d50">
<g ><use style="fill: none; stroke: #000000; stroke-width: 0.500000; stroke-linejoin: round; stroke-linecap: butt;  opacity: 1.000000" xlink:href="#m3400efa6b1638b3fea9e19e898273957" x="73.125000" y="44.100000"/>
</g></g>
<g id="line2d51">
<g ><use style="fill: none; stroke: #000000; stroke-width: 0.500000; stroke-linejoin: round; stroke-linecap: butt;  opacity: 1.000000" xlink:href="#m20b58b2501143cb5e0a5e8f1ef6f1643" x="526.500000" y="44.100000"/>
</g></g>
<g id="text15">
<g style="fill: #000000; opacity: 1.000000" transform="translate(55.953125,48.467187)scale(0.120000)">
<use xlink:href="#c_42baa63129a918535c52adb20d687ea7"/>
<use xlink:href="#c_7a2040fe3b94fcd41d0a72c84e93b115" x="63.623047"/>
</g>
</g>
</g>
</g>
<g id="patch3">
<path style="fill: none; stroke: #000000; stroke-width: 1.000000; stroke-linejoin: round; stroke-linecap: square;  opacity: 1.000000"  d="M73.125000 44.100000L526.500000 44.100000"/>
</g>
<g id="patch4">
<path style="fill: none; stroke: #000000; stroke-width: 1.000000; stroke-linejoin: round; stroke-linecap: square;  opacity: 1.000000"  d="M526.500000 396.900000L526.500000 44.100000"/>
</g>
<g id="patch5">
<path style="fill: none; stroke: #000000; stroke-width: 1.000000; stroke-linejoin: round; stroke-linecap: square;  opacity: 1.000000"  d="M73.125000 396.900000L526.500000 396.900000"/>
</g>
<g id="patch6">
<path style="fill: none; stroke: #000000; stroke-width: 1.000000; stroke-linejoin: round; stroke-linecap: square;  opacity: 1.000000"  d="M73.125000 396.900000L73.125000 44.100000"/>
</g>
</g>
</g>
</svg>
