<?xml version="1.0" standalone="no"?>
<!DOCTYPE svg PUBLIC "-//W3C//DTD SVG 1.1//EN"
  "http://www.w3.org/Graphics/SVG/1.1/DTD/svg11.dtd">
<!-- Created with matplotlib (http://matplotlib.sourceforge.net/) -->
<svg width="585pt" height="441pt" viewBox="0 0 585 441"
   xmlns="http://www.w3.org/2000/svg"
   xmlns:xlink="http://www.w3.org/1999/xlink"
   version="1.1"
   id="svg1">
<g id="figure1">
<g id="patch1">
<path style="fill: #ffffff; stroke: #ffffff; stroke-width: 1.000000; stroke-linejoin: round; stroke-linecap: square;  opacity: 1.000000"  d="M0.000000 441.000000L585.000000 441.000000L585.000000 0.000000
L0.000000 0.000000L0.000000 441.000000"/>
</g>
<g id="axes1">
<g id="patch2">
<path style="fill: #ffffff; opacity: 1.000000"  d="M73.125000 396.900000L526.500000 396.900000L526.500000 44.100000
L73.125000 44.100000L73.125000 396.900000"/>
</g>
<g id="line2d1">
<defs>
  <clipPath id="pc3c5e41676658680e7b95047b5791c8e">
<rect x="73.125000" y="44.100000" width="453.375000" height="352.800000"/>
  </clipPath>
</defs><path style="fill: none; stroke: #808080; stroke-width: 1.000000; stroke-linejoin: round; stroke-linecap: square;  opacity: 1.000000" clip-path="url(#pc3c5e41676658680e7b95047b5791c8e)" d="M73.125000 44.100000L77.658750 44.100000L82.192500 44.100000
L86.726250 44.100000L91.260000 44.100000L95.793750 44.100000
L100.327500 44.100000L104.861250 44.100000L109.395000 44.100000
L113.928750 44.100000L118.462500 44.100000L122.996250 44.100000
L127.530000 44.100000L132.063750 44.100000L136.597500 44.100000
L141.131250 44.100000L145.665000 44.100000L150.198750 44.100000
L154.732500 44.100000L159.266250 44.100000L163.800000 44.100000
L168.333750 44.100000L172.867500 44.100000L177.401250 44.100000
L181.935000 44.100000L186.468750 44.100000L191.002500 44.100000
L195.536250 44.100000L200.070000 44.100000L204.603750 44.100000
L209.137500 44.100000L213.671250 44.100000L218.205000 44.100000
L222.738750 44.100000L227.272500 44.100000L231.806250 44.100000
L236.340000 44.100000L240.873750 44.100000L245.407500 44.100000
L249.941250 44.100000L254.475000 44.100000L259.008750 44.100000
L263.542500 44.100220L268.076250 44.101543L272.610000 44.108379
L277.143750 44.149172L281.677500 44.386650L286.211250 45.770508
L290.745000 53.836398L295.278750 100.847659L299.812500 318.102341
L304.346250 365.113602L308.880000 373.179492L313.413750 374.563350
L317.947500 374.800829L322.481250 374.841621L327.015000 374.848457
L331.548750 374.849780L336.082500 374.850000L340.616250 374.850000
L345.150000 374.850000L349.683750 374.850000L354.217500 374.850000
L358.751250 374.850000L363.285000 374.850000L367.818750 374.850000
L372.352500 374.850000L376.886250 374.850000L381.420000 374.850000
L385.953750 374.850000L390.487500 374.850000L395.021250 374.850000
L399.555000 374.850000L404.088750 374.850000L408.622500 374.850000
L413.156250 374.850000L417.690000 374.850000L422.223750 374.850000
L426.757500 374.850000L431.291250 374.850000L435.825000 374.850000
L440.358750 374.850000L444.892500 374.850000L449.426250 374.850000
L453.960000 374.850000L458.493750 374.850000L463.027500 374.850000
L467.561250 374.850000L472.095000 374.850000L476.628750 374.850000
L481.162500 374.850000L485.696250 374.850000L490.230000 374.850000
L494.763750 374.850000L499.297500 374.850000L503.831250 374.850000
L508.365000 374.850000L512.898750 374.850000L517.432500 374.850000
L521.966250 374.850000L526.500000 374.850000"/>
</g>
<g id="line2d2">
<path style="fill: none; stroke: #797979; stroke-width: 1.000000; stroke-linejoin: round; stroke-linecap: square;  opacity: 1.000000" clip-path="url(#pc3c5e41676658680e7b95047b5791c8e)" d="M73.125000 44.100220L77.658750 44.100220L82.192500 44.100441
L86.726250 44.100661L91.260000 44.101102L95.793750 44.101764
L100.327500 44.102866L104.861250 44.104410L109.395000 44.106615
L113.928750 44.109922L118.462500 44.114994L122.996250 44.122050
L127.530000 44.132634L132.063750 44.147407L136.597500 44.168575
L141.131250 44.198343L145.665000 44.240017L150.198750 44.297568
L154.732500 44.376286L159.266250 44.483670L163.800000 44.627877
L168.333750 44.820814L172.867500 45.075712L177.401250 45.409770
L181.935000 45.843714L186.468750 46.440828L191.002500 47.223382
L195.536250 48.196449L200.070000 49.400820L204.603750 50.881478
L209.137500 52.688475L213.671250 54.875174L218.205000 57.498241
L222.738750 60.616332L227.272500 64.288098L231.806250 68.570428
L236.340000 73.517566L240.873750 79.176919L245.407500 85.588178
L249.941250 92.779785L254.475000 100.767838L259.008750 109.552559
L263.542500 119.118289L268.076250 129.430854L272.610000 140.437994
L277.143750 152.069809L281.677500 164.239204L286.211250 176.843867
L290.745000 189.768695L295.278750 202.889768L299.812500 216.060233
L304.346250 229.181306L308.880000 242.106134L313.413750 254.710773
L317.947500 266.880102L322.481250 278.511940L327.015000 289.519146
L331.548750 299.831711L336.082500 309.397442L340.616250 318.182162
L345.150000 326.170215L349.683750 333.361823L354.217500 339.773081
L358.751250 345.432434L363.285000 350.379572L367.818750 354.661902
L372.352500 358.333668L376.886250 361.451759L381.420000 364.074827
L385.953750 366.261525L390.487500 368.068523L395.021250 369.549180
L399.555000 370.753551L404.088750 371.726618L408.622500 372.509172
L413.156250 373.106286L417.690000 373.540230L422.223750 373.874288
L426.757500 374.129186L431.291250 374.322123L435.825000 374.466330
L440.358750 374.573714L444.892500 374.652432L449.426250 374.709983
L453.960000 374.751657L458.493750 374.781425L463.027500 374.802593
L467.561250 374.817366L472.095000 374.827950L476.628750 374.835006
L481.162500 374.840078L485.696250 374.843385L490.230000 374.845590
L494.763750 374.847134L499.297500 374.848236L503.831250 374.848898
L508.365000 374.849339L512.898750 374.849559L517.432500 374.849780
L521.966250 374.849780L526.500000 374.850000"/>
</g>
<g id="line2d3">
<path style="fill: none; stroke: #737373; stroke-width: 1.000000; stroke-linejoin: round; stroke-linecap: square;  opacity: 1.000000" clip-path="url(#pc3c5e41676658680e7b95047b5791c8e)" d="M73.125000 44.132193L77.658750 44.166150L82.192500 44.203855
L86.726250 44.247073L91.260000 44.298670L95.793750 44.360410
L100.327500 44.435821L104.861250 44.527770L109.395000 44.640225
L113.928750 44.777596L118.462500 44.944956L122.996250 45.148036
L127.530000 45.393673L132.063750 45.689364L136.597500 46.043707
L141.131250 46.466626L145.665000 46.968925L150.198750 47.562511
L154.732500 48.260835L159.266250 49.078008L163.800000 50.029906
L168.333750 51.133509L172.867500 52.406676L177.401250 53.868150
L181.935000 55.537555L186.468750 57.497580L191.002500 59.763658
L195.536250 62.299408L200.070000 65.125777L204.603750 68.262390
L209.137500 71.728209L213.671250 75.540654L218.205000 79.715380
L222.738750 84.265398L227.272500 89.201511L231.806250 94.530996
L236.340000 100.257160L240.873750 106.380004L245.407500 112.895339
L249.941250 119.794342L254.475000 127.063566L259.008750 134.685148
L263.542500 142.636820L268.076250 150.891678L272.610000 159.419074
L277.143750 168.183729L281.677500 177.147716L286.211250 186.269801
L290.745000 195.506766L295.278750 204.813189L299.812500 214.136811
L304.346250 223.443234L308.880000 232.680200L313.413750 241.802285
L317.947500 250.766293L322.481250 259.531036L327.015000 268.058256
L331.548750 276.313203L336.082500 284.264896L340.616250 291.886434
L345.150000 299.155658L349.683750 306.054662L354.217500 312.569996
L358.751250 318.692840L363.285000 324.419004L367.818750 329.748489
L372.352500 334.684602L376.886250 339.234620L381.420000 343.409346
L385.953750 347.221791L390.487500 350.687610L395.021250 353.824223
L399.555000 356.650592L404.088750 359.186342L408.622500 361.452420
L413.156250 363.412445L417.690000 365.081850L422.223750 366.543324
L426.757500 367.816271L431.291250 368.919873L435.825000 369.871992
L440.358750 370.689165L444.892500 371.387268L449.426250 371.980854
L453.960000 372.482933L458.493750 372.905852L463.027500 373.260195
L467.561250 373.555886L472.095000 373.801082L476.628750 374.003942
L481.162500 374.170860L485.696250 374.307570L490.230000 374.419364
L494.763750 374.510430L499.297500 374.584518L503.831250 374.644715
L508.365000 374.694107L512.898750 374.734679L517.432500 374.768856
L521.966250 374.798403L526.500000 374.825084"/>
</g>
<g id="line2d4">
<path style="fill: none; stroke: #6d6d6d; stroke-width: 1.000000; stroke-linejoin: round; stroke-linecap: square;  opacity: 1.000000" clip-path="url(#pc3c5e41676658680e7b95047b5791c8e)" d="M73.125000 44.312782L77.658750 44.530857L82.192500 44.759295
L86.726250 45.004050L91.260000 45.270414L95.793750 45.564340
L100.327500 45.892003L104.861250 46.259577L109.395000 46.673896
L113.928750 47.142459L118.462500 47.672541L122.996250 48.272301
L127.530000 48.950338L132.063750 49.715694L136.597500 50.577408
L141.131250 51.545623L145.665000 52.630483L150.198750 53.842792
L154.732500 55.193134L159.266250 56.693196L163.800000 58.353781
L168.333750 60.186357L172.867500 62.202609L177.401250 64.413562
L181.935000 66.830022L186.468750 69.518799L191.002500 72.487390
L195.536250 75.690594L200.070000 79.136568L204.603750 82.831928
L209.137500 86.782405L213.671250 90.992632L218.205000 95.465475
L222.738750 100.202256L227.272500 105.202314L231.806250 110.463444
L236.340000 115.981677L240.873750 121.750618L245.407500 127.761890
L249.941250 134.005788L254.475000 140.469746L259.008750 147.139650
L263.542500 153.999626L268.076250 161.032032L272.610000 168.217025
L277.143750 175.534097L281.677500 182.960757L286.211250 190.474074
L290.745000 198.050013L295.278750 205.663437L299.812500 213.286563
L304.346250 220.899987L308.880000 228.475926L313.413750 235.989243
L317.947500 243.415992L322.481250 250.732998L327.015000 257.918056
L331.548750 264.950273L336.082500 271.810262L340.616250 278.480232
L345.150000 284.944190L349.683750 291.187890L354.217500 297.199382
L358.751250 302.968323L363.285000 308.486336L367.818750 313.747686
L372.352500 318.747744L376.886250 323.484305L381.420000 327.957147
L385.953750 332.167374L390.487500 336.117852L395.021250 339.813212
L399.555000 343.258965L404.088750 346.461948L408.622500 349.430540
L413.156250 352.119096L417.690000 354.535335L422.223750 356.745848
L426.757500 358.761659L431.291250 360.593793L435.825000 362.253717
L440.358750 363.752897L444.892500 365.102357L449.426250 366.313343
L453.960000 367.396659L458.493750 368.362890L463.027500 369.222399
L467.561250 369.984668L472.095000 370.659177L476.628750 371.254748
L481.162500 371.779758L485.696250 372.242147L490.230000 372.649190
L494.763750 373.007723L499.297500 373.324581L503.831250 373.605939
L508.365000 373.857309L512.898750 374.084424L517.432500 374.292356
L521.966250 374.485955L526.500000 374.670293"/>
</g>
<g id="line2d5">
<path style="fill: none; stroke: #676767; stroke-width: 1.000000; stroke-linejoin: round; stroke-linecap: square;  opacity: 1.000000" clip-path="url(#pc3c5e41676658680e7b95047b5791c8e)" d="M73.125000 44.632066L77.658750 45.171189L82.192500 45.724644
L86.726250 46.299708L91.260000 46.903437L95.793750 47.543548
L100.327500 48.227098L104.861250 48.961804L109.395000 49.755163
L113.928750 50.614893L118.462500 51.548931L122.996250 52.564995
L127.530000 53.671243L132.063750 54.875614L136.597500 56.186046
L141.131250 57.610697L145.665000 59.157724L150.198750 60.834847
L154.732500 62.650003L159.266250 64.610910L163.800000 66.724844
L168.333750 68.998860L172.867500 71.439795L177.401250 74.054043
L181.935000 76.847337L186.468750 79.872156L191.002500 83.131807
L195.536250 86.583515L200.070000 90.230364L204.603750 94.074120
L209.137500 98.115664L213.671250 102.355218L218.205000 106.791678
L222.738750 111.423060L227.272500 116.246277L231.806250 121.256919
L236.340000 126.449694L240.873750 131.818207L245.407500 137.354742
L249.941250 143.050477L254.475000 148.895933L259.008750 154.880082
L263.542500 160.991240L268.076250 167.216616L272.610000 173.542761
L277.143750 179.955783L281.677500 186.440247L286.211250 192.981380
L290.745000 199.562863L295.278750 206.168823L299.812500 212.780957
L304.346250 219.387137L308.880000 225.968621L313.413750 232.509533
L317.947500 238.994217L322.481250 245.407019L327.015000 251.733230
L331.548750 257.958606L336.082500 264.069664L340.616250 270.053737
L345.150000 275.899037L349.683750 281.594795L354.217500 287.131131
L358.751250 292.499645L363.285000 297.692199L367.818750 302.702621
L372.352500 307.525617L376.886250 312.156558L381.420000 316.592577
L385.953750 320.831690L390.487500 324.872793L395.021250 328.715888
L399.555000 332.361855L404.088750 335.812460L408.622500 339.070788
L413.156250 342.094064L417.690000 344.885594L422.223750 347.497637
L426.757500 349.935926L431.291250 352.207076L435.825000 354.317261
L440.358750 356.273978L444.892500 358.084062L449.426250 359.755452
L453.960000 361.295645L458.493750 362.712357L463.027500 364.013528
L467.561250 365.207094L472.095000 366.300995L476.628750 367.302947
L481.162500 368.220447L485.696250 369.061434L490.230000 369.833405
L494.763750 370.543635L499.297500 371.199402L503.831250 371.807762
L508.365000 372.375770L512.898750 372.910482L517.432500 373.418514
L521.966250 373.906701L526.500000 374.381658"/>
</g>
<g id="line2d6">
<path style="fill: none; stroke: #616161; stroke-width: 1.000000; stroke-linejoin: round; stroke-linecap: square;  opacity: 1.000000" clip-path="url(#pc3c5e41676658680e7b95047b5791c8e)" d="M73.125000 45.001845L77.658750 45.911187L82.192500 46.835523
L86.726250 47.782129L91.260000 48.758283L95.793750 49.771701
L100.327500 50.829439L104.861250 51.938995L109.395000 53.107645
L113.928750 54.342445L118.462500 55.650672L122.996250 57.039381
L127.530000 58.515187L132.063750 60.085147L136.597500 61.755876
L141.131250 63.533547L145.665000 65.424555L150.198750 67.435074
L154.732500 69.570175L159.266250 71.835813L163.800000 74.236617
L168.333750 76.777218L172.867500 79.462026L177.401250 82.294569
L181.935000 85.278375L186.468750 88.454677L191.002500 91.825240
L195.536250 95.352579L200.070000 99.037575L204.603750 102.880008
L209.137500 106.879216L213.671250 111.033657L218.205000 115.341345
L222.738750 119.799193L227.272500 124.403895L231.806250 129.150599
L236.340000 134.034673L240.873750 139.050166L245.407500 144.190462
L249.941250 149.448506L254.475000 154.816578L259.008750 160.285860
L263.542500 165.847752L268.076250 171.492552L272.610000 177.210117
L277.143750 182.990083L281.677500 188.821647L286.211250 194.693782
L290.745000 200.594804L295.278750 206.513244L299.812500 212.436095
L304.346250 218.354535L308.880000 224.255556L313.413750 230.127471
L317.947500 235.958814L322.481250 241.738781L327.015000 247.456147
L331.548750 253.100660L336.082500 258.662222L340.616250 264.131292
L345.150000 269.498826L349.683750 274.756384L354.217500 279.896107
L358.751250 284.910828L363.285000 289.793889L367.818750 294.539711
L372.352500 299.143089L376.886250 303.599615L381.420000 307.905759
L385.953750 312.058215L390.487500 316.055219L395.021250 319.895226
L399.555000 323.577135L404.088750 327.101166L408.622500 330.467760
L413.156250 333.639212L417.690000 336.617285L422.223750 339.443654
L426.757500 342.120965L431.291250 344.653407L435.825000 347.044950
L440.358750 349.299783L444.892500 351.422757L449.426250 353.419385
L453.960000 355.294958L458.493750 357.055430L463.027500 358.706534
L467.561250 360.254444L472.095000 361.705775L476.628750 363.066921
L481.162500 364.344498L485.696250 365.545121L490.230000 366.675845
L494.763750 367.743506L499.297500 368.754939L503.831250 369.717201
L508.365000 370.637127L512.898750 371.521994L517.432500 372.378636
L521.966250 373.214111L526.500000 374.035694"/>
</g>
<g id="line2d7">
<path style="fill: none; stroke: #5b5b5b; stroke-width: 1.000000; stroke-linejoin: round; stroke-linecap: square;  opacity: 1.000000" clip-path="url(#pc3c5e41676658680e7b95047b5791c8e)" d="M73.125000 45.362362L77.658750 46.631781L82.192500 47.915091
L86.726250 49.218687L91.260000 50.550066L95.793750 51.915402
L100.327500 53.321751L104.861250 54.775507L109.395000 56.283287
L113.928750 57.851262L118.462500 59.485608L122.996250 61.192498
L127.530000 62.977666L132.063750 64.846845L136.597500 66.805326
L141.131250 68.858401L145.665000 71.010922L150.198750 73.267299
L154.732500 75.631941L159.266250 78.109038L163.800000 80.701677
L168.333750 83.413386L172.867500 86.246811L177.401250 89.204598
L181.935000 92.288290L186.468750 95.531625L191.002500 98.935483
L195.536250 102.467673L200.070000 106.128414L204.603750 109.916604
L209.137500 113.831361L213.671250 117.870259L218.205000 122.031535
L222.738750 126.311881L227.272500 130.707990L231.806250 135.215892
L236.340000 139.831398L240.873750 144.548995L245.407500 149.363833
L249.941250 154.269738L254.475000 159.260314L259.008750 164.328948
L263.542500 169.468362L268.076250 174.671280L272.610000 179.929764
L277.143750 185.235656L281.677500 190.581017L286.211250 195.956806
L290.745000 201.354867L295.278750 206.765937L299.812500 212.180535
L304.346250 217.591605L308.880000 222.989445L313.413750 228.365015
L317.947500 233.709714L322.481250 239.015165L327.015000 244.273075
L331.548750 249.475177L336.082500 254.613709L340.616250 259.681196
L345.150000 264.670477L349.683750 269.574789L354.217500 274.387775
L358.751250 279.103498L363.285000 283.716490L367.818750 288.221724
L372.352500 292.614746L376.886250 296.891784L381.420000 301.048871
L385.953750 305.083359L390.487500 308.992824L395.021250 312.775281
L399.555000 316.429407L404.088750 319.954320L408.622500 323.349579
L413.156250 326.583212L417.690000 329.655879L422.223750 332.601098
L426.757500 335.420852L431.291250 338.117346L435.825000 340.693007
L440.358750 343.151141L444.892500 345.494835L449.426250 347.728280
L453.960000 349.855223L458.493750 351.880295L463.027500 353.807906
L467.561250 355.643127L472.095000 357.391251L476.628750 359.057349
L481.162500 360.647375L485.696250 362.167061L490.230000 363.622140
L494.763750 365.018567L499.297500 366.362955L503.831250 367.661480
L508.365000 368.920314L512.898750 370.146074L517.432500 371.345373
L521.966250 372.524607L526.500000 373.690611"/>
</g>
<g id="line2d8">
<path style="fill: none; stroke: #555555; stroke-width: 1.000000; stroke-linejoin: round; stroke-linecap: square;  opacity: 1.000000" clip-path="url(#pc3c5e41676658680e7b95047b5791c8e)" d="M73.125000 45.686938L77.658750 47.280051L82.192500 48.885070
L86.726250 50.508391L91.260000 52.155747L95.793750 53.833090
L100.327500 55.546155L104.861250 57.300673L109.395000 59.101938
L113.928750 60.955902L118.462500 62.867416L122.996250 64.841774
L127.530000 66.883824L132.063750 68.998198L136.597500 71.189086
L141.131250 73.461118L145.665000 75.818043L150.198750 78.263388
L154.732500 80.800681L159.266250 83.432569L163.800000 86.162360
L168.333750 88.991816L172.867500 91.923363L177.401250 94.958325
L181.935000 98.098245L186.468750 101.370024L191.002500 104.774323
L195.536250 108.284463L200.070000 111.900002L204.603750 115.619616
L209.137500 119.442204L213.671250 123.365781L218.205000 127.388362
L222.738750 131.507303L227.272500 135.719293L231.806250 140.021028
L236.340000 144.408758L240.873750 148.878513L245.407500 153.425444
L249.941250 158.044919L254.475000 162.731646L259.008750 167.480334
L263.542500 172.284808L268.076250 177.139557L272.610000 182.038185
L277.143750 186.974298L281.677500 191.941061L286.211250 196.932078
L290.745000 201.940295L295.278750 206.958875L299.812500 211.980101
L304.346250 216.998460L308.880000 222.006236L313.413750 226.996371
L317.947500 231.962252L322.481250 236.897262L327.015000 241.794347
L331.548750 246.647221L336.082500 251.449799L340.616250 256.195951
L345.150000 260.879922L349.683750 265.496180L354.217500 270.039537
L358.751250 274.505103L363.285000 278.888268L367.818750 283.184865
L372.352500 287.391101L376.886250 291.503205L381.420000 295.518510
L385.953750 299.433929L390.487500 303.247256L395.021250 306.956948
L399.555000 310.561020L404.088750 314.058812L408.622500 317.449220
L413.156250 320.705564L417.690000 323.827844L422.223750 326.843843
L426.757500 329.754222L431.291250 332.560967L435.825000 335.265399
L440.358750 337.870166L444.892500 340.377692L449.426250 342.790623
L453.960000 345.112488L458.493750 347.346374L463.027500 349.496028
L467.561250 351.565862L472.095000 353.559623L476.628750 355.481942
L481.162500 357.337670L485.696250 359.131658L490.230000 360.868757
L494.763750 362.554479L499.297500 364.193897L503.831250 365.792522
L508.365000 367.356087L512.898750 368.890326L517.432500 370.400972
L521.966250 371.893977L526.500000 373.374855"/>
</g>
<g id="line2d9">
<path style="fill: none; stroke: #4f4f4f; stroke-width: 1.000000; stroke-linejoin: round; stroke-linecap: square;  opacity: 1.000000" clip-path="url(#pc3c5e41676658680e7b95047b5791c8e)" d="M73.125000 45.967855L77.658750 47.840782L82.192500 49.724073
L86.726250 51.622798L91.260000 53.542030L95.793750 55.487061
L100.327500 57.462300L104.861250 59.473039L109.395000 61.523690
L113.928750 63.618881L118.462500 65.763022L122.996250 67.960305
L127.530000 70.215138L132.063750 72.530829L136.597500 74.911567
L141.131250 77.360440L145.665000 79.880755L150.198750 82.475379
L154.732500 85.147177L159.266250 87.898135L163.800000 90.730899
L168.333750 93.646791L172.867500 96.647576L177.401250 99.734575
L181.935000 102.908232L186.468750 106.191256L191.002500 109.583869
L195.536250 113.063580L200.070000 116.629947L204.603750 120.281868
L209.137500 124.018241L213.671250 127.837521L218.205000 131.737505
L222.738750 135.715986L227.272500 139.770319L231.806250 143.897638
L236.340000 148.094856L240.873750 152.358444L245.407500 156.684654
L249.941250 161.069517L254.475000 165.508623L259.008750 169.997782
L263.542500 174.531924L268.076250 179.106417L272.610000 183.716190
L277.143750 188.355951L281.677500 193.020629L286.211250 197.704490
L290.745000 202.402242L295.278750 207.108153L299.812500 211.815828
L304.346250 216.521298L308.880000 221.218169L313.413750 225.900707
L317.947500 230.563620L322.481250 235.201176L327.015000 239.808303
L331.548750 244.379797L336.082500 248.910411L340.616250 253.395293
L345.150000 257.829724L349.683750 262.209185L354.217500 266.529379
L358.751250 270.786260L363.285000 274.976002L367.818750 279.095075
L372.352500 283.140213L376.886250 287.108420L381.420000 290.997158
L385.953750 294.803870L390.487500 298.526792L395.021250 302.163719
L399.555000 305.713769L404.088750 309.175839L408.622500 312.548828
L413.156250 315.810243L417.690000 318.959865L422.223750 322.020846
L426.757500 324.993848L431.291250 327.879531L435.825000 330.679440
L440.358750 333.395559L444.892500 336.029432L449.426250 338.583483
L453.960000 341.060139L458.493750 343.462487L463.027500 345.793172
L467.561250 348.055502L472.095000 350.253225L476.628750 352.389870
L481.162500 354.469406L485.696250 356.496021L490.230000 358.473906
L494.763750 360.407250L499.297500 362.301125L503.831250 364.159719
L508.365000 365.988105L512.898750 367.791134L517.432500 369.573656
L521.966250 371.340963L526.500000 373.098128"/>
</g>
<g id="line2d10">
<path style="fill: none; stroke: #494949; stroke-width: 1.000000; stroke-linejoin: round; stroke-linecap: square;  opacity: 1.000000" clip-path="url(#pc3c5e41676658680e7b95047b5791c8e)" d="M73.125000 46.205775L77.658750 48.315960L82.192500 50.434965
L86.726250 52.566759L91.260000 54.715972L95.793750 56.886574
L100.327500 59.082975L104.861250 61.308922L109.395000 63.568606
L113.928750 65.865555L118.462500 68.203737L122.996250 70.586460
L127.530000 73.017252L132.063750 75.499200L136.597500 78.035391
L141.131250 80.628471L145.665000 83.281306L150.198750 85.996323
L154.732500 88.775284L159.266250 91.620616L163.800000 94.533642
L168.333750 97.515904L172.867500 100.568727L177.401250 103.692771
L181.935000 106.888698L186.468750 110.175251L191.002500 113.552208
L195.536250 117.001048L200.070000 120.521552L204.603750 124.112614
L209.137500 127.772914L213.671250 131.501349L218.205000 135.296154
L222.738750 139.155565L227.272500 143.076937L231.806250 147.058286
L236.340000 151.096743L240.873750 155.189223L245.407500 159.333079
L249.941250 163.524784L254.475000 167.760589L259.008750 172.037187
L263.542500 176.350388L268.076250 180.696443L272.610000 185.071163
L277.143750 189.470358L281.677500 193.889619L286.211250 198.324315
L290.745000 202.770257L295.278750 207.222593L299.812500 211.676472
L304.346250 216.128147L308.880000 220.572765L313.413750 225.005477
L317.947500 229.422092L322.481250 233.817980L327.015000 238.188951
L331.548750 242.530376L336.082500 246.838306L340.616250 251.108730
L345.150000 255.337721L349.683750 259.521576L354.217500 263.656708
L358.751250 267.739766L363.285000 271.767551L367.818750 275.737146
L372.352500 279.645795L376.886250 283.490985L381.420000 287.270487
L385.953750 290.982164L390.487500 294.624603L395.021250 298.195821
L399.555000 301.694936L404.088750 305.120844L408.622500 308.472665
L413.156250 311.731875L417.690000 314.898035L422.223750 317.990106
L426.757500 321.008531L431.291250 323.954190L435.825000 326.827967
L440.358750 329.631404L444.892500 332.365824L449.426250 335.033433
L453.960000 337.635774L458.493750 340.175493L463.027500 342.654795
L467.561250 345.076547L472.095000 347.443835L476.628750 349.759305
L481.162500 352.026486L485.696250 354.248906L490.230000 356.429871
L494.763750 358.573131L499.297500 360.682875L503.831250 362.762852
L508.365000 364.817030L512.898750 366.849599L517.432500 368.864969
L521.966250 370.867329L526.500000 372.860870"/>
</g>
<g id="line2d11">
<path style="fill: none; stroke: #434343; stroke-width: 1.000000; stroke-linejoin: round; stroke-linecap: square;  opacity: 1.000000" clip-path="url(#pc3c5e41676658680e7b95047b5791c8e)" d="M73.125000 46.405327L77.658750 48.714403L82.192500 51.030756
L86.726250 53.357913L91.260000 55.699402L95.793750 58.058973
L100.327500 60.439932L104.861250 62.845807L109.395000 65.279466
L113.928750 67.744435L118.462500 70.243583L122.996250 72.780214
L127.530000 75.356536L132.063750 77.975635L136.597500 80.639937
L141.131250 83.351426L145.665000 86.112747L150.198750 88.925665
L154.732500 91.791724L159.266250 94.712688L163.800000 97.690099
L168.333750 100.724841L172.867500 103.818015L177.401250 106.970062
L181.935000 110.181865L186.468750 113.468418L191.002500 116.829720
L195.536250 120.250557L200.070000 123.730267L204.603750 127.268411
L209.137500 130.863663L213.671250 134.515143L218.205000 138.221087
L222.738750 141.980170L227.272500 145.790411L231.806250 149.649822
L236.340000 153.556200L240.873750 157.507119L245.407500 161.499933
L249.941250 165.531776L254.475000 169.600221L259.008750 173.701741
L263.542500 177.833471L268.076250 181.991880L272.610000 186.173883
L277.143750 190.375511L281.677500 194.593676L286.211250 198.824409
L290.745000 203.063963L295.278750 207.309029L299.812500 211.554756
L304.346250 215.798720L308.880000 220.036509L313.413750 224.264597
L317.947500 228.479234L322.481250 232.676451L327.015000 236.853162
L331.548750 241.005398L336.082500 245.129960L340.616250 249.223433
L345.150000 253.282617L349.683750 257.304449L354.217500 261.285929
L358.751250 265.224326L363.285000 269.116965L367.818750 272.961382
L372.352500 276.755283L376.886250 280.496595L381.420000 284.183421
L385.953750 287.814020L390.487500 291.387002L395.021250 294.900890
L399.555000 298.354802L404.088750 301.747856L408.622500 305.079390
L413.156250 308.333529L417.690000 311.510273L422.223750 314.625056
L426.757500 317.678540L431.291250 320.671166L435.825000 323.603816
L440.358750 326.477592L444.892500 329.293818L449.426250 332.053817
L453.960000 334.759352L458.493750 337.412187L463.027500 340.014528
L467.561250 342.568580L472.095000 345.076547L476.628750 347.541296
L481.162500 349.965473L485.696250 352.351724L490.230000 354.703356
L494.763750 357.023457L499.297500 359.315114L503.831250 361.581633
L508.365000 363.826323L512.898750 366.053153L517.432500 368.265209
L521.966250 370.466240L526.500000 372.659994"/>
</g>
<g id="line2d12">
<path style="fill: none; stroke: #3d3d3d; stroke-width: 1.000000; stroke-linejoin: round; stroke-linecap: square;  opacity: 1.000000" clip-path="url(#pc3c5e41676658680e7b95047b5791c8e)" d="M73.125000 46.571805L77.658750 49.046476L82.192500 51.527102
L86.726250 54.016987L91.260000 56.518780L95.793750 59.035567
L100.327500 61.570215L104.861250 64.125148L109.395000 66.703675
L113.928750 69.308001L118.462500 71.940771L122.996250 74.604631
L127.530000 77.301567L132.063750 80.033782L136.597500 82.803703
L141.131250 85.612873L145.665000 88.463056L150.198750 91.356237
L154.732500 94.293517L159.266250 97.276221L163.800000 100.305670
L168.333750 103.382527L172.867500 106.507674L177.401250 109.681992
L181.935000 112.905261L186.468750 116.190490L191.002500 119.537681
L195.536250 122.933822L200.070000 126.378913L204.603750 129.871854
L209.137500 133.412202L213.671250 136.998635L218.205000 140.630269
L222.738750 144.305563L227.272500 148.023193L231.806250 151.781175
L236.340000 155.577744L240.873750 159.410916L245.407500 163.278706
L249.941250 167.178690L254.475000 171.108441L259.008750 175.065534
L263.542500 179.047102L268.076250 183.050721L272.610000 187.073744
L277.143750 191.112642L281.677500 195.164991L286.211250 199.227704
L290.745000 203.297472L295.278750 207.371430L299.812500 211.446050
L304.346250 215.518685L308.880000 219.586248L313.413750 223.645653
L317.947500 227.693592L322.481250 231.726978L327.015000 235.743386
L331.548750 239.739287L336.082500 243.712145L340.616250 247.659183
L345.150000 251.577689L349.683750 255.465148L354.217500 259.319069
L358.751250 263.137148L363.285000 266.917190L367.818750 270.657157
L372.352500 274.355141L376.886250 278.009377L381.420000 281.618278
L385.953750 285.180412L390.487500 288.694476L395.021250 292.159634
L399.555000 295.574738L404.088750 298.939127L408.622500 302.252139
L413.156250 305.500766L417.690000 308.685006L422.223750 311.817429
L426.757500 314.898696L431.291250 317.929248L435.825000 320.909747
L440.358750 323.841074L444.892500 326.724111L449.426250 329.560403
L453.960000 332.351051L458.493750 335.097599L463.027500 337.802031
L467.561250 340.465892L472.095000 343.091385L476.628750 345.680496
L481.162500 348.235871L485.696250 350.759273L490.230000 353.253789
L494.763750 355.721625L499.297500 358.165647L503.831250 360.588722
L508.365000 362.993715L512.898750 365.383494L517.432500 367.760925
L521.966250 370.129095L526.500000 372.491091"/>
</g>
<g id="line2d13">
<path style="fill: none; stroke: #373737; stroke-width: 1.000000; stroke-linejoin: round; stroke-linecap: square;  opacity: 1.000000" clip-path="url(#pc3c5e41676658680e7b95047b5791c8e)" d="M73.125000 46.709838L77.658750 49.322101L82.192500 51.939436
L86.726250 54.564489L91.260000 57.199243L95.793750 59.846346
L100.327500 62.508442L104.861250 65.187297L109.395000 67.885776
L113.928750 70.605643L118.462500 73.348884L122.996250 76.118144
L127.530000 78.914524L132.063750 81.740453L136.597500 84.597471
L141.131250 87.487123L145.665000 90.410733L150.198750 93.369622
L154.732500 96.365335L159.266250 99.398754L163.800000 102.470540
L168.333750 105.581794L172.867500 108.732960L177.401250 111.924697
L181.935000 115.157007L186.468750 118.440472L191.002500 121.775094
L195.536250 125.150287L200.070000 128.565612L204.603750 132.020847
L209.137500 135.514890L213.671250 139.047300L218.205000 142.616754
L222.738750 146.222150L227.272500 149.862384L231.806250 153.536135
L236.340000 157.241416L240.873750 160.977128L245.407500 164.741062
L249.941250 168.531458L254.475000 172.346548L259.008750 176.183910
L263.542500 180.041558L268.076250 183.917286L272.610000 187.808449
L277.143750 191.713064L281.677500 195.628262L286.211250 199.552059
L290.745000 203.481369L295.278750 207.414207L299.812500 211.347045
L304.346250 215.278340L308.880000 219.205004L313.413750 223.124612
L317.947500 227.034738L322.481250 230.932737L327.015000 234.816404
L331.548750 238.682871L336.082500 242.530155L340.616250 246.355808
L345.150000 250.157669L349.683750 253.933621L354.217500 257.681592
L358.751250 261.399707L363.285000 265.086114L367.818750 268.739116
L372.352500 272.357124L376.886250 275.938683L381.420000 279.482449
L385.953750 282.987275L390.487500 286.452101L395.021250 289.875915
L399.555000 293.258165L404.088750 296.598299L408.622500 299.895435
L413.156250 303.138990L417.690000 306.328523L422.223750 309.475278
L426.757500 312.579036L431.291250 315.640679L435.825000 318.660426
L440.358750 321.639161L444.892500 324.577764L449.426250 327.477119
L453.960000 330.338327L458.493750 333.162932L463.027500 335.952036
L467.561250 338.707625L472.095000 341.430800L476.628750 344.123766
L481.162500 346.788288L485.696250 349.426350L490.230000 352.040157
L494.763750 354.631694L499.297500 357.203385L503.831250 359.757437
L508.365000 362.296274L512.898750 364.822542L517.432500 367.338447
L521.966250 369.846635L526.500000 372.349530"/>
</g>
<g id="line2d14">
<path style="fill: none; stroke: #313131; stroke-width: 1.000000; stroke-linejoin: round; stroke-linecap: square;  opacity: 1.000000" clip-path="url(#pc3c5e41676658680e7b95047b5791c8e)" d="M73.125000 46.824277L77.658750 49.550760L82.192500 52.281211
L86.726250 55.018057L91.260000 57.763062L95.793750 60.518430
L100.327500 63.285705L104.861250 66.067312L109.395000 68.865016
L113.928750 71.680360L118.462500 74.515329L122.996250 77.371465
L127.530000 80.250534L132.063750 83.153637L136.597500 86.082759
L141.131250 89.038561L145.665000 92.022588L150.198750 95.035941
L154.732500 98.079723L159.266250 101.154595L163.800000 104.261220
L168.333750 107.400478L172.867500 110.572812L177.401250 113.778441
L181.935000 117.017807L186.468750 120.299287L191.002500 123.623104
L195.536250 126.980437L200.070000 130.371066L204.603750 133.794329
L209.137500 137.249784L213.671250 140.736991L218.205000 144.254628
L222.738750 147.802032L227.272500 151.377881L231.806250 154.981512
L236.340000 158.611163L240.873750 162.265730L245.407500 165.943669
L249.941250 169.643219L254.475000 173.363054L259.008750 177.101190
L263.542500 180.856085L268.076250 184.625532L272.610000 188.407769
L277.143750 192.200810L281.677500 196.002670L286.211250 199.811367
L290.745000 203.624474L295.278750 207.440226L299.812500 211.255758
L304.346250 215.069747L308.880000 218.879766L313.413750 222.683832
L317.947500 226.479960L322.481250 230.265504L327.015000 234.039141
L331.548750 237.798446L336.082500 241.541433L340.616250 245.266472
L345.150000 248.971555L349.683750 252.654964L354.217500 256.314999
L358.751250 259.950074L363.285000 263.558660L367.818750 267.139366
L372.352500 270.690849L376.886250 274.211926L381.420000 277.701471
L385.953750 281.158514L390.487500 284.582173L395.021250 287.971677
L399.555000 291.326364L404.088750 294.645992L408.622500 297.929898
L413.156250 301.168823L417.690000 304.362986L422.223750 307.521207
L426.757500 310.643708L431.291250 313.730928L435.825000 316.783310
L440.358750 319.801293L444.892500 322.785981L449.426250 325.737815
L453.960000 328.657896L458.493750 331.547108L463.027500 334.406993
L467.561250 337.238654L472.095000 340.043634L476.628750 342.823257
L481.162500 345.578846L485.696250 348.312605L490.230000 351.026078
L494.763750 353.720808L499.297500 356.399001L503.831250 359.062641
L508.365000 361.713492L512.898750 364.353539L517.432500 366.985206
L521.966250 369.610479L526.500000 372.231342"/>
</g>
<g id="line2d15">
<path style="fill: none; stroke: #2b2b2b; stroke-width: 1.000000; stroke-linejoin: round; stroke-linecap: square;  opacity: 1.000000" clip-path="url(#pc3c5e41676658680e7b95047b5791c8e)" d="M73.125000 46.919092L77.658750 49.739949L82.192500 52.564113
L86.726250 55.393569L91.260000 58.229860L95.793750 61.074531
L100.327500 63.929344L104.861250 66.795844L109.395000 69.675574
L113.928750 72.569857L118.462500 75.480678L122.996250 78.408697
L127.530000 81.355680L132.063750 84.322728L136.597500 87.311164
L141.131250 90.321651L145.665000 93.355731L150.198750 96.413845
L154.732500 99.497097L159.266250 102.605926L163.800000 105.741216
L168.333750 108.903406L172.867500 112.092939L177.401250 115.309813
L181.935000 118.554691L186.468750 121.834408L191.002500 125.148965
L195.536250 128.491304L200.070000 131.860985L204.603750 135.257566
L209.137500 138.680829L213.671250 142.130111L218.205000 145.604749
L222.738750 149.103644L227.272500 152.626131L231.806250 156.171330
L236.340000 159.738138L240.873750 163.325453L245.407500 166.931730
L249.941250 170.556088L254.475000 174.196764L259.008750 177.852654
L263.542500 181.521995L268.076250 185.203463L272.610000 188.895515
L277.143750 192.596166L281.677500 196.303874L286.211250 200.016873
L290.745000 203.733842L295.278750 207.452354L299.812500 211.170866
L304.346250 214.887614L308.880000 218.601054L313.413750 222.309203
L317.947500 226.010295L322.481250 229.703009L327.015000 233.385359
L331.548750 237.055581L336.082500 240.712353L340.616250 244.353756
L345.150000 247.978534L349.683750 251.585142L354.217500 255.172192
L358.751250 258.738338L363.285000 262.282325L367.818750 265.803006
L372.352500 269.299252L376.886250 272.770098L381.420000 276.214595
L385.953750 279.631926L390.487500 283.021386L395.021250 286.382335
L399.555000 289.714289L404.088750 293.016717L408.622500 296.289599
L413.156250 299.524775L417.690000 302.722686L422.223750 305.890389
L426.757500 309.028545L431.291250 312.137154L435.825000 315.216657
L440.358750 318.267495L444.892500 321.290330L449.426250 324.285822
L453.960000 327.254855L458.493750 330.198530L463.027500 333.117288
L467.561250 336.012453L472.095000 338.885348L476.628750 341.737295
L481.162500 344.569176L485.696250 347.382756L490.230000 350.179137
L494.763750 352.960304L499.297500 355.727358L503.831250 358.482285
L508.365000 361.226628L512.898750 363.962151L517.432500 366.690398
L521.966250 369.413132L526.500000 372.132558"/>
</g>
<g id="line2d16">
<path style="fill: none; stroke: #242424; stroke-width: 1.000000; stroke-linejoin: round; stroke-linecap: square;  opacity: 1.000000" clip-path="url(#pc3c5e41676658680e7b95047b5791c8e)" d="M73.125000 46.997370L77.658750 49.896283L82.192500 52.798063
L86.726250 55.704033L91.260000 58.615735L95.793750 61.534273
L100.327500 64.461411L104.861250 67.398030L109.395000 70.345674
L113.928750 73.305445L118.462500 76.278447L122.996250 79.266222
L127.530000 82.269432L132.063750 85.289180L136.597500 88.326567
L141.131250 91.382256L145.665000 94.457349L150.198750 97.552287
L154.732500 100.667952L159.266250 103.805005L163.800000 106.963668
L168.333750 110.144601L172.867500 113.348025L177.401250 116.574160
L181.935000 119.823448L186.468750 123.101402L191.002500 126.408019
L195.536250 129.737570L200.070000 133.089831L204.603750 136.464143
L209.137500 139.860504L213.671250 143.278254L218.205000 146.716731
L222.738750 150.175274L227.272500 153.653441L231.806250 157.150129
L236.340000 160.664679L240.873750 164.195766L245.407500 167.742729
L249.941250 171.304465L254.475000 174.879652L259.008750 178.466967
L263.542500 182.065527L268.076250 185.674010L272.610000 189.290871
L277.143750 192.914789L281.677500 196.544439L286.211250 200.178500
L290.745000 203.815206L295.278750 207.453456L299.812500 211.091045
L304.346250 214.727090L308.880000 218.360268L313.413750 221.989037
L317.947500 225.611631L322.481250 229.226949L327.015000 232.833668
L331.548750 236.430023L336.082500 240.015132L340.616250 243.587320
L345.150000 247.145485L349.683750 250.688390L354.217500 254.214869
L358.751250 257.723840L363.285000 261.214245L367.818750 264.685123
L372.352500 268.135563L376.886250 271.564713L381.420000 274.971857
L385.953750 278.356267L390.487500 281.717371L395.021250 285.054660
L399.555000 288.367695L404.088750 291.656012L408.622500 294.919632
L413.156250 298.151942L417.690000 301.352940L422.223750 304.528802
L426.757500 307.679967L431.291250 310.806437L435.825000 313.908651
L440.358750 316.986831L444.892500 320.041859L449.426250 323.073954
L453.960000 326.084000L458.493750 329.072436L463.027500 332.040587
L467.561250 334.988892L472.095000 337.918676L476.628750 340.830599
L481.162500 343.726205L485.696250 346.606376L490.230000 349.472214
L494.763750 352.325264L499.297500 355.166627L503.831250 357.997847
L508.365000 360.820247L512.898750 363.635150L517.432500 366.444099
L521.966250 369.248639L526.500000 372.050091"/>
</g>
<g id="line2d17">
<path style="fill: none; stroke: #1e1e1e; stroke-width: 1.000000; stroke-linejoin: round; stroke-linecap: square;  opacity: 1.000000" clip-path="url(#pc3c5e41676658680e7b95047b5791c8e)" d="M73.125000 47.062197L77.658750 50.025717L82.192500 52.991442
L86.726250 55.960695L91.260000 58.934578L95.793750 61.914415
L100.327500 64.901088L104.861250 67.895698L109.395000 70.899349
L113.928750 73.912923L118.462500 76.937742L122.996250 79.974468
L127.530000 83.023983L132.063750 86.087389L136.597500 89.165128
L141.131250 92.258082L145.665000 95.366911L150.198750 98.492278
L154.732500 101.634624L159.266250 104.794609L163.800000 107.972676
L168.333750 111.168823L172.867500 114.383713L177.401250 117.617346
L181.935000 120.869941L186.468750 124.146130L191.002500 127.446133
L195.536250 130.764879L200.070000 134.102367L204.603750 137.458157
L209.137500 140.831806L213.671250 144.223317L218.205000 147.631806
L222.738750 151.056832L227.272500 154.497955L231.806250 157.954293
L236.340000 161.425184L240.873750 164.909745L245.407500 168.407316
L249.941250 171.916794L254.475000 175.437517L259.008750 178.968164
L263.542500 182.507850L268.076250 186.055695L272.610000 189.610155
L277.143750 193.170348L281.677500 196.735172L286.211250 200.303303
L290.745000 203.873859L295.278750 207.445077L299.812500 211.015854
L304.346250 214.585088L308.880000 218.151675L313.413750 221.714294
L317.947500 225.271841L322.481250 228.822993L327.015000 232.366869
L331.548750 235.902146L336.082500 239.427720L340.616250 242.942358
L345.150000 246.445265L349.683750 249.935339L354.217500 253.411587
L358.751250 256.873151L363.285000 260.319125L367.818750 263.748731
L372.352500 267.161196L376.886250 270.555837L381.420000 273.932023
L385.953750 277.289202L390.487500 280.626866L395.021250 283.944597
L399.555000 287.242043L404.088750 290.518893L408.622500 293.775017
L413.156250 297.004901L417.690000 300.208766L422.223750 303.391463
L426.757500 306.553653L431.291250 309.695117L435.825000 312.816294
L440.358750 315.917627L444.892500 318.999335L449.426250 322.061859
L453.960000 325.106082L458.493750 328.132445L463.027500 331.141608
L467.561250 334.134234L472.095000 337.111425L476.628750 340.073843
L481.162500 343.022369L485.696250 345.958106L490.230000 348.881936
L494.763750 351.795182L499.297500 354.698505L503.831250 357.593450
L508.365000 360.480897L512.898750 363.362171L517.432500 366.238593
L521.966250 369.111047L526.500000 371.981295"/>
</g>
<g id="line2d18">
<path style="fill: none; stroke: #181818; stroke-width: 1.000000; stroke-linejoin: round; stroke-linecap: square;  opacity: 1.000000" clip-path="url(#pc3c5e41676658680e7b95047b5791c8e)" d="M73.125000 47.115778L77.658750 50.132439L82.192500 53.151084
L86.726250 56.172595L91.260000 59.198076L95.793750 62.228187
L100.327500 65.264031L104.861250 68.306490L109.395000 71.356446
L113.928750 74.414560L118.462500 77.481936L122.996250 80.559234
L127.530000 83.646895L132.063750 86.746023L136.597500 89.857057
L141.131250 92.980660L145.665000 96.117493L150.198750 99.267777
L154.732500 102.432172L159.266250 105.610900L163.800000 108.804622
L168.333750 112.013339L172.867500 115.237489L177.401250 118.477075
L181.935000 121.732317L186.468750 125.006963L191.002500 128.301012
L195.536250 131.610717L200.070000 134.935857L204.603750 138.275991
L209.137500 141.630899L213.671250 145.000138L218.205000 148.383711
L222.738750 151.780734L227.272500 155.190987L231.806250 158.613588
L236.340000 162.048316L240.873750 165.494291L245.407500 168.950628
L249.941250 172.416888L254.475000 175.892189L259.008750 179.375648
L263.542500 182.866603L268.076250 186.363733L272.610000 189.866597
L277.143750 193.373870L281.677500 196.884891L286.211250 200.398338
L290.745000 203.913549L295.278750 207.429422L299.812500 210.944633
L304.346250 214.458300L308.880000 217.969542L313.413750 221.477477
L317.947500 224.981001L322.481250 228.479013L327.015000 231.970631
L331.548750 235.455192L336.082500 238.931375L340.616250 242.398517
L345.150000 245.855516L349.683750 249.301776L354.217500 252.736416
L358.751250 256.158687L363.285000 259.567859L367.818750 262.963264
L372.352500 266.344292L376.886250 269.710374L381.420000 273.060960
L385.953750 276.395625L390.487500 279.713952L395.021250 283.015565
L399.555000 286.300199L404.088750 289.567656L408.622500 292.817606
L413.156250 296.045726L417.690000 299.252016L422.223750 302.440667
L426.757500 305.612118L431.291250 308.766150L435.825000 311.903424
L440.358750 315.023940L444.892500 318.128139L449.426250 321.216242
L453.960000 324.289130L458.493750 327.347024L463.027500 330.390585
L467.561250 333.420476L472.095000 336.437136L476.628750 339.441669
L481.162500 342.434516L485.696250 345.416778L490.230000 348.389118
L494.763750 351.352418L499.297500 354.307559L503.831250 357.255644
L508.365000 360.197555L512.898750 363.134394L517.432500 366.066824
L521.966250 368.996387L526.500000 371.923745"/>
</g>
<g id="line2d19">
<path style="fill: none; stroke: #121212; stroke-width: 1.000000; stroke-linejoin: round; stroke-linecap: square;  opacity: 1.000000" clip-path="url(#pc3c5e41676658680e7b95047b5791c8e)" d="M73.125000 47.159878L77.658750 50.220639L82.192500 53.282722
L86.726250 56.347452L91.260000 59.415268L95.793750 62.487054
L100.327500 65.563470L104.861250 68.645398L109.395000 71.733501
L113.928750 74.828439L118.462500 77.930874L122.996250 81.041247
L127.530000 84.160660L132.063750 87.289115L136.597500 90.427711
L141.131250 93.576451L145.665000 96.735996L150.198750 99.906786
L154.732500 103.089262L159.266250 106.283646L163.800000 109.490157
L168.333750 112.709016L172.867500 115.940664L177.401250 119.184881
L181.935000 122.442106L186.468750 125.715208L191.002500 129.004407
L195.536250 132.306394L200.070000 135.620950L204.603750 138.947855
L209.137500 142.287106L213.671250 145.638045L218.205000 149.000670
L222.738750 152.374320L227.272500 155.758774L231.806250 159.153593
L236.340000 162.557892L240.873750 165.971673L245.407500 169.393833
L249.941250 172.824151L254.475000 176.261526L259.008750 179.705736
L263.542500 183.155900L268.076250 186.611355L272.610000 190.071000
L277.143750 193.534394L281.677500 197.000654L286.211250 200.468898
L290.745000 203.938245L295.278750 207.408033L299.812500 210.877160
L304.346250 214.344743L308.880000 217.810121L313.413750 221.272412
L317.947500 224.730954L322.481250 228.185087L327.015000 231.633486
L331.548750 235.075712L336.082500 238.511102L340.616250 241.938554
L345.150000 245.357759L349.683750 248.767725L354.217500 252.167879
L358.751250 255.557582L363.285000 258.936281L367.818750 262.303404
L372.352500 265.658429L376.886250 269.000893L381.420000 272.330355
L385.953750 275.646433L390.487500 278.948817L395.021250 282.237178
L399.555000 285.511316L404.088750 288.770990L408.622500 292.016088
L413.156250 295.242885L417.690000 298.451381L422.223750 301.645103
L426.757500 304.824492L431.291250 307.989329L435.825000 311.140053
L440.358750 314.276666L444.892500 317.399607L449.426250 320.509539
L453.960000 323.606241L458.493750 326.690595L463.027500 329.762822
L467.561250 332.823803L472.095000 335.873759L476.628750 338.913351
L481.162500 341.943462L485.696250 344.964533L490.230000 347.977224
L494.763750 350.982419L499.297500 353.980998L503.831250 356.973624
L508.365000 359.960958L512.898750 362.943882L517.432500 365.923499
L521.966250 368.900469L526.500000 371.875676"/>
</g>
<g id="line2d20">
<path style="fill: none; stroke: #0c0c0c; stroke-width: 1.000000; stroke-linejoin: round; stroke-linecap: square;  opacity: 1.000000" clip-path="url(#pc3c5e41676658680e7b95047b5791c8e)" d="M73.125000 47.196261L77.658750 50.293183L82.192500 53.391429
L86.726250 56.491659L91.260000 59.594314L95.793750 62.700498
L100.327500 65.810430L104.861250 68.924772L109.395000 72.044185
L113.928750 75.169332L118.462500 78.300652L122.996250 81.438588
L127.530000 84.583800L132.063750 87.736729L136.597500 90.897597
L141.131250 94.067064L145.665000 97.245571L150.198750 100.433119
L154.732500 103.630149L159.266250 106.837101L163.800000 110.054196
L168.333750 113.281434L172.867500 116.519035L177.401250 119.767000
L181.935000 123.025549L186.468750 126.297328L191.002500 129.582337
L195.536250 132.877710L200.070000 136.183446L204.603750 139.499325
L209.137500 142.825127L213.671250 146.160851L218.205000 149.505835
L222.738750 152.860082L227.272500 156.222927L231.806250 159.594372
L236.340000 162.973534L240.873750 166.360415L245.407500 169.754130
L249.941250 173.154460L254.475000 176.560524L259.008750 179.972100
L263.542500 183.388306L268.076250 186.808923L272.610000 190.232847
L277.143750 193.659638L281.677500 197.088633L286.211250 200.519172
L290.745000 203.950593L295.278750 207.382235L299.812500 210.812774
L304.346250 214.242210L308.880000 217.669442L313.413750 221.094248
L317.947500 224.515526L322.481250 227.932835L327.015000 231.345513
L331.548750 234.752900L336.082500 238.154333L340.616250 241.549151
L345.150000 244.936692L349.683750 248.316582L354.217500 251.688182
L358.751250 255.050961L363.285000 258.404435L367.818750 261.748141
L372.352500 265.081687L376.886250 268.404639L381.420000 271.716682
L385.953750 275.017456L390.487500 278.306721L395.021250 281.584233
L399.555000 284.849772L404.088750 288.103316L408.622500 291.344445
L413.156250 294.570360L417.690000 297.780620L422.223750 300.978972
L426.757500 304.164977L431.291250 307.338854L435.825000 310.500824
L440.358750 313.651328L444.892500 316.790145L449.426250 319.917938
L453.960000 323.034926L458.493750 326.141330L463.027500 329.237811
L467.561250 332.324811L472.095000 335.402550L476.628750 338.471690
L481.162500 341.532671L485.696250 344.586155L490.230000 347.632803
L494.763750 350.673278L499.297500 353.708019L503.831250 356.737689
L508.365000 359.762949L512.898750 362.784681L517.432500 365.803547
L521.966250 368.820428L526.500000 371.835545"/>
</g>
<g id="line2d21">
<path style="fill: none; stroke: #060606; stroke-width: 1.000000; stroke-linejoin: round; stroke-linecap: square;  opacity: 1.000000" clip-path="url(#pc3c5e41676658680e7b95047b5791c8e)" d="M73.125000 47.226249L77.658750 50.352939L82.192500 53.480731
L86.726250 56.610288L91.260000 59.741829L95.793750 62.876236
L100.327500 66.013510L104.861250 69.154753L109.395000 72.299965
L113.928750 75.450029L118.462500 78.604942L122.996250 81.765589
L127.530000 84.931969L132.063750 88.104744L136.597500 91.284354
L141.131250 94.470799L145.665000 97.664521L150.198750 100.865741
L154.732500 104.074897L159.266250 107.292213L163.800000 110.517687
L168.333750 113.751540L172.867500 116.993993L177.401250 120.244824
L181.935000 123.504475L186.468750 126.774932L191.002500 130.056192
L195.536250 133.345832L200.070000 136.644070L204.603750 139.950688
L209.137500 143.265465L213.671250 146.588179L218.205000 149.918611
L222.738750 153.256540L227.272500 156.601526L231.806250 159.953346
L236.340000 163.311561L240.873750 166.675950L245.407500 170.045851
L249.941250 173.421266L254.475000 176.801310L259.008750 180.185544
L263.542500 183.573747L268.076250 186.965258L272.610000 190.359414
L277.143750 193.755996L281.677500 197.154122L286.211250 200.553350
L290.745000 203.953239L295.278750 207.352908L299.812500 210.751695
L304.346250 214.149159L308.880000 217.544859L313.413750 220.938354
L317.947500 224.328762L322.481250 227.715863L327.015000 231.098774
L331.548750 234.477054L336.082500 237.850484L340.616250 241.217960
L345.150000 244.579614L349.683750 247.934610L354.217500 251.282550
L358.751250 254.623059L363.285000 257.955674L367.818750 261.280064
L372.352500 264.595862L376.886250 267.902737L381.420000 271.200403
L385.953750 274.488609L390.487500 277.767113L395.021250 281.035717
L399.555000 284.294288L404.088750 287.542584L408.622500 290.780847
L413.156250 294.006101L417.690000 297.218345L422.223750 300.420225
L426.757500 303.612183L431.291250 306.793778L435.825000 309.965450
L440.358750 313.127199L444.892500 316.279688L449.426250 319.422474
L453.960000 322.556441L458.493750 325.681587L463.027500 328.798355
L467.561250 331.906964L472.095000 335.008076L476.628750 338.101911
L481.162500 341.188911L485.696250 344.269737L490.230000 347.344610
L494.763750 350.414411L499.297500 353.479361L503.831250 356.540121
L508.365000 359.597354L512.898750 362.651499L517.432500 365.703440
L521.966250 368.753175L526.500000 371.802029"/>
</g>
<g id="matplotlib.axis1">
<g id="xtick1">
<g id="line2d22">
<defs><path id="m30e32995789d870ad79a2e54c91cf9c6" d="M0.000000 0.000000L0.000000 -4.000000"/></defs>
<g ><use style="fill: none; stroke: #000000; stroke-width: 0.500000; stroke-linejoin: round; stroke-linecap: butt;  opacity: 1.000000" xlink:href="#m30e32995789d870ad79a2e54c91cf9c6" x="73.125000" y="396.900000"/>
</g></g>
<g id="line2d23">
<defs><path id="m9281cae24120827b11d5ea8a7ad3e96b" d="M0.000000 0.000000L0.000000 4.000000"/></defs>
<g ><use style="fill: none; stroke: #000000; stroke-width: 0.500000; stroke-linejoin: round; stroke-linecap: butt;  opacity: 1.000000" xlink:href="#m9281cae24120827b11d5ea8a7ad3e96b" x="73.125000" y="44.100000"/>
</g></g>
<g id="text1">
<defs>
<path id="c_7a2040fe3b94fcd41d0a72c84e93b115" d="M31.781250 -66.406250q-7.609375 0.000000 -11.453125 7.500000q-3.828125 7.484375 -3.828125 22.531250q0.000000 14.984375 3.828125 22.484375q3.843750 7.500000 11.453125 7.500000q7.671875 0.000000 11.500000 -7.500000q3.843750 -7.500000 3.843750 -22.484375q0.000000 -15.046875 -3.843750 -22.531250q-3.828125 -7.500000 -11.500000 -7.500000M31.781250 -74.218750q12.265625 0.000000 18.734375 9.703125q6.468750 9.687500 6.468750 28.140625q0.000000 18.406250 -6.468750 28.109375q-6.468750 9.687500 -18.734375 9.687500q-12.250000 0.000000 -18.718750 -9.687500q-6.468750 -9.703125 -6.468750 -28.109375q0.000000 -18.453125 6.468750 -28.140625q6.468750 -9.703125 18.718750 -9.703125"/>
</defs>
<g style="fill: #000000; opacity: 1.000000" transform="translate(70.101562,409.806250)scale(0.120000)">
<use xlink:href="#c_7a2040fe3b94fcd41d0a72c84e93b115"/>
</g>
</g>
</g>
<g id="xtick2">
<g id="line2d24">
<g ><use style="fill: none; stroke: #000000; stroke-width: 0.500000; stroke-linejoin: round; stroke-linecap: butt;  opacity: 1.000000" xlink:href="#m30e32995789d870ad79a2e54c91cf9c6" x="163.800000" y="396.900000"/>
</g></g>
<g id="line2d25">
<g ><use style="fill: none; stroke: #000000; stroke-width: 0.500000; stroke-linejoin: round; stroke-linecap: butt;  opacity: 1.000000" xlink:href="#m9281cae24120827b11d5ea8a7ad3e96b" x="163.800000" y="44.100000"/>
</g></g>
<g id="text2">
<defs>
<path id="c_ed3f3ed3ebfbd18bcb9c012009a68ad1" d="M19.187500 -8.296875l34.421875 0.000000l0.000000 8.296875l-46.281250 0.000000l0.000000 -8.296875q5.609375 -5.812500 15.296875 -15.593750q9.703125 -9.796875 12.187500 -12.640625q4.734375 -5.312500 6.609375 -9.000000q1.890625 -3.687500 1.890625 -7.250000q0.000000 -5.812500 -4.078125 -9.468750q-4.078125 -3.671875 -10.625000 -3.671875q-4.640625 0.000000 -9.796875 1.609375q-5.140625 1.609375 -11.000000 4.890625l0.000000 -9.968750q5.953125 -2.390625 11.125000 -3.609375q5.187500 -1.218750 9.484375 -1.218750q11.328125 0.000000 18.062500 5.671875q6.734375 5.656250 6.734375 15.125000q0.000000 4.500000 -1.687500 8.531250q-1.671875 4.015625 -6.125000 9.484375q-1.218750 1.421875 -7.765625 8.187500q-6.531250 6.765625 -18.453125 18.921875"/>
</defs>
<g style="fill: #000000; opacity: 1.000000" transform="translate(156.995313,409.806250)scale(0.120000)">
<use xlink:href="#c_ed3f3ed3ebfbd18bcb9c012009a68ad1"/>
<use xlink:href="#c_7a2040fe3b94fcd41d0a72c84e93b115" x="63.623047"/>
</g>
</g>
</g>
<g id="xtick3">
<g id="line2d26">
<g ><use style="fill: none; stroke: #000000; stroke-width: 0.500000; stroke-linejoin: round; stroke-linecap: butt;  opacity: 1.000000" xlink:href="#m30e32995789d870ad79a2e54c91cf9c6" x="254.475000" y="396.900000"/>
</g></g>
<g id="line2d27">
<g ><use style="fill: none; stroke: #000000; stroke-width: 0.500000; stroke-linejoin: round; stroke-linecap: butt;  opacity: 1.000000" xlink:href="#m9281cae24120827b11d5ea8a7ad3e96b" x="254.475000" y="44.100000"/>
</g></g>
<g id="text3">
<defs>
<path id="c_a0416418d96557a09b8c1332d34883ba" d="M37.796875 -64.312500l-24.906250 38.921875l24.906250 0.000000zM35.203125 -72.906250l12.406250 0.000000l0.000000 47.515625l10.406250 0.000000l0.000000 8.203125l-10.406250 0.000000l0.000000 17.187500l-9.812500 0.000000l0.000000 -17.187500l-32.906250 0.000000l0.000000 -9.515625z"/>
</defs>
<g style="fill: #000000; opacity: 1.000000" transform="translate(247.529688,409.806250)scale(0.120000)">
<use xlink:href="#c_a0416418d96557a09b8c1332d34883ba"/>
<use xlink:href="#c_7a2040fe3b94fcd41d0a72c84e93b115" x="63.623047"/>
</g>
</g>
</g>
<g id="xtick4">
<g id="line2d28">
<g ><use style="fill: none; stroke: #000000; stroke-width: 0.500000; stroke-linejoin: round; stroke-linecap: butt;  opacity: 1.000000" xlink:href="#m30e32995789d870ad79a2e54c91cf9c6" x="345.150000" y="396.900000"/>
</g></g>
<g id="line2d29">
<g ><use style="fill: none; stroke: #000000; stroke-width: 0.500000; stroke-linejoin: round; stroke-linecap: butt;  opacity: 1.000000" xlink:href="#m9281cae24120827b11d5ea8a7ad3e96b" x="345.150000" y="44.100000"/>
</g></g>
<g id="text4">
<defs>
<path id="c_cc8d6d580d1b10c8632f7a42cd53db8a" d="M33.015625 -40.375000q-6.640625 0.000000 -10.531250 4.546875q-3.875000 4.531250 -3.875000 12.437500q0.000000 7.859375 3.875000 12.437500q3.890625 4.562500 10.531250 4.562500q6.640625 0.000000 10.515625 -4.562500q3.875000 -4.578125 3.875000 -12.437500q0.000000 -7.906250 -3.875000 -12.437500q-3.875000 -4.546875 -10.515625 -4.546875M52.593750 -71.296875l0.000000 8.984375q-3.718750 -1.750000 -7.500000 -2.671875q-3.781250 -0.937500 -7.500000 -0.937500q-9.765625 0.000000 -14.921875 6.593750q-5.140625 6.593750 -5.875000 19.921875q2.875000 -4.250000 7.218750 -6.515625q4.359375 -2.265625 9.578125 -2.265625q10.984375 0.000000 17.359375 6.671875q6.375000 6.656250 6.375000 18.125000q0.000000 11.234375 -6.640625 18.031250q-6.640625 6.781250 -17.671875 6.781250q-12.656250 0.000000 -19.343750 -9.687500q-6.687500 -9.703125 -6.687500 -28.109375q0.000000 -17.281250 8.203125 -27.562500q8.203125 -10.281250 22.015625 -10.281250q3.718750 0.000000 7.500000 0.734375q3.781250 0.734375 7.890625 2.187500"/>
</defs>
<g style="fill: #000000; opacity: 1.000000" transform="translate(338.329688,409.806250)scale(0.120000)">
<use xlink:href="#c_cc8d6d580d1b10c8632f7a42cd53db8a"/>
<use xlink:href="#c_7a2040fe3b94fcd41d0a72c84e93b115" x="63.623047"/>
</g>
</g>
</g>
<g id="xtick5">
<g id="line2d30">
<g ><use style="fill: none; stroke: #000000; stroke-width: 0.500000; stroke-linejoin: round; stroke-linecap: butt;  opacity: 1.000000" xlink:href="#m30e32995789d870ad79a2e54c91cf9c6" x="435.825000" y="396.900000"/>
</g></g>
<g id="line2d31">
<g ><use style="fill: none; stroke: #000000; stroke-width: 0.500000; stroke-linejoin: round; stroke-linecap: butt;  opacity: 1.000000" xlink:href="#m9281cae24120827b11d5ea8a7ad3e96b" x="435.825000" y="44.100000"/>
</g></g>
<g id="text5">
<defs>
<path id="c_bef35738d52871942e50b9de9b122bab" d="M31.781250 -34.625000q-7.031250 0.000000 -11.062500 3.765625q-4.015625 3.765625 -4.015625 10.343750q0.000000 6.593750 4.015625 10.359375q4.031250 3.765625 11.062500 3.765625q7.031250 0.000000 11.078125 -3.781250q4.062500 -3.796875 4.062500 -10.343750q0.000000 -6.578125 -4.031250 -10.343750q-4.015625 -3.765625 -11.109375 -3.765625M21.921875 -38.812500q-6.343750 -1.562500 -9.890625 -5.906250q-3.531250 -4.359375 -3.531250 -10.609375q0.000000 -8.734375 6.218750 -13.812500q6.234375 -5.078125 17.062500 -5.078125q10.890625 0.000000 17.093750 5.078125q6.203125 5.078125 6.203125 13.812500q0.000000 6.250000 -3.546875 10.609375q-3.531250 4.343750 -9.828125 5.906250q7.125000 1.656250 11.093750 6.500000q3.984375 4.828125 3.984375 11.796875q0.000000 10.609375 -6.468750 16.281250q-6.468750 5.656250 -18.531250 5.656250q-12.046875 0.000000 -18.531250 -5.656250q-6.468750 -5.671875 -6.468750 -16.281250q0.000000 -6.968750 4.000000 -11.796875q4.015625 -4.843750 11.140625 -6.500000M18.312500 -54.390625q0.000000 5.656250 3.531250 8.828125q3.546875 3.171875 9.937500 3.171875q6.359375 0.000000 9.937500 -3.171875q3.593750 -3.171875 3.593750 -8.828125q0.000000 -5.671875 -3.593750 -8.843750q-3.578125 -3.171875 -9.937500 -3.171875q-6.390625 0.000000 -9.937500 3.171875q-3.531250 3.171875 -3.531250 8.843750"/>
</defs>
<g style="fill: #000000; opacity: 1.000000" transform="translate(428.989063,409.806250)scale(0.120000)">
<use xlink:href="#c_bef35738d52871942e50b9de9b122bab"/>
<use xlink:href="#c_7a2040fe3b94fcd41d0a72c84e93b115" x="63.623047"/>
</g>
</g>
</g>
<g id="xtick6">
<g id="line2d32">
<g ><use style="fill: none; stroke: #000000; stroke-width: 0.500000; stroke-linejoin: round; stroke-linecap: butt;  opacity: 1.000000" xlink:href="#m30e32995789d870ad79a2e54c91cf9c6" x="526.500000" y="396.900000"/>
</g></g>
<g id="line2d33">
<g ><use style="fill: none; stroke: #000000; stroke-width: 0.500000; stroke-linejoin: round; stroke-linecap: butt;  opacity: 1.000000" xlink:href="#m9281cae24120827b11d5ea8a7ad3e96b" x="526.500000" y="44.100000"/>
</g></g>
<g id="text6">
<defs>
<path id="c_42baa63129a918535c52adb20d687ea7" d="M12.406250 -8.296875l16.109375 0.000000l0.000000 -55.625000l-17.531250 3.515625l0.000000 -8.984375l17.437500 -3.515625l9.859375 0.000000l0.000000 64.609375l16.109375 0.000000l0.000000 8.296875l-41.984375 0.000000z"/>
</defs>
<g style="fill: #000000; opacity: 1.000000" transform="translate(516.093750,409.806250)scale(0.120000)">
<use xlink:href="#c_42baa63129a918535c52adb20d687ea7"/>
<use xlink:href="#c_7a2040fe3b94fcd41d0a72c84e93b115" x="63.623047"/>
<use xlink:href="#c_7a2040fe3b94fcd41d0a72c84e93b115" x="127.246094"/>
</g>
</g>
</g>
</g>
<g id="matplotlib.axis2">
<g id="ytick1">
<g id="line2d34">
<defs><path id="m3400efa6b1638b3fea9e19e898273957" d="M0.000000 0.000000L4.000000 0.000000"/></defs>
<g ><use style="fill: none; stroke: #000000; stroke-width: 0.500000; stroke-linejoin: round; stroke-linecap: butt;  opacity: 1.000000" xlink:href="#m3400efa6b1638b3fea9e19e898273957" x="73.125000" y="396.900000"/>
</g></g>
<g id="line2d35">
<defs><path id="m20b58b2501143cb5e0a5e8f1ef6f1643" d="M0.000000 0.000000L-4.000000 0.000000"/></defs>
<g ><use style="fill: none; stroke: #000000; stroke-width: 0.500000; stroke-linejoin: round; stroke-linecap: butt;  opacity: 1.000000" xlink:href="#m20b58b2501143cb5e0a5e8f1ef6f1643" x="526.500000" y="396.900000"/>
</g></g>
<g id="text7">
<defs>
<path id="c_6a8d56c819c37117ab4cf023bec22a5a" d="M10.593750 -35.500000l62.593750 0.000000l0.000000 8.296875l-62.593750 0.000000z"/>
</defs>
<g style="fill: #000000; opacity: 1.000000" transform="translate(53.453125,401.267188)scale(0.120000)">
<use xlink:href="#c_6a8d56c819c37117ab4cf023bec22a5a"/>
<use xlink:href="#c_cc8d6d580d1b10c8632f7a42cd53db8a" x="83.789062"/>
</g>
</g>
</g>
<g id="ytick2">
<g id="line2d36">
<g ><use style="fill: none; stroke: #000000; stroke-width: 0.500000; stroke-linejoin: round; stroke-linecap: butt;  opacity: 1.000000" xlink:href="#m3400efa6b1638b3fea9e19e898273957" x="73.125000" y="352.800000"/>
</g></g>
<g id="line2d37">
<g ><use style="fill: none; stroke: #000000; stroke-width: 0.500000; stroke-linejoin: round; stroke-linecap: butt;  opacity: 1.000000" xlink:href="#m20b58b2501143cb5e0a5e8f1ef6f1643" x="526.500000" y="352.800000"/>
</g></g>
<g id="text8">
<g style="fill: #000000; opacity: 1.000000" transform="translate(53.359375,357.175000)scale(0.120000)">
<use xlink:href="#c_6a8d56c819c37117ab4cf023bec22a5a"/>
<use xlink:href="#c_a0416418d96557a09b8c1332d34883ba" x="83.789062"/>
</g>
</g>
</g>
<g id="ytick3">
<g id="line2d38">
<g ><use style="fill: none; stroke: #000000; stroke-width: 0.500000; stroke-linejoin: round; stroke-linecap: butt;  opacity: 1.000000" xlink:href="#m3400efa6b1638b3fea9e19e898273957" x="73.125000" y="308.700000"/>
</g></g>
<g id="line2d39">
<g ><use style="fill: none; stroke: #000000; stroke-width: 0.500000; stroke-linejoin: round; stroke-linecap: butt;  opacity: 1.000000" xlink:href="#m20b58b2501143cb5e0a5e8f1ef6f1643" x="526.500000" y="308.700000"/>
</g></g>
<g id="text9">
<g style="fill: #000000; opacity: 1.000000" transform="translate(53.890625,313.153125)scale(0.120000)">
<use xlink:href="#c_6a8d56c819c37117ab4cf023bec22a5a"/>
<use xlink:href="#c_ed3f3ed3ebfbd18bcb9c012009a68ad1" x="83.789062"/>
</g>
</g>
</g>
<g id="ytick4">
<g id="line2d40">
<g ><use style="fill: none; stroke: #000000; stroke-width: 0.500000; stroke-linejoin: round; stroke-linecap: butt;  opacity: 1.000000" xlink:href="#m3400efa6b1638b3fea9e19e898273957" x="73.125000" y="264.600000"/>
</g></g>
<g id="line2d41">
<g ><use style="fill: none; stroke: #000000; stroke-width: 0.500000; stroke-linejoin: round; stroke-linecap: butt;  opacity: 1.000000" xlink:href="#m20b58b2501143cb5e0a5e8f1ef6f1643" x="526.500000" y="264.600000"/>
</g></g>
<g id="text10">
<g style="fill: #000000; opacity: 1.000000" transform="translate(63.078125,268.967188)scale(0.120000)">
<use xlink:href="#c_7a2040fe3b94fcd41d0a72c84e93b115"/>
</g>
</g>
</g>
<g id="ytick5">
<g id="line2d42">
<g ><use style="fill: none; stroke: #000000; stroke-width: 0.500000; stroke-linejoin: round; stroke-linecap: butt;  opacity: 1.000000" xlink:href="#m3400efa6b1638b3fea9e19e898273957" x="73.125000" y="220.500000"/>
</g></g>
<g id="line2d43">
<g ><use style="fill: none; stroke: #000000; stroke-width: 0.500000; stroke-linejoin: round; stroke-linecap: butt;  opacity: 1.000000" xlink:href="#m20b58b2501143cb5e0a5e8f1ef6f1643" x="526.500000" y="220.500000"/>
</g></g>
<g id="text11">
<g style="fill: #000000; opacity: 1.000000" transform="translate(63.562500,224.953125)scale(0.120000)">
<use xlink:href="#c_ed3f3ed3ebfbd18bcb9c012009a68ad1"/>
</g>
</g>
</g>
<g id="ytick6">
<g id="line2d44">
<g ><use style="fill: none; stroke: #000000; stroke-width: 0.500000; stroke-linejoin: round; stroke-linecap: butt;  opacity: 1.000000" xlink:href="#m3400efa6b1638b3fea9e19e898273957" x="73.125000" y="176.400000"/>
</g></g>
<g id="line2d45">
<g ><use style="fill: none; stroke: #000000; stroke-width: 0.500000; stroke-linejoin: round; stroke-linecap: butt;  opacity: 1.000000" xlink:href="#m20b58b2501143cb5e0a5e8f1ef6f1643" x="526.500000" y="176.400000"/>
</g></g>
<g id="text12">
<g style="fill: #000000; opacity: 1.000000" transform="translate(62.750000,180.775000)scale(0.120000)">
<use xlink:href="#c_a0416418d96557a09b8c1332d34883ba"/>
</g>
</g>
</g>
<g id="ytick7">
<g id="line2d46">
<g ><use style="fill: none; stroke: #000000; stroke-width: 0.500000; stroke-linejoin: round; stroke-linecap: butt;  opacity: 1.000000" xlink:href="#m3400efa6b1638b3fea9e19e898273957" x="73.125000" y="132.300000"/>
</g></g>
<g id="line2d47">
<g ><use style="fill: none; stroke: #000000; stroke-width: 0.500000; stroke-linejoin: round; stroke-linecap: butt;  opacity: 1.000000" xlink:href="#m20b58b2501143cb5e0a5e8f1ef6f1643" x="526.500000" y="132.300000"/>
</g></g>
<g id="text13">
<g style="fill: #000000; opacity: 1.000000" transform="translate(63.093750,136.667187)scale(0.120000)">
<use xlink:href="#c_cc8d6d580d1b10c8632f7a42cd53db8a"/>
</g>
</g>
</g>
<g id="ytick8">
<g id="line2d48">
<g ><use style="fill: none; stroke: #000000; stroke-width: 0.500000; stroke-linejoin: round; stroke-linecap: butt;  opacity: 1.000000" xlink:href="#m3400efa6b1638b3fea9e19e898273957" x="73.125000" y="88.200000"/>
</g></g>
<g id="line2d49">
<g ><use style="fill: none; stroke: #000000; stroke-width: 0.500000; stroke-linejoin: round; stroke-linecap: butt;  opacity: 1.000000" xlink:href="#m20b58b2501143cb5e0a5e8f1ef6f1643" x="526.500000" y="88.200000"/>
</g></g>
<g id="text14">
<g style="fill: #000000; opacity: 1.000000" transform="translate(63.125000,92.567187)scale(0.120000)">
<use xlink:href="#c_bef35738d52871942e50b9de9b122bab"/>
</g>
</g>
</g>
<g id="ytick9">
<g id="line2d50">
<g ><use style="fill: none; stroke: #000000; stroke-width: 0.500000; stroke-linejoin: round; stroke-linecap: butt;  opacity: 1.000000" xlink:href="#m3400efa6b1638b3fea9e19e898273957" x="73.125000" y="44.100000"/>
</g></g>
<g id="line2d51">
<g ><use style="fill: none; stroke: #000000; stroke-width: 0.500000; stroke-linejoin: round; stroke-linecap: butt;  opacity: 1.000000" xlink:href="#m20b58b2501143cb5e0a5e8f1ef6f1643" x="526.500000" y="44.100000"/>
</g></g>
<g id="text15">
<g style="fill: #000000; opacity: 1.000000" transform="translate(55.953125,48.467187)scale(0.120000)">
<use xlink:href="#c_42baa63129a918535c52adb20d687ea7"/>
<use xlink:href="#c_7a2040fe3b94fcd41d0a72c84e93b115" x="63.623047"/>
</g>
</g>
</g>
</g>
<g id="patch3">
<path style="fill: none; stroke: #000000; stroke-width: 1.000000; stroke-linejoin: round; stroke-linecap: square;  opacity: 1.000000"  d="M73.125000 44.100000L526.500000 44.100000"/>
</g>
<g id="patch4">
<path style="fill: none; stroke: #000000; stroke-width: 1.000000; stroke-linejoin: round; stroke-linecap: square;  opacity: 1.000000"  d="M526.500000 396.900000L526.500000 44.100000"/>
</g>
<g id="patch5">
<path style="fill: none; stroke: #000000; stroke-width: 1.000000; stroke-linejoin: round; stroke-linecap: square;  opacity: 1.000000"  d="M73.125000 396.900000L526.500000 396.900000"/>
</g>
<g id="patch6">
<path style="fill: none; stroke: #000000; stroke-width: 1.000000; stroke-linejoin: round; stroke-linecap: square;  opacity: 1.000000"  d="M73.125000 396.900000L73.125000 44.100000"/>
</g>
</g>
</g>
</svg>
