<?xml version="1.0" standalone="no"?>
<!DOCTYPE svg PUBLIC "-//W3C//DTD SVG 1.1//EN"
  "http://www.w3.org/Graphics/SVG/1.1/DTD/svg11.dtd">
<!-- Created with matplotlib (http://matplotlib.sourceforge.net/) -->
<svg width="585pt" height="441pt" viewBox="0 0 585 441"
   xmlns="http://www.w3.org/2000/svg"
   xmlns:xlink="http://www.w3.org/1999/xlink"
   version="1.1"
   id="svg1">
<g id="figure1">
<g id="patch1">
<path style="fill: #ffffff; stroke: #ffffff; stroke-width: 1.000000; stroke-linejoin: round; stroke-linecap: square;  opacity: 1.000000"  d="M0.000000 441.000000L585.000000 441.000000L585.000000 0.000000
L0.000000 0.000000L0.000000 441.000000"/>
</g>
<g id="axes1">
<g id="patch2">
<path style="fill: #ffffff; opacity: 1.000000"  d="M73.125000 396.900000L526.500000 396.900000L526.500000 44.100000
L73.125000 44.100000L73.125000 396.900000"/>
</g>
<g id="line2d1">
<defs>
  <clipPath id="pc3c5e41676658680e7b95047b5791c8e">
<rect x="73.125000" y="44.100000" width="453.375000" height="352.800000"/>
  </clipPath>
</defs><path style="fill: none; stroke: #808080; stroke-width: 1.000000; stroke-linejoin: round; stroke-linecap: square;  opacity: 1.000000" clip-path="url(#pc3c5e41676658680e7b95047b5791c8e)" d="M73.125000 44.100000L77.658750 209.475000L82.192500 264.600000
L86.726250 264.600000L91.260000 264.600000L95.793750 264.600000
L100.327500 264.600000L104.861250 264.600000L109.395000 264.600000
L113.928750 264.600000L118.462500 264.600000L122.996250 264.600000
L127.530000 264.600000L132.063750 264.600000L136.597500 264.600000
L141.131250 264.600000L145.665000 264.600000L150.198750 264.600000
L154.732500 264.600000L159.266250 264.600000L163.800000 264.600000
L168.333750 264.600000L172.867500 264.600000L177.401250 264.600000
L181.935000 264.600000L186.468750 264.600000L191.002500 264.600000
L195.536250 264.600000L200.070000 264.600000L204.603750 264.600000
L209.137500 264.600000L213.671250 264.600000L218.205000 264.600000
L222.738750 264.600000L227.272500 264.600000L231.806250 264.600000
L236.340000 264.600000L240.873750 264.600000L245.407500 264.600000
L249.941250 264.600000L254.475000 264.600000L259.008750 264.600000
L263.542500 264.600000L268.076250 264.600000L272.610000 264.600000
L277.143750 264.600000L281.677500 264.600000L286.211250 264.600000
L290.745000 264.600000L295.278750 264.600000L299.812500 264.600000
L304.346250 264.600000L308.880000 264.600000L313.413750 264.600000
L317.947500 264.600000L322.481250 264.600000L327.015000 264.600000
L331.548750 264.600000L336.082500 264.600000L340.616250 264.600000
L345.150000 264.600000L349.683750 264.600000L354.217500 264.600000
L358.751250 264.600000L363.285000 264.600000L367.818750 264.600000
L372.352500 264.600000L376.886250 264.600000L381.420000 264.600000
L385.953750 264.600000L390.487500 264.600000L395.021250 264.600000
L399.555000 264.600000L404.088750 264.600000L408.622500 264.600000
L413.156250 264.600000L417.690000 264.600000L422.223750 264.600000
L426.757500 264.600000L431.291250 264.600000L435.825000 264.600000
L440.358750 264.600000L444.892500 264.600000L449.426250 264.600000
L453.960000 264.600000L458.493750 264.600000L463.027500 264.600000
L467.561250 264.600000L472.095000 264.600000L476.628750 264.600000
L481.162500 264.600000L485.696250 264.600000L490.230000 264.600000
L494.763750 264.600000L499.297500 264.600000L503.831250 264.600000
L508.365000 264.600000L512.898750 264.600000L517.432500 264.600000
L521.966250 292.162500L526.500000 374.850000"/>
</g>
<g id="line2d2">
<path style="fill: none; stroke: #7b7b7b; stroke-width: 1.000000; stroke-linejoin: round; stroke-linecap: square;  opacity: 1.000000" clip-path="url(#pc3c5e41676658680e7b95047b5791c8e)" d="M73.125000 44.100000L77.658750 65.494233L82.192500 86.573592
L86.726250 107.037756L91.260000 126.611982L95.793750 145.059674
L100.327500 162.189877L104.861250 177.861915L109.395000 191.988909
L113.928750 204.535359L118.462500 215.513393L122.996250 224.977253
L127.530000 233.015139L132.063750 239.740610L136.597500 245.284553
L141.131250 249.786722L145.665000 253.388457L150.198750 256.226909
L154.732500 258.430454L159.266250 260.115515L163.800000 261.384779
L168.333750 262.326491L172.867500 263.014665L177.401250 263.509974
L181.935000 263.861080L186.468750 264.106192L191.002500 264.274705
L195.536250 264.388793L200.070000 264.464852L204.603750 264.514779
L209.137500 264.547050L213.671250 264.567586L218.205000 264.580451
L222.738750 264.588386L227.272500 264.593204L231.806250 264.596084
L236.340000 264.597777L240.873750 264.598758L245.407500 264.599316
L249.941250 264.599630L254.475000 264.599803L259.008750 264.599896
L263.542500 264.599946L268.076250 264.599973L272.610000 264.599986
L277.143750 264.599993L281.677500 264.599997L286.211250 264.599998
L290.745000 264.599999L295.278750 264.600000L299.812500 264.600000
L304.346250 264.600000L308.880000 264.600000L313.413750 264.600001
L317.947500 264.600002L322.481250 264.600003L327.015000 264.600007
L331.548750 264.600014L336.082500 264.600027L340.616250 264.600052
L345.150000 264.600099L349.683750 264.600185L354.217500 264.600342
L358.751250 264.600621L363.285000 264.601111L367.818750 264.601958
L372.352500 264.603398L376.886250 264.605807L381.420000 264.609774
L385.953750 264.616207L390.487500 264.626475L395.021250 264.642610
L399.555000 264.667574L404.088750 264.705603L408.622500 264.762647
L413.156250 264.846905L417.690000 264.969461L422.223750 265.145012
L426.757500 265.392669L431.291250 265.736755L435.825000 266.207613
L440.358750 266.842242L444.892500 267.684773L449.426250 268.786545
L453.960000 270.205772L458.493750 272.006639L463.027500 274.257724
L467.561250 277.029717L472.095000 280.392475L476.628750 284.411374
L481.162500 289.143194L485.696250 294.632321L490.230000 300.905546
L494.763750 307.969043L499.297500 315.805172L503.831250 324.370053
L508.365000 333.594009L512.898750 343.381122L517.432500 353.613204
L521.966250 364.152884L526.500000 374.850000"/>
</g>
<g id="line2d3">
<path style="fill: none; stroke: #777777; stroke-width: 1.000000; stroke-linejoin: round; stroke-linecap: square;  opacity: 1.000000" clip-path="url(#pc3c5e41676658680e7b95047b5791c8e)" d="M73.125000 44.100000L77.658750 59.291347L82.192500 74.369578
L86.726250 89.224443L91.260000 103.750542L95.793750 117.849312
L100.327500 131.431671L104.861250 144.419121L109.395000 156.745512
L113.928750 168.357263L118.462500 179.214462L122.996250 189.290650
L127.530000 198.572157L132.063750 207.058100L136.597500 214.759062
L141.131250 221.695331L145.665000 227.896232L150.198750 233.398368
L154.732500 238.244297L159.266250 242.480102L163.800000 246.155087
L168.333750 249.319681L172.867500 252.024378L177.401250 254.318702
L181.935000 256.250349L186.468750 257.864453L191.002500 259.203130
L195.536250 260.305013L200.070000 261.205226L204.603750 261.935103
L209.137500 262.522456L213.671250 262.991547L218.205000 263.363368
L222.738750 263.655870L227.272500 263.884233L231.806250 264.061177
L236.340000 264.197246L240.873750 264.301086L245.407500 264.379735
L249.941250 264.438853L254.475000 264.482955L259.008750 264.515608
L263.542500 264.539607L268.076250 264.557119L272.610000 264.569813
L277.143750 264.578964L281.677500 264.585542L286.211250 264.590278
L290.745000 264.593730L295.278750 264.596324L299.812500 264.598396
L304.346250 264.600226L308.880000 264.602063L313.413750 264.604153
L317.947500 264.606765L322.481250 264.610216L327.015000 264.614899
L331.548750 264.621316L336.082500 264.630117L340.616250 264.642146
L345.150000 264.658491L349.683750 264.680554L354.217500 264.710120
L358.751250 264.749450L363.285000 264.801373L367.818750 264.869409
L372.352500 264.957883L376.886250 265.072064L381.420000 265.218315
L385.953750 265.404227L390.487500 265.638773L395.021250 265.932448
L399.555000 266.297391L404.088750 266.747487L408.622500 267.298435
L413.156250 267.967763L417.690000 268.774837L422.223750 269.740649
L426.757500 270.887822L431.291250 272.240149L435.825000 273.822457
L440.358750 275.659949L444.892500 277.777896L449.426250 280.200794
L453.960000 282.951906L458.493750 286.052379L463.027500 289.520469
L467.561250 293.370840L472.095000 297.613922L476.628750 302.254785
L481.162500 307.292769L485.696250 312.721259L490.230000 318.527244
L494.763750 324.690440L499.297500 331.184165L503.831250 337.975344
L508.365000 345.024729L512.898750 352.287779L517.432500 359.715321
L521.966250 367.254437L526.500000 374.850000"/>
</g>
<g id="line2d4">
<path style="fill: none; stroke: #737373; stroke-width: 1.000000; stroke-linejoin: round; stroke-linecap: square;  opacity: 1.000000" clip-path="url(#pc3c5e41676658680e7b95047b5791c8e)" d="M73.125000 44.100000L77.658750 56.520985L82.192500 68.880231
L86.726250 81.116658L91.260000 93.171393L95.793750 104.988208
L100.327500 116.513743L104.861250 127.699488L109.395000 138.501563
L113.928750 148.880939L118.462500 158.804761L122.996250 168.245469
L127.530000 177.182114L132.063750 185.599480L136.597500 193.488309
L141.131250 200.844851L145.665000 207.670648L150.198750 213.972980
L154.732500 219.762428L159.266250 225.054428L163.800000 229.867943
L168.333750 234.223920L172.867500 238.146174L177.401250 241.660724
L181.935000 244.793852L186.468750 247.573144L191.002500 250.026251
L195.536250 252.180602L200.070000 254.063143L204.603750 255.699959
L209.137500 257.116010L213.671250 258.334934L218.205000 259.378957
L222.738750 260.268674L227.272500 261.023137L231.806250 261.659699
L236.340000 262.194147L240.873750 262.640646L245.407500 263.011840
L249.941250 263.318963L254.475000 263.571899L259.008750 263.779297
L263.542500 263.948687L268.076250 264.086583L272.610000 264.198602
L277.143750 264.289571L281.677500 264.363639L286.211250 264.424366
L290.745000 264.474839L295.278750 264.517747L299.812500 264.555478
L304.346250 264.590198L308.880000 264.623929L313.413750 264.658623
L317.947500 264.696237L322.481250 264.738799L327.015000 264.788480
L331.548750 264.847657L336.082500 264.918984L340.616250 265.005455
L345.150000 265.110477L349.683750 265.237922L354.217500 265.392204
L358.751250 265.578328L363.285000 265.801957L367.818750 266.069456
L372.352500 266.387944L376.886250 266.765319L381.420000 267.210279
L385.953750 267.732357L390.487500 268.341885L395.021250 269.049933
L399.555000 269.868362L404.088750 270.809655L408.622500 271.886841
L413.156250 273.113395L417.690000 274.503052L422.223750 276.069638
L426.757500 277.826869L431.291250 279.788084L435.825000 281.966073
L440.358750 284.372742L444.892500 287.018897L449.426250 289.913621
L453.960000 293.064566L458.493750 296.477685L463.027500 300.155846
L467.561250 304.100150L472.095000 308.308833L476.628750 312.777266
L481.162500 317.497730L485.696250 322.459641L490.230000 327.649329
L494.763750 333.050256L499.297500 338.643018L503.831250 344.406006
L508.365000 350.314304L512.898750 356.341671L517.432500 362.459885
L521.966250 368.639397L526.500000 374.850000"/>
</g>
<g id="line2d5">
<path style="fill: none; stroke: #6f6f6f; stroke-width: 1.000000; stroke-linejoin: round; stroke-linecap: square;  opacity: 1.000000" clip-path="url(#pc3c5e41676658680e7b95047b5791c8e)" d="M73.125000 44.100000L77.658750 54.864369L82.192500 65.588607
L86.726250 76.232803L91.260000 86.757930L95.793750 97.126722
L100.327500 107.303017L104.861250 117.253300L109.395000 126.946039
L113.928750 136.352569L118.462500 145.447533L122.996250 154.207777
L127.530000 162.614561L132.063750 170.651785L136.597500 178.307105
L141.131250 185.571257L145.665000 192.438288L150.198750 198.905994
L154.732500 204.974375L159.266250 210.647178L163.800000 215.930138
L168.333750 220.831632L172.867500 225.362246L177.401250 229.534326
L181.935000 233.361986L186.468750 236.860218L191.002500 240.045782
L195.536250 242.935522L200.070000 245.547212L204.603750 247.898779
L209.137500 250.008236L213.671250 251.893489L218.205000 253.572089
L222.738750 255.061236L227.272500 256.377445L231.806250 257.536613
L236.340000 258.553868L240.873750 259.443497L245.407500 260.218952
L249.941250 260.892756L254.475000 261.476573L259.008750 261.981232
L263.542500 262.416675L268.076250 262.792019L272.610000 263.115645
L277.143750 263.395217L281.677500 263.637742L286.211250 263.849654
L290.745000 264.036869L295.278750 264.204857L299.812500 264.358724
L304.346250 264.503278L308.880000 264.643102L313.413750 264.782631
L317.947500 264.926217L322.481250 265.078196L327.015000 265.242963
L331.548750 265.425014L336.082500 265.629021L340.616250 265.859871
L345.150000 266.122722L349.683750 266.423034L354.217500 266.766611
L358.751250 267.159608L363.285000 267.608590L367.818750 268.120503
L372.352500 268.702667L376.886250 269.362756L381.420000 270.108884
L385.953750 270.949408L390.487500 271.892949L395.021250 272.948395
L399.555000 274.124718L404.088750 275.430982L408.622500 276.876183
L413.156250 278.469163L417.690000 280.218522L422.223750 282.132440
L426.757500 284.218591L431.291250 286.483964L435.825000 288.934821
L440.358750 291.576191L444.892500 294.412703L449.426250 297.447003
L453.960000 300.680856L458.493750 304.114482L463.027500 307.746338
L467.561250 311.573997L472.095000 315.592610L476.628750 319.796001
L481.162500 324.176234L485.696250 328.723605L490.230000 333.426870
L494.763750 338.273240L499.297500 343.248381L503.831250 348.336639
L508.365000 353.521035L512.898750 358.783709L517.432500 364.105697
L521.966250 369.467816L526.500000 374.850000"/>
</g>
<g id="line2d6">
<path style="fill: none; stroke: #6b6b6b; stroke-width: 1.000000; stroke-linejoin: round; stroke-linecap: square;  opacity: 1.000000" clip-path="url(#pc3c5e41676658680e7b95047b5791c8e)" d="M73.125000 44.100000L77.658750 53.732101L82.192500 63.335318
L86.726250 72.881203L91.260000 82.341536L95.793750 91.688971
L100.327500 100.897492L104.861250 109.941741L109.395000 118.798123
L113.928750 127.444590L118.462500 135.860854L122.996250 144.028395
L127.530000 151.930894L132.063750 159.554241L136.597500 166.886087
L141.131250 173.916508L145.665000 180.637569L150.198750 187.043976
L154.732500 193.131761L159.266250 198.899820L163.800000 204.348375
L168.333750 209.479851L172.867500 214.297997L177.401250 218.808765
L181.935000 223.018992L186.468750 226.937057L191.002500 230.572220
L195.536250 233.935065L200.070000 237.036618L204.603750 239.889006
L209.137500 242.504136L213.671250 244.895282L218.205000 247.075035
L222.738750 249.056558L227.272500 250.852861L231.806250 252.476932
L236.340000 253.941471L240.873750 255.258936L245.407500 256.441478
L249.941250 257.500826L254.475000 258.448248L259.008750 259.294638
L263.542500 260.050313L268.076250 260.725220L272.610000 261.328750
L277.143750 261.869857L281.677500 262.357052L286.211250 262.798418
L290.745000 263.201651L295.278750 263.574093L299.812500 263.922778
L304.346250 264.254463L308.880000 264.575675L313.413750 264.892756
L317.947500 265.211901L322.481250 265.539213L327.015000 265.880728
L331.548750 266.242463L336.082500 266.630441L340.616250 267.050725
L345.150000 267.509453L349.683750 268.012855L354.217500 268.567236
L358.751250 269.178991L363.285000 269.854691L367.818750 270.600952
L372.352500 271.424497L376.886250 272.332097L381.420000 273.330565
L385.953750 274.426715L390.487500 275.627359L395.021250 276.939136
L399.555000 278.368615L404.088750 279.922126L408.622500 281.605688
L413.156250 283.425011L417.690000 285.385388L422.223750 287.491649
L426.757500 289.747805L431.291250 292.157649L435.825000 294.723828
L440.358750 297.448547L444.892500 300.332907L449.426250 303.377130
L453.960000 306.580554L458.493750 309.941195L463.027500 313.456626
L467.561250 317.122659L472.095000 320.934222L476.628750 324.885582
L481.162500 328.969463L485.696250 333.177705L490.230000 337.500828
L494.763750 341.929130L499.297500 346.451364L503.831250 351.055404
L508.365000 355.729343L512.898750 360.459509L517.432500 365.232452
L521.966250 370.034060L526.500000 374.850000"/>
</g>
<g id="line2d7">
<path style="fill: none; stroke: #676767; stroke-width: 1.000000; stroke-linejoin: round; stroke-linecap: square;  opacity: 1.000000" clip-path="url(#pc3c5e41676658680e7b95047b5791c8e)" d="M73.125000 44.100000L77.658750 52.895304L82.192500 61.668778
L86.726250 70.398373L91.260000 79.062701L95.793750 87.641032
L100.327500 96.112642L104.861250 104.458126L109.395000 112.658963
L113.928750 120.697290L118.462500 128.556792L122.996250 136.222475
L127.530000 143.680226L132.063750 150.917476L136.597500 157.923423
L141.131250 164.688583L145.665000 171.204579L150.198750 177.465456
L154.732500 183.465923L159.266250 189.202450L163.800000 194.673276
L168.333750 199.877517L172.867500 204.815835L177.401250 209.490435
L181.935000 213.904404L186.468750 218.062152L191.002500 221.968751
L195.536250 225.630374L200.070000 229.054518L204.603750 232.248461
L209.137500 235.221021L213.671250 237.981020L218.205000 240.537938
L222.738750 242.901212L227.272500 245.081164L231.806250 247.087934
L236.340000 248.931821L240.873750 250.623167L245.407500 252.172311
L249.941250 253.589553L254.475000 254.885035L259.008750 256.068745
L263.542500 257.150518L268.076250 258.139923L272.610000 259.046355
L277.143750 259.878941L281.677500 260.646567L286.211250 261.357856
L290.745000 262.021186L295.278750 262.644743L299.812500 263.236430
L304.346250 263.803964L308.880000 264.354868L313.413750 264.896478
L317.947500 265.435971L322.481250 265.980379L327.015000 266.536610
L331.548750 267.111451L336.082500 267.711608L340.616250 268.343693
L345.150000 269.014212L349.683750 269.729624L354.217500 270.496346
L358.751250 271.320664L363.285000 272.208816L367.818750 273.166954
L372.352500 274.201077L376.886250 275.317116L381.420000 276.520825
L385.953750 277.817806L390.487500 279.213417L395.021250 280.712817
L399.555000 282.320813L404.088750 284.041992L408.622500 285.880521
L413.156250 287.840039L417.690000 289.924205L422.223750 292.135599
L426.757500 294.476427L431.291250 296.948673L435.825000 299.552999
L440.358750 302.290506L444.892500 305.160314L449.426250 308.161980
L453.960000 311.293301L458.493750 314.552291L463.027500 317.935422
L467.561250 321.439167L472.095000 325.058234L476.628750 328.787330
L481.162500 332.620502L485.696250 336.550473L490.230000 340.569968
L494.763750 344.670386L499.297500 348.843348L503.831250 353.079153
L508.365000 357.368319L512.898750 361.700703L517.432500 366.065501
L521.966250 370.452348L526.500000 374.850000"/>
</g>
<g id="line2d8">
<path style="fill: none; stroke: #636363; stroke-width: 1.000000; stroke-linejoin: round; stroke-linecap: square;  opacity: 1.000000" clip-path="url(#pc3c5e41676658680e7b95047b5791c8e)" d="M73.125000 44.100000L77.658750 52.244608L82.192500 60.372018
L86.726250 68.464368L91.260000 76.505121L95.793750 84.477078
L100.327500 92.364142L104.861250 100.150659L109.395000 107.820972
L113.928750 115.361190L118.462500 122.757422L122.996250 129.996878
L127.530000 137.067651L132.063750 143.959378L136.597500 150.661697
L141.131250 157.166226L145.665000 163.465249L150.198750 169.552372
L154.732500 175.422083L159.266250 181.070411L163.800000 186.493829
L168.333750 191.690573L172.867500 196.659761L177.401250 201.400952
L181.935000 205.915689L186.468750 210.205737L191.002500 214.273742
L195.536250 218.123672L200.070000 221.759937L204.603750 225.187389
L209.137500 228.411981L213.671250 231.440328L218.205000 234.278825
L222.738750 236.934968L227.272500 239.416695L231.806250 241.731725
L236.340000 243.888281L240.873750 245.895095L245.407500 247.760746
L249.941250 249.493964L254.475000 251.103636L259.008750 252.598604
L263.542500 253.987732L268.076250 255.279884L272.610000 256.483814
L277.143750 257.608210L281.677500 258.661692L286.211250 259.652686
L290.745000 260.589590L295.278750 261.480542L299.812500 262.333657
L304.346250 263.156839L308.880000 263.957825L313.413750 264.744234
L317.947500 265.523520L322.481250 266.302985L327.015000 267.089776
L331.548750 267.890896L336.082500 268.713207L340.616250 269.563367
L345.150000 270.447947L349.683750 271.373297L354.217500 272.345636
L358.751250 273.371005L363.285000 274.455270L367.818750 275.604053
L372.352500 276.822844L376.886250 278.116826L381.420000 279.491004
L385.953750 280.950097L390.487500 282.498514L395.021250 284.140379
L399.555000 285.879507L404.088750 287.719205L408.622500 289.662912
L413.156250 291.712680L417.690000 293.871155L422.223750 296.139879
L426.757500 298.520397L431.291250 301.013150L435.825000 303.618357
L440.358750 306.336020L444.892500 309.165035L449.426250 312.104079
L453.960000 315.150948L458.493750 318.303437L463.027500 321.558017
L467.561250 324.911160L472.095000 328.358678L476.628750 331.895498
L481.162500 335.516328L485.696250 339.215436L490.230000 342.986207
L494.763750 346.822245L499.297500 350.715834L503.831250 354.659918
L508.365000 358.646337L512.898750 362.666934L517.432500 366.713550
L521.966250 370.777365L526.500000 374.850000"/>
</g>
<g id="line2d9">
<path style="fill: none; stroke: #5f5f5f; stroke-width: 1.000000; stroke-linejoin: round; stroke-linecap: square;  opacity: 1.000000" clip-path="url(#pc3c5e41676658680e7b95047b5791c8e)" d="M73.125000 44.100000L77.658750 51.720259L82.192500 59.326186
L86.726250 66.903889L91.260000 74.439036L95.793750 81.917734
L100.327500 89.326976L104.861250 96.653308L109.395000 103.884385
L113.928750 111.007858L118.462500 118.012482L122.996250 124.887010
L127.530000 131.621742L132.063750 138.206975L136.597500 144.633888
L141.131250 150.895206L145.665000 156.983211L150.198750 162.892391
L154.732500 168.617012L159.266250 174.152664L163.800000 179.496261
L168.333750 184.644495L172.867500 189.595823L177.401250 194.349362
L181.935000 198.904671L186.468750 203.262633L191.002500 207.424350
L195.536250 211.391807L200.070000 215.168090L204.603750 218.756507
L209.137500 222.161027L213.671250 225.386060L218.205000 228.436898
L222.738750 231.318833L227.272500 234.038039L231.806250 236.600690
L236.340000 239.013621L240.873750 241.283669L245.407500 243.418263
L249.941250 245.424548L254.475000 247.310220L259.008750 249.083018
L263.542500 250.750770L268.076250 252.321391L272.610000 253.802821
L277.143750 255.203040L281.677500 256.529987L286.211250 257.791599
L290.745000 258.995750L295.278750 260.150288L299.812500 261.262909
L304.346250 262.341308L308.880000 263.392954L313.413750 264.425296
L317.947500 265.445604L322.481250 266.461020L327.015000 267.478539
L331.548750 268.504967L336.082500 269.547006L340.616250 270.611095
L345.150000 271.703584L349.683750 272.830537L354.217500 273.997864
L358.751250 275.211232L363.285000 276.476108L367.818750 277.797697
L372.352500 279.180959L376.886250 280.630571L381.420000 282.150918
L385.953750 283.746147L390.487500 285.420029L395.021250 287.176113
L399.555000 289.017288L404.088750 290.946663L408.622500 292.966223
L413.156250 295.078172L417.690000 297.284274L422.223750 299.585412
L426.757500 301.982468L431.291250 304.475882L435.825000 307.064993
L440.358750 309.749801L444.892500 312.528983L449.426250 315.400775
L453.960000 318.363633L458.493750 321.414692L463.027500 324.551304
L467.561250 327.769943L472.095000 331.066859L476.628750 334.437863
L481.162500 337.878324L485.696250 341.383172L490.230000 344.947334
L494.763750 348.564636L499.297500 352.229567L503.831250 355.935731
L508.365000 359.676293L512.898750 363.445079L517.432500 367.234812
L521.966250 371.038878L526.500000 374.850000"/>
</g>
<g id="line2d10">
<path style="fill: none; stroke: #5a5a5a; stroke-width: 1.000000; stroke-linejoin: round; stroke-linecap: square;  opacity: 1.000000" clip-path="url(#pc3c5e41676658680e7b95047b5791c8e)" d="M73.125000 44.100000L77.658750 51.286315L82.192500 58.460944
L86.726250 65.611539L91.260000 72.726633L95.793750 79.794760
L100.327500 86.804235L104.861250 93.744473L109.395000 100.604227
L113.928750 107.373798L118.462500 114.042821L122.996250 120.602475
L127.530000 127.043500L132.063750 133.357739L136.597500 139.537471
L141.131250 145.576084L145.665000 151.466742L150.198750 157.203711
L154.732500 162.782361L159.266250 168.198061L163.800000 173.447284
L168.333750 178.527164L172.867500 183.435273L177.401250 188.170290
L181.935000 192.731112L186.468750 197.117739L191.002500 201.330612
L195.536250 205.370834L200.070000 209.239727L204.603750 212.939937
L209.137500 216.474111L213.671250 219.845556L218.205000 223.058021
L222.738750 226.115694L227.272500 229.023648L231.806250 231.786293
L236.340000 234.409581L240.873750 236.899026L245.407500 239.260581
L249.941250 241.500641L254.475000 243.625665L259.008750 245.642204
L263.542500 247.557180L268.076250 249.377540L272.610000 251.110361
L277.143750 252.762788L281.677500 254.342009L286.211250 255.855235
L290.745000 257.309697L295.278750 258.712628L299.812500 260.071173
L304.346250 261.392475L308.880000 262.683566L313.413750 263.951419
L317.947500 265.202878L322.481250 266.444677L327.015000 267.683406
L331.548750 268.925526L336.082500 270.177327L340.616250 271.444893
L345.150000 272.734179L349.683750 274.050873L354.217500 275.400487
L358.751250 276.788314L363.285000 278.219381L367.818750 279.698473
L372.352500 281.230132L376.886250 282.818592L381.420000 284.467822
L385.953750 286.181482L390.487500 287.962857L395.021250 289.815057
L399.555000 291.740904L404.088750 293.742383L408.622500 295.821918
L413.156250 297.980834L417.690000 300.220452L422.223750 302.541656
L426.757500 304.944885L431.291250 307.430582L435.825000 309.998084
L440.358750 312.646950L444.892500 315.375858L449.426250 318.183485
L453.960000 321.068286L458.493750 324.027396L463.027500 327.058830
L467.561250 330.159281L472.095000 333.325661L476.628750 336.554222
L481.162500 339.840774L485.696250 343.181349L490.230000 346.571316
L494.763750 350.006045L499.297500 353.480022L503.831250 356.988398
L508.365000 360.525659L512.898750 364.086293L517.432500 367.664346
L521.966250 371.254307L526.500000 374.850000"/>
</g>
<g id="line2d11">
<path style="fill: none; stroke: #565656; stroke-width: 1.000000; stroke-linejoin: round; stroke-linecap: square;  opacity: 1.000000" clip-path="url(#pc3c5e41676658680e7b95047b5791c8e)" d="M73.125000 44.100000L77.658750 50.920285L82.192500 57.730648
L86.726250 64.520505L91.260000 71.280373L95.793750 77.999890
L100.327500 84.669574L104.861250 91.280164L109.395000 97.822179
L113.928750 104.287018L118.462500 110.665863L122.996250 116.950995
L127.530000 123.134256L132.063750 129.208590L136.597500 135.167161
L141.131250 141.003796L145.665000 146.712541L150.198750 152.288325
L154.732500 157.726517L159.266250 163.022706L163.800000 168.173807
L168.333750 173.176511L172.867500 178.028613L177.401250 182.728129
L181.935000 187.273957L186.468750 191.665656L191.002500 195.902564
L195.536250 199.985783L200.070000 203.915754L204.603750 207.694022
L209.137500 211.322790L213.671250 214.804485L218.205000 218.141532
L222.738750 221.337680L227.272500 224.396456L231.806250 227.321829
L236.340000 230.118431L240.873750 232.790891L245.407500 235.344060
L249.941250 237.783452L254.475000 240.114357L259.008750 242.342730
L263.542500 244.474436L268.076250 246.515516L272.610000 248.472167
L277.143750 250.350739L281.677500 252.157626L286.211250 253.899311
L290.745000 255.582278L295.278750 257.213074L299.812500 258.798182
L304.346250 260.344107L308.880000 261.857311L313.413750 263.344180
L317.947500 264.811004L322.481250 266.263994L327.015000 267.709248
L331.548750 269.152708L336.082500 270.600202L340.616250 272.057376
L345.150000 273.529699L349.683750 275.022462L354.217500 276.540737
L358.751250 278.089374L363.285000 279.673027L367.818750 281.296084
L372.352500 282.962667L376.886250 284.676657L381.420000 286.441650
L385.953750 288.260973L390.487500 290.137649L395.021250 292.074300
L399.555000 294.073353L404.088750 296.137013L408.622500 298.267043
L413.156250 300.464766L417.690000 302.731286L422.223750 305.067263
L426.757500 307.473359L431.291250 309.949353L435.825000 312.495026
L440.358750 315.109935L444.892500 317.793200L449.426250 320.543055
L453.960000 323.358399L458.493750 326.236806L463.027500 329.176512
L467.561250 332.174651L472.095000 335.228355L476.628750 338.334759
L481.162500 341.490335L485.696250 344.691113L490.230000 347.933786
L494.763750 351.213944L499.297500 354.527397L503.831250 357.869736
L508.365000 361.236330L512.898750 364.622549L517.432500 368.023320
L521.966250 371.434235L526.500000 374.850000"/>
</g>
<g id="line2d12">
<path style="fill: none; stroke: #525252; stroke-width: 1.000000; stroke-linejoin: round; stroke-linecap: square;  opacity: 1.000000" clip-path="url(#pc3c5e41676658680e7b95047b5791c8e)" d="M73.125000 44.100000L77.658750 50.606955L82.192500 57.105090
L86.726250 63.585805L91.260000 70.040502L95.793750 76.460580
L100.327500 82.837660L104.861250 89.163585L109.395000 95.430415
L113.928750 101.630214L118.462500 107.755924L122.996250 113.800050
L127.530000 119.755976L132.063750 125.617306L136.597500 131.378089
L141.131250 137.032371L145.665000 142.575300L150.198750 148.001805
L154.732500 153.307917L159.266250 158.489447L163.800000 163.543306
L168.333750 168.466631L172.867500 173.256993L177.401250 177.912409
L181.935000 182.431557L186.468750 186.813333L191.002500 191.057517
L195.536250 195.164109L200.070000 199.133330L204.603750 202.966502
L209.137500 206.664727L213.671250 210.229992L218.205000 213.664059
L222.738750 216.970016L227.272500 220.150508L231.806250 223.208843
L236.340000 226.148769L240.873750 228.974256L245.407500 231.689052
L249.941250 234.298008L254.475000 236.805975L259.008750 239.217363
L263.542500 241.537685L268.076250 243.772099L272.610000 245.925965
L277.143750 248.004905L281.677500 250.014542L286.211250 251.960609
L290.745000 253.848905L295.278750 255.685229L299.812500 257.475425
L304.346250 259.225379L308.880000 260.940847L313.413750 262.627652
L317.947500 264.291483L322.481250 265.937983L327.015000 267.572693
L331.548750 269.201063L336.082500 270.828353L340.616250 272.459767
L345.150000 274.100309L349.683750 275.754764L354.217500 277.427830
L358.751250 279.123916L363.285000 280.847278L367.818750 282.601907
L372.352500 284.391617L376.886250 286.219915L381.420000 288.090086
L385.953750 290.005128L390.487500 291.968019L395.021250 293.980743
L399.555000 296.045946L404.088750 298.165392L408.622500 300.340625
L413.156250 302.572967L417.690000 304.863521L422.223750 307.212728
L426.757500 309.621249L431.291250 312.089085L435.825000 314.616236
L440.358750 317.201598L444.892500 319.845173L449.426250 322.545195
L453.960000 325.300563L458.493750 328.109733L463.027500 330.970721
L467.561250 333.881100L472.095000 336.838887L476.628750 339.840995
L481.162500 342.884777L485.696250 345.966926L490.230000 349.084575
L494.763750 352.233756L499.297500 355.411382L503.831250 358.613262
L508.365000 361.835649L512.898750 365.074574L517.432500 368.326067
L521.966250 371.585939L526.500000 374.850000"/>
</g>
<g id="line2d13">
<path style="fill: none; stroke: #4e4e4e; stroke-width: 1.000000; stroke-linejoin: round; stroke-linecap: square;  opacity: 1.000000" clip-path="url(#pc3c5e41676658680e7b95047b5791c8e)" d="M73.125000 44.100000L77.658750 50.335519L82.192500 56.563321
L86.726250 62.776129L91.260000 68.966005L95.793750 75.125893
L100.327500 81.248296L104.861250 87.325938L109.395000 93.352203
L113.928750 99.320036L118.462500 105.222820L122.996250 111.054604
L127.530000 116.809213L132.063750 122.480914L136.597500 128.064195
L141.131250 133.554204L145.665000 138.946311L150.198750 144.235885
L154.732500 149.419399L159.266250 154.493105L163.800000 159.453693
L168.333750 164.298740L172.867500 169.025598L177.401250 173.632725
L181.935000 178.118577L186.468750 182.481831L191.002500 186.722046
L195.536250 190.838781L200.070000 194.832477L204.603750 198.703575
L209.137500 202.452957L213.671250 206.081946L218.205000 209.592306
L222.738750 212.985801L227.272500 216.265077L231.806250 219.432560
L236.340000 222.491556L240.873750 225.444933L245.407500 228.296439
L249.941250 231.049823L254.475000 233.709053L259.008750 236.278539
L263.542500 238.762251L268.076250 241.165040L272.610000 243.491535
L277.143750 245.746633L281.677500 247.935294L286.211250 250.062523
L290.745000 252.133437L295.278750 254.153195L299.812500 256.127023
L304.346250 258.060102L308.880000 259.957615L313.413750 261.824765
L317.947500 263.666679L322.481250 265.488419L327.015000 267.294995
L331.548750 269.091276L336.082500 270.882111L340.616250 272.672152
L345.150000 274.465920L349.683750 276.267824L354.217500 278.082054
L358.751250 279.912711L363.285000 281.763588L367.818750 283.638411
L372.352500 285.540576L376.886250 287.473347L381.420000 289.439766
L385.953750 291.442347L390.487500 293.483957L395.021250 295.566800
L399.555000 297.692640L404.088750 299.863463L408.622500 302.080811
L413.156250 304.345787L417.690000 306.659273L422.223750 309.022151
L426.757500 311.434862L431.291250 313.897406L435.825000 316.409783
L440.358750 318.971331L444.892500 321.581831L449.426250 324.240399
L453.960000 326.945493L458.493750 329.696010L463.027500 332.490407
L467.561250 335.326698L472.095000 338.202680L476.628750 341.116587
L481.162500 344.065775L485.696250 347.047376L490.230000 350.058965
L494.763750 353.097455L499.297500 356.159759L503.831250 359.242569
L508.365000 362.343020L512.898750 365.457362L517.432500 368.582288
L521.966250 371.714490L526.500000 374.850000"/>
</g>
<g id="line2d14">
<path style="fill: none; stroke: #4a4a4a; stroke-width: 1.000000; stroke-linejoin: round; stroke-linecap: square;  opacity: 1.000000" clip-path="url(#pc3c5e41676658680e7b95047b5791c8e)" d="M73.125000 44.100000L77.658750 50.098261L82.192500 56.089908
L86.726250 62.068104L91.260000 68.026455L95.793750 73.958346
L100.327500 79.857162L104.861250 85.716949L109.395000 91.531314
L113.928750 97.294522L118.462500 103.000621L122.996250 108.643878
L127.530000 114.219220L132.063750 119.721357L136.597500 125.145657
L141.131250 130.487490L145.665000 135.742667L150.198750 140.907218
L154.732500 145.977615L159.266250 150.950552L163.800000 155.823161
L168.333750 160.592796L172.867500 165.257474L177.401250 169.814988
L181.935000 174.264016L186.468750 178.603236L191.002500 182.832426
L195.536250 186.950484L200.070000 190.957851L204.603750 194.854748
L209.137500 198.641394L213.671250 202.319114L218.205000 205.889229
L222.738750 209.353064L227.272500 212.712602L231.806250 215.970269
L236.340000 219.128049L240.873750 222.189030L245.407500 225.156078
L249.941250 228.032280L254.475000 230.821164L259.008750 233.526258
L263.542500 236.151311L268.076250 238.700291L272.610000 241.177167
L277.143750 243.586526L281.677500 245.932382L286.211250 248.219231
L290.745000 250.451551L295.278750 252.633928L299.812500 254.770926
L304.346250 256.867153L308.880000 258.927263L313.413750 260.955819
L317.947500 262.957445L322.481250 264.936646L327.015000 266.897897
L331.548750 268.845639L336.082500 270.784121L340.616250 272.717597
L345.150000 274.650170L349.683750 276.585763L354.217500 278.528213
L358.751250 280.481204L363.285000 282.448196L367.818750 284.432564
L372.352500 286.437438L376.886250 288.465818L381.420000 290.520216
L385.953750 292.603500L390.487500 294.717875L395.021250 296.865324
L399.555000 299.047613L404.088750 301.266945L408.622500 303.524204
L413.156250 305.820711L417.690000 308.157350L422.223750 310.535001
L426.757500 312.953886L431.291250 315.414446L435.825000 317.916459
L440.358750 320.459927L444.892500 323.044407L449.426250 325.668798
L453.960000 328.332659L458.493750 331.034666L463.027500 333.773496
L467.561250 336.547607L472.095000 339.355454L476.628750 342.195053
L481.162500 345.064419L485.696250 347.961128L490.230000 350.883194
L494.763750 353.827971L499.297500 356.793035L503.831250 359.775297
L508.365000 362.772333L512.898750 365.781276L517.432500 368.799260
L521.966250 371.823197L526.500000 374.850000"/>
</g>
<g id="line2d15">
<path style="fill: none; stroke: #464646; stroke-width: 1.000000; stroke-linejoin: round; stroke-linecap: square;  opacity: 1.000000" clip-path="url(#pc3c5e41676658680e7b95047b5791c8e)" d="M73.125000 44.100000L77.658750 49.889448L82.192500 55.672942
L86.726250 61.444750L91.260000 67.198918L95.793750 72.929713
L100.327500 78.631403L104.861250 84.298473L109.395000 89.925412
L113.928750 95.506929L118.462500 101.038171L122.996250 106.513627
L127.530000 111.928887L132.063750 117.279319L136.597500 122.560515
L141.131250 127.768504L145.665000 132.899540L150.198750 137.950092
L154.732500 142.916414L159.266250 147.796078L163.800000 152.586221
L168.333750 157.284414L172.867500 161.888454L177.401250 166.396577
L181.935000 170.807458L186.468750 175.119998L191.002500 179.333091
L195.536250 183.446518L200.070000 187.459839L204.603750 191.373273
L209.137500 195.187041L213.671250 198.901805L218.205000 202.518887
L222.738750 206.039169L227.272500 209.464196L231.806250 212.795951
L236.340000 216.036198L240.873750 219.187584L245.407500 222.252093
L249.941250 225.232812L254.475000 228.132387L259.008750 230.954126
L263.542500 233.701115L268.076250 236.376882L272.610000 238.984736
L277.143750 241.528424L281.677500 244.011871L286.211250 246.438782
L290.745000 248.813170L295.278750 251.139004L299.812500 253.420319
L304.346250 255.661217L308.880000 257.865776L313.413750 260.038076
L317.947500 262.182173L322.481250 264.302131L327.015000 266.401926
L331.548750 268.485497L336.082500 270.556719L340.616250 272.619342
L345.150000 274.677048L349.683750 276.733431L354.217500 278.791909
L358.751250 280.855811L363.285000 282.928313L367.818750 285.012413
L372.352500 287.111066L376.886250 289.226763L381.420000 291.362085
L385.953750 293.519457L390.487500 295.701084L395.021250 297.908730
L399.555000 300.144159L404.088750 302.409135L408.622500 304.704540
L413.156250 307.031918L417.690000 309.392150L422.223750 311.785898
L426.757500 314.213382L431.291250 316.675485L435.825000 319.171766
L440.358750 321.702224L444.892500 324.266639L449.426250 326.864570
L453.960000 329.495355L458.493750 332.157893L463.027500 334.851080
L467.561250 337.574034L472.095000 340.324992L476.628750 343.102631
L481.162500 345.905406L485.696250 348.731114L490.230000 351.577989
L494.763750 354.444048L499.297500 357.327086L503.831250 360.224676
L508.365000 363.134835L512.898750 366.054696L517.432500 368.982275
L521.966250 371.914925L526.500000 374.850000"/>
</g>
<g id="line2d16">
<path style="fill: none; stroke: #424242; stroke-width: 1.000000; stroke-linejoin: round; stroke-linecap: square;  opacity: 1.000000" clip-path="url(#pc3c5e41676658680e7b95047b5791c8e)" d="M73.125000 44.100000L77.658750 49.704448L82.192500 55.303825
L86.726250 60.892618L91.260000 66.465976L95.793750 72.018387
L100.327500 77.544999L104.861250 83.040741L109.395000 88.500982
L113.928750 93.920872L118.462500 99.295780L122.996250 104.621076
L127.530000 109.893010L132.063750 115.106954L136.597500 120.259377
L141.131250 125.346312L145.665000 130.364671L150.198750 135.310927
L154.732500 140.181993L159.266250 144.975442L163.800000 149.688630
L168.333750 154.319351L172.867500 158.865620L177.401250 163.325894
L181.935000 167.698408L186.468750 171.982282L191.002500 176.176634
L195.536250 180.280800L200.070000 184.294562L204.603750 188.217477
L209.137500 192.050208L213.671250 195.793195L218.205000 199.446881
L222.738750 203.012145L227.272500 206.490753L231.806250 209.883587
L236.340000 213.192630L240.873750 216.419868L245.407500 219.566844
L249.941250 222.636425L254.475000 225.630815L259.008750 228.552660
L263.542500 231.404607L268.076250 234.189743L272.610000 236.911154
L277.143750 239.572148L281.677500 242.175591L286.211250 244.725122
L290.745000 247.224159L295.278750 249.676207L299.812500 252.084795
L304.346250 254.453516L308.880000 256.785987L313.413750 259.085802
L317.947500 261.356599L322.481250 263.601933L327.015000 265.825369
L331.548750 268.030407L336.082500 270.220501L340.616250 272.399041
L345.150000 274.569290L349.683750 276.734490L354.217500 278.897727
L358.751250 281.061979L363.285000 283.230133L367.818750 285.404925
L372.352500 287.588889L376.886250 289.784628L381.420000 291.994259
L385.953750 294.219986L390.487500 296.463794L395.021250 298.727667
L399.555000 301.012929L404.088750 303.321123L408.622500 305.653572
L413.156250 308.011379L417.690000 310.395425L422.223750 312.806592
L426.757500 315.245102L431.291250 317.711394L435.825000 320.205911
L440.358750 322.728210L444.892500 325.278513L449.426250 327.856379
L453.960000 330.461145L458.493750 333.092372L463.027500 335.748956
L467.561250 338.430236L472.095000 341.134889L476.628750 343.861592
L481.162500 346.609022L485.696250 349.375635L490.230000 352.160109
L494.763750 354.960459L499.297500 357.774921L503.831250 360.601731
L508.365000 363.438684L512.898750 366.284237L517.432500 369.135963
L521.966250 371.991879L526.500000 374.850000"/>
</g>
<g id="line2d17">
<path style="fill: none; stroke: #3e3e3e; stroke-width: 1.000000; stroke-linejoin: round; stroke-linecap: square;  opacity: 1.000000" clip-path="url(#pc3c5e41676658680e7b95047b5791c8e)" d="M73.125000 44.100000L77.658750 49.539955L82.192500 54.975280
L86.726250 60.401344L91.260000 65.813297L95.793750 71.206947
L100.327500 76.577445L104.861250 81.920381L109.395000 87.231564
L113.928750 92.506585L118.462500 97.741697L122.996250 102.932266
L127.530000 108.075208L132.063750 113.166112L136.597500 118.202112
L141.131250 123.179458L145.665000 128.095285L150.198750 132.946285
L154.732500 137.730033L159.266250 142.443882L163.800000 147.085628
L168.333750 151.653285L172.867500 156.144649L177.401250 160.558398
L181.935000 164.893208L186.468750 169.147755L191.002500 173.321379
L195.536250 177.413418L200.070000 181.423211L204.603750 185.350757
L209.137500 189.196056L213.671250 192.959550L218.205000 196.641680
L222.738750 200.243106L227.272500 203.764932L231.806250 207.208260
L236.340000 210.574413L240.873750 213.865155L245.407500 217.082030
L249.941250 220.227021L254.475000 223.302114L259.008750 226.309955
L263.542500 229.252307L268.076250 232.132257L272.610000 234.952011
L277.143750 237.714656L281.677500 240.422837L286.211250 243.079465
L290.745000 245.687715L295.278750 248.250542L299.812500 250.771100
L304.346250 253.252541L308.880000 255.698018L313.413750 258.110751
L317.947500 260.493915L322.481250 262.850676L327.015000 265.184206
L331.548750 267.497613L336.082500 269.793988L340.616250 272.076317
L345.150000 274.347599L349.683750 276.610657L354.217500 278.868290
L358.751250 281.123234L363.285000 283.378023L367.818750 285.635149
L372.352500 287.896928L376.886250 290.165873L381.420000 292.443638
L385.953750 294.732428L390.487500 297.034007L395.021250 299.350139
L399.555000 301.682147L404.088750 304.031795L408.622500 306.399744
L413.156250 308.787539L417.690000 311.195619L422.223750 313.625309
L426.757500 316.076607L431.291250 318.550176L435.825000 321.046236
L440.358750 323.564787L444.892500 326.106050L449.426250 328.669362
L453.960000 331.254945L458.493750 333.861917L463.027500 336.489615
L467.561250 339.137600L472.095000 341.804768L476.628750 344.490017
L481.162500 347.192465L485.696250 349.910789L490.230000 352.643666
L494.763750 355.389773L499.297500 358.147566L503.831250 360.915503
L508.365000 363.692039L512.898750 366.475410L517.432500 369.264074
L521.966250 372.056045L526.500000 374.850000"/>
</g>
<g id="line2d18">
<path style="fill: none; stroke: #3a3a3a; stroke-width: 1.000000; stroke-linejoin: round; stroke-linecap: square;  opacity: 1.000000" clip-path="url(#pc3c5e41676658680e7b95047b5791c8e)" d="M73.125000 44.100000L77.658750 49.392882L82.192500 54.681574
L86.726250 59.962108L91.260000 65.229854L95.793750 70.481281
L100.327500 75.711982L104.861250 80.917987L109.395000 86.095327
L113.928750 91.240474L118.462500 96.349680L122.996250 101.419196
L127.530000 106.445493L132.063750 111.425485L136.597500 116.355865
L141.131250 121.233546L145.665000 126.055881L150.198750 130.820004
L154.732500 135.523489L159.266250 140.163912L163.800000 144.739287
L168.333750 149.247850L172.867500 153.687398L177.401250 158.056826
L181.935000 162.354591L186.468750 166.579812L191.002500 170.731606
L195.536250 174.809093L200.070000 178.811829L204.603750 182.739816
L209.137500 186.592833L213.671250 190.371101L218.205000 194.074839
L222.738750 197.704931L227.272500 201.261595L231.806250 204.746378
L236.340000 208.160159L240.873750 211.504041L245.407500 214.779789
L249.941250 217.988726L254.475000 221.132835L259.008750 224.214102
L263.542500 227.234291L268.076250 230.195826L272.610000 233.100914
L277.143750 235.951758L281.677500 238.751006L286.211250 241.501302
L290.745000 244.205073L295.278750 246.865053L299.812500 249.483997
L304.346250 252.064663L308.880000 254.609851L313.413750 257.122382
L317.947500 259.605058L322.481250 262.060722L327.015000 264.492135
L331.548750 266.902086L336.082500 269.293320L340.616250 271.668502
L345.150000 274.030322L349.683750 276.381293L354.217500 278.723951
L358.751250 281.060722L363.285000 283.393921L367.818750 285.725818
L372.352500 288.058554L376.886250 290.394090L381.420000 292.734477
L385.953750 295.081479L390.487500 297.436640L395.021250 299.801502
L399.555000 302.177831L404.088750 304.566507L408.622500 306.968855
L413.156250 309.385755L417.690000 311.818532L422.223750 314.267405
L426.757500 316.733036L431.291250 319.216086L435.825000 321.716777
L440.358750 324.235328L444.892500 326.771739L449.426250 329.326011
L453.960000 331.897703L458.493750 334.486814L463.027500 337.092462
L467.561250 339.714648L472.095000 342.352269L476.628750 345.004443
L481.162500 347.670729L485.696250 350.350025L490.230000 353.041007
L494.763750 355.742793L499.297500 358.454282L503.831250 361.173929
L508.365000 363.900632L512.898750 366.632847L517.432500 369.369473
L521.966250 372.108965L526.500000 374.850000"/>
</g>
<g id="line2d19">
<path style="fill: none; stroke: #353535; stroke-width: 1.000000; stroke-linejoin: round; stroke-linecap: square;  opacity: 1.000000" clip-path="url(#pc3c5e41676658680e7b95047b5791c8e)" d="M73.125000 44.100000L77.658750 49.261023L82.192500 54.418077
L86.726250 59.567854L91.260000 64.706386L95.793750 69.829924
L100.327500 74.934940L104.861250 80.017686L109.395000 85.074853
L113.928750 90.102915L118.462500 95.098342L122.996250 100.058269
L127.530000 104.979388L132.063750 109.858612L136.597500 114.693295
L141.131250 119.480130L145.665000 124.217131L150.198750 128.901654
L154.732500 133.531272L159.266250 138.104001L163.800000 142.617856
L168.333750 147.070854L172.867500 151.461670L177.401250 155.788762
L181.935000 160.050807L186.468750 164.246922L191.002500 168.376005
L195.536250 172.437615L200.070000 176.431091L204.603750 180.356211
L209.137500 184.212976L213.671250 188.001167L218.205000 191.721001
L222.738750 195.373143L227.272500 198.958253L231.806250 202.476771
L236.340000 205.929581L240.873750 209.318004L245.407500 212.643365
L249.941250 215.906544L254.475000 219.109527L259.008750 222.253637
L263.542500 225.340637L268.076250 228.372512L272.610000 231.351246
L277.143750 234.278825L281.677500 237.157232L286.211250 239.989113
L290.745000 242.776255L295.278750 245.521326L299.812500 248.226618
L304.346250 250.894580L308.880000 253.527659L313.413750 256.128324
L317.947500 258.699089L322.481250 261.242402L327.015000 263.760790
L331.548750 266.256680L336.082500 268.732523L340.616250 271.190701
L345.150000 273.633598L349.683750 276.063508L354.217500 278.482680
L358.751250 280.893296L363.285000 283.297452L367.818750 285.697175
L372.352500 288.094496L376.886250 290.491110L381.420000 292.888827
L385.953750 295.289411L390.487500 297.694184L395.021250 300.104690
L399.555000 302.522472L404.088750 304.948413L408.622500 307.383836
L413.156250 309.829622L417.690000 312.286653L422.223750 314.755371
L426.757500 317.236878L431.291250 319.731395L435.825000 322.239362
L440.358750 324.761000L444.892500 327.296309L449.426250 329.845730
L453.960000 332.408601L458.493750 334.985144L463.027500 337.574916
L467.561250 340.177478L472.095000 342.792608L476.628750 345.419204
L481.162500 348.057045L485.696250 350.705250L490.230000 353.362937
L494.763750 356.029223L499.297500 358.703226L503.831250 361.383845
L508.365000 364.070196L512.898750 366.761178L517.432500 369.455468
L521.966250 372.152183L526.500000 374.850000"/>
</g>
<g id="line2d20">
<path style="fill: none; stroke: #313131; stroke-width: 1.000000; stroke-linejoin: round; stroke-linecap: square;  opacity: 1.000000" clip-path="url(#pc3c5e41676658680e7b95047b5791c8e)" d="M73.125000 44.100000L77.658750 49.142173L82.192500 54.180819
L86.726250 59.212849L91.260000 64.234737L95.793750 69.242953
L100.327500 74.234632L104.861250 79.206246L109.395000 84.154707
L113.928750 89.076928L118.462500 93.969823L122.996250 98.830305
L127.530000 103.655947L132.063750 108.443664L136.597500 113.190809
L141.131250 117.894955L145.665000 122.553900L150.198750 127.165216
L154.732500 131.726921L159.266250 136.237028L163.800000 140.693553
L168.333750 145.094733L172.867500 149.439465L177.401250 153.726426
L181.935000 157.953852L186.468750 162.121302L191.002500 166.227674
L195.536250 170.272305L200.070000 174.254756L204.603750 178.174805
L209.137500 182.031790L213.671250 185.825934L218.205000 189.557456
L222.738750 193.226796L227.272500 196.833956L231.806250 200.379816
L236.340000 203.865039L240.873750 207.290507L245.407500 210.657321
L249.941250 213.966364L254.475000 217.219181L259.008750 220.417092
L263.542500 223.561422L268.076250 226.653935L272.610000 229.696173
L277.143750 232.690122L281.677500 235.637546L286.211250 238.540428
L290.745000 241.400534L295.278750 244.220023L299.812500 247.001079
L304.346250 249.745775L308.880000 252.456249L313.413750 255.134729
L317.947500 257.783375L322.481250 260.404392L327.015000 262.999986
L331.548750 265.572341L336.082500 268.123612L340.616250 270.655966
L345.150000 273.171497L349.683750 275.672253L354.217500 278.160265
L358.751250 280.637494L363.285000 283.105859L367.818750 285.567169
L372.352500 288.023274L376.886250 290.475675L381.420000 292.926092
L385.953750 295.376067L390.487500 297.826925L395.021250 300.280208
L399.555000 302.737019L404.088750 305.198240L408.622500 307.665414
L413.156250 310.139204L417.690000 312.620490L422.223750 315.109935
L426.757500 317.607980L431.291250 320.115726L435.825000 322.632954
L440.358750 325.160325L444.892500 327.698060L449.426250 330.246158
L453.960000 332.804399L458.493750 335.373224L463.027500 337.952192
L467.561250 340.540862L472.095000 343.139234L476.628750 345.746867
L481.162500 348.362879L485.696250 350.987049L490.230000 353.618717
L494.763750 356.257220L499.297500 358.901676L503.831250 361.551645
L508.365000 364.205804L512.898750 366.863711L517.432500 369.524264
L521.966250 372.186581L526.500000 374.850000"/>
</g>
<g id="line2d21">
<path style="fill: none; stroke: #2d2d2d; stroke-width: 1.000000; stroke-linejoin: round; stroke-linecap: square;  opacity: 1.000000" clip-path="url(#pc3c5e41676658680e7b95047b5791c8e)" d="M73.125000 44.100000L77.658750 49.034790L82.192500 53.966493
L86.726250 58.892022L91.260000 63.808510L95.793750 68.712651
L100.327500 73.601797L104.861250 78.472642L109.395000 83.322540
L113.928750 88.148844L118.462500 92.948467L122.996250 97.718764
L127.530000 102.457309L132.063750 107.161456L136.597500 111.829000
L141.131250 116.457516L145.665000 121.044798L150.198750 125.588862
L154.732500 130.087724L159.266250 134.539618L163.800000 138.943004
L168.333750 143.295894L172.867500 147.597187L177.401250 151.845781
L181.935000 156.040132L186.468750 160.179579L191.002500 164.263239
L195.536250 168.290231L200.070000 172.260333L204.603750 176.172885
L209.137500 180.027666L213.671250 183.824897L218.205000 187.564136
L222.738750 191.246045L227.272500 194.870624L231.806250 198.438314
L236.340000 201.949996L240.873750 205.406114L245.407500 208.807547
L249.941250 212.155398L254.475000 215.450330L259.008750 218.694105
L263.542500 221.887607L268.076250 225.032157L272.610000 228.129521
L277.143750 231.180800L281.677500 234.187979L286.211250 237.152601
L290.745000 240.076431L295.278750 242.961100L299.812500 245.808571
L304.346250 248.620674L308.880000 251.399327L313.413750 254.146448
L317.947500 256.863956L322.481250 259.553835L327.015000 262.217983
L331.548750 264.858371L336.082500 267.476930L340.616250 270.075544
L345.150000 272.656100L349.683750 275.220493L354.217500 277.770465
L358.751250 280.307847L363.285000 282.834314L367.818750 285.351542
L372.352500 287.861207L376.886250 290.364543L381.420000 292.863470
L385.953750 295.359089L390.487500 297.852723L395.021250 300.345917
L399.555000 302.839331L404.088750 305.334288L408.622500 307.831892
L413.156250 310.333023L417.690000 312.838124L422.223750 315.348296
L426.757500 317.864201L431.291250 320.386059L435.825000 322.914533
L440.358750 325.450062L444.892500 327.992648L449.426250 330.542730
L453.960000 333.100310L458.493750 335.665166L463.027500 338.237739
L467.561250 340.817589L472.095000 343.404495L476.628750 345.998237
L481.162500 348.598593L485.696250 351.205124L490.230000 353.817167
L494.763750 356.434502L499.297500 359.056247L503.831250 361.682181
L508.365000 364.311644L512.898750 366.943752L517.432500 369.578066
L521.966250 372.213702L526.500000 374.850000"/>
</g>
<g id="line2d22">
<path style="fill: none; stroke: #292929; stroke-width: 1.000000; stroke-linejoin: round; stroke-linecap: square;  opacity: 1.000000" clip-path="url(#pc3c5e41676658680e7b95047b5791c8e)" d="M73.125000 44.100000L77.658750 48.937549L82.192500 53.772233
L86.726250 58.601182L91.260000 63.421974L95.793750 68.231740
L100.327500 73.027836L104.861250 77.807173L109.395000 82.567768
L113.928750 87.306534L118.462500 92.021265L122.996250 96.709315
L127.530000 101.368480L132.063750 105.996334L136.597500 110.590893
L141.131250 115.149951L145.665000 119.671524L150.198750 124.153407
L154.732500 128.594277L159.266250 132.992370L163.800000 137.345922
L168.333750 141.653610L172.867500 145.914111L177.401250 150.126102
L181.935000 154.288701L186.468750 158.400805L191.002500 162.461754
L195.536250 166.470885L200.070000 170.427537L204.603750 174.331269
L209.137500 178.181860L213.671250 181.979091L218.205000 185.723181
L222.738750 189.413910L227.272500 193.051719L231.806250 196.636829
L236.340000 200.169900L240.873750 203.651154L245.407500 207.081473
L249.941250 210.461738L254.475000 213.792610L259.008750 217.075194
L263.542500 220.310591L268.076250 223.499903L272.610000 226.644674
L277.143750 229.745786L281.677500 232.804782L286.211250 235.822986
L290.745000 238.802382L295.278750 241.744073L299.812500 244.649689
L304.346250 247.521018L308.880000 250.359691L313.413750 253.167384
L317.947500 255.945794L322.481250 258.696664L327.015000 261.421713
L331.548750 264.122637L336.082500 266.801183L340.616250 269.459048
L345.150000 272.097904L349.683750 274.719429L354.217500 277.325231
L358.751250 279.916922L363.285000 282.496023L367.818750 285.064076
L372.352500 287.622405L376.886250 290.172708L381.420000 292.716176
L385.953750 295.253910L390.487500 297.787235L395.021250 300.317472
L399.555000 302.845725L404.088750 305.372655L408.622500 307.899585
L413.156250 310.426956L417.690000 312.955871L422.223750 315.486990
L426.757500 318.020976L431.291250 320.558270L435.825000 323.099532
L440.358750 325.644764L444.892500 328.194626L449.426250 330.749339
L453.960000 333.309123L458.493750 335.873979L463.027500 338.443686
L467.561250 341.018906L472.095000 343.598756L476.628750 346.183677
L481.162500 348.773229L485.696250 351.367412L490.230000 353.965343
L494.763750 356.567243L499.297500 359.172450L503.831250 361.780745
L508.365000 364.391465L512.898750 367.004390L517.432500 369.618638
L521.966250 372.233988L526.500000 374.850000"/>
</g>
<g id="line2d23">
<path style="fill: none; stroke: #252525; stroke-width: 1.000000; stroke-linejoin: round; stroke-linecap: square;  opacity: 1.000000" clip-path="url(#pc3c5e41676658680e7b95047b5791c8e)" d="M73.125000 44.100000L77.658750 48.848908L82.192500 53.595391
L86.726250 58.336803L91.260000 63.070717L95.793750 67.794489
L100.327500 72.505692L104.861250 77.201901L109.395000 81.880690
L113.928750 86.539855L118.462500 91.176970L122.996250 95.789830
L127.530000 100.376451L132.063750 104.934406L136.597500 109.461933
L141.131250 113.957046L145.665000 118.417981L150.198750 122.842755
L154.732500 127.229823L159.266250 131.577642L163.800000 135.884889
L168.333750 140.150021L172.867500 144.371934L177.401250 148.549307
L181.935000 152.681256L186.468750 156.767121L191.002500 160.805578
L195.536250 164.796408L200.070000 168.738948L204.603750 172.632758
L209.137500 176.477396L213.671250 180.272862L218.205000 184.018716
L222.738750 187.715619L227.272500 191.362910L231.806250 194.961470
L236.340000 198.511520L240.873750 202.013280L245.407500 205.467413
L249.941250 208.874799L254.475000 212.235881L259.008750 215.551539
L263.542500 218.822657L268.076250 222.050336L272.610000 225.235679
L277.143750 228.379788L281.677500 231.483767L286.211250 234.548717
L290.745000 237.576402L295.278750 240.567926L299.812500 243.524588
L304.346250 246.447977L308.880000 249.339482L313.413750 252.200624
L317.947500 255.032880L322.481250 257.837816L327.015000 260.616954
L331.548750 263.371784L336.082500 266.103872L340.616250 268.814725
L345.150000 271.505862L349.683750 274.178741L354.217500 276.834861
L358.751250 279.475658L363.285000 282.102496L367.818750 284.716788
L372.352500 287.319879L376.886250 289.912959L381.420000 292.497219
L385.953750 295.073982L390.487500 297.644351L395.021250 300.209427
L399.555000 302.770094L404.088750 305.327453L408.622500 307.882386
L413.156250 310.435556L417.690000 312.987843L422.223750 315.539910
L426.757500 318.092418L431.291250 320.645808L435.825000 323.200742
L440.358750 325.757660L444.892500 328.316783L449.426250 330.878331
L453.960000 333.442967L458.493750 336.010469L463.027500 338.581058
L467.561250 341.154734L472.095000 343.731717L476.628750 346.312008
L481.162500 348.895166L485.696250 351.481410L490.230000 354.070301
L494.763750 356.661837L499.297500 359.255579L503.831250 361.851305
L508.365000 364.449015L512.898750 367.048049L517.432500 369.647964
L521.966250 372.248762L526.500000 374.850000"/>
</g>
<g id="line2d24">
<path style="fill: none; stroke: #212121; stroke-width: 1.000000; stroke-linejoin: round; stroke-linecap: square;  opacity: 1.000000" clip-path="url(#pc3c5e41676658680e7b95047b5791c8e)" d="M73.125000 44.100000L77.658750 48.768426L82.192500 53.434426
L86.726250 58.095796L91.260000 62.750331L95.793750 67.395604
L100.327500 72.029412L104.861250 76.649548L109.395000 81.253809
L113.928750 85.840209L118.462500 90.406323L122.996250 94.950166
L127.530000 99.469976L132.063750 103.963765L136.597500 108.429772
L141.131250 112.865791L145.665000 117.270499L150.198750 121.642353
L154.732500 125.979588L159.266250 130.280661L163.800000 134.544469
L168.333750 138.769690L172.867500 142.955001L177.401250 147.099739
L181.935000 151.202362L186.468750 155.262429L191.002500 159.279057
L195.536250 163.251585L200.070000 167.179351L204.603750 171.062136
L209.137500 174.899497L213.671250 178.691215L218.205000 182.437070
L222.738750 186.137060L227.272500 189.791406L231.806250 193.400109
L236.340000 196.963389L240.873750 200.481687L245.407500 203.955444
L249.941250 207.385101L254.475000 210.771320L259.008750 214.114982
L263.542500 217.416528L268.076250 220.677062L272.610000 223.897464
L277.143750 227.078397L281.677500 230.221184L286.211250 233.326926
L290.745000 236.396727L295.278750 239.431689L299.812500 242.433135
L304.346250 245.402212L308.880000 248.340242L313.413750 251.248549
L317.947500 254.128477L322.481250 256.981350L327.015000 259.808557
L331.548750 262.611412L336.082500 265.391317L340.616250 268.149609
L345.150000 270.887668L349.683750 273.606786L354.217500 276.308307
L358.751250 278.993534L363.285000 281.663723L367.818750 284.320109
L372.352500 286.963992L376.886250 289.596321L381.420000 292.218507
L385.953750 294.831432L390.487500 297.436199L395.021250 300.033909
L399.555000 302.625225L404.088750 305.211470L408.622500 307.793084
L413.156250 310.371170L417.690000 312.946389L422.223750 315.519183
L426.757500 318.090434L431.291250 320.660802L435.825000 323.230509
L440.358750 325.799996L444.892500 328.369923L449.426250 330.940512
L453.960000 333.511983L458.493750 336.084777L463.027500 338.658894
L467.561250 341.234555L472.095000 343.811759L476.628750 346.390727
L481.162500 348.971459L485.696250 351.553734L490.230000 354.137553
L494.763750 356.722916L499.297500 359.309822L503.831250 361.897830
L508.365000 364.486941L512.898750 367.076934L517.432500 369.667589
L521.966250 372.258684L526.500000 374.850000"/>
</g>
<g id="line2d25">
<path style="fill: none; stroke: #1d1d1d; stroke-width: 1.000000; stroke-linejoin: round; stroke-linecap: square;  opacity: 1.000000" clip-path="url(#pc3c5e41676658680e7b95047b5791c8e)" d="M73.125000 44.100000L77.658750 48.694558L82.192500 53.287132
L86.726250 57.875296L91.260000 62.457286L95.793750 67.030677
L100.327500 71.593704L104.861250 76.144162L109.395000 80.680068
L113.928750 85.199436L118.462500 89.700502L122.996250 94.181062
L127.530000 98.639572L132.063750 103.074048L136.597500 107.483166
L141.131250 111.864721L145.665000 116.217612L150.198750 120.540073
L154.732500 124.830783L159.266250 129.088417L163.800000 133.311433
L168.333750 137.499169L172.867500 141.650082L177.401250 145.763289
L181.935000 149.837908L186.468750 153.873059L191.002500 157.868298
L195.536250 161.822525L200.070000 165.735297L204.603750 169.606395
L209.137500 173.435377L213.671250 177.221803L218.205000 180.965893
L222.738750 184.666986L227.272500 188.325522L231.806250 191.941502
L236.340000 195.514925L240.873750 199.046453L245.407500 202.535865
L249.941250 205.984044L254.475000 209.391431L259.008750 212.758465
L263.542500 216.085811L268.076250 219.374347L272.610000 222.624518
L277.143750 225.837423L281.677500 229.013946L286.211250 232.154969
L290.745000 235.261373L295.278750 238.334481L299.812500 241.374956
L304.346250 244.384119L308.880000 247.363118L313.413750 250.313077
L317.947500 253.235187L322.481250 256.130595L327.015000 259.000557
L331.548750 261.846242L336.082500 264.668886L340.616250 267.469697
L345.150000 270.249894L349.683750 273.010686L354.217500 275.753243
L358.751250 278.478733L363.285000 281.188325L367.818750 283.883144
L372.352500 286.564292L376.886250 289.232937L381.420000 291.889742
L385.953750 294.536183L390.487500 297.173142L395.021250 299.801502
L399.555000 302.421924L404.088750 305.035511L408.622500 307.642923
L413.156250 310.245044L417.690000 312.842534L422.223750 315.436055
L426.757500 318.026268L431.291250 320.613615L435.825000 323.198757
L440.358750 325.782135L444.892500 328.364190L449.426250 330.945363
L453.960000 333.525654L458.493750 336.105725L463.027500 338.685795
L467.561250 341.265866L472.095000 343.846157L476.628750 346.426889
L481.162500 349.008282L485.696250 351.590117L490.230000 354.172613
L494.763750 356.755550L499.297500 359.339148L503.831250 361.923408
L508.365000 364.508109L512.898750 367.093251L517.432500 369.678614
L521.966250 372.264197L526.500000 374.850000"/>
</g>
<g id="line2d26">
<path style="fill: none; stroke: #191919; stroke-width: 1.000000; stroke-linejoin: round; stroke-linecap: square;  opacity: 1.000000" clip-path="url(#pc3c5e41676658680e7b95047b5791c8e)" d="M73.125000 44.100000L77.658750 48.627085L82.192500 53.151966
L86.726250 57.673098L91.260000 62.188497L95.793750 66.696178
L100.327500 71.194158L104.861250 75.680451L109.395000 80.153514
L113.928750 84.611362L118.462500 89.052453L122.996250 93.474580
L127.530000 97.876422L132.063750 102.256434L136.597500 106.612632
L141.131250 110.943913L145.665000 115.248514L150.198750 119.525112
L154.732500 123.772383L159.266250 127.989225L163.800000 132.174315
L168.333750 136.326550L172.867500 140.444829L177.401250 144.528268
L181.935000 148.575987L186.468750 152.587102L191.002500 156.561174
L195.536250 160.497320L200.070000 164.394878L204.603750 168.253848
L209.137500 172.073570L213.671250 175.853601L218.205000 179.593942
L222.738750 183.294594L227.272500 186.955335L231.806250 190.575945
L236.340000 194.157086L240.873750 197.698536L245.407500 201.200738
L249.941250 204.664131L254.475000 208.088717L259.008750 211.475376
L263.542500 214.824551L268.076250 218.136681L272.610000 221.412650
L277.143750 224.652897L281.677500 227.858526L286.211250 231.029978
L290.745000 234.168354L295.278750 237.274538L299.812500 240.349410
L304.346250 243.393831L308.880000 246.408904L313.413750 249.395665
L317.947500 252.355106L322.481250 255.288307L327.015000 258.196305
L331.548750 261.080225L336.082500 263.941120L340.616250 266.780088
L345.150000 269.598206L349.683750 272.396571L354.217500 275.176260
L358.751250 277.938310L363.285000 280.683799L367.818750 283.413722
L372.352500 286.129113L376.886250 288.830966L381.420000 291.520184
L385.953750 294.197715L390.487500 296.864663L395.021250 299.521467
L399.555000 302.169452L404.088750 304.809057L408.622500 307.441386
L413.156250 310.066659L417.690000 312.685979L422.223750 315.300006
L426.757500 317.909183L431.291250 320.513949L435.825000 323.115188
L440.358750 325.713119L444.892500 328.308404L449.426250 330.901043
L453.960000 333.491918L458.493750 336.081249L463.027500 338.669037
L467.561250 341.255723L472.095000 343.841526L476.628750 346.426668
L481.162500 349.011369L485.696250 351.595629L490.230000 354.179669
L494.763750 356.763708L499.297500 359.347307L503.831250 361.931126
L508.365000 364.514945L512.898750 367.098764L517.432500 369.682362
L521.966250 372.266181L526.500000 374.850000"/>
</g>
<g id="line2d27">
<path style="fill: none; stroke: #151515; stroke-width: 1.000000; stroke-linejoin: round; stroke-linecap: square;  opacity: 1.000000" clip-path="url(#pc3c5e41676658680e7b95047b5791c8e)" d="M73.125000 44.100000L77.658750 48.564904L82.192500 53.027824
L86.726250 57.487216L91.260000 61.941316L95.793750 66.388360
L100.327500 70.826364L104.861250 75.253783L109.395000 79.669076
L113.928750 84.070035L118.462500 88.455780L122.996250 92.823885
L127.530000 97.173468L132.063750 101.502765L136.597500 105.810232
L141.131250 110.094548L145.665000 114.354167L150.198750 118.588207
L154.732500 122.794906L159.266250 126.973381L163.800000 131.122750
L168.333750 135.241470L172.867500 139.328658L177.401250 143.383653
L181.935000 147.405573L186.468750 151.393536L191.002500 155.347101
L195.536250 159.265165L200.070000 163.147730L204.603750 166.993911
L209.137500 170.803710L213.671250 174.576465L218.205000 178.312176
L222.738750 182.010402L227.272500 185.671584L231.806250 189.295061
L236.340000 192.881493L240.873750 196.430661L245.407500 199.942785
L249.941250 203.418086L254.475000 206.857004L259.008750 210.259980
L263.542500 213.627456L268.076250 216.959652L272.610000 220.257450
L277.143750 223.521291L281.677500 226.751837L286.211250 229.949748
L290.745000 233.115908L295.278750 236.250977L299.812500 239.355837
L304.346250 242.431151L308.880000 245.478130L313.413750 248.497392
L317.947500 251.489930L322.481250 254.456691L327.015000 257.398624
L331.548750 260.316677L336.082500 263.211849L340.616250 266.085094
L345.150000 268.937389L349.683750 271.769734L354.217500 274.583049
L358.751250 277.378350L363.285000 280.156562L367.818750 282.918633
L372.352500 285.665490L376.886250 288.398124L381.420000 291.117110
L385.953750 293.823747L390.487500 296.518698L395.021250 299.202624
L399.555000 301.876407L404.088750 304.540929L408.622500 307.196631
L413.156250 309.844616L417.690000 312.485324L422.223750 315.119417
L426.757500 317.747336L431.291250 320.369963L435.825000 322.987518
L440.358750 325.600664L444.892500 328.209840L449.426250 330.815489
L453.960000 333.418050L458.493750 336.017745L463.027500 338.615015
L467.561250 341.210300L472.095000 343.803600L476.628750 346.395357
L481.162500 348.985791L485.696250 351.574902L490.230000 354.163131
L494.763750 356.750699L499.297500 359.337384L503.831250 361.923629
L508.365000 364.509432L512.898750 367.094795L517.432500 369.679937
L521.966250 372.265079L526.500000 374.850000"/>
</g>
<g id="line2d28">
<path style="fill: none; stroke: #101010; stroke-width: 1.000000; stroke-linejoin: round; stroke-linecap: square;  opacity: 1.000000" clip-path="url(#pc3c5e41676658680e7b95047b5791c8e)" d="M73.125000 44.100000L77.658750 48.507574L82.192500 52.913385
L86.726250 57.315888L91.260000 61.713540L95.793750 66.104356
L100.327500 70.487235L104.861250 74.860191L109.395000 79.221901
L113.928750 83.570603L118.462500 87.904751L122.996250 92.223243
L127.530000 96.524095L132.063750 100.806426L136.597500 105.068470
L141.131250 109.309126L145.665000 113.526850L150.198750 117.720760
L154.732500 121.889754L159.266250 126.032287L163.800000 130.147699
L168.333750 134.234887L172.867500 138.292749L177.401250 142.320622
L181.935000 146.317847L186.468750 150.283319L191.002500 154.216598
L195.536250 158.117243L200.070000 161.984372L204.603750 165.817764
L209.137500 169.616979L213.671250 173.381575L218.205000 177.111554
L222.738750 180.806472L227.272500 184.466331L231.806250 188.091130
L236.340000 191.680870L240.873750 195.235331L245.407500 198.755172
L249.941250 202.239954L254.475000 205.690559L259.008750 209.106986
L263.542500 212.489456L268.076250 215.838630L272.610000 219.154950
L277.143750 222.438857L281.677500 225.691011L286.211250 228.911855
L290.745000 232.102049L295.278750 235.262475L299.812500 238.393575
L304.346250 241.496231L308.880000 244.571059L313.413750 247.619075
L317.947500 250.640961L322.481250 253.637578L327.015000 256.609764
L331.548750 259.558378L336.082500 262.484300L340.616250 265.388389
L345.150000 268.271523L349.683750 271.134606L354.217500 273.978504
L358.751250 276.804080L363.285000 279.612213L367.818750 282.403765
L372.352500 285.179596L376.886250 287.940587L381.420000 290.687355
L385.953750 293.420894L390.487500 296.142084L395.021250 298.851368
L399.555000 301.549847L404.088750 304.237962L408.622500 306.916596
L413.156250 309.586190L417.690000 312.247625L422.223750 314.901342
L426.757500 317.548224L431.291250 320.188491L435.825000 322.822805
L440.358750 325.451606L444.892500 328.075335L449.426250 330.694655
L453.960000 333.310005L458.493750 335.921607L463.027500 338.529681
L467.561250 341.134889L472.095000 343.737450L476.628750 346.337586
L481.162500 348.935738L485.696250 351.531905L490.230000 354.126528
L494.763750 356.719829L499.297500 359.311806L503.831250 361.903122
L508.365000 364.493336L512.898750 367.083108L517.432500 369.672219
L521.966250 372.261110L526.500000 374.850000"/>
</g>
<g id="line2d29">
<path style="fill: none; stroke: #0c0c0c; stroke-width: 1.000000; stroke-linejoin: round; stroke-linecap: square;  opacity: 1.000000" clip-path="url(#pc3c5e41676658680e7b95047b5791c8e)" d="M73.125000 44.100000L77.658750 48.454434L82.192500 52.807545
L86.726250 57.157348L91.260000 61.502742L95.793750 65.841961
L100.327500 70.173684L104.861250 74.496145L109.395000 78.808244
L113.928750 83.108434L118.462500 87.394954L122.996250 91.666922
L127.530000 95.922792L132.063750 100.161243L136.597500 104.380951
L141.131250 108.580815L145.665000 112.759510L150.198750 116.916156
L154.732500 121.049208L159.266250 125.158005L163.800000 129.241445
L168.333750 133.298644L172.867500 137.328723L177.401250 141.330798
L181.935000 145.304208L186.468750 149.248071L191.002500 153.161725
L195.536250 157.044951L200.070000 160.896865L204.603750 164.717249
L209.137500 168.505438L213.671250 172.261436L218.205000 175.984799
L222.738750 179.675307L227.272500 183.332740L231.806250 186.957099
L236.340000 190.548383L240.873750 194.106812L245.407500 197.631945
L249.941250 201.124224L254.475000 204.584090L259.008750 208.011321
L263.542500 211.406580L268.076250 214.769867L272.610000 218.101842
L277.143750 221.402948L281.677500 224.673404L286.211250 227.914092
L290.745000 231.125234L295.278750 234.307490L299.812500 237.461742
L304.346250 240.588212L308.880000 243.687824L313.413750 246.761263
L317.947500 249.809213L322.481250 252.832422L327.015000 255.831641
L331.548750 258.807641L336.082500 261.761173L340.616250 264.693068
L345.150000 267.604092L349.683750 270.495045L354.217500 273.366749
L358.751250 276.219975L363.285000 279.055517L367.818750 281.874168
L372.352500 284.676723L376.886250 287.463866L381.420000 290.236653
L385.953750 292.995329L390.487500 295.741215L395.021250 298.474533
L399.555000 301.196165L404.088750 303.906992L408.622500 306.607235
L413.156250 309.297996L417.690000 311.979497L422.223750 314.652839
L426.757500 317.318022L431.291250 319.975929L435.825000 322.627001
L440.358750 325.271898L444.892500 327.911063L449.426250 330.544715
L453.960000 333.173516L458.493750 335.797686L463.027500 338.417888
L467.561250 341.034341L472.095000 343.647486L476.628750 346.257545
L481.162500 348.864957L485.696250 351.469944L490.230000 354.072947
L494.763750 356.673965L499.297500 359.273439L503.831250 361.871370
L508.365000 364.468419L512.898750 367.064586L517.432500 369.660092
L521.966250 372.255156L526.500000 374.850000"/>
</g>
<g id="line2d30">
<path style="fill: none; stroke: #080808; stroke-width: 1.000000; stroke-linejoin: round; stroke-linecap: square;  opacity: 1.000000" clip-path="url(#pc3c5e41676658680e7b95047b5791c8e)" d="M73.125000 44.100000L77.658750 48.405483L82.192500 52.709422
L86.726250 57.010495L91.260000 61.307379L95.793750 65.598750
L100.327500 69.882844L104.861250 74.158560L109.395000 78.424573
L113.928750 82.679562L118.462500 86.921982L122.996250 91.150731
L127.530000 95.364486L132.063750 99.562145L136.597500 103.742383
L141.131250 107.903880L145.665000 112.045973L150.198750 116.167338
L154.732500 120.267094L159.266250 124.343919L163.800000 128.397370
L168.333750 132.426126L172.867500 136.429524L177.401250 140.406903
L181.935000 144.357381L186.468750 148.280296L191.002500 152.174988
L195.536250 156.041235L200.070000 159.877935L204.603750 163.685309
L209.137500 167.462473L213.671250 171.209210L218.205000 174.925076
L222.738750 178.610292L227.272500 182.264418L231.806250 185.887233
L236.340000 189.478737L240.873750 193.038930L245.407500 196.568033
L249.941250 200.066045L254.475000 203.532966L259.008750 206.969018
L263.542500 210.374420L268.076250 213.749613L272.610000 217.094819
L277.143750 220.410477L281.677500 223.696809L286.211250 226.954476
L290.745000 230.183699L295.278750 233.385138L299.812500 236.559456
L304.346250 239.706873L308.880000 242.828425L313.413750 245.924378
L317.947500 248.995480L322.481250 252.042393L327.015000 255.065778
L331.548750 258.066320L336.082500 261.044746L340.616250 264.001733
L345.150000 266.938006L349.683750 269.854317L354.217500 272.751356
L358.751250 275.629851L363.285000 278.490552L367.818750 281.334186
L372.352500 284.161437L376.886250 286.973033L381.420000 289.769855
L385.953750 292.552124L390.487500 295.321163L395.021250 298.077192
L399.555000 300.820874L404.088750 303.553089L408.622500 306.274500
L413.156250 308.985327L417.690000 311.686673L422.223750 314.378757
L426.757500 317.062463L431.291250 319.738010L435.825000 322.406060
L440.358750 325.067054L444.892500 327.721653L449.426250 330.370079
L453.960000 333.013212L458.493750 335.651054L463.027500 338.284044
L467.561250 340.912845L472.095000 343.537677L476.628750 346.158981
L481.162500 348.776978L485.696250 351.392328L490.230000 354.004812
L494.763750 356.615312L499.297500 359.223827L503.831250 361.830578
L508.365000 364.436006L512.898750 367.040552L517.432500 369.644216
L521.966250 372.247218L526.500000 374.850000"/>
</g>
<g id="line2d31">
<path style="fill: none; stroke: #040404; stroke-width: 1.000000; stroke-linejoin: round; stroke-linecap: square;  opacity: 1.000000" clip-path="url(#pc3c5e41676658680e7b95047b5791c8e)" d="M73.125000 44.100000L77.658750 48.359839L82.192500 52.618356
L86.726250 56.874006L91.260000 61.125907L95.793750 65.372517
L100.327500 69.612732L104.861250 73.844788L109.395000 78.068025
L113.928750 82.280677L118.462500 86.481864L122.996250 90.670261
L127.530000 94.844767L132.063750 99.004279L136.597500 103.147474
L141.131250 107.273470L145.665000 111.380944L150.198750 115.469456
L154.732500 119.537460L159.266250 123.584296L163.800000 127.608863
L168.333750 131.610717L172.867500 135.588978L177.401250 139.542543
L181.935000 143.471192L186.468750 147.373821L191.002500 151.250211
L195.536250 155.099480L200.070000 158.921406L204.603750 162.715550
L209.137500 166.481248L213.671250 170.218503L218.205000 173.926652
L222.738750 177.605694L227.272500 181.255410L231.806250 184.875579
L236.340000 188.466421L240.873750 192.027276L245.407500 195.558804
L249.941250 199.060565L254.475000 202.532999L259.008750 205.975886
L263.542500 209.389887L268.076250 212.774783L272.610000 216.131013
L277.143750 219.458799L281.677500 222.758802L286.211250 226.031022
L290.745000 229.275900L295.278750 232.494098L299.812500 235.686056
L304.346250 238.851995L308.880000 241.992797L313.413750 245.108616
L317.947500 248.200313L322.481250 251.268372L327.015000 254.313410
L331.548750 257.336024L336.082500 260.336875L340.616250 263.316567
L345.150000 266.275771L349.683750 269.215131L354.217500 272.135323
L358.751250 275.037015L363.285000 277.920846L367.818750 280.787522
L372.352500 283.637683L376.886250 286.471990L381.420000 289.291149
L385.953750 292.095689L390.487500 294.886337L395.021250 297.663755
L399.555000 300.428604L404.088750 303.181547L408.622500 305.922803
L413.156250 308.653475L417.690000 311.373783L422.223750 314.084610
L426.757500 316.786176L431.291250 319.479143L435.825000 322.164171
L440.358750 324.841482L444.892500 327.511737L449.426250 330.175598
L453.960000 332.833284L458.493750 335.485238L463.027500 338.131899
L467.561250 340.773930L472.095000 343.411331L476.628750 346.044983
L481.162500 348.674666L485.696250 351.301262L490.230000 353.924991
L494.763750 356.546075L499.297500 359.164953L503.831250 361.782068
L508.365000 364.397418L512.898750 367.011666L517.432500 369.625032
L521.966250 372.237737L526.500000 374.850000"/>
</g>
<g id="matplotlib.axis1">
<g id="xtick1">
<g id="line2d32">
<defs><path id="m30e32995789d870ad79a2e54c91cf9c6" d="M0.000000 0.000000L0.000000 -4.000000"/></defs>
<g ><use style="fill: none; stroke: #000000; stroke-width: 0.500000; stroke-linejoin: round; stroke-linecap: butt;  opacity: 1.000000" xlink:href="#m30e32995789d870ad79a2e54c91cf9c6" x="73.125000" y="396.900000"/>
</g></g>
<g id="line2d33">
<defs><path id="m9281cae24120827b11d5ea8a7ad3e96b" d="M0.000000 0.000000L0.000000 4.000000"/></defs>
<g ><use style="fill: none; stroke: #000000; stroke-width: 0.500000; stroke-linejoin: round; stroke-linecap: butt;  opacity: 1.000000" xlink:href="#m9281cae24120827b11d5ea8a7ad3e96b" x="73.125000" y="44.100000"/>
</g></g>
<g id="text1">
<defs>
<path id="c_7a2040fe3b94fcd41d0a72c84e93b115" d="M31.781250 -66.406250q-7.609375 0.000000 -11.453125 7.500000q-3.828125 7.484375 -3.828125 22.531250q0.000000 14.984375 3.828125 22.484375q3.843750 7.500000 11.453125 7.500000q7.671875 0.000000 11.500000 -7.500000q3.843750 -7.500000 3.843750 -22.484375q0.000000 -15.046875 -3.843750 -22.531250q-3.828125 -7.500000 -11.500000 -7.500000M31.781250 -74.218750q12.265625 0.000000 18.734375 9.703125q6.468750 9.687500 6.468750 28.140625q0.000000 18.406250 -6.468750 28.109375q-6.468750 9.687500 -18.734375 9.687500q-12.250000 0.000000 -18.718750 -9.687500q-6.468750 -9.703125 -6.468750 -28.109375q0.000000 -18.453125 6.468750 -28.140625q6.468750 -9.703125 18.718750 -9.703125"/>
</defs>
<g style="fill: #000000; opacity: 1.000000" transform="translate(70.101562,409.806250)scale(0.120000)">
<use xlink:href="#c_7a2040fe3b94fcd41d0a72c84e93b115"/>
</g>
</g>
</g>
<g id="xtick2">
<g id="line2d34">
<g ><use style="fill: none; stroke: #000000; stroke-width: 0.500000; stroke-linejoin: round; stroke-linecap: butt;  opacity: 1.000000" xlink:href="#m30e32995789d870ad79a2e54c91cf9c6" x="163.800000" y="396.900000"/>
</g></g>
<g id="line2d35">
<g ><use style="fill: none; stroke: #000000; stroke-width: 0.500000; stroke-linejoin: round; stroke-linecap: butt;  opacity: 1.000000" xlink:href="#m9281cae24120827b11d5ea8a7ad3e96b" x="163.800000" y="44.100000"/>
</g></g>
<g id="text2">
<defs>
<path id="c_ed3f3ed3ebfbd18bcb9c012009a68ad1" d="M19.187500 -8.296875l34.421875 0.000000l0.000000 8.296875l-46.281250 0.000000l0.000000 -8.296875q5.609375 -5.812500 15.296875 -15.593750q9.703125 -9.796875 12.187500 -12.640625q4.734375 -5.312500 6.609375 -9.000000q1.890625 -3.687500 1.890625 -7.250000q0.000000 -5.812500 -4.078125 -9.468750q-4.078125 -3.671875 -10.625000 -3.671875q-4.640625 0.000000 -9.796875 1.609375q-5.140625 1.609375 -11.000000 4.890625l0.000000 -9.968750q5.953125 -2.390625 11.125000 -3.609375q5.187500 -1.218750 9.484375 -1.218750q11.328125 0.000000 18.062500 5.671875q6.734375 5.656250 6.734375 15.125000q0.000000 4.500000 -1.687500 8.531250q-1.671875 4.015625 -6.125000 9.484375q-1.218750 1.421875 -7.765625 8.187500q-6.531250 6.765625 -18.453125 18.921875"/>
</defs>
<g style="fill: #000000; opacity: 1.000000" transform="translate(156.995313,409.806250)scale(0.120000)">
<use xlink:href="#c_ed3f3ed3ebfbd18bcb9c012009a68ad1"/>
<use xlink:href="#c_7a2040fe3b94fcd41d0a72c84e93b115" x="63.623047"/>
</g>
</g>
</g>
<g id="xtick3">
<g id="line2d36">
<g ><use style="fill: none; stroke: #000000; stroke-width: 0.500000; stroke-linejoin: round; stroke-linecap: butt;  opacity: 1.000000" xlink:href="#m30e32995789d870ad79a2e54c91cf9c6" x="254.475000" y="396.900000"/>
</g></g>
<g id="line2d37">
<g ><use style="fill: none; stroke: #000000; stroke-width: 0.500000; stroke-linejoin: round; stroke-linecap: butt;  opacity: 1.000000" xlink:href="#m9281cae24120827b11d5ea8a7ad3e96b" x="254.475000" y="44.100000"/>
</g></g>
<g id="text3">
<defs>
<path id="c_a0416418d96557a09b8c1332d34883ba" d="M37.796875 -64.312500l-24.906250 38.921875l24.906250 0.000000zM35.203125 -72.906250l12.406250 0.000000l0.000000 47.515625l10.406250 0.000000l0.000000 8.203125l-10.406250 0.000000l0.000000 17.187500l-9.812500 0.000000l0.000000 -17.187500l-32.906250 0.000000l0.000000 -9.515625z"/>
</defs>
<g style="fill: #000000; opacity: 1.000000" transform="translate(247.529688,409.806250)scale(0.120000)">
<use xlink:href="#c_a0416418d96557a09b8c1332d34883ba"/>
<use xlink:href="#c_7a2040fe3b94fcd41d0a72c84e93b115" x="63.623047"/>
</g>
</g>
</g>
<g id="xtick4">
<g id="line2d38">
<g ><use style="fill: none; stroke: #000000; stroke-width: 0.500000; stroke-linejoin: round; stroke-linecap: butt;  opacity: 1.000000" xlink:href="#m30e32995789d870ad79a2e54c91cf9c6" x="345.150000" y="396.900000"/>
</g></g>
<g id="line2d39">
<g ><use style="fill: none; stroke: #000000; stroke-width: 0.500000; stroke-linejoin: round; stroke-linecap: butt;  opacity: 1.000000" xlink:href="#m9281cae24120827b11d5ea8a7ad3e96b" x="345.150000" y="44.100000"/>
</g></g>
<g id="text4">
<defs>
<path id="c_cc8d6d580d1b10c8632f7a42cd53db8a" d="M33.015625 -40.375000q-6.640625 0.000000 -10.531250 4.546875q-3.875000 4.531250 -3.875000 12.437500q0.000000 7.859375 3.875000 12.437500q3.890625 4.562500 10.531250 4.562500q6.640625 0.000000 10.515625 -4.562500q3.875000 -4.578125 3.875000 -12.437500q0.000000 -7.906250 -3.875000 -12.437500q-3.875000 -4.546875 -10.515625 -4.546875M52.593750 -71.296875l0.000000 8.984375q-3.718750 -1.750000 -7.500000 -2.671875q-3.781250 -0.937500 -7.500000 -0.937500q-9.765625 0.000000 -14.921875 6.593750q-5.140625 6.593750 -5.875000 19.921875q2.875000 -4.250000 7.218750 -6.515625q4.359375 -2.265625 9.578125 -2.265625q10.984375 0.000000 17.359375 6.671875q6.375000 6.656250 6.375000 18.125000q0.000000 11.234375 -6.640625 18.031250q-6.640625 6.781250 -17.671875 6.781250q-12.656250 0.000000 -19.343750 -9.687500q-6.687500 -9.703125 -6.687500 -28.109375q0.000000 -17.281250 8.203125 -27.562500q8.203125 -10.281250 22.015625 -10.281250q3.718750 0.000000 7.500000 0.734375q3.781250 0.734375 7.890625 2.187500"/>
</defs>
<g style="fill: #000000; opacity: 1.000000" transform="translate(338.329688,409.806250)scale(0.120000)">
<use xlink:href="#c_cc8d6d580d1b10c8632f7a42cd53db8a"/>
<use xlink:href="#c_7a2040fe3b94fcd41d0a72c84e93b115" x="63.623047"/>
</g>
</g>
</g>
<g id="xtick5">
<g id="line2d40">
<g ><use style="fill: none; stroke: #000000; stroke-width: 0.500000; stroke-linejoin: round; stroke-linecap: butt;  opacity: 1.000000" xlink:href="#m30e32995789d870ad79a2e54c91cf9c6" x="435.825000" y="396.900000"/>
</g></g>
<g id="line2d41">
<g ><use style="fill: none; stroke: #000000; stroke-width: 0.500000; stroke-linejoin: round; stroke-linecap: butt;  opacity: 1.000000" xlink:href="#m9281cae24120827b11d5ea8a7ad3e96b" x="435.825000" y="44.100000"/>
</g></g>
<g id="text5">
<defs>
<path id="c_bef35738d52871942e50b9de9b122bab" d="M31.781250 -34.625000q-7.031250 0.000000 -11.062500 3.765625q-4.015625 3.765625 -4.015625 10.343750q0.000000 6.593750 4.015625 10.359375q4.031250 3.765625 11.062500 3.765625q7.031250 0.000000 11.078125 -3.781250q4.062500 -3.796875 4.062500 -10.343750q0.000000 -6.578125 -4.031250 -10.343750q-4.015625 -3.765625 -11.109375 -3.765625M21.921875 -38.812500q-6.343750 -1.562500 -9.890625 -5.906250q-3.531250 -4.359375 -3.531250 -10.609375q0.000000 -8.734375 6.218750 -13.812500q6.234375 -5.078125 17.062500 -5.078125q10.890625 0.000000 17.093750 5.078125q6.203125 5.078125 6.203125 13.812500q0.000000 6.250000 -3.546875 10.609375q-3.531250 4.343750 -9.828125 5.906250q7.125000 1.656250 11.093750 6.500000q3.984375 4.828125 3.984375 11.796875q0.000000 10.609375 -6.468750 16.281250q-6.468750 5.656250 -18.531250 5.656250q-12.046875 0.000000 -18.531250 -5.656250q-6.468750 -5.671875 -6.468750 -16.281250q0.000000 -6.968750 4.000000 -11.796875q4.015625 -4.843750 11.140625 -6.500000M18.312500 -54.390625q0.000000 5.656250 3.531250 8.828125q3.546875 3.171875 9.937500 3.171875q6.359375 0.000000 9.937500 -3.171875q3.593750 -3.171875 3.593750 -8.828125q0.000000 -5.671875 -3.593750 -8.843750q-3.578125 -3.171875 -9.937500 -3.171875q-6.390625 0.000000 -9.937500 3.171875q-3.531250 3.171875 -3.531250 8.843750"/>
</defs>
<g style="fill: #000000; opacity: 1.000000" transform="translate(428.989063,409.806250)scale(0.120000)">
<use xlink:href="#c_bef35738d52871942e50b9de9b122bab"/>
<use xlink:href="#c_7a2040fe3b94fcd41d0a72c84e93b115" x="63.623047"/>
</g>
</g>
</g>
<g id="xtick6">
<g id="line2d42">
<g ><use style="fill: none; stroke: #000000; stroke-width: 0.500000; stroke-linejoin: round; stroke-linecap: butt;  opacity: 1.000000" xlink:href="#m30e32995789d870ad79a2e54c91cf9c6" x="526.500000" y="396.900000"/>
</g></g>
<g id="line2d43">
<g ><use style="fill: none; stroke: #000000; stroke-width: 0.500000; stroke-linejoin: round; stroke-linecap: butt;  opacity: 1.000000" xlink:href="#m9281cae24120827b11d5ea8a7ad3e96b" x="526.500000" y="44.100000"/>
</g></g>
<g id="text6">
<defs>
<path id="c_42baa63129a918535c52adb20d687ea7" d="M12.406250 -8.296875l16.109375 0.000000l0.000000 -55.625000l-17.531250 3.515625l0.000000 -8.984375l17.437500 -3.515625l9.859375 0.000000l0.000000 64.609375l16.109375 0.000000l0.000000 8.296875l-41.984375 0.000000z"/>
</defs>
<g style="fill: #000000; opacity: 1.000000" transform="translate(516.093750,409.806250)scale(0.120000)">
<use xlink:href="#c_42baa63129a918535c52adb20d687ea7"/>
<use xlink:href="#c_7a2040fe3b94fcd41d0a72c84e93b115" x="63.623047"/>
<use xlink:href="#c_7a2040fe3b94fcd41d0a72c84e93b115" x="127.246094"/>
</g>
</g>
</g>
</g>
<g id="matplotlib.axis2">
<g id="ytick1">
<g id="line2d44">
<defs><path id="m3400efa6b1638b3fea9e19e898273957" d="M0.000000 0.000000L4.000000 0.000000"/></defs>
<g ><use style="fill: none; stroke: #000000; stroke-width: 0.500000; stroke-linejoin: round; stroke-linecap: butt;  opacity: 1.000000" xlink:href="#m3400efa6b1638b3fea9e19e898273957" x="73.125000" y="396.900000"/>
</g></g>
<g id="line2d45">
<defs><path id="m20b58b2501143cb5e0a5e8f1ef6f1643" d="M0.000000 0.000000L-4.000000 0.000000"/></defs>
<g ><use style="fill: none; stroke: #000000; stroke-width: 0.500000; stroke-linejoin: round; stroke-linecap: butt;  opacity: 1.000000" xlink:href="#m20b58b2501143cb5e0a5e8f1ef6f1643" x="526.500000" y="396.900000"/>
</g></g>
<g id="text7">
<defs>
<path id="c_6a8d56c819c37117ab4cf023bec22a5a" d="M10.593750 -35.500000l62.593750 0.000000l0.000000 8.296875l-62.593750 0.000000z"/>
</defs>
<g style="fill: #000000; opacity: 1.000000" transform="translate(53.453125,401.267188)scale(0.120000)">
<use xlink:href="#c_6a8d56c819c37117ab4cf023bec22a5a"/>
<use xlink:href="#c_cc8d6d580d1b10c8632f7a42cd53db8a" x="83.789062"/>
</g>
</g>
</g>
<g id="ytick2">
<g id="line2d46">
<g ><use style="fill: none; stroke: #000000; stroke-width: 0.500000; stroke-linejoin: round; stroke-linecap: butt;  opacity: 1.000000" xlink:href="#m3400efa6b1638b3fea9e19e898273957" x="73.125000" y="352.800000"/>
</g></g>
<g id="line2d47">
<g ><use style="fill: none; stroke: #000000; stroke-width: 0.500000; stroke-linejoin: round; stroke-linecap: butt;  opacity: 1.000000" xlink:href="#m20b58b2501143cb5e0a5e8f1ef6f1643" x="526.500000" y="352.800000"/>
</g></g>
<g id="text8">
<g style="fill: #000000; opacity: 1.000000" transform="translate(53.359375,357.175000)scale(0.120000)">
<use xlink:href="#c_6a8d56c819c37117ab4cf023bec22a5a"/>
<use xlink:href="#c_a0416418d96557a09b8c1332d34883ba" x="83.789062"/>
</g>
</g>
</g>
<g id="ytick3">
<g id="line2d48">
<g ><use style="fill: none; stroke: #000000; stroke-width: 0.500000; stroke-linejoin: round; stroke-linecap: butt;  opacity: 1.000000" xlink:href="#m3400efa6b1638b3fea9e19e898273957" x="73.125000" y="308.700000"/>
</g></g>
<g id="line2d49">
<g ><use style="fill: none; stroke: #000000; stroke-width: 0.500000; stroke-linejoin: round; stroke-linecap: butt;  opacity: 1.000000" xlink:href="#m20b58b2501143cb5e0a5e8f1ef6f1643" x="526.500000" y="308.700000"/>
</g></g>
<g id="text9">
<g style="fill: #000000; opacity: 1.000000" transform="translate(53.890625,313.153125)scale(0.120000)">
<use xlink:href="#c_6a8d56c819c37117ab4cf023bec22a5a"/>
<use xlink:href="#c_ed3f3ed3ebfbd18bcb9c012009a68ad1" x="83.789062"/>
</g>
</g>
</g>
<g id="ytick4">
<g id="line2d50">
<g ><use style="fill: none; stroke: #000000; stroke-width: 0.500000; stroke-linejoin: round; stroke-linecap: butt;  opacity: 1.000000" xlink:href="#m3400efa6b1638b3fea9e19e898273957" x="73.125000" y="264.600000"/>
</g></g>
<g id="line2d51">
<g ><use style="fill: none; stroke: #000000; stroke-width: 0.500000; stroke-linejoin: round; stroke-linecap: butt;  opacity: 1.000000" xlink:href="#m20b58b2501143cb5e0a5e8f1ef6f1643" x="526.500000" y="264.600000"/>
</g></g>
<g id="text10">
<g style="fill: #000000; opacity: 1.000000" transform="translate(63.078125,268.967188)scale(0.120000)">
<use xlink:href="#c_7a2040fe3b94fcd41d0a72c84e93b115"/>
</g>
</g>
</g>
<g id="ytick5">
<g id="line2d52">
<g ><use style="fill: none; stroke: #000000; stroke-width: 0.500000; stroke-linejoin: round; stroke-linecap: butt;  opacity: 1.000000" xlink:href="#m3400efa6b1638b3fea9e19e898273957" x="73.125000" y="220.500000"/>
</g></g>
<g id="line2d53">
<g ><use style="fill: none; stroke: #000000; stroke-width: 0.500000; stroke-linejoin: round; stroke-linecap: butt;  opacity: 1.000000" xlink:href="#m20b58b2501143cb5e0a5e8f1ef6f1643" x="526.500000" y="220.500000"/>
</g></g>
<g id="text11">
<g style="fill: #000000; opacity: 1.000000" transform="translate(63.562500,224.953125)scale(0.120000)">
<use xlink:href="#c_ed3f3ed3ebfbd18bcb9c012009a68ad1"/>
</g>
</g>
</g>
<g id="ytick6">
<g id="line2d54">
<g ><use style="fill: none; stroke: #000000; stroke-width: 0.500000; stroke-linejoin: round; stroke-linecap: butt;  opacity: 1.000000" xlink:href="#m3400efa6b1638b3fea9e19e898273957" x="73.125000" y="176.400000"/>
</g></g>
<g id="line2d55">
<g ><use style="fill: none; stroke: #000000; stroke-width: 0.500000; stroke-linejoin: round; stroke-linecap: butt;  opacity: 1.000000" xlink:href="#m20b58b2501143cb5e0a5e8f1ef6f1643" x="526.500000" y="176.400000"/>
</g></g>
<g id="text12">
<g style="fill: #000000; opacity: 1.000000" transform="translate(62.750000,180.775000)scale(0.120000)">
<use xlink:href="#c_a0416418d96557a09b8c1332d34883ba"/>
</g>
</g>
</g>
<g id="ytick7">
<g id="line2d56">
<g ><use style="fill: none; stroke: #000000; stroke-width: 0.500000; stroke-linejoin: round; stroke-linecap: butt;  opacity: 1.000000" xlink:href="#m3400efa6b1638b3fea9e19e898273957" x="73.125000" y="132.300000"/>
</g></g>
<g id="line2d57">
<g ><use style="fill: none; stroke: #000000; stroke-width: 0.500000; stroke-linejoin: round; stroke-linecap: butt;  opacity: 1.000000" xlink:href="#m20b58b2501143cb5e0a5e8f1ef6f1643" x="526.500000" y="132.300000"/>
</g></g>
<g id="text13">
<g style="fill: #000000; opacity: 1.000000" transform="translate(63.093750,136.667187)scale(0.120000)">
<use xlink:href="#c_cc8d6d580d1b10c8632f7a42cd53db8a"/>
</g>
</g>
</g>
<g id="ytick8">
<g id="line2d58">
<g ><use style="fill: none; stroke: #000000; stroke-width: 0.500000; stroke-linejoin: round; stroke-linecap: butt;  opacity: 1.000000" xlink:href="#m3400efa6b1638b3fea9e19e898273957" x="73.125000" y="88.200000"/>
</g></g>
<g id="line2d59">
<g ><use style="fill: none; stroke: #000000; stroke-width: 0.500000; stroke-linejoin: round; stroke-linecap: butt;  opacity: 1.000000" xlink:href="#m20b58b2501143cb5e0a5e8f1ef6f1643" x="526.500000" y="88.200000"/>
</g></g>
<g id="text14">
<g style="fill: #000000; opacity: 1.000000" transform="translate(63.125000,92.567187)scale(0.120000)">
<use xlink:href="#c_bef35738d52871942e50b9de9b122bab"/>
</g>
</g>
</g>
<g id="ytick9">
<g id="line2d60">
<g ><use style="fill: none; stroke: #000000; stroke-width: 0.500000; stroke-linejoin: round; stroke-linecap: butt;  opacity: 1.000000" xlink:href="#m3400efa6b1638b3fea9e19e898273957" x="73.125000" y="44.100000"/>
</g></g>
<g id="line2d61">
<g ><use style="fill: none; stroke: #000000; stroke-width: 0.500000; stroke-linejoin: round; stroke-linecap: butt;  opacity: 1.000000" xlink:href="#m20b58b2501143cb5e0a5e8f1ef6f1643" x="526.500000" y="44.100000"/>
</g></g>
<g id="text15">
<g style="fill: #000000; opacity: 1.000000" transform="translate(55.953125,48.467187)scale(0.120000)">
<use xlink:href="#c_42baa63129a918535c52adb20d687ea7"/>
<use xlink:href="#c_7a2040fe3b94fcd41d0a72c84e93b115" x="63.623047"/>
</g>
</g>
</g>
</g>
<g id="patch3">
<path style="fill: none; stroke: #000000; stroke-width: 1.000000; stroke-linejoin: round; stroke-linecap: square;  opacity: 1.000000"  d="M73.125000 44.100000L526.500000 44.100000"/>
</g>
<g id="patch4">
<path style="fill: none; stroke: #000000; stroke-width: 1.000000; stroke-linejoin: round; stroke-linecap: square;  opacity: 1.000000"  d="M526.500000 396.900000L526.500000 44.100000"/>
</g>
<g id="patch5">
<path style="fill: none; stroke: #000000; stroke-width: 1.000000; stroke-linejoin: round; stroke-linecap: square;  opacity: 1.000000"  d="M73.125000 396.900000L526.500000 396.900000"/>
</g>
<g id="patch6">
<path style="fill: none; stroke: #000000; stroke-width: 1.000000; stroke-linejoin: round; stroke-linecap: square;  opacity: 1.000000"  d="M73.125000 396.900000L73.125000 44.100000"/>
</g>
</g>
</g>
</svg>
